<?xml version="1.0" encoding="UTF-8"?>
<svg width="43px" height="45px" viewBox="0 0 43 45" version="1.1" xmlns="http://www.w3.org/2000/svg" xmlns:xlink="http://www.w3.org/1999/xlink">
    <!-- Generator: Sketch 50.2 (55047) - http://www.bohemiancoding.com/sketch -->
    <title>logo</title>
    <desc>Created with Sketch.</desc>
    <defs></defs>
    <g id="Page-1" stroke="none" stroke-width="1" fill="none" fill-rule="evenodd">
        <g id="logo" transform="translate(-11.000000, -9.000000)">
            <path d="M16.2403295,35.0639268 C17.0509876,34.7012437 19.7287952,35.9909206 20.0263747,36.1981993 C20.3239541,36.405478 20.6748374,36.9000415 19.4837731,37.3231446 C18.2927087,37.7462477 17.0928232,37.1661759 16.8595766,37.3231446 C16.7093959,37.6120099 15.8264533,37.7628974 16.2403295,39.4448871 C16.6542057,41.1268769 17.3038948,41.9932043 18.1333521,42.4997584 C18.9628093,43.0063126 19.1160023,42.0755643 20.0263747,42.4997584 C20.936747,42.9239526 21.428479,44.1677109 21.7129816,44.1677109 C21.9974841,44.1677109 21.107513,42.7909847 21.7129816,42.4997584 C22.3184501,42.2085322 23.3329468,42.809524 23.5585569,43.2800017 C23.784167,43.7504794 22.8817243,43.9479511 22.8817243,44.9370048 C22.8817243,45.9260584 23.5585569,45.9294229 23.5585569,46.9666916 C23.5585569,48.0039602 23.2302782,48.7370542 22.8817243,49.0471753 C21.8751013,49.9428045 20.7709078,49.4144397 20.6115571,49.4546294 C20.2897657,49.535788 21.3975111,48.316707 21.3975111,47.5117264 C21.3975111,46.7067457 21.1461108,45.4175704 20.6115571,45.3061816 C20.0770034,45.1947929 19.1815928,44.7924609 18.8772537,45.3061816 C18.5729146,45.8199024 17.8143969,46.2406823 18.1333521,46.4472053 C18.4523072,46.6537283 18.9122655,45.621948 19.4837731,45.621948 C20.0552806,45.621948 20.343637,45.8070293 20.6115571,46.4472053 C20.8794773,47.0873813 20.9169634,47.5022903 20.6115571,48.316707 C20.3061508,49.1311238 20.4473255,49.1086629 19.4837731,49.4546294 C18.5202207,49.8005958 18.043324,49.4546294 17.4423258,49.4546294 C16.8413277,49.4546294 16.0218392,49.7791821 15.4296714,49.0471753 C15.0896149,48.4769017 15.466729,47.8920679 15.4296714,47.5117264 C15.3828501,47.0311759 15.2234572,46.6023327 15.9172571,46.1387743 C16.611057,45.6752159 17.9191325,46.0703573 17.4423258,45.621948 C16.9655191,45.1735388 15.8470771,46.1076458 15.4296714,45.621948 C15.0122656,45.1362502 15.6186754,44.6860291 15.4296714,43.2800017 C15.2406673,41.8739743 14.75,41.2373154 14.75,40.5657771 C14.75,39.8942389 14.75,40.0058878 14.75,39.0290484 C14.75,38.0522091 14.75,37.9691341 14.75,37.3231446 C14.75,36.6771551 14.8812548,36.4184929 15.2721892,35.8258683 C15.382402,35.6587946 15.3993005,35.6138229 15.4296714,35.4991189 C15.5070286,35.206958 15.6582134,35.3243617 16.2403295,35.0639268 Z M20.8672123,37.8184138 C21.5303457,38.2102268 21.2132394,39.4926032 22.3764646,40.4461716 C23.5396898,41.3997399 25.1265019,40.6245291 26.0594675,41.6295163 C26.9924332,42.6345035 25.1370546,42.2248944 24.777539,42.3666814 C24.4069505,42.5128353 24.5442573,42.7904704 24.1479087,42.720158 C23.7785782,42.6546386 23.6114302,42.2000299 23.4106394,42.1110103 C23.0862512,41.9671944 22.3764646,41.9003327 22.3764646,41.8044495 C22.2433869,41.6943224 22.1348101,41.3912831 21.8059204,40.9997817 C21.4770307,40.6082804 21.294954,40.564619 20.8672123,39.8264066 C20.331668,38.9021448 20.2639801,38.9651443 19.8597087,38.6659927 C18.8989664,37.9550653 18.391628,37.8184138 18.9943604,37.8184138 C20.2788953,37.8184138 20.2040788,37.4266008 20.8672123,37.8184138 Z M21.8308522,37.5337125 C21.997219,37.2770149 22.4296121,37.4105926 23.1280315,37.9344456 L24.3268905,39.0359261 L25.2598216,40.5381396 L23.3094277,40.0634093 L22.2847707,39.2355646 C21.8157915,38.3576942 21.6644853,37.7904102 21.8308522,37.5337125 Z M25.8417962,42.9090155 C25.8982348,42.4290623 26.686697,42.4345159 26.8968665,42.4345159 C27.0369795,42.4345159 27.2745222,42.6717226 27.6094946,43.146136 L27.9528615,44.0363526 C27.7856256,44.326511 27.5826897,44.5228872 27.3440539,44.6254813 C27.1054182,44.7280754 26.8515792,44.7280754 26.5825371,44.6254813 C26.0510842,43.8011395 25.8041706,43.2289842 25.8417962,42.9090155 Z M17.0212908,38.2497044 C17.1110494,37.7356352 17.3556739,37.531789 18.6886812,38.7132846 C20.0216885,39.8947802 21.4153287,41.2806781 20.9450848,41.7275137 C20.3772833,42.2670506 20.3772833,41.7573681 19.8099145,41.7275137 C19.2573963,41.6984408 18.6551058,41.9474732 18.0792849,41.4371011 C16.9121662,40.4026389 16.9315322,38.7637737 17.0212908,38.2497044 Z M24.1839105,44.7224703 C24.3917669,43.7903266 24.5426761,43.3800006 25.3664079,43.980356 C26.1901396,44.5807114 26.5506557,45.6116534 26.8424941,46.6601097 C27.1343324,47.7085659 27.7205847,48.4169208 26.8424941,49.2833323 C25.9644034,50.1497438 24.1821354,50.9197109 23.54532,49.8272393 C23.2115868,49.2547123 24.5173515,48.6829566 24.5838147,47.7560659 C24.6441736,46.9143031 24.0849845,45.1661094 24.1839105,44.7224703 Z M27.268221,45.3757169 C27.3213167,44.7140472 27.3342902,45.9289294 28.219244,44.829251 C28.8092132,44.0961321 29.3194652,45.5273192 29.75,49.1228123 C29.3589368,49.5324477 28.9417218,49.4025583 28.498355,48.7331442 C27.8333047,47.729023 27.2151254,46.0373866 27.268221,45.3757169 Z" id="Combined-Shape" fill="#4C6F94" transform="translate(22.250000, 42.682810) scale(-1, -1) translate(-22.250000, -42.682810) "></path>
            <path d="M36.7403295,35.0639268 C37.5509876,34.7012437 40.2287952,35.9909206 40.5263747,36.1981993 C40.8239541,36.405478 41.1748374,36.9000415 39.9837731,37.3231446 C38.7927087,37.7462477 37.5928232,37.1661759 37.3595766,37.3231446 C37.2093959,37.6120099 36.3264533,37.7628974 36.7403295,39.4448871 C37.1542057,41.1268769 37.8038948,41.9932043 38.6333521,42.4997584 C39.4628093,43.0063126 39.6160023,42.0755643 40.5263747,42.4997584 C41.436747,42.9239526 41.928479,44.1677109 42.2129816,44.1677109 C42.4974841,44.1677109 41.607513,42.7909847 42.2129816,42.4997584 C42.8184501,42.2085322 43.8329468,42.809524 44.0585569,43.2800017 C44.284167,43.7504794 43.3817243,43.9479511 43.3817243,44.9370048 C43.3817243,45.9260584 44.0585569,45.9294229 44.0585569,46.9666916 C44.0585569,48.0039602 43.7302782,48.7370542 43.3817243,49.0471753 C42.3751013,49.9428045 41.2709078,49.4144397 41.1115571,49.4546294 C40.7897657,49.535788 41.8975111,48.316707 41.8975111,47.5117264 C41.8975111,46.7067457 41.6461108,45.4175704 41.1115571,45.3061816 C40.5770034,45.1947929 39.6815928,44.7924609 39.3772537,45.3061816 C39.0729146,45.8199024 38.3143969,46.2406823 38.6333521,46.4472053 C38.9523072,46.6537283 39.4122655,45.621948 39.9837731,45.621948 C40.5552806,45.621948 40.843637,45.8070293 41.1115571,46.4472053 C41.3794773,47.0873813 41.4169634,47.5022903 41.1115571,48.316707 C40.8061508,49.1311238 40.9473255,49.1086629 39.9837731,49.4546294 C39.0202207,49.8005958 38.543324,49.4546294 37.9423258,49.4546294 C37.3413277,49.4546294 36.5218392,49.7791821 35.9296714,49.0471753 C35.5896149,48.4769017 35.966729,47.8920679 35.9296714,47.5117264 C35.8828501,47.0311759 35.7234572,46.6023327 36.4172571,46.1387743 C37.111057,45.6752159 38.4191325,46.0703573 37.9423258,45.621948 C37.4655191,45.1735388 36.3470771,46.1076458 35.9296714,45.621948 C35.5122656,45.1362502 36.1186754,44.6860291 35.9296714,43.2800017 C35.7406673,41.8739743 35.25,41.2373154 35.25,40.5657771 C35.25,39.8942389 35.25,40.0058878 35.25,39.0290484 C35.25,38.0522091 35.25,37.9691341 35.25,37.3231446 C35.25,36.6771551 35.3812548,36.4184929 35.7721892,35.8258683 C35.882402,35.6587946 35.8993005,35.6138229 35.9296714,35.4991189 C36.0070286,35.206958 36.1582134,35.3243617 36.7403295,35.0639268 Z M41.3672123,37.8184138 C42.0303457,38.2102268 41.7132394,39.4926032 42.8764646,40.4461716 C44.0396898,41.3997399 45.6265019,40.6245291 46.5594675,41.6295163 C47.4924332,42.6345035 45.6370546,42.2248944 45.277539,42.3666814 C44.9069505,42.5128353 45.0442573,42.7904704 44.6479087,42.720158 C44.2785782,42.6546386 44.1114302,42.2000299 43.9106394,42.1110103 C43.5862512,41.9671944 42.8764646,41.9003327 42.8764646,41.8044495 C42.7433869,41.6943224 42.6348101,41.3912831 42.3059204,40.9997817 C41.9770307,40.6082804 41.794954,40.564619 41.3672123,39.8264066 C40.831668,38.9021448 40.7639801,38.9651443 40.3597087,38.6659927 C39.3989664,37.9550653 38.891628,37.8184138 39.4943604,37.8184138 C40.7788953,37.8184138 40.7040788,37.4266008 41.3672123,37.8184138 Z M42.3308522,37.5337125 C42.497219,37.2770149 42.9296121,37.4105926 43.6280315,37.9344456 L44.8268905,39.0359261 L45.7598216,40.5381396 L43.8094277,40.0634093 L42.7847707,39.2355646 C42.3157915,38.3576942 42.1644853,37.7904102 42.3308522,37.5337125 Z M46.3417962,42.9090155 C46.3982348,42.4290623 47.186697,42.4345159 47.3968665,42.4345159 C47.5369795,42.4345159 47.7745222,42.6717226 48.1094946,43.146136 L48.4528615,44.0363526 C48.2856256,44.326511 48.0826897,44.5228872 47.8440539,44.6254813 C47.6054182,44.7280754 47.3515792,44.7280754 47.0825371,44.6254813 C46.5510842,43.8011395 46.3041706,43.2289842 46.3417962,42.9090155 Z M37.5212908,38.2497044 C37.6110494,37.7356352 37.8556739,37.531789 39.1886812,38.7132846 C40.5216885,39.8947802 41.9153287,41.2806781 41.4450848,41.7275137 C40.8772833,42.2670506 40.8772833,41.7573681 40.3099145,41.7275137 C39.7573963,41.6984408 39.1551058,41.9474732 38.5792849,41.4371011 C37.4121662,40.4026389 37.4315322,38.7637737 37.5212908,38.2497044 Z M44.6839105,44.7224703 C44.8917669,43.7903266 45.0426761,43.3800006 45.8664079,43.980356 C46.6901396,44.5807114 47.0506557,45.6116534 47.3424941,46.6601097 C47.6343324,47.7085659 48.2205847,48.4169208 47.3424941,49.2833323 C46.4644034,50.1497438 44.6821354,50.9197109 44.04532,49.8272393 C43.7115868,49.2547123 45.0173515,48.6829566 45.0838147,47.7560659 C45.1441736,46.9143031 44.5849845,45.1661094 44.6839105,44.7224703 Z M47.768221,45.3757169 C47.8213167,44.7140472 47.8342902,45.9289294 48.719244,44.829251 C49.3092132,44.0961321 49.8194652,45.5273192 50.25,49.1228123 C49.8589368,49.5324477 49.4417218,49.4025583 48.998355,48.7331442 C48.3333047,47.729023 47.7151254,46.0373866 47.768221,45.3757169 Z" id="Combined-Shape" fill="#496D92" transform="translate(42.750000, 42.682810) scale(1, -1) translate(-42.750000, -42.682810) "></path>
            <path d="M16.2403295,12.5639268 C17.0509876,12.2012437 19.7287952,13.4909206 20.0263747,13.6981993 C20.3239541,13.905478 20.6748374,14.4000415 19.4837731,14.8231446 C18.2927087,15.2462477 17.0928232,14.6661759 16.8595766,14.8231446 C16.7093959,15.1120099 15.8264533,15.2628974 16.2403295,16.9448871 C16.6542057,18.6268769 17.3038948,19.4932043 18.1333521,19.9997584 C18.9628093,20.5063126 19.1160023,19.5755643 20.0263747,19.9997584 C20.936747,20.4239526 21.428479,21.6677109 21.7129816,21.6677109 C21.9974841,21.6677109 21.107513,20.2909847 21.7129816,19.9997584 C22.3184501,19.7085322 23.3329468,20.309524 23.5585569,20.7800017 C23.784167,21.2504794 22.8817243,21.4479511 22.8817243,22.4370048 C22.8817243,23.4260584 23.5585569,23.4294229 23.5585569,24.4666916 C23.5585569,25.5039602 23.2302782,26.2370542 22.8817243,26.5471753 C21.8751013,27.4428045 20.7709078,26.9144397 20.6115571,26.9546294 C20.2897657,27.035788 21.3975111,25.816707 21.3975111,25.0117264 C21.3975111,24.2067457 21.1461108,22.9175704 20.6115571,22.8061816 C20.0770034,22.6947929 19.1815928,22.2924609 18.8772537,22.8061816 C18.5729146,23.3199024 17.8143969,23.7406823 18.1333521,23.9472053 C18.4523072,24.1537283 18.9122655,23.121948 19.4837731,23.121948 C20.0552806,23.121948 20.343637,23.3070293 20.6115571,23.9472053 C20.8794773,24.5873813 20.9169634,25.0022903 20.6115571,25.816707 C20.3061508,26.6311238 20.4473255,26.6086629 19.4837731,26.9546294 C18.5202207,27.3005958 18.043324,26.9546294 17.4423258,26.9546294 C16.8413277,26.9546294 16.0218392,27.2791821 15.4296714,26.5471753 C15.0896149,25.9769017 15.466729,25.3920679 15.4296714,25.0117264 C15.3828501,24.5311759 15.2234572,24.1023327 15.9172571,23.6387743 C16.611057,23.1752159 17.9191325,23.5703573 17.4423258,23.121948 C16.9655191,22.6735388 15.8470771,23.6076458 15.4296714,23.121948 C15.0122656,22.6362502 15.6186754,22.1860291 15.4296714,20.7800017 C15.2406673,19.3739743 14.75,18.7373154 14.75,18.0657771 C14.75,17.3942389 14.75,17.5058878 14.75,16.5290484 C14.75,15.5522091 14.75,15.4691341 14.75,14.8231446 C14.75,14.1771551 14.8812548,13.9184929 15.2721892,13.3258683 C15.382402,13.1587946 15.3993005,13.1138229 15.4296714,12.9991189 C15.5070286,12.706958 15.6582134,12.8243617 16.2403295,12.5639268 Z M20.8672123,15.3184138 C21.5303457,15.7102268 21.2132394,16.9926032 22.3764646,17.9461716 C23.5396898,18.8997399 25.1265019,18.1245291 26.0594675,19.1295163 C26.9924332,20.1345035 25.1370546,19.7248944 24.777539,19.8666814 C24.4069505,20.0128353 24.5442573,20.2904704 24.1479087,20.220158 C23.7785782,20.1546386 23.6114302,19.7000299 23.4106394,19.6110103 C23.0862512,19.4671944 22.3764646,19.4003327 22.3764646,19.3044495 C22.2433869,19.1943224 22.1348101,18.8912831 21.8059204,18.4997817 C21.4770307,18.1082804 21.294954,18.064619 20.8672123,17.3264066 C20.331668,16.4021448 20.2639801,16.4651443 19.8597087,16.1659927 C18.8989664,15.4550653 18.391628,15.3184138 18.9943604,15.3184138 C20.2788953,15.3184138 20.2040788,14.9266008 20.8672123,15.3184138 Z M21.8308522,15.0337125 C21.997219,14.7770149 22.4296121,14.9105926 23.1280315,15.4344456 L24.3268905,16.5359261 L25.2598216,18.0381396 L23.3094277,17.5634093 L22.2847707,16.7355646 C21.8157915,15.8576942 21.6644853,15.2904102 21.8308522,15.0337125 Z M25.8417962,20.4090155 C25.8982348,19.9290623 26.686697,19.9345159 26.8968665,19.9345159 C27.0369795,19.9345159 27.2745222,20.1717226 27.6094946,20.646136 L27.9528615,21.5363526 C27.7856256,21.826511 27.5826897,22.0228872 27.3440539,22.1254813 C27.1054182,22.2280754 26.8515792,22.2280754 26.5825371,22.1254813 C26.0510842,21.3011395 25.8041706,20.7289842 25.8417962,20.4090155 Z M17.0212908,15.7497044 C17.1110494,15.2356352 17.3556739,15.031789 18.6886812,16.2132846 C20.0216885,17.3947802 21.4153287,18.7806781 20.9450848,19.2275137 C20.3772833,19.7670506 20.3772833,19.2573681 19.8099145,19.2275137 C19.2573963,19.1984408 18.6551058,19.4474732 18.0792849,18.9371011 C16.9121662,17.9026389 16.9315322,16.2637737 17.0212908,15.7497044 Z M24.1839105,22.2224703 C24.3917669,21.2903266 24.5426761,20.8800006 25.3664079,21.480356 C26.1901396,22.0807114 26.5506557,23.1116534 26.8424941,24.1601097 C27.1343324,25.2085659 27.7205847,25.9169208 26.8424941,26.7833323 C25.9644034,27.6497438 24.1821354,28.4197109 23.54532,27.3272393 C23.2115868,26.7547123 24.5173515,26.1829566 24.5838147,25.2560659 C24.6441736,24.4143031 24.0849845,22.6661094 24.1839105,22.2224703 Z M27.268221,22.8757169 C27.3213167,22.2140472 27.3342902,23.4289294 28.219244,22.329251 C28.8092132,21.5961321 29.3194652,23.0273192 29.75,26.6228123 C29.3589368,27.0324477 28.9417218,26.9025583 28.498355,26.2331442 C27.8333047,25.229023 27.2151254,23.5373866 27.268221,22.8757169 Z" id="Combined-Shape" fill="#496D92" transform="translate(22.250000, 20.182810) scale(-1, 1) translate(-22.250000, -20.182810) "></path>
            <path d="M36.7403295,12.5639268 C37.5509876,12.2012437 40.2287952,13.4909206 40.5263747,13.6981993 C40.8239541,13.905478 41.1748374,14.4000415 39.9837731,14.8231446 C38.7927087,15.2462477 37.5928232,14.6661759 37.3595766,14.8231446 C37.2093959,15.1120099 36.3264533,15.2628974 36.7403295,16.9448871 C37.1542057,18.6268769 37.8038948,19.4932043 38.6333521,19.9997584 C39.4628093,20.5063126 39.6160023,19.5755643 40.5263747,19.9997584 C41.436747,20.4239526 41.928479,21.6677109 42.2129816,21.6677109 C42.4974841,21.6677109 41.607513,20.2909847 42.2129816,19.9997584 C42.8184501,19.7085322 43.8329468,20.309524 44.0585569,20.7800017 C44.284167,21.2504794 43.3817243,21.4479511 43.3817243,22.4370048 C43.3817243,23.4260584 44.0585569,23.4294229 44.0585569,24.4666916 C44.0585569,25.5039602 43.7302782,26.2370542 43.3817243,26.5471753 C42.3751013,27.4428045 41.2709078,26.9144397 41.1115571,26.9546294 C40.7897657,27.035788 41.8975111,25.816707 41.8975111,25.0117264 C41.8975111,24.2067457 41.6461108,22.9175704 41.1115571,22.8061816 C40.5770034,22.6947929 39.6815928,22.2924609 39.3772537,22.8061816 C39.0729146,23.3199024 38.3143969,23.7406823 38.6333521,23.9472053 C38.9523072,24.1537283 39.4122655,23.121948 39.9837731,23.121948 C40.5552806,23.121948 40.843637,23.3070293 41.1115571,23.9472053 C41.3794773,24.5873813 41.4169634,25.0022903 41.1115571,25.816707 C40.8061508,26.6311238 40.9473255,26.6086629 39.9837731,26.9546294 C39.0202207,27.3005958 38.543324,26.9546294 37.9423258,26.9546294 C37.3413277,26.9546294 36.5218392,27.2791821 35.9296714,26.5471753 C35.5896149,25.9769017 35.966729,25.3920679 35.9296714,25.0117264 C35.8828501,24.5311759 35.7234572,24.1023327 36.4172571,23.6387743 C37.111057,23.1752159 38.4191325,23.5703573 37.9423258,23.121948 C37.4655191,22.6735388 36.3470771,23.6076458 35.9296714,23.121948 C35.5122656,22.6362502 36.1186754,22.1860291 35.9296714,20.7800017 C35.7406673,19.3739743 35.25,18.7373154 35.25,18.0657771 C35.25,17.3942389 35.25,17.5058878 35.25,16.5290484 C35.25,15.5522091 35.25,15.4691341 35.25,14.8231446 C35.25,14.1771551 35.3812548,13.9184929 35.7721892,13.3258683 C35.882402,13.1587946 35.8993005,13.1138229 35.9296714,12.9991189 C36.0070286,12.706958 36.1582134,12.8243617 36.7403295,12.5639268 Z M41.3672123,15.3184138 C42.0303457,15.7102268 41.7132394,16.9926032 42.8764646,17.9461716 C44.0396898,18.8997399 45.6265019,18.1245291 46.5594675,19.1295163 C47.4924332,20.1345035 45.6370546,19.7248944 45.277539,19.8666814 C44.9069505,20.0128353 45.0442573,20.2904704 44.6479087,20.220158 C44.2785782,20.1546386 44.1114302,19.7000299 43.9106394,19.6110103 C43.5862512,19.4671944 42.8764646,19.4003327 42.8764646,19.3044495 C42.7433869,19.1943224 42.6348101,18.8912831 42.3059204,18.4997817 C41.9770307,18.1082804 41.794954,18.064619 41.3672123,17.3264066 C40.831668,16.4021448 40.7639801,16.4651443 40.3597087,16.1659927 C39.3989664,15.4550653 38.891628,15.3184138 39.4943604,15.3184138 C40.7788953,15.3184138 40.7040788,14.9266008 41.3672123,15.3184138 Z M42.3308522,15.0337125 C42.497219,14.7770149 42.9296121,14.9105926 43.6280315,15.4344456 L44.8268905,16.5359261 L45.7598216,18.0381396 L43.8094277,17.5634093 L42.7847707,16.7355646 C42.3157915,15.8576942 42.1644853,15.2904102 42.3308522,15.0337125 Z M46.3417962,20.4090155 C46.3982348,19.9290623 47.186697,19.9345159 47.3968665,19.9345159 C47.5369795,19.9345159 47.7745222,20.1717226 48.1094946,20.646136 L48.4528615,21.5363526 C48.2856256,21.826511 48.0826897,22.0228872 47.8440539,22.1254813 C47.6054182,22.2280754 47.3515792,22.2280754 47.0825371,22.1254813 C46.5510842,21.3011395 46.3041706,20.7289842 46.3417962,20.4090155 Z M37.5212908,15.7497044 C37.6110494,15.2356352 37.8556739,15.031789 39.1886812,16.2132846 C40.5216885,17.3947802 41.9153287,18.7806781 41.4450848,19.2275137 C40.8772833,19.7670506 40.8772833,19.2573681 40.3099145,19.2275137 C39.7573963,19.1984408 39.1551058,19.4474732 38.5792849,18.9371011 C37.4121662,17.9026389 37.4315322,16.2637737 37.5212908,15.7497044 Z M44.6839105,22.2224703 C44.8917669,21.2903266 45.0426761,20.8800006 45.8664079,21.480356 C46.6901396,22.0807114 47.0506557,23.1116534 47.3424941,24.1601097 C47.6343324,25.2085659 48.2205847,25.9169208 47.3424941,26.7833323 C46.4644034,27.6497438 44.6821354,28.4197109 44.04532,27.3272393 C43.7115868,26.7547123 45.0173515,26.1829566 45.0838147,25.2560659 C45.1441736,24.4143031 44.5849845,22.6661094 44.6839105,22.2224703 Z M47.768221,22.8757169 C47.8213167,22.2140472 47.8342902,23.4289294 48.719244,22.329251 C49.3092132,21.5961321 49.8194652,23.0273192 50.25,26.6228123 C49.8589368,27.0324477 49.4417218,26.9025583 48.998355,26.2331442 C48.3333047,25.229023 47.7151254,23.5373866 47.768221,22.8757169 Z" id="Combined-Shape" fill="#496D92"></path>
            <rect id="Rectangle-5" fill="#DCA92C" transform="translate(20.375000, 31.500000) rotate(90.000000) translate(-20.375000, -31.500000) " x="19.875" y="22.125" width="1" height="18.75" rx="0.5"></rect>
            <rect id="Rectangle-5" fill="#DCA92C" transform="translate(44.625000, 31.500000) rotate(90.000000) translate(-44.625000, -31.500000) " x="44.125" y="22.125" width="1" height="18.75" rx="0.5"></rect>
            <rect id="Rectangle-5" fill="#DCA92C" x="32" y="9.875" width="1" height="18.75" rx="0.5"></rect>
            <rect id="Rectangle-5" fill="#DCA92C" x="32" y="34.375" width="1" height="18.75" rx="0.5"></rect>
        </g>
    </g>
</svg>