<?xml version="1.0" encoding="UTF-8"?>
<svg width="1024px" height="1024px" viewBox="0 0 1024 1024" version="1.1" xmlns="http://www.w3.org/2000/svg" xmlns:xlink="http://www.w3.org/1999/xlink">
    <!-- Generator: Sketch 51.1 (57501) - http://www.bohemiancoding.com/sketch -->
    <title>container</title>
    <desc>Created with Sketch.</desc>
    <defs>
        <linearGradient x1="-56.2761215%" y1="45.5854808%" x2="100%" y2="74.3326569%" id="linearGradient-1">
            <stop stop-color="#D8FFEF" offset="0%"></stop>
            <stop stop-color="#83DEB9" offset="100%"></stop>
        </linearGradient>
        <filter x="-11.1%" y="-8.8%" width="126.0%" height="124.7%" filterUnits="objectBoundingBox" id="filter-2">
            <feOffset dx="8" dy="16" in="SourceAlpha" result="shadowOffsetOuter1"></feOffset>
            <feGaussianBlur stdDeviation="16" in="shadowOffsetOuter1" result="shadowBlurOuter1"></feGaussianBlur>
            <feColorMatrix values="0 0 0 0 0   0 0 0 0 0   0 0 0 0 0  0 0 0 0.1 0" type="matrix" in="shadowBlurOuter1" result="shadowMatrixOuter1"></feColorMatrix>
            <feMerge>
                <feMergeNode in="shadowMatrixOuter1"></feMergeNode>
                <feMergeNode in="SourceGraphic"></feMergeNode>
            </feMerge>
        </filter>
    </defs>
    <g id="Page-1" stroke="none" stroke-width="1" fill="none" fill-rule="evenodd">
        <g id="container" fill-rule="nonzero">
            <rect id="Rectangle-4" fill="url(#linearGradient-1)" x="0" y="0" width="1024" height="1024" rx="96"></rect>
            <g id="lock" filter="url(#filter-2)" transform="translate(296.000000, 285.000000)">
                <path d="M113.444928,142.36262 C113.156682,143.188407 113,144.075906 113,145 L113,206 L70,206 L70,144 C70,143.795056 70.0077065,143.591912 70.0228454,143.390842 C71.4148047,63.9610417 136.237951,0 216,0 C295.762049,0 360.585195,63.9610417 361.977154,143.390839 C361.992294,143.591912 362,143.795056 362,144 L362,206 L319,206 L319,145 C319,144.075906 318.843318,143.188407 318.555072,142.36262 C313.695864,89.9961937 269.635519,49 216,49 C162.364481,49 118.304136,89.9961937 113.444929,142.362617 Z" id="Combined-Shape" fill="#545454" opacity="0.595412908"></path>
                <rect id="Rectangle" fill="#FFBB58" x="0" y="220" width="431" height="234" rx="8"></rect>
                <path d="M193.923981,350.292794 C187.830629,344.801826 184,336.848259 184,328 C184,311.431458 197.431458,298 214,298 C230.568542,298 244,311.431458 244,328 C244,336.712195 240.286276,344.557002 234.355509,350.037741 L245.167969,415 L183,415 L193.923988,350.292801 Z" id="Combined-Shape" fill="#FFFFFF" opacity="0.801897321"></path>
                <polygon id="Triangle" fill-opacity="0.1" fill="#000000" points="431 220 431 454 215.5 454 215.5 220"></polygon>
            </g>
        </g>
    </g>
</svg>