<?xml version="1.0" encoding="UTF-8"?>
<svg width="1024px" height="1024px" viewBox="0 0 1024 1024" version="1.1" xmlns="http://www.w3.org/2000/svg" xmlns:xlink="http://www.w3.org/1999/xlink">
    <!-- Generator: Sketch 51.1 (57501) - http://www.bohemiancoding.com/sketch -->
    <title>container</title>
    <desc>Created with Sketch.</desc>
    <defs>
        <linearGradient x1="-24.4318018%" y1="24.264141%" x2="114.115012%" y2="78.4515854%" id="linearGradient-1">
            <stop stop-color="#B1F8DB" offset="0%"></stop>
            <stop stop-color="#E7D49E" offset="100%"></stop>
        </linearGradient>
        <filter x="-8.4%" y="-7.0%" width="118.6%" height="117.6%" filterUnits="objectBoundingBox" id="filter-2">
            <feOffset dx="4" dy="8" in="SourceAlpha" result="shadowOffsetOuter1"></feOffset>
            <feGaussianBlur stdDeviation="12" in="shadowOffsetOuter1" result="shadowBlurOuter1"></feGaussianBlur>
            <feColorMatrix values="0 0 0 0 0   0 0 0 0 0   0 0 0 0 0  0 0 0 0.1 0" type="matrix" in="shadowBlurOuter1" result="shadowMatrixOuter1"></feColorMatrix>
            <feMerge>
                <feMergeNode in="shadowMatrixOuter1"></feMergeNode>
                <feMergeNode in="SourceGraphic"></feMergeNode>
            </feMerge>
        </filter>
        <path d="M85.9226359,72.5114141 C92.4079009,69.6099493 113.830362,79.9273646 116.210997,81.5855944 C118.591633,83.2438242 121.398699,87.2003317 111.870185,90.5851568 C102.34167,93.969982 92.7425856,89.3294075 90.8766127,90.5851568 C89.6751673,92.896079 82.6116262,94.1031794 85.9226359,107.559097 C89.2336455,121.015015 94.4311587,127.945634 101.066817,131.998068 C107.702474,136.050501 108.928019,128.604515 116.210997,131.998068 C123.493976,135.39162 127.427832,145.341687 129.703852,145.341687 C131.979873,145.341687 124.860104,134.327877 129.703852,131.998068 C134.547601,129.668258 142.663575,134.476192 144.468455,138.240013 C146.273336,142.003835 139.053794,143.583609 139.053794,151.496038 C139.053794,159.408467 144.468455,159.435383 144.468455,167.733533 C144.468455,176.031682 141.842226,181.896434 139.053794,184.377403 C131.00081,191.542436 122.167262,187.315518 120.892457,187.637035 C118.318126,188.286304 127.180089,178.533656 127.180089,172.093811 C127.180089,165.653965 125.168887,155.340563 120.892457,154.449453 C116.616027,153.558343 109.452742,150.339687 107.018029,154.449453 C104.583316,158.559219 98.5151752,161.925458 101.066817,163.577642 C103.618458,165.229826 107.298124,156.975584 111.870185,156.975584 C116.442245,156.975584 118.749096,158.456235 120.892457,163.577642 C123.035818,168.69905 123.335707,172.018322 120.892457,178.533656 C118.449207,185.04899 119.578604,184.869303 111.870185,187.637035 C104.161765,190.404767 100.346592,187.637035 95.5386067,187.637035 C90.7306213,187.637035 84.1747136,190.233457 79.4373708,184.377403 C76.7169191,179.815214 79.7338321,175.136543 79.4373708,172.093811 C79.0628006,168.249407 77.7876579,164.818662 83.3380571,161.110195 C88.8884564,157.401727 99.3530602,160.562858 95.5386067,156.975584 C91.7241531,153.38831 82.7766169,160.861167 79.4373708,156.975584 C76.0981247,153.090002 80.9494029,149.488233 79.4373708,138.240013 C77.9253387,126.991794 74,121.898523 74,116.526217 C74,111.153911 74,112.047102 74,104.232387 C74,96.4176729 74,95.7530731 74,90.5851568 C74,85.4172406 75.0500382,83.3479435 78.1775136,78.6069462 C79.0592164,77.2703567 79.1944038,76.9105831 79.4373708,75.9929512 C80.0562285,73.6556643 81.265707,74.5948934 85.9226359,72.5114141 Z M122.937698,94.5473104 C128.242766,97.6818145 125.705915,107.940826 135.011717,115.569372 C144.317519,123.197919 157.012015,116.996233 164.47574,125.036131 C171.939466,133.076028 157.096436,129.799155 154.220312,130.933451 C151.255604,132.102683 152.354058,134.323763 149.18327,133.761264 C146.228625,133.237109 144.891441,129.60024 143.285115,128.888083 C140.69001,127.737555 135.011717,127.202661 135.011717,126.435596 C133.947095,125.554579 133.078481,123.130265 130.447363,119.998254 C127.816245,116.866243 126.359632,116.516952 122.937698,110.611253 C118.653344,103.217158 118.111841,103.721155 114.87767,101.327942 C107.191731,95.6405222 103.133024,94.5473104 107.954883,94.5473104 C118.231162,94.5473104 117.63263,91.4128062 122.937698,94.5473104 Z M130.646817,92.2697004 C131.977752,90.2161195 135.436897,91.2847409 141.024252,95.4755645 L150.615124,104.287409 L158.078573,116.305117 L142.475421,112.507275 L134.278166,105.884517 C130.526332,98.8615535 129.315883,94.3232813 130.646817,92.2697004 Z M162.73437,135.272124 C163.185878,131.432499 169.493576,131.476127 171.174932,131.476127 C172.295836,131.476127 174.196177,133.373781 176.875957,137.169088 L179.622892,144.29082 C178.285005,146.612088 176.661518,148.183098 174.752432,149.003851 C172.843345,149.824603 170.812634,149.824603 168.660297,149.003851 C164.408673,142.409116 162.433364,137.831874 162.73437,135.272124 Z M92.1703268,97.9976355 C92.8883956,93.8850812 94.8453908,92.2543121 105.509449,101.706277 C116.173508,111.158241 127.322629,122.245425 123.560678,125.82011 C119.018267,130.136405 119.018267,126.058945 114.479316,125.82011 C110.05917,125.587526 105.240846,127.579786 100.634279,123.496808 C91.2973295,115.221111 91.452258,102.11019 92.1703268,97.9976355 Z M149.471284,149.779762 C151.134135,142.322612 152.341409,139.040005 158.931263,143.842848 C165.521117,148.645692 168.405246,156.893227 170.739952,165.280877 C173.074659,173.668527 177.764678,179.335367 170.739952,186.266659 C163.715227,193.197951 149.457083,199.357687 144.36256,190.617914 C141.692695,186.037698 152.138812,181.463653 152.670517,174.048527 C153.153389,167.314425 148.679876,153.328875 149.471284,149.779762 Z M174.145768,155.005735 C174.570533,149.712378 174.674321,159.431435 181.753952,150.634008 C186.473705,144.769056 190.555721,156.218553 194,184.982499 C190.871495,188.259581 187.533775,187.220466 183.98684,181.865153 C178.666438,173.832184 173.721003,160.299093 174.145768,155.005735 Z" id="path-3"></path>
        <filter x="-3.8%" y="-2.8%" width="109.2%" height="108.9%" filterUnits="objectBoundingBox" id="filter-4">
            <feOffset dx="1" dy="2" in="SourceAlpha" result="shadowOffsetOuter1"></feOffset>
            <feGaussianBlur stdDeviation="1.5" in="shadowOffsetOuter1" result="shadowBlurOuter1"></feGaussianBlur>
            <feColorMatrix values="0 0 0 0 0   0 0 0 0 0   0 0 0 0 0  0 0 0 0.5 0" type="matrix" in="shadowBlurOuter1"></feColorMatrix>
        </filter>
        <path d="M840.922636,72.5114141 C847.407901,69.6099493 868.830362,79.9273646 871.210997,81.5855944 C873.591633,83.2438242 876.398699,87.2003317 866.870185,90.5851568 C857.34167,93.969982 847.742586,89.3294075 845.876613,90.5851568 C844.675167,92.896079 837.611626,94.1031794 840.922636,107.559097 C844.233645,121.015015 849.431159,127.945634 856.066817,131.998068 C862.702474,136.050501 863.928019,128.604515 871.210997,131.998068 C878.493976,135.39162 882.427832,145.341687 884.703852,145.341687 C886.979873,145.341687 879.860104,134.327877 884.703852,131.998068 C889.547601,129.668258 897.663575,134.476192 899.468455,138.240013 C901.273336,142.003835 894.053794,143.583609 894.053794,151.496038 C894.053794,159.408467 899.468455,159.435383 899.468455,167.733533 C899.468455,176.031682 896.842226,181.896434 894.053794,184.377403 C886.00081,191.542436 877.167262,187.315518 875.892457,187.637035 C873.318126,188.286304 882.180089,178.533656 882.180089,172.093811 C882.180089,165.653965 880.168887,155.340563 875.892457,154.449453 C871.616027,153.558343 864.452742,150.339687 862.018029,154.449453 C859.583316,158.559219 853.515175,161.925458 856.066817,163.577642 C858.618458,165.229826 862.298124,156.975584 866.870185,156.975584 C871.442245,156.975584 873.749096,158.456235 875.892457,163.577642 C878.035818,168.69905 878.335707,172.018322 875.892457,178.533656 C873.449207,185.04899 874.578604,184.869303 866.870185,187.637035 C859.161765,190.404767 855.346592,187.637035 850.538607,187.637035 C845.730621,187.637035 839.174714,190.233457 834.437371,184.377403 C831.716919,179.815214 834.733832,175.136543 834.437371,172.093811 C834.062801,168.249407 832.787658,164.818662 838.338057,161.110195 C843.888456,157.401727 854.35306,160.562858 850.538607,156.975584 C846.724153,153.38831 837.776617,160.861167 834.437371,156.975584 C831.098125,153.090002 835.949403,149.488233 834.437371,138.240013 C832.925339,126.991794 829,121.898523 829,116.526217 C829,111.153911 829,112.047102 829,104.232387 C829,96.4176729 829,95.7530731 829,90.5851568 C829,85.4172406 830.050038,83.3479435 833.177514,78.6069462 C834.059216,77.2703567 834.194404,76.9105831 834.437371,75.9929512 C835.056229,73.6556643 836.265707,74.5948934 840.922636,72.5114141 Z M877.937698,94.5473104 C883.242766,97.6818145 880.705915,107.940826 890.011717,115.569372 C899.317519,123.197919 912.012015,116.996233 919.47574,125.036131 C926.939466,133.076028 912.096436,129.799155 909.220312,130.933451 C906.255604,132.102683 907.354058,134.323763 904.18327,133.761264 C901.228625,133.237109 899.891441,129.60024 898.285115,128.888083 C895.69001,127.737555 890.011717,127.202661 890.011717,126.435596 C888.947095,125.554579 888.078481,123.130265 885.447363,119.998254 C882.816245,116.866243 881.359632,116.516952 877.937698,110.611253 C873.653344,103.217158 873.111841,103.721155 869.87767,101.327942 C862.191731,95.6405222 858.133024,94.5473104 862.954883,94.5473104 C873.231162,94.5473104 872.63263,91.4128062 877.937698,94.5473104 Z M885.646817,92.2697004 C886.977752,90.2161195 890.436897,91.2847409 896.024252,95.4755645 L905.615124,104.287409 L913.078573,116.305117 L897.475421,112.507275 L889.278166,105.884517 C885.526332,98.8615535 884.315883,94.3232813 885.646817,92.2697004 Z M917.73437,135.272124 C918.185878,131.432499 924.493576,131.476127 926.174932,131.476127 C927.295836,131.476127 929.196177,133.373781 931.875957,137.169088 L934.622892,144.29082 C933.285005,146.612088 931.661518,148.183098 929.752432,149.003851 C927.843345,149.824603 925.812634,149.824603 923.660297,149.003851 C919.408673,142.409116 917.433364,137.831874 917.73437,135.272124 Z M847.170327,97.9976355 C847.888396,93.8850812 849.845391,92.2543121 860.509449,101.706277 C871.173508,111.158241 882.322629,122.245425 878.560678,125.82011 C874.018267,130.136405 874.018267,126.058945 869.479316,125.82011 C865.05917,125.587526 860.240846,127.579786 855.634279,123.496808 C846.297329,115.221111 846.452258,102.11019 847.170327,97.9976355 Z M904.471284,149.779762 C906.134135,142.322612 907.341409,139.040005 913.931263,143.842848 C920.521117,148.645692 923.405246,156.893227 925.739952,165.280877 C928.074659,173.668527 932.764678,179.335367 925.739952,186.266659 C918.715227,193.197951 904.457083,199.357687 899.36256,190.617914 C896.692695,186.037698 907.138812,181.463653 907.670517,174.048527 C908.153389,167.314425 903.679876,153.328875 904.471284,149.779762 Z M929.145768,155.005735 C929.570533,149.712378 929.674321,159.431435 936.753952,150.634008 C941.473705,144.769056 945.555721,156.218553 949,184.982499 C945.871495,188.259581 942.533775,187.220466 938.98684,181.865153 C933.666438,173.832184 928.721003,160.299093 929.145768,155.005735 Z" id="path-5"></path>
        <filter x="-3.8%" y="-2.8%" width="109.2%" height="108.9%" filterUnits="objectBoundingBox" id="filter-6">
            <feOffset dx="1" dy="2" in="SourceAlpha" result="shadowOffsetOuter1"></feOffset>
            <feGaussianBlur stdDeviation="1.5" in="shadowOffsetOuter1" result="shadowBlurOuter1"></feGaussianBlur>
            <feColorMatrix values="0 0 0 0 0   0 0 0 0 0   0 0 0 0 0  0 0 0 0.5 0" type="matrix" in="shadowBlurOuter1"></feColorMatrix>
        </filter>
        <path d="M840.922636,825.511414 C847.407901,822.609949 868.830362,832.927365 871.210997,834.585594 C873.591633,836.243824 876.398699,840.200332 866.870185,843.585157 C857.34167,846.969982 847.742586,842.329408 845.876613,843.585157 C844.675167,845.896079 837.611626,847.103179 840.922636,860.559097 C844.233645,874.015015 849.431159,880.945634 856.066817,884.998068 C862.702474,889.050501 863.928019,881.604515 871.210997,884.998068 C878.493976,888.39162 882.427832,898.341687 884.703852,898.341687 C886.979873,898.341687 879.860104,887.327877 884.703852,884.998068 C889.547601,882.668258 897.663575,887.476192 899.468455,891.240013 C901.273336,895.003835 894.053794,896.583609 894.053794,904.496038 C894.053794,912.408467 899.468455,912.435383 899.468455,920.733533 C899.468455,929.031682 896.842226,934.896434 894.053794,937.377403 C886.00081,944.542436 877.167262,940.315518 875.892457,940.637035 C873.318126,941.286304 882.180089,931.533656 882.180089,925.093811 C882.180089,918.653965 880.168887,908.340563 875.892457,907.449453 C871.616027,906.558343 864.452742,903.339687 862.018029,907.449453 C859.583316,911.559219 853.515175,914.925458 856.066817,916.577642 C858.618458,918.229826 862.298124,909.975584 866.870185,909.975584 C871.442245,909.975584 873.749096,911.456235 875.892457,916.577642 C878.035818,921.69905 878.335707,925.018322 875.892457,931.533656 C873.449207,938.04899 874.578604,937.869303 866.870185,940.637035 C859.161765,943.404767 855.346592,940.637035 850.538607,940.637035 C845.730621,940.637035 839.174714,943.233457 834.437371,937.377403 C831.716919,932.815214 834.733832,928.136543 834.437371,925.093811 C834.062801,921.249407 832.787658,917.818662 838.338057,914.110195 C843.888456,910.401727 854.35306,913.562858 850.538607,909.975584 C846.724153,906.38831 837.776617,913.861167 834.437371,909.975584 C831.098125,906.090002 835.949403,902.488233 834.437371,891.240013 C832.925339,879.991794 829,874.898523 829,869.526217 C829,864.153911 829,865.047102 829,857.232387 C829,849.417673 829,848.753073 829,843.585157 C829,838.417241 830.050038,836.347944 833.177514,831.606946 C834.059216,830.270357 834.194404,829.910583 834.437371,828.992951 C835.056229,826.655664 836.265707,827.594893 840.922636,825.511414 Z M877.937698,847.54731 C883.242766,850.681815 880.705915,860.940826 890.011717,868.569372 C899.317519,876.197919 912.012015,869.996233 919.47574,878.036131 C926.939466,886.076028 912.096436,882.799155 909.220312,883.933451 C906.255604,885.102683 907.354058,887.323763 904.18327,886.761264 C901.228625,886.237109 899.891441,882.60024 898.285115,881.888083 C895.69001,880.737555 890.011717,880.202661 890.011717,879.435596 C888.947095,878.554579 888.078481,876.130265 885.447363,872.998254 C882.816245,869.866243 881.359632,869.516952 877.937698,863.611253 C873.653344,856.217158 873.111841,856.721155 869.87767,854.327942 C862.191731,848.640522 858.133024,847.54731 862.954883,847.54731 C873.231162,847.54731 872.63263,844.412806 877.937698,847.54731 Z M885.646817,845.2697 C886.977752,843.216119 890.436897,844.284741 896.024252,848.475565 L905.615124,857.287409 L913.078573,869.305117 L897.475421,865.507275 L889.278166,858.884517 C885.526332,851.861553 884.315883,847.323281 885.646817,845.2697 Z M917.73437,888.272124 C918.185878,884.432499 924.493576,884.476127 926.174932,884.476127 C927.295836,884.476127 929.196177,886.373781 931.875957,890.169088 L934.622892,897.29082 C933.285005,899.612088 931.661518,901.183098 929.752432,902.003851 C927.843345,902.824603 925.812634,902.824603 923.660297,902.003851 C919.408673,895.409116 917.433364,890.831874 917.73437,888.272124 Z M847.170327,850.997635 C847.888396,846.885081 849.845391,845.254312 860.509449,854.706277 C871.173508,864.158241 882.322629,875.245425 878.560678,878.82011 C874.018267,883.136405 874.018267,879.058945 869.479316,878.82011 C865.05917,878.587526 860.240846,880.579786 855.634279,876.496808 C846.297329,868.221111 846.452258,855.11019 847.170327,850.997635 Z M904.471284,902.779762 C906.134135,895.322612 907.341409,892.040005 913.931263,896.842848 C920.521117,901.645692 923.405246,909.893227 925.739952,918.280877 C928.074659,926.668527 932.764678,932.335367 925.739952,939.266659 C918.715227,946.197951 904.457083,952.357687 899.36256,943.617914 C896.692695,939.037698 907.138812,934.463653 907.670517,927.048527 C908.153389,920.314425 903.679876,906.328875 904.471284,902.779762 Z M929.145768,908.005735 C929.570533,902.712378 929.674321,912.431435 936.753952,903.634008 C941.473705,897.769056 945.555721,909.218553 949,937.982499 C945.871495,941.259581 942.533775,940.220466 938.98684,934.865153 C933.666438,926.832184 928.721003,913.299093 929.145768,908.005735 Z" id="path-7"></path>
        <filter x="-3.8%" y="-2.8%" width="109.2%" height="108.9%" filterUnits="objectBoundingBox" id="filter-8">
            <feOffset dx="1" dy="2" in="SourceAlpha" result="shadowOffsetOuter1"></feOffset>
            <feGaussianBlur stdDeviation="1.5" in="shadowOffsetOuter1" result="shadowBlurOuter1"></feGaussianBlur>
            <feColorMatrix values="0 0 0 0 0   0 0 0 0 0   0 0 0 0 0  0 0 0 0.5 0" type="matrix" in="shadowBlurOuter1"></feColorMatrix>
        </filter>
        <path d="M85.9226359,825.511414 C92.4079009,822.609949 113.830362,832.927365 116.210997,834.585594 C118.591633,836.243824 121.398699,840.200332 111.870185,843.585157 C102.34167,846.969982 92.7425856,842.329408 90.8766127,843.585157 C89.6751673,845.896079 82.6116262,847.103179 85.9226359,860.559097 C89.2336455,874.015015 94.4311587,880.945634 101.066817,884.998068 C107.702474,889.050501 108.928019,881.604515 116.210997,884.998068 C123.493976,888.39162 127.427832,898.341687 129.703852,898.341687 C131.979873,898.341687 124.860104,887.327877 129.703852,884.998068 C134.547601,882.668258 142.663575,887.476192 144.468455,891.240013 C146.273336,895.003835 139.053794,896.583609 139.053794,904.496038 C139.053794,912.408467 144.468455,912.435383 144.468455,920.733533 C144.468455,929.031682 141.842226,934.896434 139.053794,937.377403 C131.00081,944.542436 122.167262,940.315518 120.892457,940.637035 C118.318126,941.286304 127.180089,931.533656 127.180089,925.093811 C127.180089,918.653965 125.168887,908.340563 120.892457,907.449453 C116.616027,906.558343 109.452742,903.339687 107.018029,907.449453 C104.583316,911.559219 98.5151752,914.925458 101.066817,916.577642 C103.618458,918.229826 107.298124,909.975584 111.870185,909.975584 C116.442245,909.975584 118.749096,911.456235 120.892457,916.577642 C123.035818,921.69905 123.335707,925.018322 120.892457,931.533656 C118.449207,938.04899 119.578604,937.869303 111.870185,940.637035 C104.161765,943.404767 100.346592,940.637035 95.5386067,940.637035 C90.7306213,940.637035 84.1747136,943.233457 79.4373708,937.377403 C76.7169191,932.815214 79.7338321,928.136543 79.4373708,925.093811 C79.0628006,921.249407 77.7876579,917.818662 83.3380571,914.110195 C88.8884564,910.401727 99.3530602,913.562858 95.5386067,909.975584 C91.7241531,906.38831 82.7766169,913.861167 79.4373708,909.975584 C76.0981247,906.090002 80.9494029,902.488233 79.4373708,891.240013 C77.9253387,879.991794 74,874.898523 74,869.526217 C74,864.153911 74,865.047102 74,857.232387 C74,849.417673 74,848.753073 74,843.585157 C74,838.417241 75.0500382,836.347944 78.1775136,831.606946 C79.0592164,830.270357 79.1944038,829.910583 79.4373708,828.992951 C80.0562285,826.655664 81.265707,827.594893 85.9226359,825.511414 Z M122.937698,847.54731 C128.242766,850.681815 125.705915,860.940826 135.011717,868.569372 C144.317519,876.197919 157.012015,869.996233 164.47574,878.036131 C171.939466,886.076028 157.096436,882.799155 154.220312,883.933451 C151.255604,885.102683 152.354058,887.323763 149.18327,886.761264 C146.228625,886.237109 144.891441,882.60024 143.285115,881.888083 C140.69001,880.737555 135.011717,880.202661 135.011717,879.435596 C133.947095,878.554579 133.078481,876.130265 130.447363,872.998254 C127.816245,869.866243 126.359632,869.516952 122.937698,863.611253 C118.653344,856.217158 118.111841,856.721155 114.87767,854.327942 C107.191731,848.640522 103.133024,847.54731 107.954883,847.54731 C118.231162,847.54731 117.63263,844.412806 122.937698,847.54731 Z M130.646817,845.2697 C131.977752,843.216119 135.436897,844.284741 141.024252,848.475565 L150.615124,857.287409 L158.078573,869.305117 L142.475421,865.507275 L134.278166,858.884517 C130.526332,851.861553 129.315883,847.323281 130.646817,845.2697 Z M162.73437,888.272124 C163.185878,884.432499 169.493576,884.476127 171.174932,884.476127 C172.295836,884.476127 174.196177,886.373781 176.875957,890.169088 L179.622892,897.29082 C178.285005,899.612088 176.661518,901.183098 174.752432,902.003851 C172.843345,902.824603 170.812634,902.824603 168.660297,902.003851 C164.408673,895.409116 162.433364,890.831874 162.73437,888.272124 Z M92.1703268,850.997635 C92.8883956,846.885081 94.8453908,845.254312 105.509449,854.706277 C116.173508,864.158241 127.322629,875.245425 123.560678,878.82011 C119.018267,883.136405 119.018267,879.058945 114.479316,878.82011 C110.05917,878.587526 105.240846,880.579786 100.634279,876.496808 C91.2973295,868.221111 91.452258,855.11019 92.1703268,850.997635 Z M149.471284,902.779762 C151.134135,895.322612 152.341409,892.040005 158.931263,896.842848 C165.521117,901.645692 168.405246,909.893227 170.739952,918.280877 C173.074659,926.668527 177.764678,932.335367 170.739952,939.266659 C163.715227,946.197951 149.457083,952.357687 144.36256,943.617914 C141.692695,939.037698 152.138812,934.463653 152.670517,927.048527 C153.153389,920.314425 148.679876,906.328875 149.471284,902.779762 Z M174.145768,908.005735 C174.570533,902.712378 174.674321,912.431435 181.753952,903.634008 C186.473705,897.769056 190.555721,909.218553 194,937.982499 C190.871495,941.259581 187.533775,940.220466 183.98684,934.865153 C178.666438,926.832184 173.721003,913.299093 174.145768,908.005735 Z" id="path-9"></path>
        <filter x="-3.8%" y="-2.8%" width="109.2%" height="108.9%" filterUnits="objectBoundingBox" id="filter-10">
            <feOffset dx="1" dy="2" in="SourceAlpha" result="shadowOffsetOuter1"></feOffset>
            <feGaussianBlur stdDeviation="1.5" in="shadowOffsetOuter1" result="shadowBlurOuter1"></feGaussianBlur>
            <feColorMatrix values="0 0 0 0 0   0 0 0 0 0   0 0 0 0 0  0 0 0 0.5 0" type="matrix" in="shadowBlurOuter1"></feColorMatrix>
        </filter>
    </defs>
    <g id="Page-1" stroke="none" stroke-width="1" fill="none" fill-rule="evenodd">
        <g id="container">
            <rect id="Rectangle-4" fill="url(#linearGradient-1)" fill-rule="nonzero" x="0" y="0" width="1024" height="1024" rx="96"></rect>
            <g id="lock" filter="url(#filter-2)" transform="translate(296.000000, 285.000000)" fill-rule="nonzero">
                <path d="M113.444928,142.36262 C113.156682,143.188407 113,144.075906 113,145 L113,206 L70,206 L70,144 C70,143.795056 70.0077065,143.591912 70.0228454,143.390842 C71.4148047,63.9610417 136.237951,0 216,0 C295.762049,0 360.585195,63.9610417 361.977154,143.390839 C361.992294,143.591912 362,143.795056 362,144 L362,206 L319,206 L319,145 C319,144.075906 318.843318,143.188407 318.555072,142.36262 C313.695864,89.9961937 269.635519,49 216,49 C162.364481,49 118.304136,89.9961937 113.444929,142.362617 Z" id="Combined-Shape" fill="#545454" opacity="0.595412908"></path>
                <rect id="Rectangle" fill="#FFBB58" x="0" y="220" width="431" height="234" rx="8"></rect>
                <path d="M193.923981,350.292794 C187.830629,344.801826 184,336.848259 184,328 C184,311.431458 197.431458,298 214,298 C230.568542,298 244,311.431458 244,328 C244,336.712195 240.286276,344.557002 234.355509,350.037741 L245.167969,415 L183,415 L193.923988,350.292801 Z" id="Combined-Shape" fill="#FFFFFF" opacity="0.801897321"></path>
                <polygon id="Triangle" fill-opacity="0.15" fill="#000000" points="431 220 431 454 215.5 454 215.5 220"></polygon>
            </g>
            <g id="Combined-Shape" transform="translate(134.000000, 133.462484) scale(1, -1) translate(-134.000000, -133.462484) ">
                <use fill="black" fill-opacity="1" filter="url(#filter-4)" xlink:href="#path-3"></use>
                <use fill="#FFFFFF" fill-rule="evenodd" xlink:href="#path-3"></use>
            </g>
            <g id="Combined-Shape" transform="translate(889.000000, 133.462484) scale(-1, -1) translate(-889.000000, -133.462484) ">
                <use fill="black" fill-opacity="1" filter="url(#filter-6)" xlink:href="#path-5"></use>
                <use fill="#FFFFFF" fill-rule="evenodd" xlink:href="#path-5"></use>
            </g>
            <g id="Combined-Shape" transform="translate(889.000000, 886.462484) scale(-1, 1) translate(-889.000000, -886.462484) ">
                <use fill="black" fill-opacity="1" filter="url(#filter-8)" xlink:href="#path-7"></use>
                <use fill="#FFFFFF" fill-rule="evenodd" xlink:href="#path-7"></use>
            </g>
            <g id="Combined-Shape">
                <use fill="black" fill-opacity="1" filter="url(#filter-10)" xlink:href="#path-9"></use>
                <use fill="#FFFFFF" fill-rule="evenodd" xlink:href="#path-9"></use>
            </g>
        </g>
    </g>
</svg>