<?xml version="1.0" encoding="UTF-8"?>
<svg width="150px" height="150px" viewBox="0 0 150 150" version="1.1" xmlns="http://www.w3.org/2000/svg" xmlns:xlink="http://www.w3.org/1999/xlink">
    <!-- Generator: Sketch 50.2 (55047) - http://www.bohemiancoding.com/sketch -->
    <title>logo</title>
    <desc>Created with Sketch.</desc>
    <defs>
        <radialGradient cx="50%" cy="50%" fx="50%" fy="50%" r="50%" id="radialGradient-1">
            <stop stop-color="#FFFFFF" offset="0%"></stop>
            <stop stop-color="#FDF4DA" offset="100%"></stop>
        </radialGradient>
    </defs>
    <g id="Page-1" stroke="none" stroke-width="1" fill="none" fill-rule="evenodd">
        <g id="logo">
            <rect id="Rectangle" fill="url(#radialGradient-1)" x="0" y="0" width="150" height="150" rx="24"></rect>
            <g id="icon" transform="translate(30.000000, 30.000000)">
                <path d="M8.35288822,54.1774118 C10.1828163,53.3587141 16.2275286,56.2699486 16.8992656,56.7378464 C17.5710026,57.2057442 18.3630641,58.3221402 15.6744313,59.2772263 C12.9857985,60.2323125 10.2772533,58.9228953 9.75073722,59.2772263 C9.41172893,59.9292924 7.41863043,60.2698964 8.35288822,64.0667129 C9.28714602,67.8635294 10.753713,69.8191217 12.6260769,70.9625849 C14.4984409,72.106048 14.844249,70.0050361 16.8992656,70.9625849 C18.9542822,71.9201337 20.0642866,74.7277145 20.7065046,74.7277145 C21.3487227,74.7277145 19.3397586,71.6199804 20.7065046,70.9625849 C22.0732507,70.3051893 24.3633111,71.6618299 24.872589,72.7238563 C25.3818669,73.7858827 23.3447501,74.2316428 23.3447501,76.4642696 C23.3447501,78.6968964 24.872589,78.7044911 24.872589,81.0459554 C24.872589,83.3874197 24.1315536,85.0422593 23.3447501,85.742307 C21.0724634,87.7640432 18.5799273,86.5713462 18.2202192,86.6620678 C17.4938279,86.8452701 19.9943816,84.0933944 19.9943816,82.2762822 C19.9943816,80.4591701 19.4268868,77.5490678 18.2202192,77.297626 C17.0135516,77.0461841 14.9923087,76.1379855 14.305313,77.297626 C13.6183173,78.4572665 11.9060878,79.4071082 12.6260769,79.8733001 C13.346066,80.339492 14.3843466,78.0104169 15.6744313,78.0104169 C16.9645161,78.0104169 17.6154333,78.4282076 18.2202192,79.8733001 C18.8250051,81.3183926 18.9096239,82.2549819 18.2202192,84.0933944 C17.5308145,85.9318069 17.8494932,85.8811051 15.6744313,86.6620678 C13.4993694,87.4430305 12.4228533,86.6620678 11.0661983,86.6620678 C9.70954325,86.6620678 7.85968215,87.3946926 6.52296016,85.742307 C5.75533834,84.4550076 6.60661177,83.134841 6.52296016,82.2762822 C6.4172688,81.1915183 6.05746554,80.223475 7.62360528,79.1770677 C9.18974502,78.1306604 12.1425113,79.0226274 11.0661983,78.0104169 C9.9898852,76.9982064 7.46518536,79.1068002 6.52296016,78.0104169 C5.58073496,76.9140335 6.94960577,75.8977331 6.52296016,72.7238563 C6.09631455,69.5499795 4.98871332,68.1128263 4.98871332,66.5969386 C4.98871332,65.0810509 4.98871332,65.3330799 4.98871332,63.1280251 C4.98871332,60.9229702 4.98871332,60.735442 4.98871332,59.2772263 C4.98871332,57.8190107 5.28499949,57.2351233 6.16746997,55.8973701 C6.41625744,55.5202286 6.45440288,55.4187123 6.52296016,55.1597868 C6.69758142,54.5002815 7.03885637,54.765301 8.35288822,54.1774118 Z M18.7973189,60.3952155 C20.2942342,61.2796693 19.5784185,64.1744241 22.2042091,66.3269486 C24.8299997,68.479473 28.4119682,66.7295616 30.5179854,68.9981558 C32.6240027,71.2667499 28.4357891,70.3421244 27.6242416,70.6621852 C26.7876986,70.9921039 27.0976462,71.6188195 26.2029542,71.4601008 C25.369251,71.3122015 24.9919417,70.2859969 24.5386893,70.0850497 C23.8064361,69.7604088 22.2042091,69.6094793 22.2042091,69.3930388 C21.9038078,69.1444449 21.6587136,68.4603831 20.9162989,67.576633 C20.1738842,66.6928828 19.7628758,66.5943242 18.7973189,64.9279307 C17.5884154,62.8415608 17.4356211,62.983772 16.5230446,62.3084862 C14.354326,60.7036838 13.2090926,60.3952155 14.5696623,60.3952155 C17.4692896,60.3952155 17.3004035,59.5107617 18.7973189,60.3952155 Z M20.9725782,59.752549 C21.3481241,59.1730962 22.3241808,59.4746259 23.9007484,60.6571382 L26.6069762,63.1435503 L28.7129156,66.5345515 L24.3102205,65.4629255 L21.9972251,63.5942016 C20.9385813,61.6125527 20.5970324,60.3320019 20.9725782,59.752549 Z M30.0266281,71.8864157 C30.1540288,70.803 31.9338532,70.8153106 32.4082765,70.8153106 C32.7245587,70.8153106 33.2607724,71.3507659 34.0169178,72.4216765 L34.7920124,74.4311946 C34.4145047,75.0861798 33.9564102,75.529467 33.417729,75.7610564 C32.8790478,75.9926458 32.3060479,75.9926458 31.6987294,75.7610564 C30.4990614,73.9002397 29.9416943,72.6086928 30.0266281,71.8864157 Z M10.1157807,61.3687835 C10.318396,60.2083563 10.8705956,59.748207 13.8796414,62.4152398 C16.8886873,65.0822727 20.034602,68.2107106 18.9731034,69.2193688 C17.6913845,70.4372851 17.6913845,69.2867602 16.4106421,69.2193688 C15.1634228,69.1537414 13.8038505,69.7158914 12.5040292,68.5638098 C9.86944962,66.2286807 9.91316534,62.5292108 10.1157807,61.3687835 Z M26.2842223,75.9799931 C26.7534241,73.8758312 27.0940771,72.9495875 28.9535166,74.3047916 C30.8129562,75.6599957 31.6267623,77.9871785 32.2855396,80.3538969 C32.9443169,82.7206154 34.2676857,84.3196106 32.2855396,86.2753928 C30.3033936,88.2311749 26.2802153,89.9692496 24.8427088,87.5031737 C24.0893608,86.2107877 27.0369109,84.9201429 27.1869405,82.8278386 C27.3231911,80.9276969 26.0609131,76.9814358 26.2842223,75.9799931 Z M33.2465486,77.4545905 C33.3664033,75.9609795 33.3956888,78.7033771 35.3933272,76.2210331 C36.7250861,74.5661371 37.8768965,77.7968078 38.8487585,85.9130451 C37.9659974,86.8377299 37.0242028,86.5445258 36.0233747,85.0334331 C34.5221326,82.7667939 33.126694,78.9482016 33.2465486,77.4545905 Z" id="Combined-Shape" fill="#456587" transform="translate(21.918736, 71.375795) scale(-1, -1) translate(-21.918736, -71.375795) "></path>
                <path d="M54.6282833,54.1774118 C56.4582113,53.3587141 62.5029237,56.2699486 63.1746606,56.7378464 C63.8463976,57.2057442 64.6384592,58.3221402 61.9498264,59.2772263 C59.2611936,60.2323125 56.5526483,58.9228953 56.0261323,59.2772263 C55.687124,59.9292924 53.6940255,60.2698964 54.6282833,64.0667129 C55.5625411,67.8635294 57.029108,69.8191217 58.901472,70.9625849 C60.7738359,72.106048 61.1196441,70.0050361 63.1746606,70.9625849 C65.2296772,71.9201337 66.3396817,74.7277145 66.9818997,74.7277145 C67.6241177,74.7277145 65.6151536,71.6199804 66.9818997,70.9625849 C68.3486457,70.3051893 70.6387061,71.6618299 71.147984,72.7238563 C71.6572619,73.7858827 69.6201451,74.2316428 69.6201451,76.4642696 C69.6201451,78.6968964 71.147984,78.7044911 71.147984,81.0459554 C71.147984,83.3874197 70.4069486,85.0422593 69.6201451,85.742307 C67.3478584,87.7640432 64.8553223,86.5713462 64.4956142,86.6620678 C63.7692229,86.8452701 66.2697767,84.0933944 66.2697767,82.2762822 C66.2697767,80.4591701 65.7022818,77.5490678 64.4956142,77.297626 C63.2889466,77.0461841 61.2677037,76.1379855 60.580708,77.297626 C59.8937123,78.4572665 58.1814829,79.4071082 58.901472,79.8733001 C59.621461,80.339492 60.6597416,78.0104169 61.9498264,78.0104169 C63.2399111,78.0104169 63.8908283,78.4282076 64.4956142,79.8733001 C65.1004001,81.3183926 65.1850189,82.2549819 64.4956142,84.0933944 C63.8062095,85.9318069 64.1248882,85.8811051 61.9498264,86.6620678 C59.7747645,87.4430305 58.6982483,86.6620678 57.3415933,86.6620678 C55.9849383,86.6620678 54.1350772,87.3946926 52.7983552,85.742307 C52.0307334,84.4550076 52.8820068,83.134841 52.7983552,82.2762822 C52.6926638,81.1915183 52.3328606,80.223475 53.8990003,79.1770677 C55.4651401,78.1306604 58.4179064,79.0226274 57.3415933,78.0104169 C56.2652802,76.9982064 53.7405804,79.1068002 52.7983552,78.0104169 C51.85613,76.9140335 53.2250008,75.8977331 52.7983552,72.7238563 C52.3717096,69.5499795 51.2641084,68.1128263 51.2641084,66.5969386 C51.2641084,65.0810509 51.2641084,65.3330799 51.2641084,63.1280251 C51.2641084,60.9229702 51.2641084,60.735442 51.2641084,59.2772263 C51.2641084,57.8190107 51.5603945,57.2351233 52.442865,55.8973701 C52.6916525,55.5202286 52.7297979,55.4187123 52.7983552,55.1597868 C52.9729765,54.5002815 53.3142514,54.765301 54.6282833,54.1774118 Z M65.0727139,60.3952155 C66.5696292,61.2796693 65.8538135,64.1744241 68.4796041,66.3269486 C71.1053947,68.479473 74.6873632,66.7295616 76.7933805,68.9981558 C78.8993977,71.2667499 74.7111841,70.3421244 73.8996366,70.6621852 C73.0630937,70.9921039 73.3730412,71.6188195 72.4783492,71.4601008 C71.644646,71.3122015 71.2673368,70.2859969 70.8140844,70.0850497 C70.0818311,69.7604088 68.4796041,69.6094793 68.4796041,69.3930388 C68.1792028,69.1444449 67.9341086,68.4603831 67.1916939,67.576633 C66.4492792,66.6928828 66.0382708,66.5943242 65.0727139,64.9279307 C63.8638104,62.8415608 63.7110161,62.983772 62.7984396,62.3084862 C60.629721,60.7036838 59.4844876,60.3952155 60.8450574,60.3952155 C63.7446846,60.3952155 63.5757986,59.5107617 65.0727139,60.3952155 Z M67.2479733,59.752549 C67.6235191,59.1730962 68.5995759,59.4746259 70.1761434,60.6571382 L72.8823712,63.1435503 L74.9883106,66.5345515 L70.5856155,65.4629255 L68.2726202,63.5942016 C67.2139764,61.6125527 66.8724274,60.3320019 67.2479733,59.752549 Z M76.3020231,71.8864157 C76.4294238,70.803 78.2092483,70.8153106 78.6836715,70.8153106 C78.9999537,70.8153106 79.5361675,71.3507659 80.2923128,72.4216765 L81.0674075,74.4311946 C80.6898997,75.0861798 80.2318052,75.529467 79.693124,75.7610564 C79.1544428,75.9926458 78.581443,75.9926458 77.9741244,75.7610564 C76.7744564,73.9002397 76.2170893,72.6086928 76.3020231,71.8864157 Z M56.3911757,61.3687835 C56.5937911,60.2083563 57.1459906,59.748207 60.1550365,62.4152398 C63.1640823,65.0822727 66.309997,68.2107106 65.2484984,69.2193688 C63.9667795,70.4372851 63.9667795,69.2867602 62.6860372,69.2193688 C61.4388178,69.1537414 60.0792456,69.7158914 58.7794242,68.5638098 C56.1448447,66.2286807 56.1885604,62.5292108 56.3911757,61.3687835 Z M72.5596173,75.9799931 C73.0288191,73.8758312 73.3694721,72.9495875 75.2289117,74.3047916 C77.0883513,75.6599957 77.9021574,77.9871785 78.5609347,80.3538969 C79.219712,82.7206154 80.5430807,84.3196106 78.5609347,86.2753928 C76.5787887,88.2311749 72.5556103,89.9692496 71.1181038,87.5031737 C70.3647558,86.2107877 73.3123059,84.9201429 73.4623356,82.8278386 C73.5985861,80.9276969 72.3363081,76.9814358 72.5596173,75.9799931 Z M79.5219437,77.4545905 C79.6417984,75.9609795 79.6710839,78.7033771 81.6687222,76.2210331 C83.0004812,74.5661371 84.1522916,77.7968078 85.1241535,85.9130451 C84.2413924,86.8377299 83.2995978,86.5445258 82.2987697,85.0334331 C80.7975276,82.7667939 79.402089,78.9482016 79.5219437,77.4545905 Z" id="Combined-Shape" fill="#456587" transform="translate(68.194131, 71.375795) scale(1, -1) translate(-68.194131, -71.375795) "></path>
                <path d="M8.35288822,3.38734409 C10.1828163,2.56864634 16.2275286,5.4798809 16.8992656,5.94777871 C17.5710026,6.41567652 18.3630641,7.53207252 15.6744313,8.48715862 C12.9857985,9.44224473 10.2772533,8.13282755 9.75073722,8.48715862 C9.41172893,9.13922469 7.41863043,9.47982864 8.35288822,13.2766452 C9.28714602,17.0734617 10.753713,19.029054 12.6260769,20.1725172 C14.4984409,21.3159803 14.844249,19.2149684 16.8992656,20.1725172 C18.9542822,21.130066 20.0642866,23.9376468 20.7065046,23.9376468 C21.3487227,23.9376468 19.3397586,20.8299127 20.7065046,20.1725172 C22.0732507,19.5151216 24.3633111,20.8717622 24.872589,21.9337886 C25.3818669,22.995815 23.3447501,23.441575 23.3447501,25.6742018 C23.3447501,27.9068287 24.872589,27.9144234 24.872589,30.2558877 C24.872589,32.5973519 24.1315536,34.2521916 23.3447501,34.9522393 C21.0724634,36.9739755 18.5799273,35.7812785 18.2202192,35.8720001 C17.4938279,36.0552023 19.9943816,33.3033267 19.9943816,31.4862145 C19.9943816,29.6691023 19.4268868,26.759 18.2202192,26.5075582 C17.0135516,26.2561164 14.9923087,25.3479177 14.305313,26.5075582 C13.6183173,27.6671987 11.9060878,28.6170405 12.6260769,29.0832324 C13.346066,29.5494243 14.3843466,27.2203492 15.6744313,27.2203492 C16.9645161,27.2203492 17.6154333,27.6381399 18.2202192,29.0832324 C18.8250051,30.5283249 18.9096239,31.4649141 18.2202192,33.3033267 C17.5308145,35.1417392 17.8494932,35.0910373 15.6744313,35.8720001 C13.4993694,36.6529628 12.4228533,35.8720001 11.0661983,35.8720001 C9.70954325,35.8720001 7.85968215,36.6046248 6.52296016,34.9522393 C5.75533834,33.6649399 6.60661177,32.3447733 6.52296016,31.4862145 C6.4172688,30.4014506 6.05746554,29.4334073 7.62360528,28.387 C9.18974502,27.3405927 12.1425113,28.2325597 11.0661983,27.2203492 C9.9898852,26.2081387 7.46518536,28.3167325 6.52296016,27.2203492 C5.58073496,26.1239658 6.94960577,25.1076654 6.52296016,21.9337886 C6.09631455,18.7599118 4.98871332,17.3227586 4.98871332,15.8068709 C4.98871332,14.2909832 4.98871332,14.5430122 4.98871332,12.3379573 C4.98871332,10.1329024 4.98871332,9.94537428 4.98871332,8.48715862 C4.98871332,7.02894297 5.28499949,6.44505555 6.16746997,5.10730235 C6.41625744,4.73016085 6.45440288,4.62864459 6.52296016,4.36971912 C6.69758142,3.71021377 7.03885637,3.97523328 8.35288822,3.38734409 Z M18.7973189,9.60514777 C20.2942342,10.4896015 19.5784185,13.3843564 22.2042091,15.5368809 C24.8299997,17.6894053 28.4119682,15.9394939 30.5179854,18.208088 C32.6240027,20.4766822 28.4357891,19.5520566 27.6242416,19.8721175 C26.7876986,20.2020361 27.0976462,20.8287518 26.2029542,20.6700331 C25.369251,20.5221338 24.9919417,19.4959291 24.5386893,19.2949819 C23.8064361,18.9703411 22.2042091,18.8194116 22.2042091,18.6029711 C21.9038078,18.3543771 21.6587136,17.6703154 20.9162989,16.7865652 C20.1738842,15.9028151 19.7628758,15.8042565 18.7973189,14.137863 C17.5884154,12.0514931 17.4356211,12.1937043 16.5230446,11.5184185 C14.354326,9.91361612 13.2090926,9.60514777 14.5696623,9.60514777 C17.4692896,9.60514777 17.3004035,8.720694 18.7973189,9.60514777 Z M20.9725782,8.96248129 C21.3481241,8.38302844 22.3241808,8.68455818 23.9007484,9.8670705 L26.6069762,12.3534825 L28.7129156,15.7444838 L24.3102205,14.6728578 L21.9972251,12.8041338 C20.9385813,10.822485 20.5970324,9.54193414 20.9725782,8.96248129 Z M30.0266281,21.096348 C30.1540288,20.0129323 31.9338532,20.0252429 32.4082765,20.0252429 C32.7245587,20.0252429 33.2607724,20.5606981 34.0169178,21.6316087 L34.7920124,23.6411269 C34.4145047,24.2961121 33.9564102,24.7393993 33.417729,24.9709887 C32.8790478,25.2025781 32.3060479,25.2025781 31.6987294,24.9709887 C30.4990614,23.110172 29.9416943,21.8186251 30.0266281,21.096348 Z M10.1157807,10.5787158 C10.318396,9.41828854 10.8705956,8.95813923 13.8796414,11.6251721 C16.8886873,14.292205 20.034602,17.4206428 18.9731034,18.4293011 C17.6913845,19.6472174 17.6913845,18.4966925 16.4106421,18.4293011 C15.1634228,18.3636737 13.8038505,18.9258236 12.5040292,17.7737421 C9.86944962,15.438613 9.91316534,11.7391431 10.1157807,10.5787158 Z M26.2842223,25.1899254 C26.7534241,23.0857635 27.0940771,22.1595198 28.9535166,23.5147239 C30.8129562,24.869928 31.6267623,27.1971107 32.2855396,29.5638292 C32.9443169,31.9305476 34.2676857,33.5295429 32.2855396,35.4853251 C30.3033936,37.4411072 26.2802153,39.1791819 24.8427088,36.713106 C24.0893608,35.42072 27.0369109,34.1300752 27.1869405,32.0377709 C27.3231911,30.1376292 26.0609131,26.1913681 26.2842223,25.1899254 Z M33.2465486,26.6645228 C33.3664033,25.1709118 33.3956888,27.9133094 35.3933272,25.4309654 C36.7250861,23.7760693 37.8768965,27.00674 38.8487585,35.1229774 C37.9659974,36.0476621 37.0242028,35.7544581 36.0233747,34.2433653 C34.5221326,31.9767262 33.126694,28.1581338 33.2465486,26.6645228 Z" id="Combined-Shape" fill="#456587" transform="translate(21.918736, 20.585727) scale(-1, 1) translate(-21.918736, -20.585727) "></path>
                <path d="M54.6282833,3.38734409 C56.4582113,2.56864634 62.5029237,5.4798809 63.1746606,5.94777871 C63.8463976,6.41567652 64.6384592,7.53207252 61.9498264,8.48715862 C59.2611936,9.44224473 56.5526483,8.13282755 56.0261323,8.48715862 C55.687124,9.13922469 53.6940255,9.47982864 54.6282833,13.2766452 C55.5625411,17.0734617 57.029108,19.029054 58.901472,20.1725172 C60.7738359,21.3159803 61.1196441,19.2149684 63.1746606,20.1725172 C65.2296772,21.130066 66.3396817,23.9376468 66.9818997,23.9376468 C67.6241177,23.9376468 65.6151536,20.8299127 66.9818997,20.1725172 C68.3486457,19.5151216 70.6387061,20.8717622 71.147984,21.9337886 C71.6572619,22.995815 69.6201451,23.441575 69.6201451,25.6742018 C69.6201451,27.9068287 71.147984,27.9144234 71.147984,30.2558877 C71.147984,32.5973519 70.4069486,34.2521916 69.6201451,34.9522393 C67.3478584,36.9739755 64.8553223,35.7812785 64.4956142,35.8720001 C63.7692229,36.0552023 66.2697767,33.3033267 66.2697767,31.4862145 C66.2697767,29.6691023 65.7022818,26.759 64.4956142,26.5075582 C63.2889466,26.2561164 61.2677037,25.3479177 60.580708,26.5075582 C59.8937123,27.6671987 58.1814829,28.6170405 58.901472,29.0832324 C59.621461,29.5494243 60.6597416,27.2203492 61.9498264,27.2203492 C63.2399111,27.2203492 63.8908283,27.6381399 64.4956142,29.0832324 C65.1004001,30.5283249 65.1850189,31.4649141 64.4956142,33.3033267 C63.8062095,35.1417392 64.1248882,35.0910373 61.9498264,35.8720001 C59.7747645,36.6529628 58.6982483,35.8720001 57.3415933,35.8720001 C55.9849383,35.8720001 54.1350772,36.6046248 52.7983552,34.9522393 C52.0307334,33.6649399 52.8820068,32.3447733 52.7983552,31.4862145 C52.6926638,30.4014506 52.3328606,29.4334073 53.8990003,28.387 C55.4651401,27.3405927 58.4179064,28.2325597 57.3415933,27.2203492 C56.2652802,26.2081387 53.7405804,28.3167325 52.7983552,27.2203492 C51.85613,26.1239658 53.2250008,25.1076654 52.7983552,21.9337886 C52.3717096,18.7599118 51.2641084,17.3227586 51.2641084,15.8068709 C51.2641084,14.2909832 51.2641084,14.5430122 51.2641084,12.3379573 C51.2641084,10.1329024 51.2641084,9.94537428 51.2641084,8.48715862 C51.2641084,7.02894297 51.5603945,6.44505555 52.442865,5.10730235 C52.6916525,4.73016085 52.7297979,4.62864459 52.7983552,4.36971912 C52.9729765,3.71021377 53.3142514,3.97523328 54.6282833,3.38734409 Z M65.0727139,9.60514777 C66.5696292,10.4896015 65.8538135,13.3843564 68.4796041,15.5368809 C71.1053947,17.6894053 74.6873632,15.9394939 76.7933805,18.208088 C78.8993977,20.4766822 74.7111841,19.5520566 73.8996366,19.8721175 C73.0630937,20.2020361 73.3730412,20.8287518 72.4783492,20.6700331 C71.644646,20.5221338 71.2673368,19.4959291 70.8140844,19.2949819 C70.0818311,18.9703411 68.4796041,18.8194116 68.4796041,18.6029711 C68.1792028,18.3543771 67.9341086,17.6703154 67.1916939,16.7865652 C66.4492792,15.9028151 66.0382708,15.8042565 65.0727139,14.137863 C63.8638104,12.0514931 63.7110161,12.1937043 62.7984396,11.5184185 C60.629721,9.91361612 59.4844876,9.60514777 60.8450574,9.60514777 C63.7446846,9.60514777 63.5757986,8.720694 65.0727139,9.60514777 Z M67.2479733,8.96248129 C67.6235191,8.38302844 68.5995759,8.68455818 70.1761434,9.8670705 L72.8823712,12.3534825 L74.9883106,15.7444838 L70.5856155,14.6728578 L68.2726202,12.8041338 C67.2139764,10.822485 66.8724274,9.54193414 67.2479733,8.96248129 Z M76.3020231,21.096348 C76.4294238,20.0129323 78.2092483,20.0252429 78.6836715,20.0252429 C78.9999537,20.0252429 79.5361675,20.5606981 80.2923128,21.6316087 L81.0674075,23.6411269 C80.6898997,24.2961121 80.2318052,24.7393993 79.693124,24.9709887 C79.1544428,25.2025781 78.581443,25.2025781 77.9741244,24.9709887 C76.7744564,23.110172 76.2170893,21.8186251 76.3020231,21.096348 Z M56.3911757,10.5787158 C56.5937911,9.41828854 57.1459906,8.95813923 60.1550365,11.6251721 C63.1640823,14.292205 66.309997,17.4206428 65.2484984,18.4293011 C63.9667795,19.6472174 63.9667795,18.4966925 62.6860372,18.4293011 C61.4388178,18.3636737 60.0792456,18.9258236 58.7794242,17.7737421 C56.1448447,15.438613 56.1885604,11.7391431 56.3911757,10.5787158 Z M72.5596173,25.1899254 C73.0288191,23.0857635 73.3694721,22.1595198 75.2289117,23.5147239 C77.0883513,24.869928 77.9021574,27.1971107 78.5609347,29.5638292 C79.219712,31.9305476 80.5430807,33.5295429 78.5609347,35.4853251 C76.5787887,37.4411072 72.5556103,39.1791819 71.1181038,36.713106 C70.3647558,35.42072 73.3123059,34.1300752 73.4623356,32.0377709 C73.5985861,30.1376292 72.3363081,26.1913681 72.5596173,25.1899254 Z M79.5219437,26.6645228 C79.6417984,25.1709118 79.6710839,27.9133094 81.6687222,25.4309654 C83.0004812,23.7760693 84.1522916,27.00674 85.1241535,35.1229774 C84.2413924,36.0476621 83.2995978,35.7544581 82.2987697,34.2433653 C80.7975276,31.9767262 79.402089,28.1581338 79.5219437,26.6645228 Z" id="Combined-Shape" fill="#456587"></path>
                <path d="M43.7371043,3.07765969 C44.7441901,0.207101841 44.8621755,-0.0538631342 45.932692,3.07765969 C47.0032085,6.20918252 45.932692,8.65698091 45.932692,16.0401477 C45.932692,23.4233145 45.5407674,23.2565286 45.932692,31.2051589 C46.3246165,39.1537892 45.8045617,37.9583433 45.932692,43.2204529 C46.0608222,48.4825625 46.2077846,48.9188148 45.932692,54.0933676 C45.6575993,59.2679204 45.932692,61.6332127 45.932692,70.0817241 C45.932692,78.5302356 46.8657362,82.2127369 45.932692,86.2573397 C44.9996478,90.3019426 44.9306372,91.298676 43.7371043,86.2573397 C42.5435714,81.2160035 43.7371043,77.7401795 43.7371043,70.0817241 C43.7371043,62.4232688 44.1647653,61.6574187 43.7371043,54.0933676 C43.3094434,46.5293165 43.7371043,50.9772546 43.7371043,45.2502868 C43.7371043,39.523319 43.4354667,36.9573905 43.7371043,31.2051589 C44.0387419,25.4529272 43.7371043,22.7445095 43.7371043,16.0401477 C43.7371043,9.33578587 42.7300185,5.94821755 43.7371043,3.07765969 Z" id="Path-2" fill="#C69D3A" transform="translate(44.807561, 45.250287) rotate(90.000000) translate(-44.807561, -45.250287) "></path>
                <path d="M43.7371043,3.07765969 C44.7441901,0.207101841 44.8621755,-0.0538631342 45.932692,3.07765969 C47.0032085,6.20918252 45.932692,8.65698091 45.932692,16.0401477 C45.932692,23.4233145 45.5407674,23.2565286 45.932692,31.2051589 C46.3246165,39.1537892 45.8045617,37.9583433 45.932692,43.2204529 C46.0608222,48.4825625 46.2077846,48.9188148 45.932692,54.0933676 C45.6575993,59.2679204 45.932692,61.6332127 45.932692,70.0817241 C45.932692,78.5302356 46.8657362,82.2127369 45.932692,86.2573397 C44.9996478,90.3019426 44.9306372,91.298676 43.7371043,86.2573397 C42.5435714,81.2160035 43.7371043,77.7401795 43.7371043,70.0817241 C43.7371043,62.4232688 44.1647653,61.6574187 43.7371043,54.0933676 C43.3094434,46.5293165 43.7371043,50.9772546 43.7371043,45.2502868 C43.7371043,39.523319 43.4354667,36.9573905 43.7371043,31.2051589 C44.0387419,25.4529272 43.7371043,22.7445095 43.7371043,16.0401477 C43.7371043,9.33578587 42.7300185,5.94821755 43.7371043,3.07765969 Z" id="Path-2" fill="#C69D3A"></path>
            </g>
        </g>
    </g>
</svg>