<?xml version="1.0" encoding="UTF-8"?>
<svg width="512px" height="512px" viewBox="0 0 512 512" version="1.1" xmlns="http://www.w3.org/2000/svg" xmlns:xlink="http://www.w3.org/1999/xlink">
    <!-- Generator: Sketch 51 (57462) - http://www.bohemiancoding.com/sketch -->
    <title>logo</title>
    <desc>Created with Sketch.</desc>
    <defs>
        <radialGradient cx="50%" cy="50%" fx="50%" fy="50%" r="50%" id="radialGradient-1">
            <stop stop-color="#FFFFFF" offset="0%"></stop>
            <stop stop-color="#FDF4D9" offset="100%"></stop>
        </radialGradient>
    </defs>
    <g id="Page-1" stroke="none" stroke-width="1" fill="none" fill-rule="evenodd">
        <g id="logo">
            <rect id="Rectangle" fill="url(#radialGradient-1)" fill-rule="nonzero" x="0" y="0" width="512" height="512" rx="51"></rect>
            <path d="M129.922636,280.511414 C136.407901,277.609949 157.830362,287.927365 160.210997,289.585594 C162.591633,291.243824 165.398699,295.200332 155.870185,298.585157 C146.34167,301.969982 136.742586,297.329408 134.876613,298.585157 C133.675167,300.896079 126.611626,302.103179 129.922636,315.559097 C133.233645,329.015015 138.431159,335.945634 145.066817,339.998068 C151.702474,344.050501 152.928019,336.604515 160.210997,339.998068 C167.493976,343.39162 171.427832,353.341687 173.703852,353.341687 C175.979873,353.341687 168.860104,342.327877 173.703852,339.998068 C178.547601,337.668258 186.663575,342.476192 188.468455,346.240013 C190.273336,350.003835 183.053794,351.583609 183.053794,359.496038 C183.053794,367.408467 188.468455,367.435383 188.468455,375.733533 C188.468455,384.031682 185.842226,389.896434 183.053794,392.377403 C175.00081,399.542436 166.167262,395.315518 164.892457,395.637035 C162.318126,396.286304 171.180089,386.533656 171.180089,380.093811 C171.180089,373.653965 169.168887,363.340563 164.892457,362.449453 C160.616027,361.558343 153.452742,358.339687 151.018029,362.449453 C148.583316,366.559219 142.515175,369.925458 145.066817,371.577642 C147.618458,373.229826 151.298124,364.975584 155.870185,364.975584 C160.442245,364.975584 162.749096,366.456235 164.892457,371.577642 C167.035818,376.69905 167.335707,380.018322 164.892457,386.533656 C162.449207,393.04899 163.578604,392.869303 155.870185,395.637035 C148.161765,398.404767 144.346592,395.637035 139.538607,395.637035 C134.730621,395.637035 128.174714,398.233457 123.437371,392.377403 C120.716919,387.815214 123.733832,383.136543 123.437371,380.093811 C123.062801,376.249407 121.787658,372.818662 127.338057,369.110195 C132.888456,365.401727 143.35306,368.562858 139.538607,364.975584 C135.724153,361.38831 126.776617,368.861167 123.437371,364.975584 C120.098125,361.090002 124.949403,357.488233 123.437371,346.240013 C121.925339,334.991794 118,329.898523 118,324.526217 C118,319.153911 118,320.047102 118,312.232387 C118,304.417673 118,303.753073 118,298.585157 C118,293.417241 119.050038,291.347944 122.177514,286.606946 C123.059216,285.270357 123.194404,284.910583 123.437371,283.992951 C124.056229,281.655664 125.265707,282.594893 129.922636,280.511414 Z M166.937698,302.54731 C172.242766,305.681815 169.705915,315.940826 179.011717,323.569372 C188.317519,331.197919 201.012015,324.996233 208.47574,333.036131 C215.939466,341.076028 201.096436,337.799155 198.220312,338.933451 C195.255604,340.102683 196.354058,342.323763 193.18327,341.761264 C190.228625,341.237109 188.891441,337.60024 187.285115,336.888083 C184.69001,335.737555 179.011717,335.202661 179.011717,334.435596 C177.947095,333.554579 177.078481,331.130265 174.447363,327.998254 C171.816245,324.866243 170.359632,324.516952 166.937698,318.611253 C162.653344,311.217158 162.111841,311.721155 158.87767,309.327942 C151.191731,303.640522 147.133024,302.54731 151.954883,302.54731 C162.231162,302.54731 161.63263,299.412806 166.937698,302.54731 Z M174.646817,300.2697 C175.977752,298.216119 179.436897,299.284741 185.024252,303.475565 L194.615124,312.287409 L202.078573,324.305117 L186.475421,320.507275 L178.278166,313.884517 C174.526332,306.861553 173.315883,302.323281 174.646817,300.2697 Z M206.73437,343.272124 C207.185878,339.432499 213.493576,339.476127 215.174932,339.476127 C216.295836,339.476127 218.196177,341.373781 220.875957,345.169088 L223.622892,352.29082 C222.285005,354.612088 220.661518,356.183098 218.752432,357.003851 C216.843345,357.824603 214.812634,357.824603 212.660297,357.003851 C208.408673,350.409116 206.433364,345.831874 206.73437,343.272124 Z M136.170327,305.997635 C136.888396,301.885081 138.845391,300.254312 149.509449,309.706277 C160.173508,319.158241 171.322629,330.245425 167.560678,333.82011 C163.018267,338.136405 163.018267,334.058945 158.479316,333.82011 C154.05917,333.587526 149.240846,335.579786 144.634279,331.496808 C135.297329,323.221111 135.452258,310.11019 136.170327,305.997635 Z M193.471284,357.779762 C195.134135,350.322612 196.341409,347.040005 202.931263,351.842848 C209.521117,356.645692 212.405246,364.893227 214.739952,373.280877 C217.074659,381.668527 221.764678,387.335367 214.739952,394.266659 C207.715227,401.197951 193.457083,407.357687 188.36256,398.617914 C185.692695,394.037698 196.138812,389.463653 196.670517,382.048527 C197.153389,375.314425 192.679876,361.328875 193.471284,357.779762 Z M218.145768,363.005735 C218.570533,357.712378 218.674321,367.431435 225.753952,358.634008 C230.473705,352.769056 234.555721,364.218553 238,392.982499 C234.871495,396.259581 231.533775,395.220466 227.98684,389.865153 C222.666438,381.832184 217.721003,368.299093 218.145768,363.005735 Z" id="Combined-Shape" fill="#545454" transform="translate(178.000000, 341.462484) scale(-1, -1) translate(-178.000000, -341.462484) "></path>
            <path d="M293.922636,280.511414 C300.407901,277.609949 321.830362,287.927365 324.210997,289.585594 C326.591633,291.243824 329.398699,295.200332 319.870185,298.585157 C310.34167,301.969982 300.742586,297.329408 298.876613,298.585157 C297.675167,300.896079 290.611626,302.103179 293.922636,315.559097 C297.233645,329.015015 302.431159,335.945634 309.066817,339.998068 C315.702474,344.050501 316.928019,336.604515 324.210997,339.998068 C331.493976,343.39162 335.427832,353.341687 337.703852,353.341687 C339.979873,353.341687 332.860104,342.327877 337.703852,339.998068 C342.547601,337.668258 350.663575,342.476192 352.468455,346.240013 C354.273336,350.003835 347.053794,351.583609 347.053794,359.496038 C347.053794,367.408467 352.468455,367.435383 352.468455,375.733533 C352.468455,384.031682 349.842226,389.896434 347.053794,392.377403 C339.00081,399.542436 330.167262,395.315518 328.892457,395.637035 C326.318126,396.286304 335.180089,386.533656 335.180089,380.093811 C335.180089,373.653965 333.168887,363.340563 328.892457,362.449453 C324.616027,361.558343 317.452742,358.339687 315.018029,362.449453 C312.583316,366.559219 306.515175,369.925458 309.066817,371.577642 C311.618458,373.229826 315.298124,364.975584 319.870185,364.975584 C324.442245,364.975584 326.749096,366.456235 328.892457,371.577642 C331.035818,376.69905 331.335707,380.018322 328.892457,386.533656 C326.449207,393.04899 327.578604,392.869303 319.870185,395.637035 C312.161765,398.404767 308.346592,395.637035 303.538607,395.637035 C298.730621,395.637035 292.174714,398.233457 287.437371,392.377403 C284.716919,387.815214 287.733832,383.136543 287.437371,380.093811 C287.062801,376.249407 285.787658,372.818662 291.338057,369.110195 C296.888456,365.401727 307.35306,368.562858 303.538607,364.975584 C299.724153,361.38831 290.776617,368.861167 287.437371,364.975584 C284.098125,361.090002 288.949403,357.488233 287.437371,346.240013 C285.925339,334.991794 282,329.898523 282,324.526217 C282,319.153911 282,320.047102 282,312.232387 C282,304.417673 282,303.753073 282,298.585157 C282,293.417241 283.050038,291.347944 286.177514,286.606946 C287.059216,285.270357 287.194404,284.910583 287.437371,283.992951 C288.056229,281.655664 289.265707,282.594893 293.922636,280.511414 Z M330.937698,302.54731 C336.242766,305.681815 333.705915,315.940826 343.011717,323.569372 C352.317519,331.197919 365.012015,324.996233 372.47574,333.036131 C379.939466,341.076028 365.096436,337.799155 362.220312,338.933451 C359.255604,340.102683 360.354058,342.323763 357.18327,341.761264 C354.228625,341.237109 352.891441,337.60024 351.285115,336.888083 C348.69001,335.737555 343.011717,335.202661 343.011717,334.435596 C341.947095,333.554579 341.078481,331.130265 338.447363,327.998254 C335.816245,324.866243 334.359632,324.516952 330.937698,318.611253 C326.653344,311.217158 326.111841,311.721155 322.87767,309.327942 C315.191731,303.640522 311.133024,302.54731 315.954883,302.54731 C326.231162,302.54731 325.63263,299.412806 330.937698,302.54731 Z M338.646817,300.2697 C339.977752,298.216119 343.436897,299.284741 349.024252,303.475565 L358.615124,312.287409 L366.078573,324.305117 L350.475421,320.507275 L342.278166,313.884517 C338.526332,306.861553 337.315883,302.323281 338.646817,300.2697 Z M370.73437,343.272124 C371.185878,339.432499 377.493576,339.476127 379.174932,339.476127 C380.295836,339.476127 382.196177,341.373781 384.875957,345.169088 L387.622892,352.29082 C386.285005,354.612088 384.661518,356.183098 382.752432,357.003851 C380.843345,357.824603 378.812634,357.824603 376.660297,357.003851 C372.408673,350.409116 370.433364,345.831874 370.73437,343.272124 Z M300.170327,305.997635 C300.888396,301.885081 302.845391,300.254312 313.509449,309.706277 C324.173508,319.158241 335.322629,330.245425 331.560678,333.82011 C327.018267,338.136405 327.018267,334.058945 322.479316,333.82011 C318.05917,333.587526 313.240846,335.579786 308.634279,331.496808 C299.297329,323.221111 299.452258,310.11019 300.170327,305.997635 Z M357.471284,357.779762 C359.134135,350.322612 360.341409,347.040005 366.931263,351.842848 C373.521117,356.645692 376.405246,364.893227 378.739952,373.280877 C381.074659,381.668527 385.764678,387.335367 378.739952,394.266659 C371.715227,401.197951 357.457083,407.357687 352.36256,398.617914 C349.692695,394.037698 360.138812,389.463653 360.670517,382.048527 C361.153389,375.314425 356.679876,361.328875 357.471284,357.779762 Z M382.145768,363.005735 C382.570533,357.712378 382.674321,367.431435 389.753952,358.634008 C394.473705,352.769056 398.555721,364.218553 402,392.982499 C398.871495,396.259581 395.533775,395.220466 391.98684,389.865153 C386.666438,381.832184 381.721003,368.299093 382.145768,363.005735 Z" id="Combined-Shape" fill="#545454" transform="translate(342.000000, 341.462484) scale(1, -1) translate(-342.000000, -341.462484) "></path>
            <path d="M129.922636,100.511414 C136.407901,97.6099493 157.830362,107.927365 160.210997,109.585594 C162.591633,111.243824 165.398699,115.200332 155.870185,118.585157 C146.34167,121.969982 136.742586,117.329408 134.876613,118.585157 C133.675167,120.896079 126.611626,122.103179 129.922636,135.559097 C133.233645,149.015015 138.431159,155.945634 145.066817,159.998068 C151.702474,164.050501 152.928019,156.604515 160.210997,159.998068 C167.493976,163.39162 171.427832,173.341687 173.703852,173.341687 C175.979873,173.341687 168.860104,162.327877 173.703852,159.998068 C178.547601,157.668258 186.663575,162.476192 188.468455,166.240013 C190.273336,170.003835 183.053794,171.583609 183.053794,179.496038 C183.053794,187.408467 188.468455,187.435383 188.468455,195.733533 C188.468455,204.031682 185.842226,209.896434 183.053794,212.377403 C175.00081,219.542436 166.167262,215.315518 164.892457,215.637035 C162.318126,216.286304 171.180089,206.533656 171.180089,200.093811 C171.180089,193.653965 169.168887,183.340563 164.892457,182.449453 C160.616027,181.558343 153.452742,178.339687 151.018029,182.449453 C148.583316,186.559219 142.515175,189.925458 145.066817,191.577642 C147.618458,193.229826 151.298124,184.975584 155.870185,184.975584 C160.442245,184.975584 162.749096,186.456235 164.892457,191.577642 C167.035818,196.69905 167.335707,200.018322 164.892457,206.533656 C162.449207,213.04899 163.578604,212.869303 155.870185,215.637035 C148.161765,218.404767 144.346592,215.637035 139.538607,215.637035 C134.730621,215.637035 128.174714,218.233457 123.437371,212.377403 C120.716919,207.815214 123.733832,203.136543 123.437371,200.093811 C123.062801,196.249407 121.787658,192.818662 127.338057,189.110195 C132.888456,185.401727 143.35306,188.562858 139.538607,184.975584 C135.724153,181.38831 126.776617,188.861167 123.437371,184.975584 C120.098125,181.090002 124.949403,177.488233 123.437371,166.240013 C121.925339,154.991794 118,149.898523 118,144.526217 C118,139.153911 118,140.047102 118,132.232387 C118,124.417673 118,123.753073 118,118.585157 C118,113.417241 119.050038,111.347944 122.177514,106.606946 C123.059216,105.270357 123.194404,104.910583 123.437371,103.992951 C124.056229,101.655664 125.265707,102.594893 129.922636,100.511414 Z M166.937698,122.54731 C172.242766,125.681815 169.705915,135.940826 179.011717,143.569372 C188.317519,151.197919 201.012015,144.996233 208.47574,153.036131 C215.939466,161.076028 201.096436,157.799155 198.220312,158.933451 C195.255604,160.102683 196.354058,162.323763 193.18327,161.761264 C190.228625,161.237109 188.891441,157.60024 187.285115,156.888083 C184.69001,155.737555 179.011717,155.202661 179.011717,154.435596 C177.947095,153.554579 177.078481,151.130265 174.447363,147.998254 C171.816245,144.866243 170.359632,144.516952 166.937698,138.611253 C162.653344,131.217158 162.111841,131.721155 158.87767,129.327942 C151.191731,123.640522 147.133024,122.54731 151.954883,122.54731 C162.231162,122.54731 161.63263,119.412806 166.937698,122.54731 Z M174.646817,120.2697 C175.977752,118.216119 179.436897,119.284741 185.024252,123.475565 L194.615124,132.287409 L202.078573,144.305117 L186.475421,140.507275 L178.278166,133.884517 C174.526332,126.861553 173.315883,122.323281 174.646817,120.2697 Z M206.73437,163.272124 C207.185878,159.432499 213.493576,159.476127 215.174932,159.476127 C216.295836,159.476127 218.196177,161.373781 220.875957,165.169088 L223.622892,172.29082 C222.285005,174.612088 220.661518,176.183098 218.752432,177.003851 C216.843345,177.824603 214.812634,177.824603 212.660297,177.003851 C208.408673,170.409116 206.433364,165.831874 206.73437,163.272124 Z M136.170327,125.997635 C136.888396,121.885081 138.845391,120.254312 149.509449,129.706277 C160.173508,139.158241 171.322629,150.245425 167.560678,153.82011 C163.018267,158.136405 163.018267,154.058945 158.479316,153.82011 C154.05917,153.587526 149.240846,155.579786 144.634279,151.496808 C135.297329,143.221111 135.452258,130.11019 136.170327,125.997635 Z M193.471284,177.779762 C195.134135,170.322612 196.341409,167.040005 202.931263,171.842848 C209.521117,176.645692 212.405246,184.893227 214.739952,193.280877 C217.074659,201.668527 221.764678,207.335367 214.739952,214.266659 C207.715227,221.197951 193.457083,227.357687 188.36256,218.617914 C185.692695,214.037698 196.138812,209.463653 196.670517,202.048527 C197.153389,195.314425 192.679876,181.328875 193.471284,177.779762 Z M218.145768,183.005735 C218.570533,177.712378 218.674321,187.431435 225.753952,178.634008 C230.473705,172.769056 234.555721,184.218553 238,212.982499 C234.871495,216.259581 231.533775,215.220466 227.98684,209.865153 C222.666438,201.832184 217.721003,188.299093 218.145768,183.005735 Z" id="Combined-Shape" fill="#545454" transform="translate(178.000000, 161.462484) scale(-1, 1) translate(-178.000000, -161.462484) "></path>
            <path d="M293.922636,100.511414 C300.407901,97.6099493 321.830362,107.927365 324.210997,109.585594 C326.591633,111.243824 329.398699,115.200332 319.870185,118.585157 C310.34167,121.969982 300.742586,117.329408 298.876613,118.585157 C297.675167,120.896079 290.611626,122.103179 293.922636,135.559097 C297.233645,149.015015 302.431159,155.945634 309.066817,159.998068 C315.702474,164.050501 316.928019,156.604515 324.210997,159.998068 C331.493976,163.39162 335.427832,173.341687 337.703852,173.341687 C339.979873,173.341687 332.860104,162.327877 337.703852,159.998068 C342.547601,157.668258 350.663575,162.476192 352.468455,166.240013 C354.273336,170.003835 347.053794,171.583609 347.053794,179.496038 C347.053794,187.408467 352.468455,187.435383 352.468455,195.733533 C352.468455,204.031682 349.842226,209.896434 347.053794,212.377403 C339.00081,219.542436 330.167262,215.315518 328.892457,215.637035 C326.318126,216.286304 335.180089,206.533656 335.180089,200.093811 C335.180089,193.653965 333.168887,183.340563 328.892457,182.449453 C324.616027,181.558343 317.452742,178.339687 315.018029,182.449453 C312.583316,186.559219 306.515175,189.925458 309.066817,191.577642 C311.618458,193.229826 315.298124,184.975584 319.870185,184.975584 C324.442245,184.975584 326.749096,186.456235 328.892457,191.577642 C331.035818,196.69905 331.335707,200.018322 328.892457,206.533656 C326.449207,213.04899 327.578604,212.869303 319.870185,215.637035 C312.161765,218.404767 308.346592,215.637035 303.538607,215.637035 C298.730621,215.637035 292.174714,218.233457 287.437371,212.377403 C284.716919,207.815214 287.733832,203.136543 287.437371,200.093811 C287.062801,196.249407 285.787658,192.818662 291.338057,189.110195 C296.888456,185.401727 307.35306,188.562858 303.538607,184.975584 C299.724153,181.38831 290.776617,188.861167 287.437371,184.975584 C284.098125,181.090002 288.949403,177.488233 287.437371,166.240013 C285.925339,154.991794 282,149.898523 282,144.526217 C282,139.153911 282,140.047102 282,132.232387 C282,124.417673 282,123.753073 282,118.585157 C282,113.417241 283.050038,111.347944 286.177514,106.606946 C287.059216,105.270357 287.194404,104.910583 287.437371,103.992951 C288.056229,101.655664 289.265707,102.594893 293.922636,100.511414 Z M330.937698,122.54731 C336.242766,125.681815 333.705915,135.940826 343.011717,143.569372 C352.317519,151.197919 365.012015,144.996233 372.47574,153.036131 C379.939466,161.076028 365.096436,157.799155 362.220312,158.933451 C359.255604,160.102683 360.354058,162.323763 357.18327,161.761264 C354.228625,161.237109 352.891441,157.60024 351.285115,156.888083 C348.69001,155.737555 343.011717,155.202661 343.011717,154.435596 C341.947095,153.554579 341.078481,151.130265 338.447363,147.998254 C335.816245,144.866243 334.359632,144.516952 330.937698,138.611253 C326.653344,131.217158 326.111841,131.721155 322.87767,129.327942 C315.191731,123.640522 311.133024,122.54731 315.954883,122.54731 C326.231162,122.54731 325.63263,119.412806 330.937698,122.54731 Z M338.646817,120.2697 C339.977752,118.216119 343.436897,119.284741 349.024252,123.475565 L358.615124,132.287409 L366.078573,144.305117 L350.475421,140.507275 L342.278166,133.884517 C338.526332,126.861553 337.315883,122.323281 338.646817,120.2697 Z M370.73437,163.272124 C371.185878,159.432499 377.493576,159.476127 379.174932,159.476127 C380.295836,159.476127 382.196177,161.373781 384.875957,165.169088 L387.622892,172.29082 C386.285005,174.612088 384.661518,176.183098 382.752432,177.003851 C380.843345,177.824603 378.812634,177.824603 376.660297,177.003851 C372.408673,170.409116 370.433364,165.831874 370.73437,163.272124 Z M300.170327,125.997635 C300.888396,121.885081 302.845391,120.254312 313.509449,129.706277 C324.173508,139.158241 335.322629,150.245425 331.560678,153.82011 C327.018267,158.136405 327.018267,154.058945 322.479316,153.82011 C318.05917,153.587526 313.240846,155.579786 308.634279,151.496808 C299.297329,143.221111 299.452258,130.11019 300.170327,125.997635 Z M357.471284,177.779762 C359.134135,170.322612 360.341409,167.040005 366.931263,171.842848 C373.521117,176.645692 376.405246,184.893227 378.739952,193.280877 C381.074659,201.668527 385.764678,207.335367 378.739952,214.266659 C371.715227,221.197951 357.457083,227.357687 352.36256,218.617914 C349.692695,214.037698 360.138812,209.463653 360.670517,202.048527 C361.153389,195.314425 356.679876,181.328875 357.471284,177.779762 Z M382.145768,183.005735 C382.570533,177.712378 382.674321,187.431435 389.753952,178.634008 C394.473705,172.769056 398.555721,184.218553 402,212.982499 C398.871495,216.259581 395.533775,215.220466 391.98684,209.865153 C386.666438,201.832184 381.721003,188.299093 382.145768,183.005735 Z" id="Combined-Shape" fill="#545454"></path>
            <path d="M240,251.5 L240,252.5 C240,255.537566 237.537566,258 234.5,258 L95.5,258 C92.4624339,258 90,255.537566 90,252.5 L90,251.5 C90,248.462434 92.4624339,246 95.5,246 L234.5,246 C237.537566,246 240,248.462434 240,251.5 Z M434,251.5 L434,252.5 C434,255.537566 431.537566,258 428.5,258 L289.5,258 C286.462434,258 284,255.537566 284,252.5 L284,251.5 C284,248.462434 286.462434,246 289.5,246 L428.5,246 C431.537566,246 434,248.462434 434,251.5 Z M261.5,79 L262.5,79 C265.537566,79 268,81.4624339 268,84.5 L268,223.5 C268,226.537566 265.537566,229 262.5,229 L261.5,229 C258.462434,229 256,226.537566 256,223.5 L256,84.5 C256,81.4624339 258.462434,79 261.5,79 Z M261.5,275 L262.5,275 C265.537566,275 268,277.462434 268,280.5 L268,419.5 C268,422.537566 265.537566,425 262.5,425 L261.5,425 C258.462434,425 256,422.537566 256,419.5 L256,280.5 C256,277.462434 258.462434,275 261.5,275 Z" id="Combined-Shape" fill="#FFBB58"></path>
        </g>
    </g>
</svg>