<?xml version="1.0" encoding="UTF-8"?>
<svg width="12px" height="12px" viewBox="0 0 12 12" version="1.1" xmlns="http://www.w3.org/2000/svg" xmlns:xlink="http://www.w3.org/1999/xlink">
    <!-- Generator: Sketch 50.2 (55047) - http://www.bohemiancoding.com/sketch -->
    <title>Combined Shape</title>
    <desc>Created with Sketch.</desc>
    <defs></defs>
    <g id="Page-1" stroke="none" stroke-width="1" fill="none" fill-rule="evenodd">
        <path d="M1,0 L11,0 C11.5522847,-1.01453063e-16 12,0.44771525 12,1 C12,1.55228475 11.5522847,2 11,2 L1,2 C0.44771525,2 6.76353751e-17,1.55228475 0,1 C-6.76353751e-17,0.44771525 0.44771525,1.01453063e-16 1,0 Z M1,5 L11,5 C11.5522847,5 12,5.44771525 12,6 C12,6.55228475 11.5522847,7 11,7 L1,7 C0.44771525,7 6.76353751e-17,6.55228475 0,6 C-6.76353751e-17,5.44771525 0.44771525,5 1,5 Z M1,10 L11,10 C11.5522847,10 12,10.4477153 12,11 C12,11.5522847 11.5522847,12 11,12 L1,12 C0.44771525,12 6.76353751e-17,11.5522847 0,11 C-6.76353751e-17,10.4477153 0.44771525,10 1,10 Z" id="Combined-Shape" fill="#4A4A4A"></path>
    </g>
</svg>