<?xml version="1.0" encoding="UTF-8"?>
<svg xmlns="http://www.w3.org/2000/svg" xmlns:xlink="http://www.w3.org/1999/xlink" width="673.52002pt" height="476.23999pt" viewBox="0 0 673.52002 476.23999" version="1.1">
<g id="surface1">
<path style=" stroke:none;fill-rule:nonzero;fill:rgb(73%,73%,73%);fill-opacity:1;" d="M 533.039062 237.199219 C 533.039062 211.199219 500.480469 186.558594 450.558594 171.28125 C 462.078125 120.398438 456.960938 79.921875 434.398438 66.960938 C 429.199219 63.921875 423.121094 62.480469 416.480469 62.480469 L 416.480469 80.320312 C 420.160156 80.320312 423.121094 81.039062 425.601562 82.398438 C 436.480469 88.640625 441.199219 112.398438 437.519531 142.960938 C 436.640625 150.480469 435.199219 158.398438 433.441406 166.480469 C 417.761719 162.640625 400.640625 159.679688 382.640625 157.761719 C 371.839844 142.960938 360.640625 129.519531 349.359375 117.761719 C 375.441406 93.519531 399.921875 80.238281 416.558594 80.238281 L 416.558594 62.398438 C 394.558594 62.398438 365.761719 78.078125 336.640625 105.28125 C 307.519531 78.238281 278.71875 62.71875 256.71875 62.71875 L 256.71875 80.558594 C 273.28125 80.558594 297.839844 93.761719 323.921875 117.839844 C 312.71875 129.601562 301.519531 142.960938 290.878906 157.761719 C 272.800781 159.679688 255.679688 162.640625 240 166.558594 C 238.160156 158.558594 236.800781 150.800781 235.839844 143.359375 C 232.078125 112.800781 236.71875 89.039062 247.519531 82.71875 C 249.921875 81.28125 253.039062 80.640625 256.71875 80.640625 L 256.71875 62.800781 C 250 62.800781 243.921875 64.238281 238.640625 67.28125 C 216.160156 80.238281 211.121094 120.640625 222.71875 171.359375 C 172.960938 186.71875 140.558594 211.28125 140.558594 237.199219 C 140.558594 263.199219 173.121094 287.839844 223.039062 303.121094 C 211.519531 354 216.640625 394.480469 239.199219 407.441406 C 244.398438 410.480469 250.480469 411.921875 257.199219 411.921875 C 279.199219 411.921875 308 396.238281 337.121094 369.039062 C 366.238281 396.078125 395.039062 411.601562 417.039062 411.601562 C 423.761719 411.601562 429.839844 410.160156 435.121094 407.121094 C 457.601562 394.160156 462.640625 353.761719 451.039062 303.039062 C 500.640625 287.761719 533.039062 263.121094 533.039062 237.199219 Z M 428.878906 183.839844 C 425.921875 194.160156 422.238281 204.800781 418.078125 215.441406 C 414.800781 209.039062 411.359375 202.640625 407.601562 196.238281 C 403.921875 189.839844 400 183.601562 396.078125 177.519531 C 407.441406 179.199219 418.398438 181.28125 428.878906 183.839844 Z M 392.238281 269.039062 C 386 279.839844 379.601562 290.078125 372.960938 299.601562 C 361.039062 300.640625 348.960938 301.199219 336.800781 301.199219 C 324.71875 301.199219 312.640625 300.640625 300.800781 299.679688 C 294.160156 290.160156 287.679688 280 281.441406 269.28125 C 275.359375 258.800781 269.839844 248.160156 264.800781 237.441406 C 269.761719 226.71875 275.359375 216 281.359375 205.519531 C 287.601562 194.71875 294 184.480469 300.640625 174.960938 C 312.558594 173.921875 324.640625 173.359375 336.800781 173.359375 C 348.878906 173.359375 360.960938 173.921875 372.800781 174.878906 C 379.441406 184.398438 385.921875 194.558594 392.160156 205.28125 C 398.238281 215.761719 403.761719 226.398438 408.800781 237.121094 C 403.761719 247.839844 398.238281 258.558594 392.238281 269.039062 Z M 418.078125 258.640625 C 422.398438 269.359375 426.078125 280.078125 429.121094 290.480469 C 418.640625 293.039062 407.601562 295.199219 396.160156 296.878906 C 400.078125 290.71875 404 284.398438 407.679688 277.921875 C 411.359375 271.519531 414.800781 265.039062 418.078125 258.640625 Z M 336.960938 344 C 329.519531 336.320312 322.078125 327.761719 314.71875 318.398438 C 321.921875 318.71875 329.28125 318.960938 336.71875 318.960938 C 344.238281 318.960938 351.679688 318.800781 358.960938 318.398438 C 351.761719 327.761719 344.320312 336.320312 336.960938 344 Z M 277.441406 296.878906 C 266.078125 295.199219 255.121094 293.121094 244.640625 290.558594 C 247.601562 280.238281 251.28125 269.601562 255.441406 258.960938 C 258.71875 265.359375 262.160156 271.761719 265.921875 278.160156 C 269.679688 284.558594 273.519531 290.800781 277.441406 296.878906 Z M 336.558594 130.398438 C 344 138.078125 351.441406 146.640625 358.800781 156 C 351.601562 155.679688 344.238281 155.441406 336.800781 155.441406 C 329.28125 155.441406 321.839844 155.601562 314.558594 156 C 321.761719 146.640625 329.199219 138.078125 336.558594 130.398438 Z M 277.359375 177.519531 C 273.441406 183.679688 269.519531 190 265.839844 196.480469 C 262.160156 202.878906 258.71875 209.28125 255.441406 215.679688 C 251.121094 204.960938 247.441406 194.238281 244.398438 183.839844 C 254.878906 181.359375 265.921875 179.199219 277.359375 177.519531 Z M 204.960938 277.679688 C 176.640625 265.601562 158.320312 249.761719 158.320312 237.199219 C 158.320312 224.640625 176.640625 208.71875 204.960938 196.71875 C 211.839844 193.761719 219.359375 191.121094 227.121094 188.640625 C 231.679688 204.320312 237.679688 220.640625 245.121094 237.359375 C 237.761719 254 231.839844 270.238281 227.359375 285.839844 C 219.441406 283.359375 211.921875 280.640625 204.960938 277.679688 Z M 248 392 C 237.121094 385.761719 232.398438 362 236.078125 331.441406 C 236.960938 323.921875 238.398438 316 240.160156 307.921875 C 255.839844 311.761719 272.960938 314.71875 290.960938 316.640625 C 301.761719 331.441406 312.960938 344.878906 324.238281 356.640625 C 298.160156 380.878906 273.679688 394.160156 257.039062 394.160156 C 253.441406 394.078125 250.398438 393.359375 248 392 Z M 437.761719 331.039062 C 441.519531 361.601562 436.878906 385.359375 426.078125 391.679688 C 423.679688 393.121094 420.558594 393.761719 416.878906 393.761719 C 400.320312 393.761719 375.761719 380.558594 349.679688 356.480469 C 360.878906 344.71875 372.078125 331.359375 382.71875 316.558594 C 400.800781 314.640625 417.921875 311.679688 433.601562 307.761719 C 435.441406 315.839844 436.878906 323.601562 437.761719 331.039062 Z M 468.558594 277.679688 C 461.679688 280.640625 454.160156 283.28125 446.398438 285.761719 C 441.839844 270.078125 435.839844 253.761719 428.398438 237.039062 C 435.761719 220.398438 441.679688 204.160156 446.160156 188.558594 C 454.078125 191.039062 461.601562 193.761719 468.640625 196.71875 C 496.960938 208.800781 515.28125 224.640625 515.28125 237.199219 C 515.199219 249.761719 496.878906 265.679688 468.558594 277.679688 Z M 468.558594 277.679688 "/>
<path style=" stroke:none;fill-rule:nonzero;fill:rgb(73%,73%,73%);fill-opacity:1;" d="M 373.28125 237.199219 C 373.28125 257.390625 356.910156 273.761719 336.71875 273.761719 C 316.527344 273.761719 300.160156 257.390625 300.160156 237.199219 C 300.160156 217.007812 316.527344 200.640625 336.71875 200.640625 C 356.910156 200.640625 373.28125 217.007812 373.28125 237.199219 Z M 373.28125 237.199219 "/>
</g>
</svg>
