<?xml version="1.0" encoding="UTF-8"?>
<svg width="3341px" height="1409px" viewBox="0 0 3341 1409" version="1.1" xmlns="http://www.w3.org/2000/svg" xmlns:xlink="http://www.w3.org/1999/xlink">
    <!-- Generator: Sketch 51 (57462) - http://www.bohemiancoding.com/sketch -->
    <title>red_rect</title>
    <desc>Created with Sketch.</desc>
    <defs></defs>
    <g id="Page-1" stroke="none" stroke-width="1" fill="none" fill-rule="evenodd">
        <g id="red_rect" transform="translate(-151.000000, 0.000000)" fill-rule="nonzero">
            <path d="M1048.95643,325.595714 C1166.45713,73.7394176 1447.40651,212.964419 1592.70772,325.595714 C1738.00892,438.227009 1763.36392,576.369983 1763.34854,879.362007 C1763.33829,1081.35669 1706.43831,1285.13207 1592.6486,1490.68816 C1328.73376,1702.13869 1147.50304,1702.27488 1048.95643,1491.09673 C901.136517,1174.3295 931.455728,577.452011 1048.95643,325.595714 Z" id="Rectangle-3" fill-opacity="0.5" fill="#EC1943" opacity="0.429999977" transform="translate(1355.975274, 916.847453) rotate(60.000000) translate(-1355.975274, -916.847453) "></path>
            <path d="M297.447277,329.262449 C431.829267,149.864928 746.213353,263.861294 863.466675,329.262449 C980.719998,394.663605 945.648,561.310416 945.648,690.81362 C945.648,820.316824 1069.33774,959.728513 863.466675,1084.88809 C657.595614,1210.04767 447.506299,1285.21417 297.447277,1084.88809 C147.388256,884.562018 163.065288,508.659971 297.447277,329.262449 Z" id="Rectangle-2" fill="#27EFD9" opacity="0.501339286" transform="translate(586.794124, 720.463285) rotate(30.000000) translate(-586.794124, -720.463285) "></path>
            <path d="M2770.88889,70 C2950.66667,-66.1111111 3362.06597,-56.1902026 3490,614.444444 C3526.5367,805.971106 2950.66667,750.555556 2770.88889,614.444444 C2591.11111,478.333333 2591.11111,206.111111 2770.88889,70 Z" id="Rectangle" fill="#EC1943" opacity="0.598270091"></path>
            <path d="M2498.45319,394.117289 C2750.59384,203.219702 3327.58667,217.133904 3507.01579,1157.70764 C3507.28388,1159.11299 3507.52545,1161.19799 3507.7405,1163.96263 L3399.56356,1242.19263 L3246.68544,1326.95286 C3231.90327,1329.04891 3220.75168,1330.23395 3213.23068,1330.508 C2970.03792,1339.36943 2642.9821,1267.13157 2498.45319,1157.70764 C2246.31254,966.810052 2246.31254,585.014877 2498.45319,394.117289 Z" id="Rectangle" fill="#EC1943" opacity="0.344899537" transform="translate(2908.544099, 814.161795) rotate(-75.000000) translate(-2908.544099, -814.161795) "></path>
            <path d="M839.875,3.41060513e-13 L1550.875,3.41060513e-13 C1719.2591,3.41060513e-13 1888.90339,66.987299 2059.80788,200.961897 C2314.81028,400.862113 2129.89514,575.108755 2059.80788,638 C1882.05788,797.5 1017.625,797.5 839.875,638 C721.375,531.666667 721.375,319 839.875,3.41060513e-13 Z" id="Rectangle-2" fill="#6CEA4D" opacity="0.497433036"></path>
        </g>
    </g>
</svg>