<?xml version="1.0" encoding="UTF-8"?>
<svg width="3476px" height="1474px" viewBox="0 0 3476 1474" version="1.1" xmlns="http://www.w3.org/2000/svg" xmlns:xlink="http://www.w3.org/1999/xlink">
    <!-- Generator: Sketch 51 (57462) - http://www.bohemiancoding.com/sketch -->
    <title>red_rect</title>
    <desc>Created with Sketch.</desc>
    <defs>
        <linearGradient x1="50%" y1="0%" x2="66.4029312%" y2="100%" id="linearGradient-1">
            <stop stop-color="#F73678" stop-opacity="0.6" offset="0%"></stop>
            <stop stop-color="#EC1943" stop-opacity="0.8" offset="100%"></stop>
        </linearGradient>
    </defs>
    <g id="Page-1" stroke="none" stroke-width="1" fill="none" fill-rule="evenodd">
        <g id="red_rect" transform="translate(-529.000000, -338.000000)" fill-rule="nonzero">
            <path d="M1893.0948,827.75331 C1966.41431,1065.75039 1800.91988,1438.69635 1396.61152,1946.59121 L337.171065,1334.92298 C395.817537,700.95629 598.681485,349.585626 945.762907,280.810985 C1466.38504,177.649024 1783.11554,470.757694 1893.0948,827.75331 Z" id="Rectangle-3" fill="url(#linearGradient-1)" transform="translate(1123.574259, 1103.229659) rotate(60.000000) translate(-1123.574259, -1103.229659) "></path>
            <path d="M3283.88889,423 C3463.66667,286.888889 3875.06597,296.809797 4003,967.444444 C4039.5367,1158.97111 3463.66667,1103.55556 3283.88889,967.444444 C3104.11111,831.333333 3104.11111,559.111111 3283.88889,423 Z" id="Rectangle" fill="#FFBB58" opacity="0.604575894"></path>
            <path d="M3011.45319,747.117289 C3263.59384,556.219702 3840.58667,570.133904 4020.01579,1510.70764 C4020.28388,1512.11299 4020.52545,1514.19799 4020.7405,1516.96263 L3912.56356,1595.19263 L3759.68544,1679.95286 C3744.90327,1682.04891 3733.75168,1683.23395 3726.23068,1683.508 C3483.03792,1692.36943 3155.9821,1620.13157 3011.45319,1510.70764 C2759.31254,1319.81005 2759.31254,938.014877 3011.45319,747.117289 Z" id="Rectangle" fill="#FFBB58" opacity="0.502712037" transform="translate(3421.544099, 1167.161795) rotate(-75.000000) translate(-3421.544099, -1167.161795) "></path>
        </g>
    </g>
</svg>