<?xml version="1.0" encoding="UTF-8"?>
<svg width="1214px" height="1214px" viewBox="0 0 1214 1214" version="1.1" xmlns="http://www.w3.org/2000/svg" xmlns:xlink="http://www.w3.org/1999/xlink">
    <!-- Generator: Sketch 51.1 (57501) - http://www.bohemiancoding.com/sketch -->
    <title>battlev2_1</title>
    <desc>Created with Sketch.</desc>
    <defs>
        <radialGradient cx="50%" cy="50%" fx="50%" fy="50%" r="50%" id="radialGradient-1">
            <stop stop-color="#FFFFFF" offset="0%"></stop>
            <stop stop-color="#EDF7FE" offset="100%"></stop>
        </radialGradient>
        <rect id="path-2" x="0" y="0" width="1024" height="1024" rx="96"></rect>
        <filter x="-14.1%" y="-11.7%" width="132.8%" height="132.8%" filterUnits="objectBoundingBox" id="filter-3">
            <feOffset dx="24" dy="48" in="SourceAlpha" result="shadowOffsetOuter1"></feOffset>
            <feGaussianBlur stdDeviation="48" in="shadowOffsetOuter1" result="shadowBlurOuter1"></feGaussianBlur>
            <feColorMatrix values="0 0 0 0 0   0 0 0 0 0   0 0 0 0 0  0 0 0 0.1 0" type="matrix" in="shadowBlurOuter1"></feColorMatrix>
        </filter>
        <circle id="path-4" cx="68.2666667" cy="68.2666667" r="68.2666667"></circle>
        <filter x="-9.2%" y="-9.2%" width="118.3%" height="118.3%" filterUnits="objectBoundingBox" id="filter-5">
            <feGaussianBlur stdDeviation="8.5" in="SourceAlpha" result="shadowBlurInner1"></feGaussianBlur>
            <feOffset dx="0" dy="1" in="shadowBlurInner1" result="shadowOffsetInner1"></feOffset>
            <feComposite in="shadowOffsetInner1" in2="SourceAlpha" operator="arithmetic" k2="-1" k3="1" result="shadowInnerInner1"></feComposite>
            <feColorMatrix values="0 0 0 0 0.817582501   0 0 0 0 0.850047832   0 0 0 0 0.438959951  0 0 0 0.5 0" type="matrix" in="shadowInnerInner1"></feColorMatrix>
        </filter>
        <circle id="path-6" cx="68.2666667" cy="68.2666667" r="68.2666667"></circle>
        <filter x="-9.2%" y="-9.2%" width="118.3%" height="118.3%" filterUnits="objectBoundingBox" id="filter-7">
            <feGaussianBlur stdDeviation="8.5" in="SourceAlpha" result="shadowBlurInner1"></feGaussianBlur>
            <feOffset dx="0" dy="1" in="shadowBlurInner1" result="shadowOffsetInner1"></feOffset>
            <feComposite in="shadowOffsetInner1" in2="SourceAlpha" operator="arithmetic" k2="-1" k3="1" result="shadowInnerInner1"></feComposite>
            <feColorMatrix values="0 0 0 0 0.817582501   0 0 0 0 0.850047832   0 0 0 0 0.438959951  0 0 0 0.5 0" type="matrix" in="shadowInnerInner1"></feColorMatrix>
        </filter>
        <circle id="path-8" cx="68.2666667" cy="68.2666667" r="68.2666667"></circle>
        <filter x="-9.2%" y="-9.2%" width="118.3%" height="118.3%" filterUnits="objectBoundingBox" id="filter-9">
            <feGaussianBlur stdDeviation="8.5" in="SourceAlpha" result="shadowBlurInner1"></feGaussianBlur>
            <feOffset dx="0" dy="1" in="shadowBlurInner1" result="shadowOffsetInner1"></feOffset>
            <feComposite in="shadowOffsetInner1" in2="SourceAlpha" operator="arithmetic" k2="-1" k3="1" result="shadowInnerInner1"></feComposite>
            <feColorMatrix values="0 0 0 0 0.817582501   0 0 0 0 0.850047832   0 0 0 0 0.438959951  0 0 0 0.5 0" type="matrix" in="shadowInnerInner1"></feColorMatrix>
        </filter>
        <circle id="path-10" cx="68.2666667" cy="68.2666667" r="68.2666667"></circle>
        <filter x="-9.2%" y="-9.2%" width="118.3%" height="118.3%" filterUnits="objectBoundingBox" id="filter-11">
            <feGaussianBlur stdDeviation="8.5" in="SourceAlpha" result="shadowBlurInner1"></feGaussianBlur>
            <feOffset dx="0" dy="1" in="shadowBlurInner1" result="shadowOffsetInner1"></feOffset>
            <feComposite in="shadowOffsetInner1" in2="SourceAlpha" operator="arithmetic" k2="-1" k3="1" result="shadowInnerInner1"></feComposite>
            <feColorMatrix values="0 0 0 0 0.817582501   0 0 0 0 0.850047832   0 0 0 0 0.438959951  0 0 0 0.5 0" type="matrix" in="shadowInnerInner1"></feColorMatrix>
        </filter>
        <circle id="path-12" cx="68.2666667" cy="68.2666667" r="68.2666667"></circle>
        <filter x="-9.2%" y="-9.2%" width="118.3%" height="118.3%" filterUnits="objectBoundingBox" id="filter-13">
            <feGaussianBlur stdDeviation="8.5" in="SourceAlpha" result="shadowBlurInner1"></feGaussianBlur>
            <feOffset dx="0" dy="1" in="shadowBlurInner1" result="shadowOffsetInner1"></feOffset>
            <feComposite in="shadowOffsetInner1" in2="SourceAlpha" operator="arithmetic" k2="-1" k3="1" result="shadowInnerInner1"></feComposite>
            <feColorMatrix values="0 0 0 0 0.817582501   0 0 0 0 0.850047832   0 0 0 0 0.438959951  0 0 0 0.5 0" type="matrix" in="shadowInnerInner1"></feColorMatrix>
        </filter>
        <path d="M154.211857,182.822611 C146.445488,178.896788 141.198167,173.785428 138.469893,167.488529 C134.203935,157.642632 127.332101,152.732446 117.854389,152.757971 C115.185201,154.053909 112.259467,154.903961 109.173994,155.211311 C110.134506,157.196343 110.94377,159.625803 111.481122,162.588486 C113.352612,172.906907 119.813925,181.817656 130.86506,189.320732 C117.48868,181.901895 110.002536,174.015977 108.406629,165.662979 C106.301345,160.229286 103.964425,156.61474 101.39587,154.819342 C100.333452,154.602938 99.2947304,154.321351 98.2840639,153.978938 C97.1182794,155.960673 95.0536018,158.181737 91.7035306,160.612561 C81.6087369,167.93738 78.6814547,177.174328 82.9216839,188.323405 C81.1176149,185.157139 79.8013517,182.200103 78.972895,179.452297 C78.4100444,181.482823 77.7065879,183.655341 76.6886178,186.081846 C71.4347925,198.605228 66.0358248,204.011047 60.0618329,209.076164 C56.1458043,212.396414 49.851979,214.900872 41.1803573,216.589538 C56.1286035,211.978176 66.5119004,202.573537 72.3302484,188.375621 C74.0299297,184.228063 74.7394435,179.174722 75.7518566,174.637349 C69.0906901,182.035117 57.566857,187.144371 41.1803573,189.965112 C55.7232083,185.659563 66.1618983,178.414782 72.4964266,168.23077 C75.731297,163.030074 78.2708071,156.598879 82.2159067,152.376549 C82.2160443,152.258653 82.2161969,152.132532 82.2161969,151.997771 C82.2161969,151.395741 84.3415414,151.016616 84.6866366,148.813272 C84.8053253,148.055477 84.816588,147.168916 84.7792483,146.253956 C84.6410657,146.199291 84.4996413,146.145887 84.3549751,146.093746 C84.4933691,146.049903 84.6303389,146.006558 84.765885,145.963712 C84.7140903,144.948634 84.6106597,143.91186 84.5346461,142.988275 C82.2156764,139.207638 80.8416686,134.784699 80.7414592,130.048336 C73.3532577,126.287889 64.6233328,125.999529 54.5516843,129.183257 C40.1870504,133.72403 22.0031556,129.782523 0,117.358733 C16.6713017,124.597599 32.3122296,126.856034 46.9227837,124.134038 C56.7414153,122.304793 67.3797255,118.117284 76.1399145,120.499304 C77.6109823,120.899308 79.5053351,121.415603 81.8229732,122.048188 C82.6891181,119.162147 84.0459856,116.488391 85.7966461,114.123863 C77.9248102,100.142682 69.489725,94.3507437 60.4913908,96.7480462 C57.2403602,97.6141739 53.0365254,96.1020521 50.844725,94.628577 C48.2542962,92.8871169 46.1550206,87.5672278 44.5468982,78.6689107 C44.4220227,78.3937884 44.2368844,77.8970518 43.9914828,77.1787008 C43.2677182,75.0600625 42.1413572,73.4924967 40.6123999,72.4760035 L36.4838286,70.1847102 C38.7703569,70.576497 40.6763976,71.1314638 42.2019506,71.8496101 C43.5985162,72.5070365 44.383752,73.1635392 44.5576573,73.8191181 L46.0380696,64.1015873 C46.131203,79.6894215 48.6708775,88.9897445 53.6570926,92.0025565 C56.4175958,93.6705306 62.4021997,91.3165066 66.2657849,92.0025565 C76.1000267,93.7488047 83.7239316,96.8383835 89.1375,101.271293 C90.6489894,101.824826 92.6057452,102.662434 94.7431503,102.662434 C97.5382782,102.662434 99.439105,100.091283 100.44563,94.9489835 C99.233228,91.6652383 97.6610568,88.3162578 95.7291174,84.9020421 C86.7998746,69.1218575 84.8559457,46.6381984 89.8973302,17.4510645 C88.8356884,30.7575735 89.4837214,43.1090554 91.8414293,54.5055101 C91.914802,54.5924328 91.9904209,54.6831674 92.0683545,54.7777968 C93.1552603,56.0975498 94.7611964,54.0367188 96.2072195,51.5345737 C96.9780282,49.5207359 97.8627404,47.3586423 98.9392793,45.3087843 C101.126065,41.1448838 106.070234,28.8274548 110.715534,20.3902144 C113.477495,15.3736747 118.067643,8.59168907 124.485978,0.0442573932 C118.651182,9.30481281 114.562263,16.308859 112.219222,21.0563959 C107.737458,30.1374716 104.315156,40.5613111 101.404301,47.2964983 C98.7068969,53.5378003 96.7989222,58.3928421 95.6803778,61.8616228 C95.5242089,62.8031996 95.3191199,63.9796903 95.3191199,65.2559428 C95.3191199,66.2208129 95.4363412,67.1286626 95.5610237,67.9210914 C96.3606294,70.1876813 97.2381046,72.4107732 98.1934489,74.5903674 C101.87085,82.9802676 106.99355,91.57362 109.486995,99.9947836 C111.457576,101.267478 114.065643,103.37451 116.121688,103.37451 C117.929582,103.37451 120.164288,101.745395 122.017105,100.486891 C123.903818,98.3032069 125.467938,95.5592641 126.709467,92.2550624 C128.488693,87.5198318 131.69822,83.5318631 136.338048,80.2911554 C136.611683,79.5157954 136.840414,78.7863081 137.010155,78.1492635 C138.195508,73.7005865 137.340431,71.8596018 139.184437,66.8154323 C144.5285,52.1970588 150.020199,45.8869201 156.096798,39.9744768 C160.080087,36.0987946 166.482013,33.1753752 175.302576,31.2042185 C160.097583,36.5869981 149.535946,47.5649052 143.617664,64.1379399 C142.044107,68.5443901 142.112062,72.8462711 141.678829,77.1903817 C148.375554,73.9527204 157.094886,71.7717715 167.836826,70.6475352 C152.275827,74.2586706 141.418126,81.3881652 135.263722,92.0360187 C131.658028,98.2742998 129.173535,106.350224 123.955383,110.353201 C126.899607,113.028337 129.223974,116.373732 130.687524,120.1484 C133.782531,119.753694 141.008823,121.200526 146.202052,132.196726 C150.680376,141.679178 159.227797,148.61399 171.844313,153.00116 C157.003586,149.297176 147.7315,143.617521 144.028058,135.962195 C139.730806,130.086198 135.81916,127.04599 132.293119,126.84157 C132.381781,127.712587 132.427203,128.596395 132.427203,129.490813 C132.427203,135.843319 130.13596,141.660612 126.334898,146.161173 C128.915853,147.427658 130.939774,148.422045 132.406661,149.144333 C138.619518,152.203514 141.69157,160.264482 145.551172,166.896319 C150.601332,169.286307 157.110596,168.833728 165.078961,165.538582 C172.589637,160.760596 184.194387,160.477913 199.893212,164.690533 C185.886177,162.181676 174.281427,163.913689 165.078961,169.886571 C159.461134,173.532835 154.735063,174.605519 151.131979,174.528126 C157.481284,181.461555 166.326917,186.607217 177.668877,189.965112 C169.951114,188.636591 163.312012,186.80042 157.751571,184.4566 C159.114525,189.931044 162.152266,194.511478 166.403355,199.057171 C168.455115,201.251118 172.199505,204.466472 177.636524,208.703232 C164.466885,200.114531 156.900853,191.786333 154.938426,183.718639 C154.676563,183.389704 154.434373,183.091028 154.211857,182.822611 Z" id="path-14"></path>
        <filter x="-14.0%" y="-9.2%" width="128.0%" height="125.9%" filterUnits="objectBoundingBox" id="filter-15">
            <feOffset dx="0" dy="8" in="SourceAlpha" result="shadowOffsetOuter1"></feOffset>
            <feGaussianBlur stdDeviation="8" in="shadowOffsetOuter1" result="shadowBlurOuter1"></feGaussianBlur>
            <feColorMatrix values="0 0 0 0 0   0 0 0 0 0   0 0 0 0 0  0 0 0 0.1 0" type="matrix" in="shadowBlurOuter1"></feColorMatrix>
        </filter>
        <path d="M154.211857,182.822611 C146.445488,178.896788 141.198167,173.785428 138.469893,167.488529 C134.203935,157.642632 127.332101,152.732446 117.854389,152.757971 C115.185201,154.053909 112.259467,154.903961 109.173994,155.211311 C110.134506,157.196343 110.94377,159.625803 111.481122,162.588486 C113.352612,172.906907 119.813925,181.817656 130.86506,189.320732 C117.48868,181.901895 110.002536,174.015977 108.406629,165.662979 C106.301345,160.229286 103.964425,156.61474 101.39587,154.819342 C100.333452,154.602938 99.2947304,154.321351 98.2840639,153.978938 C97.1182794,155.960673 95.0536018,158.181737 91.7035306,160.612561 C81.6087369,167.93738 78.6814547,177.174328 82.9216839,188.323405 C81.1176149,185.157139 79.8013517,182.200103 78.972895,179.452297 C78.4100444,181.482823 77.7065879,183.655341 76.6886178,186.081846 C71.4347925,198.605228 66.0358248,204.011047 60.0618329,209.076164 C56.1458043,212.396414 49.851979,214.900872 41.1803573,216.589538 C56.1286035,211.978176 66.5119004,202.573537 72.3302484,188.375621 C74.0299297,184.228063 74.7394435,179.174722 75.7518566,174.637349 C69.0906901,182.035117 57.566857,187.144371 41.1803573,189.965112 C55.7232083,185.659563 66.1618983,178.414782 72.4964266,168.23077 C75.731297,163.030074 78.2708071,156.598879 82.2159067,152.376549 C82.2160443,152.258653 82.2161969,152.132532 82.2161969,151.997771 C82.2161969,151.395741 84.3415414,151.016616 84.6866366,148.813272 C84.8053253,148.055477 84.816588,147.168916 84.7792483,146.253956 C84.6410657,146.199291 84.4996413,146.145887 84.3549751,146.093746 C84.4933691,146.049903 84.6303389,146.006558 84.765885,145.963712 C84.7140903,144.948634 84.6106597,143.91186 84.5346461,142.988275 C82.2156764,139.207638 80.8416686,134.784699 80.7414592,130.048336 C73.3532577,126.287889 64.6233328,125.999529 54.5516843,129.183257 C40.1870504,133.72403 22.0031556,129.782523 0,117.358733 C16.6713017,124.597599 32.3122296,126.856034 46.9227837,124.134038 C56.7414153,122.304793 67.3797255,118.117284 76.1399145,120.499304 C77.6109823,120.899308 79.5053351,121.415603 81.8229732,122.048188 C82.6891181,119.162147 84.0459856,116.488391 85.7966461,114.123863 C77.9248102,100.142682 69.489725,94.3507437 60.4913908,96.7480462 C57.2403602,97.6141739 53.0365254,96.1020521 50.844725,94.628577 C48.2542962,92.8871169 46.1550206,87.5672278 44.5468982,78.6689107 C44.4220227,78.3937884 44.2368844,77.8970518 43.9914828,77.1787008 C43.2677182,75.0600625 42.1413572,73.4924967 40.6123999,72.4760035 L36.4838286,70.1847102 C38.7703569,70.576497 40.6763976,71.1314638 42.2019506,71.8496101 C43.5985162,72.5070365 44.383752,73.1635392 44.5576573,73.8191181 L46.0380696,64.1015873 C46.131203,79.6894215 48.6708775,88.9897445 53.6570926,92.0025565 C56.4175958,93.6705306 62.4021997,91.3165066 66.2657849,92.0025565 C76.1000267,93.7488047 83.7239316,96.8383835 89.1375,101.271293 C90.6489894,101.824826 92.6057452,102.662434 94.7431503,102.662434 C97.5382782,102.662434 99.439105,100.091283 100.44563,94.9489835 C99.233228,91.6652383 97.6610568,88.3162578 95.7291174,84.9020421 C86.7998746,69.1218575 84.8559457,46.6381984 89.8973302,17.4510645 C88.8356884,30.7575735 89.4837214,43.1090554 91.8414293,54.5055101 C91.914802,54.5924328 91.9904209,54.6831674 92.0683545,54.7777968 C93.1552603,56.0975498 94.7611964,54.0367188 96.2072195,51.5345737 C96.9780282,49.5207359 97.8627404,47.3586423 98.9392793,45.3087843 C101.126065,41.1448838 106.070234,28.8274548 110.715534,20.3902144 C113.477495,15.3736747 118.067643,8.59168907 124.485978,0.0442573932 C118.651182,9.30481281 114.562263,16.308859 112.219222,21.0563959 C107.737458,30.1374716 104.315156,40.5613111 101.404301,47.2964983 C98.7068969,53.5378003 96.7989222,58.3928421 95.6803778,61.8616228 C95.5242089,62.8031996 95.3191199,63.9796903 95.3191199,65.2559428 C95.3191199,66.2208129 95.4363412,67.1286626 95.5610237,67.9210914 C96.3606294,70.1876813 97.2381046,72.4107732 98.1934489,74.5903674 C101.87085,82.9802676 106.99355,91.57362 109.486995,99.9947836 C111.457576,101.267478 114.065643,103.37451 116.121688,103.37451 C117.929582,103.37451 120.164288,101.745395 122.017105,100.486891 C123.903818,98.3032069 125.467938,95.5592641 126.709467,92.2550624 C128.488693,87.5198318 131.69822,83.5318631 136.338048,80.2911554 C136.611683,79.5157954 136.840414,78.7863081 137.010155,78.1492635 C138.195508,73.7005865 137.340431,71.8596018 139.184437,66.8154323 C144.5285,52.1970588 150.020199,45.8869201 156.096798,39.9744768 C160.080087,36.0987946 166.482013,33.1753752 175.302576,31.2042185 C160.097583,36.5869981 149.535946,47.5649052 143.617664,64.1379399 C142.044107,68.5443901 142.112062,72.8462711 141.678829,77.1903817 C148.375554,73.9527204 157.094886,71.7717715 167.836826,70.6475352 C152.275827,74.2586706 141.418126,81.3881652 135.263722,92.0360187 C131.658028,98.2742998 129.173535,106.350224 123.955383,110.353201 C126.899607,113.028337 129.223974,116.373732 130.687524,120.1484 C133.782531,119.753694 141.008823,121.200526 146.202052,132.196726 C150.680376,141.679178 159.227797,148.61399 171.844313,153.00116 C157.003586,149.297176 147.7315,143.617521 144.028058,135.962195 C139.730806,130.086198 135.81916,127.04599 132.293119,126.84157 C132.381781,127.712587 132.427203,128.596395 132.427203,129.490813 C132.427203,135.843319 130.13596,141.660612 126.334898,146.161173 C128.915853,147.427658 130.939774,148.422045 132.406661,149.144333 C138.619518,152.203514 141.69157,160.264482 145.551172,166.896319 C150.601332,169.286307 157.110596,168.833728 165.078961,165.538582 C172.589637,160.760596 184.194387,160.477913 199.893212,164.690533 C185.886177,162.181676 174.281427,163.913689 165.078961,169.886571 C159.461134,173.532835 154.735063,174.605519 151.131979,174.528126 C157.481284,181.461555 166.326917,186.607217 177.668877,189.965112 C169.951114,188.636591 163.312012,186.80042 157.751571,184.4566 C159.114525,189.931044 162.152266,194.511478 166.403355,199.057171 C168.455115,201.251118 172.199505,204.466472 177.636524,208.703232 C164.466885,200.114531 156.900853,191.786333 154.938426,183.718639 C154.676563,183.389704 154.434373,183.091028 154.211857,182.822611 Z" id="path-16"></path>
        <filter x="-14.0%" y="-9.2%" width="128.0%" height="125.9%" filterUnits="objectBoundingBox" id="filter-17">
            <feOffset dx="0" dy="8" in="SourceAlpha" result="shadowOffsetOuter1"></feOffset>
            <feGaussianBlur stdDeviation="8" in="shadowOffsetOuter1" result="shadowBlurOuter1"></feGaussianBlur>
            <feColorMatrix values="0 0 0 0 0   0 0 0 0 0   0 0 0 0 0  0 0 0 0.1 0" type="matrix" in="shadowBlurOuter1"></feColorMatrix>
        </filter>
        <path d="M154.211857,182.822611 C146.445488,178.896788 141.198167,173.785428 138.469893,167.488529 C134.203935,157.642632 127.332101,152.732446 117.854389,152.757971 C115.185201,154.053909 112.259467,154.903961 109.173994,155.211311 C110.134506,157.196343 110.94377,159.625803 111.481122,162.588486 C113.352612,172.906907 119.813925,181.817656 130.86506,189.320732 C117.48868,181.901895 110.002536,174.015977 108.406629,165.662979 C106.301345,160.229286 103.964425,156.61474 101.39587,154.819342 C100.333452,154.602938 99.2947304,154.321351 98.2840639,153.978938 C97.1182794,155.960673 95.0536018,158.181737 91.7035306,160.612561 C81.6087369,167.93738 78.6814547,177.174328 82.9216839,188.323405 C81.1176149,185.157139 79.8013517,182.200103 78.972895,179.452297 C78.4100444,181.482823 77.7065879,183.655341 76.6886178,186.081846 C71.4347925,198.605228 66.0358248,204.011047 60.0618329,209.076164 C56.1458043,212.396414 49.851979,214.900872 41.1803573,216.589538 C56.1286035,211.978176 66.5119004,202.573537 72.3302484,188.375621 C74.0299297,184.228063 74.7394435,179.174722 75.7518566,174.637349 C69.0906901,182.035117 57.566857,187.144371 41.1803573,189.965112 C55.7232083,185.659563 66.1618983,178.414782 72.4964266,168.23077 C75.731297,163.030074 78.2708071,156.598879 82.2159067,152.376549 C82.2160443,152.258653 82.2161969,152.132532 82.2161969,151.997771 C82.2161969,151.395741 84.3415414,151.016616 84.6866366,148.813272 C84.8053253,148.055477 84.816588,147.168916 84.7792483,146.253956 C84.6410657,146.199291 84.4996413,146.145887 84.3549751,146.093746 C84.4933691,146.049903 84.6303389,146.006558 84.765885,145.963712 C84.7140903,144.948634 84.6106597,143.91186 84.5346461,142.988275 C82.2156764,139.207638 80.8416686,134.784699 80.7414592,130.048336 C73.3532577,126.287889 64.6233328,125.999529 54.5516843,129.183257 C40.1870504,133.72403 22.0031556,129.782523 0,117.358733 C16.6713017,124.597599 32.3122296,126.856034 46.9227837,124.134038 C56.7414153,122.304793 67.3797255,118.117284 76.1399145,120.499304 C77.6109823,120.899308 79.5053351,121.415603 81.8229732,122.048188 C82.6891181,119.162147 84.0459856,116.488391 85.7966461,114.123863 C77.9248102,100.142682 69.489725,94.3507437 60.4913908,96.7480462 C57.2403602,97.6141739 53.0365254,96.1020521 50.844725,94.628577 C48.2542962,92.8871169 46.1550206,87.5672278 44.5468982,78.6689107 C44.4220227,78.3937884 44.2368844,77.8970518 43.9914828,77.1787008 C43.2677182,75.0600625 42.1413572,73.4924967 40.6123999,72.4760035 L36.4838286,70.1847102 C38.7703569,70.576497 40.6763976,71.1314638 42.2019506,71.8496101 C43.5985162,72.5070365 44.383752,73.1635392 44.5576573,73.8191181 L46.0380696,64.1015873 C46.131203,79.6894215 48.6708775,88.9897445 53.6570926,92.0025565 C56.4175958,93.6705306 62.4021997,91.3165066 66.2657849,92.0025565 C76.1000267,93.7488047 83.7239316,96.8383835 89.1375,101.271293 C90.6489894,101.824826 92.6057452,102.662434 94.7431503,102.662434 C97.5382782,102.662434 99.439105,100.091283 100.44563,94.9489835 C99.233228,91.6652383 97.6610568,88.3162578 95.7291174,84.9020421 C86.7998746,69.1218575 84.8559457,46.6381984 89.8973302,17.4510645 C88.8356884,30.7575735 89.4837214,43.1090554 91.8414293,54.5055101 C91.914802,54.5924328 91.9904209,54.6831674 92.0683545,54.7777968 C93.1552603,56.0975498 94.7611964,54.0367188 96.2072195,51.5345737 C96.9780282,49.5207359 97.8627404,47.3586423 98.9392793,45.3087843 C101.126065,41.1448838 106.070234,28.8274548 110.715534,20.3902144 C113.477495,15.3736747 118.067643,8.59168907 124.485978,0.0442573932 C118.651182,9.30481281 114.562263,16.308859 112.219222,21.0563959 C107.737458,30.1374716 104.315156,40.5613111 101.404301,47.2964983 C98.7068969,53.5378003 96.7989222,58.3928421 95.6803778,61.8616228 C95.5242089,62.8031996 95.3191199,63.9796903 95.3191199,65.2559428 C95.3191199,66.2208129 95.4363412,67.1286626 95.5610237,67.9210914 C96.3606294,70.1876813 97.2381046,72.4107732 98.1934489,74.5903674 C101.87085,82.9802676 106.99355,91.57362 109.486995,99.9947836 C111.457576,101.267478 114.065643,103.37451 116.121688,103.37451 C117.929582,103.37451 120.164288,101.745395 122.017105,100.486891 C123.903818,98.3032069 125.467938,95.5592641 126.709467,92.2550624 C128.488693,87.5198318 131.69822,83.5318631 136.338048,80.2911554 C136.611683,79.5157954 136.840414,78.7863081 137.010155,78.1492635 C138.195508,73.7005865 137.340431,71.8596018 139.184437,66.8154323 C144.5285,52.1970588 150.020199,45.8869201 156.096798,39.9744768 C160.080087,36.0987946 166.482013,33.1753752 175.302576,31.2042185 C160.097583,36.5869981 149.535946,47.5649052 143.617664,64.1379399 C142.044107,68.5443901 142.112062,72.8462711 141.678829,77.1903817 C148.375554,73.9527204 157.094886,71.7717715 167.836826,70.6475352 C152.275827,74.2586706 141.418126,81.3881652 135.263722,92.0360187 C131.658028,98.2742998 129.173535,106.350224 123.955383,110.353201 C126.899607,113.028337 129.223974,116.373732 130.687524,120.1484 C133.782531,119.753694 141.008823,121.200526 146.202052,132.196726 C150.680376,141.679178 159.227797,148.61399 171.844313,153.00116 C157.003586,149.297176 147.7315,143.617521 144.028058,135.962195 C139.730806,130.086198 135.81916,127.04599 132.293119,126.84157 C132.381781,127.712587 132.427203,128.596395 132.427203,129.490813 C132.427203,135.843319 130.13596,141.660612 126.334898,146.161173 C128.915853,147.427658 130.939774,148.422045 132.406661,149.144333 C138.619518,152.203514 141.69157,160.264482 145.551172,166.896319 C150.601332,169.286307 157.110596,168.833728 165.078961,165.538582 C172.589637,160.760596 184.194387,160.477913 199.893212,164.690533 C185.886177,162.181676 174.281427,163.913689 165.078961,169.886571 C159.461134,173.532835 154.735063,174.605519 151.131979,174.528126 C157.481284,181.461555 166.326917,186.607217 177.668877,189.965112 C169.951114,188.636591 163.312012,186.80042 157.751571,184.4566 C159.114525,189.931044 162.152266,194.511478 166.403355,199.057171 C168.455115,201.251118 172.199505,204.466472 177.636524,208.703232 C164.466885,200.114531 156.900853,191.786333 154.938426,183.718639 C154.676563,183.389704 154.434373,183.091028 154.211857,182.822611 Z" id="path-18"></path>
        <filter x="-14.0%" y="-9.2%" width="128.0%" height="125.9%" filterUnits="objectBoundingBox" id="filter-19">
            <feOffset dx="0" dy="8" in="SourceAlpha" result="shadowOffsetOuter1"></feOffset>
            <feGaussianBlur stdDeviation="8" in="shadowOffsetOuter1" result="shadowBlurOuter1"></feGaussianBlur>
            <feColorMatrix values="0 0 0 0 0   0 0 0 0 0   0 0 0 0 0  0 0 0 0.1 0" type="matrix" in="shadowBlurOuter1"></feColorMatrix>
        </filter>
        <path d="M154.211857,182.822611 C146.445488,178.896788 141.198167,173.785428 138.469893,167.488529 C134.203935,157.642632 127.332101,152.732446 117.854389,152.757971 C115.185201,154.053909 112.259467,154.903961 109.173994,155.211311 C110.134506,157.196343 110.94377,159.625803 111.481122,162.588486 C113.352612,172.906907 119.813925,181.817656 130.86506,189.320732 C117.48868,181.901895 110.002536,174.015977 108.406629,165.662979 C106.301345,160.229286 103.964425,156.61474 101.39587,154.819342 C100.333452,154.602938 99.2947304,154.321351 98.2840639,153.978938 C97.1182794,155.960673 95.0536018,158.181737 91.7035306,160.612561 C81.6087369,167.93738 78.6814547,177.174328 82.9216839,188.323405 C81.1176149,185.157139 79.8013517,182.200103 78.972895,179.452297 C78.4100444,181.482823 77.7065879,183.655341 76.6886178,186.081846 C71.4347925,198.605228 66.0358248,204.011047 60.0618329,209.076164 C56.1458043,212.396414 49.851979,214.900872 41.1803573,216.589538 C56.1286035,211.978176 66.5119004,202.573537 72.3302484,188.375621 C74.0299297,184.228063 74.7394435,179.174722 75.7518566,174.637349 C69.0906901,182.035117 57.566857,187.144371 41.1803573,189.965112 C55.7232083,185.659563 66.1618983,178.414782 72.4964266,168.23077 C75.731297,163.030074 78.2708071,156.598879 82.2159067,152.376549 C82.2160443,152.258653 82.2161969,152.132532 82.2161969,151.997771 C82.2161969,151.395741 84.3415414,151.016616 84.6866366,148.813272 C84.8053253,148.055477 84.816588,147.168916 84.7792483,146.253956 C84.6410657,146.199291 84.4996413,146.145887 84.3549751,146.093746 C84.4933691,146.049903 84.6303389,146.006558 84.765885,145.963712 C84.7140903,144.948634 84.6106597,143.91186 84.5346461,142.988275 C82.2156764,139.207638 80.8416686,134.784699 80.7414592,130.048336 C73.3532577,126.287889 64.6233328,125.999529 54.5516843,129.183257 C40.1870504,133.72403 22.0031556,129.782523 0,117.358733 C16.6713017,124.597599 32.3122296,126.856034 46.9227837,124.134038 C56.7414153,122.304793 67.3797255,118.117284 76.1399145,120.499304 C77.6109823,120.899308 79.5053351,121.415603 81.8229732,122.048188 C82.6891181,119.162147 84.0459856,116.488391 85.7966461,114.123863 C77.9248102,100.142682 69.489725,94.3507437 60.4913908,96.7480462 C57.2403602,97.6141739 53.0365254,96.1020521 50.844725,94.628577 C48.2542962,92.8871169 46.1550206,87.5672278 44.5468982,78.6689107 C44.4220227,78.3937884 44.2368844,77.8970518 43.9914828,77.1787008 C43.2677182,75.0600625 42.1413572,73.4924967 40.6123999,72.4760035 L36.4838286,70.1847102 C38.7703569,70.576497 40.6763976,71.1314638 42.2019506,71.8496101 C43.5985162,72.5070365 44.383752,73.1635392 44.5576573,73.8191181 L46.0380696,64.1015873 C46.131203,79.6894215 48.6708775,88.9897445 53.6570926,92.0025565 C56.4175958,93.6705306 62.4021997,91.3165066 66.2657849,92.0025565 C76.1000267,93.7488047 83.7239316,96.8383835 89.1375,101.271293 C90.6489894,101.824826 92.6057452,102.662434 94.7431503,102.662434 C97.5382782,102.662434 99.439105,100.091283 100.44563,94.9489835 C99.233228,91.6652383 97.6610568,88.3162578 95.7291174,84.9020421 C86.7998746,69.1218575 84.8559457,46.6381984 89.8973302,17.4510645 C88.8356884,30.7575735 89.4837214,43.1090554 91.8414293,54.5055101 C91.914802,54.5924328 91.9904209,54.6831674 92.0683545,54.7777968 C93.1552603,56.0975498 94.7611964,54.0367188 96.2072195,51.5345737 C96.9780282,49.5207359 97.8627404,47.3586423 98.9392793,45.3087843 C101.126065,41.1448838 106.070234,28.8274548 110.715534,20.3902144 C113.477495,15.3736747 118.067643,8.59168907 124.485978,0.0442573932 C118.651182,9.30481281 114.562263,16.308859 112.219222,21.0563959 C107.737458,30.1374716 104.315156,40.5613111 101.404301,47.2964983 C98.7068969,53.5378003 96.7989222,58.3928421 95.6803778,61.8616228 C95.5242089,62.8031996 95.3191199,63.9796903 95.3191199,65.2559428 C95.3191199,66.2208129 95.4363412,67.1286626 95.5610237,67.9210914 C96.3606294,70.1876813 97.2381046,72.4107732 98.1934489,74.5903674 C101.87085,82.9802676 106.99355,91.57362 109.486995,99.9947836 C111.457576,101.267478 114.065643,103.37451 116.121688,103.37451 C117.929582,103.37451 120.164288,101.745395 122.017105,100.486891 C123.903818,98.3032069 125.467938,95.5592641 126.709467,92.2550624 C128.488693,87.5198318 131.69822,83.5318631 136.338048,80.2911554 C136.611683,79.5157954 136.840414,78.7863081 137.010155,78.1492635 C138.195508,73.7005865 137.340431,71.8596018 139.184437,66.8154323 C144.5285,52.1970588 150.020199,45.8869201 156.096798,39.9744768 C160.080087,36.0987946 166.482013,33.1753752 175.302576,31.2042185 C160.097583,36.5869981 149.535946,47.5649052 143.617664,64.1379399 C142.044107,68.5443901 142.112062,72.8462711 141.678829,77.1903817 C148.375554,73.9527204 157.094886,71.7717715 167.836826,70.6475352 C152.275827,74.2586706 141.418126,81.3881652 135.263722,92.0360187 C131.658028,98.2742998 129.173535,106.350224 123.955383,110.353201 C126.899607,113.028337 129.223974,116.373732 130.687524,120.1484 C133.782531,119.753694 141.008823,121.200526 146.202052,132.196726 C150.680376,141.679178 159.227797,148.61399 171.844313,153.00116 C157.003586,149.297176 147.7315,143.617521 144.028058,135.962195 C139.730806,130.086198 135.81916,127.04599 132.293119,126.84157 C132.381781,127.712587 132.427203,128.596395 132.427203,129.490813 C132.427203,135.843319 130.13596,141.660612 126.334898,146.161173 C128.915853,147.427658 130.939774,148.422045 132.406661,149.144333 C138.619518,152.203514 141.69157,160.264482 145.551172,166.896319 C150.601332,169.286307 157.110596,168.833728 165.078961,165.538582 C172.589637,160.760596 184.194387,160.477913 199.893212,164.690533 C185.886177,162.181676 174.281427,163.913689 165.078961,169.886571 C159.461134,173.532835 154.735063,174.605519 151.131979,174.528126 C157.481284,181.461555 166.326917,186.607217 177.668877,189.965112 C169.951114,188.636591 163.312012,186.80042 157.751571,184.4566 C159.114525,189.931044 162.152266,194.511478 166.403355,199.057171 C168.455115,201.251118 172.199505,204.466472 177.636524,208.703232 C164.466885,200.114531 156.900853,191.786333 154.938426,183.718639 C154.676563,183.389704 154.434373,183.091028 154.211857,182.822611 Z" id="path-20"></path>
        <filter x="-14.0%" y="-9.2%" width="128.0%" height="125.9%" filterUnits="objectBoundingBox" id="filter-21">
            <feOffset dx="0" dy="8" in="SourceAlpha" result="shadowOffsetOuter1"></feOffset>
            <feGaussianBlur stdDeviation="8" in="shadowOffsetOuter1" result="shadowBlurOuter1"></feGaussianBlur>
            <feColorMatrix values="0 0 0 0 0   0 0 0 0 0   0 0 0 0 0  0 0 0 0.1 0" type="matrix" in="shadowBlurOuter1"></feColorMatrix>
        </filter>
        <path d="M154.211857,182.822611 C146.445488,178.896788 141.198167,173.785428 138.469893,167.488529 C134.203935,157.642632 127.332101,152.732446 117.854389,152.757971 C115.185201,154.053909 112.259467,154.903961 109.173994,155.211311 C110.134506,157.196343 110.94377,159.625803 111.481122,162.588486 C113.352612,172.906907 119.813925,181.817656 130.86506,189.320732 C117.48868,181.901895 110.002536,174.015977 108.406629,165.662979 C106.301345,160.229286 103.964425,156.61474 101.39587,154.819342 C100.333452,154.602938 99.2947304,154.321351 98.2840639,153.978938 C97.1182794,155.960673 95.0536018,158.181737 91.7035306,160.612561 C81.6087369,167.93738 78.6814547,177.174328 82.9216839,188.323405 C81.1176149,185.157139 79.8013517,182.200103 78.972895,179.452297 C78.4100444,181.482823 77.7065879,183.655341 76.6886178,186.081846 C71.4347925,198.605228 66.0358248,204.011047 60.0618329,209.076164 C56.1458043,212.396414 49.851979,214.900872 41.1803573,216.589538 C56.1286035,211.978176 66.5119004,202.573537 72.3302484,188.375621 C74.0299297,184.228063 74.7394435,179.174722 75.7518566,174.637349 C69.0906901,182.035117 57.566857,187.144371 41.1803573,189.965112 C55.7232083,185.659563 66.1618983,178.414782 72.4964266,168.23077 C75.731297,163.030074 78.2708071,156.598879 82.2159067,152.376549 C82.2160443,152.258653 82.2161969,152.132532 82.2161969,151.997771 C82.2161969,151.395741 84.3415414,151.016616 84.6866366,148.813272 C84.8053253,148.055477 84.816588,147.168916 84.7792483,146.253956 C84.6410657,146.199291 84.4996413,146.145887 84.3549751,146.093746 C84.4933691,146.049903 84.6303389,146.006558 84.765885,145.963712 C84.7140903,144.948634 84.6106597,143.91186 84.5346461,142.988275 C82.2156764,139.207638 80.8416686,134.784699 80.7414592,130.048336 C73.3532577,126.287889 64.6233328,125.999529 54.5516843,129.183257 C40.1870504,133.72403 22.0031556,129.782523 0,117.358733 C16.6713017,124.597599 32.3122296,126.856034 46.9227837,124.134038 C56.7414153,122.304793 67.3797255,118.117284 76.1399145,120.499304 C77.6109823,120.899308 79.5053351,121.415603 81.8229732,122.048188 C82.6891181,119.162147 84.0459856,116.488391 85.7966461,114.123863 C77.9248102,100.142682 69.489725,94.3507437 60.4913908,96.7480462 C57.2403602,97.6141739 53.0365254,96.1020521 50.844725,94.628577 C48.2542962,92.8871169 46.1550206,87.5672278 44.5468982,78.6689107 C44.4220227,78.3937884 44.2368844,77.8970518 43.9914828,77.1787008 C43.2677182,75.0600625 42.1413572,73.4924967 40.6123999,72.4760035 L36.4838286,70.1847102 C38.7703569,70.576497 40.6763976,71.1314638 42.2019506,71.8496101 C43.5985162,72.5070365 44.383752,73.1635392 44.5576573,73.8191181 L46.0380696,64.1015873 C46.131203,79.6894215 48.6708775,88.9897445 53.6570926,92.0025565 C56.4175958,93.6705306 62.4021997,91.3165066 66.2657849,92.0025565 C76.1000267,93.7488047 83.7239316,96.8383835 89.1375,101.271293 C90.6489894,101.824826 92.6057452,102.662434 94.7431503,102.662434 C97.5382782,102.662434 99.439105,100.091283 100.44563,94.9489835 C99.233228,91.6652383 97.6610568,88.3162578 95.7291174,84.9020421 C86.7998746,69.1218575 84.8559457,46.6381984 89.8973302,17.4510645 C88.8356884,30.7575735 89.4837214,43.1090554 91.8414293,54.5055101 C91.914802,54.5924328 91.9904209,54.6831674 92.0683545,54.7777968 C93.1552603,56.0975498 94.7611964,54.0367188 96.2072195,51.5345737 C96.9780282,49.5207359 97.8627404,47.3586423 98.9392793,45.3087843 C101.126065,41.1448838 106.070234,28.8274548 110.715534,20.3902144 C113.477495,15.3736747 118.067643,8.59168907 124.485978,0.0442573932 C118.651182,9.30481281 114.562263,16.308859 112.219222,21.0563959 C107.737458,30.1374716 104.315156,40.5613111 101.404301,47.2964983 C98.7068969,53.5378003 96.7989222,58.3928421 95.6803778,61.8616228 C95.5242089,62.8031996 95.3191199,63.9796903 95.3191199,65.2559428 C95.3191199,66.2208129 95.4363412,67.1286626 95.5610237,67.9210914 C96.3606294,70.1876813 97.2381046,72.4107732 98.1934489,74.5903674 C101.87085,82.9802676 106.99355,91.57362 109.486995,99.9947836 C111.457576,101.267478 114.065643,103.37451 116.121688,103.37451 C117.929582,103.37451 120.164288,101.745395 122.017105,100.486891 C123.903818,98.3032069 125.467938,95.5592641 126.709467,92.2550624 C128.488693,87.5198318 131.69822,83.5318631 136.338048,80.2911554 C136.611683,79.5157954 136.840414,78.7863081 137.010155,78.1492635 C138.195508,73.7005865 137.340431,71.8596018 139.184437,66.8154323 C144.5285,52.1970588 150.020199,45.8869201 156.096798,39.9744768 C160.080087,36.0987946 166.482013,33.1753752 175.302576,31.2042185 C160.097583,36.5869981 149.535946,47.5649052 143.617664,64.1379399 C142.044107,68.5443901 142.112062,72.8462711 141.678829,77.1903817 C148.375554,73.9527204 157.094886,71.7717715 167.836826,70.6475352 C152.275827,74.2586706 141.418126,81.3881652 135.263722,92.0360187 C131.658028,98.2742998 129.173535,106.350224 123.955383,110.353201 C126.899607,113.028337 129.223974,116.373732 130.687524,120.1484 C133.782531,119.753694 141.008823,121.200526 146.202052,132.196726 C150.680376,141.679178 159.227797,148.61399 171.844313,153.00116 C157.003586,149.297176 147.7315,143.617521 144.028058,135.962195 C139.730806,130.086198 135.81916,127.04599 132.293119,126.84157 C132.381781,127.712587 132.427203,128.596395 132.427203,129.490813 C132.427203,135.843319 130.13596,141.660612 126.334898,146.161173 C128.915853,147.427658 130.939774,148.422045 132.406661,149.144333 C138.619518,152.203514 141.69157,160.264482 145.551172,166.896319 C150.601332,169.286307 157.110596,168.833728 165.078961,165.538582 C172.589637,160.760596 184.194387,160.477913 199.893212,164.690533 C185.886177,162.181676 174.281427,163.913689 165.078961,169.886571 C159.461134,173.532835 154.735063,174.605519 151.131979,174.528126 C157.481284,181.461555 166.326917,186.607217 177.668877,189.965112 C169.951114,188.636591 163.312012,186.80042 157.751571,184.4566 C159.114525,189.931044 162.152266,194.511478 166.403355,199.057171 C168.455115,201.251118 172.199505,204.466472 177.636524,208.703232 C164.466885,200.114531 156.900853,191.786333 154.938426,183.718639 C154.676563,183.389704 154.434373,183.091028 154.211857,182.822611 Z" id="path-22"></path>
        <filter x="-14.0%" y="-9.2%" width="128.0%" height="125.9%" filterUnits="objectBoundingBox" id="filter-23">
            <feOffset dx="0" dy="8" in="SourceAlpha" result="shadowOffsetOuter1"></feOffset>
            <feGaussianBlur stdDeviation="8" in="shadowOffsetOuter1" result="shadowBlurOuter1"></feGaussianBlur>
            <feColorMatrix values="0 0 0 0 0   0 0 0 0 0   0 0 0 0 0  0 0 0 0.1 0" type="matrix" in="shadowBlurOuter1"></feColorMatrix>
        </filter>
        <path d="M16.9429879,0.554629223 C23.9762654,-2.59201274 47.2089486,8.59723606 49.7907509,10.3955882 C52.3725532,12.1939404 55.4168197,16.4847773 45.0831345,20.1556241 C34.7494494,23.8264709 24.3392313,18.7937625 22.3155815,20.1556241 C21.0126126,22.6618218 13.3521941,23.9709236 16.9429879,38.563882 C20.5337817,53.1568405 26.1704908,60.6731049 33.3668694,65.0679736 C40.5632481,69.4628423 41.892352,61.3876615 49.7907509,65.0679736 C57.6891499,68.7482857 61.9554209,79.5391443 64.4237679,79.5391443 C66.892115,79.5391443 59.1707175,67.594655 64.4237679,65.0679736 C69.6768183,62.5412921 78.4786015,67.7555023 80.4359969,71.8373712 C82.3933923,75.9192401 74.5637907,77.6325063 74.5637907,86.2135451 C74.5637907,94.7945839 80.4359969,94.8237741 80.4359969,103.823127 C80.4359969,112.822479 77.587848,119.182809 74.5637907,121.873423 C65.83032,129.64391 56.2503273,125.059812 54.8677992,125.408498 C52.0759343,126.112631 61.686743,115.535873 61.686743,108.551854 C61.686743,101.567834 59.5055924,90.3829367 54.8677992,89.4165271 C50.2300059,88.4501176 42.4614153,84.9594812 39.8209664,89.4165271 C37.1805176,93.8735731 30.5996114,97.5242634 33.3668694,99.316059 C36.1341274,101.107855 40.1247299,92.1561192 45.0831345,92.1561192 C50.0415392,92.1561192 52.5433214,93.7618863 54.8677992,99.316059 C57.1922769,104.870232 57.5175069,108.469986 54.8677992,115.535873 C52.2180914,122.601761 53.4429241,122.40689 45.0831345,125.408498 C36.7233449,128.410106 32.5857851,125.408498 27.3715194,125.408498 C22.1572536,125.408498 15.0473641,128.224321 9.90971046,121.873423 C6.9593774,116.925724 10.2312231,111.8517 9.90971046,108.551854 C9.50348867,104.382594 8.12059489,100.661946 14.1400093,96.640109 C20.1594237,92.6182718 31.5082986,96.046522 27.3715194,92.1561192 C23.2347401,88.2657165 13.5311267,96.370038 9.90971046,92.1561192 C6.28829418,87.9422004 11.549511,84.0360781 9.90971046,71.8373712 C8.26990995,59.6386643 4.01287554,54.115006 4.01287554,48.2887339 C4.01287554,42.4624617 4.01287554,43.4311284 4.01287554,34.9560615 C4.01287554,26.4809945 4.01287554,25.7602352 4.01287554,20.1556241 C4.01287554,14.5510129 5.15164318,12.3068579 8.54339382,7.16524078 C9.49960153,5.71570795 9.64621248,5.32553303 9.90971046,4.33036022 C10.5808624,1.79556983 11.8925432,2.81416491 16.9429879,0.554629223 Z M57.0858656,24.4525842 C62.8392179,27.8519575 60.0880003,38.9778671 70.1801531,47.2510347 C80.272306,55.5242024 94.0395019,48.7984667 102.133921,57.517745 C110.228339,66.2370234 94.131057,62.6832509 91.0118968,63.9133958 C87.7966673,65.1814289 88.9879422,67.590193 85.5492182,66.9801621 C82.3449033,66.4117154 80.8947258,62.4675264 79.1526628,61.6951914 C76.3382679,60.4474433 70.1801531,59.8673502 70.1801531,59.0354672 C69.0255692,58.0800031 68.0835563,55.450831 65.2301062,52.0541618 C62.376656,48.6574927 60.7969567,48.2786855 57.0858656,41.8739485 C52.4394789,33.8550441 51.8522182,34.401629 48.3447558,31.8061867 C40.0093465,25.6381737 35.6076738,24.4525842 40.8369858,24.4525842 C51.9816222,24.4525842 51.3325134,21.0532108 57.0858656,24.4525842 Z M65.4464143,21.9825135 C66.8898144,19.7554026 70.6412612,20.9143238 76.7007547,25.4592769 L87.1020657,35.0157321 L95.1961848,48.0489508 L78.2745493,43.9301862 L69.3846161,36.7477978 C65.3157482,29.1313858 64.0030143,24.2096243 65.4464143,21.9825135 Z M100.245402,68.6186914 C100.735063,64.4546135 107.575769,64.5019289 109.399202,64.5019289 C110.614823,64.5019289 112.675746,66.5599363 115.581969,70.6759513 L118.561024,78.3994784 C117.110084,80.9168955 115.34941,82.6206577 113.279004,83.510765 C111.208598,84.4008724 109.006289,84.4008724 106.672077,83.510765 C102.061186,76.3587679 99.9189615,71.3947434 100.245402,68.6186914 Z M23.7186159,28.1944657 C24.4973623,23.7343959 26.619726,21.9658249 38.1849097,32.2164914 C49.7500933,42.4671579 61.8413288,54.4912213 57.7614885,58.3679713 C52.8352376,63.0489986 52.8352376,58.6269882 47.9127402,58.3679713 C43.1190876,58.1157341 37.8936095,60.2763418 32.8977823,55.8483483 C22.7718493,46.873345 22.9398695,32.6545356 23.7186159,28.1944657 Z M85.8615699,84.3522421 C87.6649339,76.2649545 88.9742243,72.7049628 96.1209284,77.9136519 C103.267633,83.122341 106.395474,92.0668029 108.927466,101.163219 C111.459458,110.259636 116.545789,116.405329 108.927466,123.922323 C101.309143,131.439318 85.8461693,138.119559 80.321153,128.641265 C77.4256811,123.674016 88.7545077,118.713458 89.3311425,110.671745 C89.8548176,103.368604 85.0032872,88.2012591 85.8615699,84.3522421 Z M112.621077,90.0198161 C113.081735,84.2791638 113.194293,94.8194924 120.872161,85.2786724 C125.990739,78.9181258 130.41769,91.3351185 134.153014,122.52965 C130.760147,126.08365 127.140385,124.956729 123.293731,119.148886 C117.523748,110.437121 112.160419,95.7604684 112.621077,90.0198161 Z M95.9443417,235.368972 C98.2627453,242.126784 93.1554852,242.838768 89.9762747,241.707707 C87.856801,240.953666 81.9418868,236.028667 72.2315318,226.93271 C72.3564111,218.055406 70.5827625,211.712682 66.910586,207.904539 C61.4023212,202.192324 53.6145121,209.193586 48.518722,202.341905 C43.422932,195.490225 44.8150295,188.611191 48.518722,183.175266 C52.2224145,177.739341 56.2086631,179.369891 63.4412117,180.440106 C70.6737603,181.51032 71.2665249,182.115198 76.8805864,187.372029 C82.4946478,192.62886 81.2106897,192.482804 83.1691176,198.912698 C85.1275455,205.342591 83.0250316,208.969806 86.3412497,218.433198 C89.6574679,227.89659 93.625938,228.611159 95.9443417,235.368972 Z M63.1318388,211.028964 C66.4112187,213.209215 66.9529173,214.453675 67.4270644,219.4695 C67.9012116,224.485326 68.0703295,224.455723 64.8476394,229.179777 C61.6249493,233.903831 59.1839301,236.53059 53.8108868,235.190468 C48.4378435,233.850346 52.143673,230.61718 44.4788659,224.099483 C36.8140588,217.581787 29.2395594,221.771025 27.7249059,213.008499 C26.2102525,204.245973 34.3744353,191.366837 38.8208381,191.366837 C43.2672408,191.366837 40.8666644,202.776429 46.2862727,206.67172 C51.7058809,210.567012 59.8524589,208.848713 63.1318388,211.028964 Z M8.40082181,135.010712 C12.7819869,132.335877 24.6095645,136.056332 31.1285838,135.010712 C42.8128491,133.136612 50.1507994,139.543105 57.3283967,139.543105 C64.7831999,139.543105 71.0212506,141.918541 76.0425488,146.669414 C82.3150523,157.422835 78.8936144,165.004661 65.778235,169.41489 C46.1051659,176.030235 17.3567899,184.722092 8.40082181,169.41489 C-0.555146308,154.107688 -3.83285818,142.479749 8.40082181,135.010712 Z M84.7732892,163.662724 C86.432913,157.792487 80.3270355,150.382232 84.7732892,144.796733 C88.8225304,142.9258 100.721058,136.379599 105.220936,135.762315 C112.505667,134.763012 126.79584,129.361111 125.321884,139.234366 C123.847928,149.107621 102.806697,224.734886 93.7899929,212.332173 C84.7732892,199.929461 90.687186,197.222977 84.7732892,186.134891 C78.8593923,175.046805 71.2722748,181.155324 71.2722748,173.546376 C71.2722748,170.164341 83.4453921,168.359614 84.7732892,163.662724 Z M32.6815529,187.991543 C33.7502583,190.869606 29.0897345,193.196812 26.8278798,197.735047 C23.5758554,204.259981 22.0660039,213.355514 22.512772,218.342025 C22.8200176,221.771285 34.1535582,223.350404 32.6815529,226.163993 C27.5803615,235.914403 12.7605888,239.218459 7.91310115,226.163993 C3.06561353,213.109527 3.504046,185.931823 7.91310115,177.504361 C9.22655998,174.993818 13.410949,181.731652 15.4010824,182.336035 C20.0914842,183.760462 30.1104958,181.067589 32.6815529,187.991543 Z M4.51741222,247.401566 C4.8200761,246.771812 8.47129404,239.740586 8.94470706,239.318469 C12.0301141,236.567377 15.232436,244.156337 21.7785117,241.370655 C29.3289923,238.157549 28.6786653,236.533801 32.8614985,235.339743 C35.5041867,234.585345 38.1085445,233.516891 39.9831346,235.339743 C41.075636,236.402092 42.7815034,237.567006 44.6017646,239.318469 C49.5453574,244.075215 46.047663,247.155111 51.4714368,249.757762 C56.8952106,252.360413 61.1247678,249.312509 65.65074,247.401566 C70.1767121,245.490624 65.7062617,241.370655 68.671265,241.370655 C70.4665348,241.370655 73.1663412,244.863323 75.0378451,247.401566 C76.2572499,249.055395 77.140109,248.663623 77.140109,252.27433 C77.140109,261.426636 75.6529624,264.09845 70.5156439,271.245779 C67.0907648,276.010664 61.8613967,280.034351 54.8275396,283.316839 C45.0834039,286.650237 38.8882487,286.650237 36.2420741,283.316839 C35.3681338,282.215932 36.4734285,278.623492 36.2420741,277.36 C35.4226632,272.884962 36.2420741,270.020875 36.2420741,265.682514 C36.2420741,260.119249 38.180955,259.328291 36.2420741,259.328291 C34.3031932,259.328291 33.9817044,259.132405 32.8614985,265.682514 C31.7412925,272.232623 35.6081773,273.208364 32.8614985,279.095316 C30.1148196,284.982269 28.438773,289.436661 21.7785117,289.436661 C15.1182505,289.436661 20.4500896,283.109235 14.2477959,268.005099 C8.0455023,252.900963 2.24217629,252.135663 4.51741222,247.401566 Z" id="path-24"></path>
        <filter x="-2.6%" y="-0.9%" width="105.2%" height="102.4%" filterUnits="objectBoundingBox" id="filter-25">
            <feOffset dx="0" dy="1" in="SourceAlpha" result="shadowOffsetOuter1"></feOffset>
            <feGaussianBlur stdDeviation="1" in="shadowOffsetOuter1" result="shadowBlurOuter1"></feGaussianBlur>
            <feColorMatrix values="0 0 0 0 0   0 0 0 0 0   0 0 0 0 0  0 0 0 0.2 0" type="matrix" in="shadowBlurOuter1"></feColorMatrix>
        </filter>
        <path d="M16.9429879,0.554629223 C23.9762654,-2.59201274 47.2089486,8.59723606 49.7907509,10.3955882 C52.3725532,12.1939404 55.4168197,16.4847773 45.0831345,20.1556241 C34.7494494,23.8264709 24.3392313,18.7937625 22.3155815,20.1556241 C21.0126126,22.6618218 13.3521941,23.9709236 16.9429879,38.563882 C20.5337817,53.1568405 26.1704908,60.6731049 33.3668694,65.0679736 C40.5632481,69.4628423 41.892352,61.3876615 49.7907509,65.0679736 C57.6891499,68.7482857 61.9554209,79.5391443 64.4237679,79.5391443 C66.892115,79.5391443 59.1707175,67.594655 64.4237679,65.0679736 C69.6768183,62.5412921 78.4786015,67.7555023 80.4359969,71.8373712 C82.3933923,75.9192401 74.5637907,77.6325063 74.5637907,86.2135451 C74.5637907,94.7945839 80.4359969,94.8237741 80.4359969,103.823127 C80.4359969,112.822479 77.587848,119.182809 74.5637907,121.873423 C65.83032,129.64391 56.2503273,125.059812 54.8677992,125.408498 C52.0759343,126.112631 61.686743,115.535873 61.686743,108.551854 C61.686743,101.567834 59.5055924,90.3829367 54.8677992,89.4165271 C50.2300059,88.4501176 42.4614153,84.9594812 39.8209664,89.4165271 C37.1805176,93.8735731 30.5996114,97.5242634 33.3668694,99.316059 C36.1341274,101.107855 40.1247299,92.1561192 45.0831345,92.1561192 C50.0415392,92.1561192 52.5433214,93.7618863 54.8677992,99.316059 C57.1922769,104.870232 57.5175069,108.469986 54.8677992,115.535873 C52.2180914,122.601761 53.4429241,122.40689 45.0831345,125.408498 C36.7233449,128.410106 32.5857851,125.408498 27.3715194,125.408498 C22.1572536,125.408498 15.0473641,128.224321 9.90971046,121.873423 C6.9593774,116.925724 10.2312231,111.8517 9.90971046,108.551854 C9.50348867,104.382594 8.12059489,100.661946 14.1400093,96.640109 C20.1594237,92.6182718 31.5082986,96.046522 27.3715194,92.1561192 C23.2347401,88.2657165 13.5311267,96.370038 9.90971046,92.1561192 C6.28829418,87.9422004 11.549511,84.0360781 9.90971046,71.8373712 C8.26990995,59.6386643 4.01287554,54.115006 4.01287554,48.2887339 C4.01287554,42.4624617 4.01287554,43.4311284 4.01287554,34.9560615 C4.01287554,26.4809945 4.01287554,25.7602352 4.01287554,20.1556241 C4.01287554,14.5510129 5.15164318,12.3068579 8.54339382,7.16524078 C9.49960153,5.71570795 9.64621248,5.32553303 9.90971046,4.33036022 C10.5808624,1.79556983 11.8925432,2.81416491 16.9429879,0.554629223 Z M57.0858656,24.4525842 C62.8392179,27.8519575 60.0880003,38.9778671 70.1801531,47.2510347 C80.272306,55.5242024 94.0395019,48.7984667 102.133921,57.517745 C110.228339,66.2370234 94.131057,62.6832509 91.0118968,63.9133958 C87.7966673,65.1814289 88.9879422,67.590193 85.5492182,66.9801621 C82.3449033,66.4117154 80.8947258,62.4675264 79.1526628,61.6951914 C76.3382679,60.4474433 70.1801531,59.8673502 70.1801531,59.0354672 C69.0255692,58.0800031 68.0835563,55.450831 65.2301062,52.0541618 C62.376656,48.6574927 60.7969567,48.2786855 57.0858656,41.8739485 C52.4394789,33.8550441 51.8522182,34.401629 48.3447558,31.8061867 C40.0093465,25.6381737 35.6076738,24.4525842 40.8369858,24.4525842 C51.9816222,24.4525842 51.3325134,21.0532108 57.0858656,24.4525842 Z M65.4464143,21.9825135 C66.8898144,19.7554026 70.6412612,20.9143238 76.7007547,25.4592769 L87.1020657,35.0157321 L95.1961848,48.0489508 L78.2745493,43.9301862 L69.3846161,36.7477978 C65.3157482,29.1313858 64.0030143,24.2096243 65.4464143,21.9825135 Z M100.245402,68.6186914 C100.735063,64.4546135 107.575769,64.5019289 109.399202,64.5019289 C110.614823,64.5019289 112.675746,66.5599363 115.581969,70.6759513 L118.561024,78.3994784 C117.110084,80.9168955 115.34941,82.6206577 113.279004,83.510765 C111.208598,84.4008724 109.006289,84.4008724 106.672077,83.510765 C102.061186,76.3587679 99.9189615,71.3947434 100.245402,68.6186914 Z M23.7186159,28.1944657 C24.4973623,23.7343959 26.619726,21.9658249 38.1849097,32.2164914 C49.7500933,42.4671579 61.8413288,54.4912213 57.7614885,58.3679713 C52.8352376,63.0489986 52.8352376,58.6269882 47.9127402,58.3679713 C43.1190876,58.1157341 37.8936095,60.2763418 32.8977823,55.8483483 C22.7718493,46.873345 22.9398695,32.6545356 23.7186159,28.1944657 Z M85.8615699,84.3522421 C87.6649339,76.2649545 88.9742243,72.7049628 96.1209284,77.9136519 C103.267633,83.122341 106.395474,92.0668029 108.927466,101.163219 C111.459458,110.259636 116.545789,116.405329 108.927466,123.922323 C101.309143,131.439318 85.8461693,138.119559 80.321153,128.641265 C77.4256811,123.674016 88.7545077,118.713458 89.3311425,110.671745 C89.8548176,103.368604 85.0032872,88.2012591 85.8615699,84.3522421 Z M112.621077,90.0198161 C113.081735,84.2791638 113.194293,94.8194924 120.872161,85.2786724 C125.990739,78.9181258 130.41769,91.3351185 134.153014,122.52965 C130.760147,126.08365 127.140385,124.956729 123.293731,119.148886 C117.523748,110.437121 112.160419,95.7604684 112.621077,90.0198161 Z M95.9443417,235.368972 C98.2627453,242.126784 93.1554852,242.838768 89.9762747,241.707707 C87.856801,240.953666 81.9418868,236.028667 72.2315318,226.93271 C72.3564111,218.055406 70.5827625,211.712682 66.910586,207.904539 C61.4023212,202.192324 53.6145121,209.193586 48.518722,202.341905 C43.422932,195.490225 44.8150295,188.611191 48.518722,183.175266 C52.2224145,177.739341 56.2086631,179.369891 63.4412117,180.440106 C70.6737603,181.51032 71.2665249,182.115198 76.8805864,187.372029 C82.4946478,192.62886 81.2106897,192.482804 83.1691176,198.912698 C85.1275455,205.342591 83.0250316,208.969806 86.3412497,218.433198 C89.6574679,227.89659 93.625938,228.611159 95.9443417,235.368972 Z M63.1318388,211.028964 C66.4112187,213.209215 66.9529173,214.453675 67.4270644,219.4695 C67.9012116,224.485326 68.0703295,224.455723 64.8476394,229.179777 C61.6249493,233.903831 59.1839301,236.53059 53.8108868,235.190468 C48.4378435,233.850346 52.143673,230.61718 44.4788659,224.099483 C36.8140588,217.581787 29.2395594,221.771025 27.7249059,213.008499 C26.2102525,204.245973 34.3744353,191.366837 38.8208381,191.366837 C43.2672408,191.366837 40.8666644,202.776429 46.2862727,206.67172 C51.7058809,210.567012 59.8524589,208.848713 63.1318388,211.028964 Z M8.40082181,135.010712 C12.7819869,132.335877 24.6095645,136.056332 31.1285838,135.010712 C42.8128491,133.136612 50.1507994,139.543105 57.3283967,139.543105 C64.7831999,139.543105 71.0212506,141.918541 76.0425488,146.669414 C82.3150523,157.422835 78.8936144,165.004661 65.778235,169.41489 C46.1051659,176.030235 17.3567899,184.722092 8.40082181,169.41489 C-0.555146308,154.107688 -3.83285818,142.479749 8.40082181,135.010712 Z M84.7732892,163.662724 C86.432913,157.792487 80.3270355,150.382232 84.7732892,144.796733 C88.8225304,142.9258 100.721058,136.379599 105.220936,135.762315 C112.505667,134.763012 126.79584,129.361111 125.321884,139.234366 C123.847928,149.107621 102.806697,224.734886 93.7899929,212.332173 C84.7732892,199.929461 90.687186,197.222977 84.7732892,186.134891 C78.8593923,175.046805 71.2722748,181.155324 71.2722748,173.546376 C71.2722748,170.164341 83.4453921,168.359614 84.7732892,163.662724 Z M32.6815529,187.991543 C33.7502583,190.869606 29.0897345,193.196812 26.8278798,197.735047 C23.5758554,204.259981 22.0660039,213.355514 22.512772,218.342025 C22.8200176,221.771285 34.1535582,223.350404 32.6815529,226.163993 C27.5803615,235.914403 12.7605888,239.218459 7.91310115,226.163993 C3.06561353,213.109527 3.504046,185.931823 7.91310115,177.504361 C9.22655998,174.993818 13.410949,181.731652 15.4010824,182.336035 C20.0914842,183.760462 30.1104958,181.067589 32.6815529,187.991543 Z M4.51741222,247.401566 C4.8200761,246.771812 8.47129404,239.740586 8.94470706,239.318469 C12.0301141,236.567377 15.232436,244.156337 21.7785117,241.370655 C29.3289923,238.157549 28.6786653,236.533801 32.8614985,235.339743 C35.5041867,234.585345 38.1085445,233.516891 39.9831346,235.339743 C41.075636,236.402092 42.7815034,237.567006 44.6017646,239.318469 C49.5453574,244.075215 46.047663,247.155111 51.4714368,249.757762 C56.8952106,252.360413 61.1247678,249.312509 65.65074,247.401566 C70.1767121,245.490624 65.7062617,241.370655 68.671265,241.370655 C70.4665348,241.370655 73.1663412,244.863323 75.0378451,247.401566 C76.2572499,249.055395 77.140109,248.663623 77.140109,252.27433 C77.140109,261.426636 75.6529624,264.09845 70.5156439,271.245779 C67.0907648,276.010664 61.8613967,280.034351 54.8275396,283.316839 C45.0834039,286.650237 38.8882487,286.650237 36.2420741,283.316839 C35.3681338,282.215932 36.4734285,278.623492 36.2420741,277.36 C35.4226632,272.884962 36.2420741,270.020875 36.2420741,265.682514 C36.2420741,260.119249 38.180955,259.328291 36.2420741,259.328291 C34.3031932,259.328291 33.9817044,259.132405 32.8614985,265.682514 C31.7412925,272.232623 35.6081773,273.208364 32.8614985,279.095316 C30.1148196,284.982269 28.438773,289.436661 21.7785117,289.436661 C15.1182505,289.436661 20.4500896,283.109235 14.2477959,268.005099 C8.0455023,252.900963 2.24217629,252.135663 4.51741222,247.401566 Z" id="path-26"></path>
        <filter x="-2.6%" y="-0.9%" width="105.2%" height="102.4%" filterUnits="objectBoundingBox" id="filter-27">
            <feOffset dx="0" dy="1" in="SourceAlpha" result="shadowOffsetOuter1"></feOffset>
            <feGaussianBlur stdDeviation="1" in="shadowOffsetOuter1" result="shadowBlurOuter1"></feGaussianBlur>
            <feColorMatrix values="0 0 0 0 0   0 0 0 0 0   0 0 0 0 0  0 0 0 0.2 0" type="matrix" in="shadowBlurOuter1"></feColorMatrix>
        </filter>
    </defs>
    <g id="Page-1" stroke="none" stroke-width="1" fill="none" fill-rule="evenodd">
        <g id="battlev2_1" transform="translate(71.000000, 47.000000)">
            <g id="Rectangle" fill-rule="nonzero">
                <use fill="black" fill-opacity="1" filter="url(#filter-3)" xlink:href="#path-2"></use>
                <use fill="url(#radialGradient-1)" xlink:href="#path-2"></use>
            </g>
            <g id="Combined-Shape" transform="translate(102.706667, 114.746667)" fill="#E14834" fill-rule="nonzero">
                <path d="M49.8407225,146.042109 L49.8407225,58.9620613 L82.981245,37.4800072 C82.9884624,53.8881014 82.2123873,125.733992 68.5647625,146.042109 L49.8407225,146.042109 Z M81.8955717,33.7961063 L47.9987721,55.7668908 C43.0132263,52.5348821 20.7870245,38.1283737 14.1019724,33.7961063 C20.2712784,27.6464479 42.3943309,5.5872496 47.9987721,0 L81.8955717,33.7961063 Z M38.8283149,197.894242 L38.825859,197.894242 L38.825859,194.229988 L57.1643173,194.229988 L57.1643173,197.894242 C57.1643173,201.433243 54.2859629,204.311597 50.7494181,204.311597 L45.2432142,204.311597 C41.7066695,204.311597 38.8283149,201.433243 38.8283149,197.894242 Z M38.8283149,184.138556 L57.1667733,184.138556 L57.1667733,190.548543 L38.8283149,190.548543 L38.8283149,184.138556 Z M46.1568217,146.042109 L27.4303257,146.042109 C13.7876129,125.736448 13.0090818,53.8881014 13.0162998,37.4800072 C35.4636855,52.0314154 43.2882909,57.0980073 46.1568217,58.858912 L46.1568217,146.042109 Z M8.54419405,153.154494 C4.77187956,153.154494 1.36058738,151.685845 0,149.72601 L96,149.72601 C94.6394127,151.685845 91.2256644,153.154494 87.4558063,153.154494 L8.54419405,153.154494 Z M38.8283149,156.838395 L57.1667733,156.838395 L57.1667733,170.358311 L38.8283149,170.358311 L38.8283149,156.838395 Z M38.8283149,174.042212 L57.1667733,174.042212 L57.1667733,180.452199 L38.8283149,180.452199 L38.8283149,174.042212 Z" id="Shape"></path>
                <path d="M751.840721,146.042112 L751.840721,58.9620621 L784.98125,37.480008 C784.988463,53.8881027 784.212389,125.733995 770.564766,146.042112 L751.840721,146.042112 Z M783.895571,33.7961071 L749.998775,55.7668921 C745.013228,52.5348834 722.787024,38.1283746 716.101975,33.7961071 C722.271278,27.6464485 744.394332,5.58724974 749.998775,0 L783.895571,33.7961071 Z M740.828314,197.894246 L740.825859,197.894246 L740.825859,194.229993 L759.164316,194.229993 L759.164316,197.894246 C759.164316,201.433246 756.285963,204.311601 752.74942,204.311601 L747.243216,204.311601 C743.706673,204.311601 740.828314,201.433246 740.828314,197.894246 Z M740.828314,184.13856 L759.166777,184.13856 L759.166777,190.548548 L740.828314,190.548548 L740.828314,184.13856 Z M748.156824,146.042112 L729.430325,146.042112 C715.787612,125.736451 715.009083,53.8881027 715.0163,37.480008 C737.463684,52.0314166 745.288291,57.0980086 748.156824,58.8589129 L748.156824,146.042112 Z M710.544194,153.154497 C706.77188,153.154497 703.360587,151.685849 702,149.726014 L798,149.726014 C796.639415,151.685849 793.225666,153.154497 789.455809,153.154497 L710.544194,153.154497 Z M740.828314,156.838398 L759.166777,156.838398 L759.166777,170.358314 L740.828314,170.358314 L740.828314,156.838398 Z M740.828314,174.042216 L759.166777,174.042216 L759.166777,180.452203 L740.828314,180.452203 L740.828314,174.042216 Z" id="Shape"></path>
            </g>
            <g id="Group-7" transform="translate(347.000000, 732.000000)" fill-rule="nonzero">
                <g id="Oval">
                    <use fill="#F8D61C" style="mix-blend-mode: lighten;" xlink:href="#path-4"></use>
                    <use fill="black" fill-opacity="1" filter="url(#filter-5)" xlink:href="#path-4"></use>
                    <use stroke="#DCA92C" stroke-width="7" xlink:href="#path-4"></use>
                </g>
                <circle id="Oval-2" fill="#FFF5BE" cx="68.3066667" cy="68.3066667" r="27.3066667"></circle>
            </g>
            <g id="Group-7" transform="translate(562.000000, 732.000000)" fill-rule="nonzero">
                <g id="Oval">
                    <use fill="#F8D61C" style="mix-blend-mode: lighten;" xlink:href="#path-6"></use>
                    <use fill="black" fill-opacity="1" filter="url(#filter-7)" xlink:href="#path-6"></use>
                    <use stroke="#DCA92C" stroke-width="7" xlink:href="#path-6"></use>
                </g>
                <circle id="Oval-2" fill="#FFF5BE" cx="68.3066667" cy="68.3066667" r="27.3066667"></circle>
            </g>
            <g id="Group-7" transform="translate(452.000000, 546.000000)" fill-rule="nonzero">
                <g id="Oval">
                    <use fill="#F8D61C" style="mix-blend-mode: lighten;" xlink:href="#path-8"></use>
                    <use fill="black" fill-opacity="1" filter="url(#filter-9)" xlink:href="#path-8"></use>
                    <use stroke="#DCA92C" stroke-width="7" xlink:href="#path-8"></use>
                </g>
                <circle id="Oval-2" fill="#FFF5BE" cx="68.3066667" cy="68.3066667" r="27.3066667"></circle>
            </g>
            <g id="Group-7" transform="translate(655.000000, 546.000000)" fill-rule="nonzero">
                <g id="Oval">
                    <use fill="#F8D61C" style="mix-blend-mode: lighten;" xlink:href="#path-10"></use>
                    <use fill="black" fill-opacity="1" filter="url(#filter-11)" xlink:href="#path-10"></use>
                    <use stroke="#DCA92C" stroke-width="7" xlink:href="#path-10"></use>
                </g>
                <circle id="Oval-2" fill="#FFF5BE" cx="68.3066667" cy="68.3066667" r="27.3066667"></circle>
            </g>
            <g id="Group-7" transform="translate(232.000000, 546.000000)" fill-rule="nonzero">
                <g id="Oval">
                    <use fill="#F8D61C" style="mix-blend-mode: lighten;" xlink:href="#path-12"></use>
                    <use fill="black" fill-opacity="1" filter="url(#filter-13)" xlink:href="#path-12"></use>
                    <use stroke="#DCA92C" stroke-width="7" xlink:href="#path-12"></use>
                </g>
                <circle id="Oval-2" fill="#FFF5BE" cx="68.3066667" cy="68.3066667" r="27.3066667"></circle>
            </g>
            <g id="neuronv1.0" transform="translate(624.000000, 496.000000)" fill-rule="nonzero">
                <g id="Combined-Shape">
                    <use fill="black" fill-opacity="1" filter="url(#filter-15)" xlink:href="#path-14"></use>
                    <use fill="#4A4A4A" xlink:href="#path-14"></use>
                </g>
                <ellipse id="nucleus" stroke="#9B9B9B" stroke-width="4" fill="#FFFFFF" cx="105.840594" cy="131.982412" rx="10.3259116" ry="10.201192"></ellipse>
            </g>
            <g id="neuronv1.0" transform="translate(200.000000, 496.000000)" fill-rule="nonzero">
                <g id="Combined-Shape">
                    <use fill="black" fill-opacity="1" filter="url(#filter-17)" xlink:href="#path-16"></use>
                    <use fill="#4A4A4A" xlink:href="#path-16"></use>
                </g>
                <ellipse id="nucleus" stroke="#9B9B9B" stroke-width="4" fill="#FFFFFF" cx="105.840594" cy="131.982412" rx="10.3259116" ry="10.201192"></ellipse>
            </g>
            <g id="neuronv1.0" transform="translate(312.000000, 683.000000)" fill-rule="nonzero">
                <g id="Combined-Shape">
                    <use fill="black" fill-opacity="1" filter="url(#filter-19)" xlink:href="#path-18"></use>
                    <use fill="#4A4A4A" xlink:href="#path-18"></use>
                </g>
                <ellipse id="nucleus" stroke="#9B9B9B" stroke-width="4" fill="#FFFFFF" cx="105.840594" cy="131.982412" rx="10.3259116" ry="10.201192"></ellipse>
            </g>
            <g id="neuronv1.0" transform="translate(420.000000, 496.000000)" fill-rule="nonzero">
                <g id="Combined-Shape">
                    <use fill="black" fill-opacity="1" filter="url(#filter-21)" xlink:href="#path-20"></use>
                    <use fill="#4A4A4A" xlink:href="#path-20"></use>
                </g>
                <ellipse id="nucleus" stroke="#9B9B9B" stroke-width="4" fill="#FFFFFF" cx="105.840594" cy="131.982412" rx="10.3259116" ry="10.201192"></ellipse>
            </g>
            <g id="neuronv1.0" transform="translate(531.000000, 683.000000)" fill-rule="nonzero">
                <g id="Combined-Shape">
                    <use fill="black" fill-opacity="1" filter="url(#filter-23)" xlink:href="#path-22"></use>
                    <use fill="#4A4A4A" xlink:href="#path-22"></use>
                </g>
                <ellipse id="nucleus" stroke="#9B9B9B" stroke-width="4" fill="#FFFFFF" cx="105.840594" cy="131.982412" rx="10.3259116" ry="10.201192"></ellipse>
            </g>
            <g id="cerebrum" transform="translate(531.000000, 105.000000)">
                <g id="Combined-Shape">
                    <use fill="black" fill-opacity="1" filter="url(#filter-25)" xlink:href="#path-24"></use>
                    <use fill="#4A4A4A" fill-rule="evenodd" xlink:href="#path-24"></use>
                </g>
            </g>
            <g id="cerebrum" transform="translate(450.500000, 250.000000) scale(-1, 1) translate(-450.500000, -250.000000) translate(383.000000, 105.000000)">
                <g id="Combined-Shape">
                    <use fill="black" fill-opacity="1" filter="url(#filter-27)" xlink:href="#path-26"></use>
                    <use fill="#9C9C9C" fill-rule="evenodd" xlink:href="#path-26"></use>
                </g>
            </g>
        </g>
    </g>
</svg>