<?xml version="1.0" encoding="UTF-8"?>
<svg width="150px" height="150px" viewBox="0 0 150 150" version="1.1" xmlns="http://www.w3.org/2000/svg" xmlns:xlink="http://www.w3.org/1999/xlink">
    <!-- Generator: Sketch 51 (57462) - http://www.bohemiancoding.com/sketch -->
    <title>battlev2</title>
    <desc>Created with Sketch.</desc>
    <defs></defs>
    <g id="Page-1" stroke="none" stroke-width="1" fill="none" fill-rule="evenodd">
        <g id="battlev2">
            <rect id="Rectangle" fill="#FFFFFF" fill-rule="nonzero" x="0" y="0" width="150" height="150" rx="16"></rect>
            <g id="Group" transform="translate(10.000000, 19.000000)">
                <g id="Group-6" transform="translate(12.222222, 64.444444)" fill-rule="nonzero">
                    <g id="Group-2" fill="#848484">
                        <path d="M27.761062,2.77986726 C27.9413717,4.73561947 28.0884956,6.32853982 28.2643806,8.21570797 C28.1581859,8.28539823 27.7466814,8.64933628 27.2676991,8.84955752 C23.454646,10.4380531 22.3849558,13.6283186 22.6460177,17.3141593 C22.8053098,19.5542036 22.4756637,21.2367257 20.7533186,22.8661504 C18.5287611,24.9690266 18.2112832,29.5431416 19.6736726,32.3683628 C19.9413717,32.8849558 20.1172567,33.4513274 20.4712389,34.3307522 C19.1570797,34.0818584 18.1891593,33.8982301 17.0619469,33.6858407 C19.994469,37.9059734 20.005531,37.9457964 19.1969027,41.0022124 C16.625,39.6238938 14.2112832,39.744469 11.7776549,41.4823009 C9.43252212,43.1570797 6.8539823,44.2334071 3.82300884,44.1316372 C2.49446902,44.0873893 1.30309734,44.2168141 0.850663717,42.7112832 C0.335176991,40.9966814 -0.0276548672,39.25 1.55530973,37.1183628 C2.01438053,38.9623893 2.32743363,40.2245576 2.73119469,41.8396018 C4.03207964,40.2035398 3.20132743,37.2511062 6.17256637,37.6261062 C7.98672567,37.8561947 9.79756637,38.0973451 11.9435841,38.3761062 C10.3727876,36.4679203 8.37057522,36.4081859 6.59292036,36.4878319 C4.84623893,36.5652654 4.15707964,35.9247788 3.92809734,34.4137168 C3.8130531,33.6559734 3.73230089,32.8827433 3.74336283,32.119469 C3.7710177,29.909292 4.34734513,27.7588496 6.625,27.0719027 C8.76659292,26.425885 10.1084071,28.090708 11.3362832,29.6681416 C12.1095132,30.6626107 13.090708,31.4966814 13.9789823,32.4037611 C14.1603982,32.2455752 14.3418141,32.0884956 14.5243363,31.9314159 C14.1172567,31.4015487 13.7533186,30.8307522 13.2986726,30.3451328 C11.454646,28.3716814 10.8617257,26.0918141 11.7112832,23.5331859 C12.340708,21.6415929 13.5608407,20.4568584 15.7311947,20.2865044 C17.7488938,20.1294248 19.9369469,20.0243363 20.8484513,17.414823 C18.9413717,17.0475663 16.619469,19.3705752 15.3650442,16.7654868 C14.085177,14.1073009 17.5719027,13.6980089 18.2665929,11.3185841 C16.9070797,12.1736726 15.869469,12.829646 14.8307522,13.4845132 C14.710177,13.3827433 14.5896018,13.2798672 14.4712389,13.1780973 C14.9126107,12.5995576 15.2323009,11.7544248 15.8185841,11.4823009 C19.9236726,9.57411504 22.8373893,6.1050885 26.4347346,3.54424779 C26.7356194,3.32411504 27.0807522,3.1670354 27.761062,2.77986726 Z M39.6935841,0.430309734 C40.5254424,1.40707964 41.3561947,2.38384956 42.3738938,3.57743363 C41.8838496,3.64712389 41.5442478,3.62721239 41.2654868,3.7488938 C40.6327433,4.02765487 40.0309734,4.3761062 39.4159292,4.69469027 C39.920354,5.28871681 40.3086283,6.11172567 40.949115,6.42920354 C42.7997788,7.34845132 43.1382743,8.2079646 42.0962389,10.5132743 C41.7721239,10.3893805 41.4325221,10.2676991 41.1017699,10.1316372 C40.8661504,10.034292 40.6393806,9.9159292 39.8617257,9.54977876 C41.1438053,11.6238938 42.199115,13.113938 43.0221239,14.7234513 C43.9015487,16.4446902 44.3086283,18.1095132 42.2621681,19.5884956 C41.5553098,20.0995576 41.1946902,21.4878319 41.1847346,22.4800884 C41.1637168,24.3783186 41.3042036,26.3285398 41.7400442,28.170354 C42.6792036,32.1382743 41.511062,33.6603982 37.511062,33.7632743 C34.175885,33.8495576 30.8783186,34.369469 28.0464602,36.2997788 C28.0896018,36.5154868 28.1316372,36.7300884 28.1747788,36.9446902 C29.9314159,36.6626107 31.6825221,36.2853982 33.4524337,36.1227876 C34.9579646,35.9845132 36.7654868,35.579646 37.9358407,36.2168141 C39.4734513,37.0542036 41.130531,38.6084071 41.6238938,40.199115 C42.289823,42.3473451 41.3949116,44.670354 39.340708,46.0652654 C38.7942478,46.4369469 37.8451328,46.3086283 37.0884956,46.2643806 C35.2090708,46.1570797 33.3075221,45.6891593 31.4690266,45.8794248 C29.0331859,46.1316372 26.675885,46.3373893 24.5542036,44.9524337 C20.3075221,42.1803098 19.7876107,37.8982301 23.2190266,34.1526549 C24.4170354,32.8451328 25.7699116,31.6792036 27.0530973,30.4469027 C26.9192478,30.2621681 26.7876107,30.0752212 26.6559734,29.8893806 C25.7488938,30.335177 24.8495576,30.7975663 23.9314159,31.2223451 C22.0099558,32.1106194 21.4446902,31.7123893 21.3418141,29.6537611 C21.1393806,25.6106194 23.625,23.3174779 26.6028761,21.3086283 C27.335177,20.8152654 28.0597346,20.3119469 28.7909292,19.5365044 C26.2887168,20.2787611 25.090708,19.3982301 24.5575221,17.0376107 C24,14.5763274 24.380531,12.738938 26.5951328,11.4679203 C28.2865044,10.5 30.2378319,9.98672567 31.9778761,9.30752212 C31.7721239,8.57964602 31.0641593,7.42809734 31.3871681,6.85287611 C31.761062,6.18141593 33.0575221,6.05199116 33.9170354,5.61504424 C34.8993363,5.11504424 35.8628319,4.56415929 36.7732301,3.94469027 C36.8561947,3.88716814 36.4070797,2.80309734 36.3506637,2.81526549 C35.2853982,3.06526549 34.1681416,3.26659292 33.2168141,3.7710177 C32.079646,4.37278761 31.0940266,5.25663717 30.0287611,5.99778761 C29.9402654,6.05973451 29.7378319,5.95685841 29.4712389,5.90929203 C29.3163717,4.27433628 29.6969027,2.93141593 31.3738938,2.21902654 C32.909292,1.56747788 34.4502212,0.925884956 35.9878319,0.279867257 C37.2234513,0.331858407 38.4590708,0.381637168 39.6935841,0.430309734 Z M12.9811947,16.5232301 C13.0962389,17.5077433 13.4269911,18.2699116 13.204646,18.7975663 C12.4048672,20.6869469 11.5707964,22.6006637 10.4247788,24.284292 C9.95464602,24.9756637 8.65486726,25.0995576 7.73119469,25.4811947 C7.53982301,24.7378319 6.97123893,23.8163717 7.22455752,23.2831859 C8.11946902,21.3882743 9.21460177,19.5685841 10.4103982,17.8440266 C10.7876106,17.2997788 11.7190266,17.1426991 12.9811947,16.5232301 Z" id="Combined-Shape"></path>
                    </g>
                    <g id="Group-3" transform="translate(62.222222, 0.000000)" fill="#535353">
                        <path d="M4.51697481,0.0453539823 C5.75370048,0.032079646 6.98821374,0.0165929203 8.22051463,0 C9.74153233,0.688053098 11.26255,1.37278761 12.7802491,2.06747788 C14.4362226,2.82522124 14.779143,4.17920354 14.5789217,5.80862832 C14.3101164,5.84845132 14.1065766,5.94579646 14.0202934,5.88163717 C12.9749394,5.11061947 12.0147624,4.19911504 10.8952934,3.56637168 C9.95834649,3.03539823 8.84662082,2.80420354 7.7890987,2.52433628 C7.73378897,2.50995576 7.25370048,3.58185841 7.33555888,3.64159292 C8.2271518,4.28650442 9.17405446,4.86283186 10.1441872,5.39048672 C10.9904261,5.85176991 12.2802491,6.01659292 12.63755,6.69911504 C12.9428598,7.28318584 12.2028156,8.41371681 11.978258,9.13606194 C13.6994969,9.86283186 15.6342314,10.4303097 17.2957359,11.4457964 C19.478258,12.7776549 19.8045854,14.625 19.1784792,17.0696902 C18.5800279,19.414823 17.3565766,20.261062 14.8764881,19.449115 C15.5855589,20.244469 16.2957359,20.7688053 17.0136562,21.2820797 C19.9362226,23.3727876 22.3543642,25.7356194 22.0402049,29.7710177 C21.8809129,31.8263274 21.3045854,32.2079646 19.4085678,31.2676991 C18.5025943,30.8185841 17.6176386,30.3307522 16.7216208,29.8595132 C16.5844527,30.0431416 16.4472846,30.2245576 16.3101164,30.4070797 C17.557904,31.6736726 18.8775943,32.8772124 20.0390987,34.2179203 C23.3654261,38.0575221 22.7249394,42.324115 18.4030368,44.9756637 C16.2415323,46.300885 13.8908687,46.0309734 11.4660899,45.710177 C9.63091287,45.4668141 7.71719604,45.8838496 5.83666508,45.9380531 C5.08002791,45.960177 4.12759428,46.0630531 3.59108986,45.6769911 C1.57781552,44.2234513 0.747063304,41.875 1.47383321,39.7477876 C2.01033764,38.1725663 3.71166508,36.664823 5.2691872,35.8705752 C6.45945269,35.2665929 8.25480667,35.7212389 9.75591287,35.9015487 C11.5202934,36.1128319 13.2592314,36.5376107 15.0092314,36.869469 C15.0590102,36.6559734 15.1054703,36.4424779 15.154143,36.2289823 C12.3787004,34.2201328 9.09883321,33.6073009 5.76476242,33.4280973 C1.76697481,33.2134956 0.644187199,31.6603982 1.69396596,27.7201328 C2.17958543,25.8904868 2.37648809,23.9457964 2.40856773,22.0475663 C2.42626684,21.0542036 2.103258,19.6570797 1.41078012,19.1261062 C-0.591432271,17.5896018 -0.138998642,15.9358407 0.787992508,14.2411504 C1.65746153,12.6559734 2.75259428,11.1935841 4.09108986,9.15707964 C3.30458543,9.50221239 3.07449693,9.61393806 2.83555888,9.70464602 C2.50148809,9.83075221 2.16078012,9.94247788 1.8322403,10.0575221 C0.855470384,7.72455752 1.21719604,6.875 3.09108986,6.00774337 C3.74042613,5.7079646 4.15303676,4.8949115 4.67626684,4.31637168 C4.06896596,3.98119469 3.4771518,3.61615044 2.8521518,3.31969027 C2.57781552,3.18915929 2.23821374,3.20022124 1.74927569,3.11615044 C2.80016064,1.95243363 3.65746153,0.998893806 4.51697481,0.0453539823 Z M16.1404868,2.21238938 C16.8075221,2.61725663 17.1493363,2.78539823 17.4469027,3.00774337 C20.9723451,5.66924779 23.7887168,9.21681416 27.8384956,11.238938 C28.4170354,11.5276549 28.7123893,12.3816372 29.1371681,12.9723451 C29.0165929,13.0707964 28.8926991,13.170354 28.7699116,13.2688053 C27.7511062,12.585177 26.7300884,11.9026549 25.3960177,11.0077434 C26.0221239,13.4070797 29.4955752,13.914823 28.1438053,16.5365044 C26.8163717,19.1050884 24.5597346,16.7190266 22.6438053,17.0309734 C23.4811947,19.6659292 25.6670354,19.8307522 27.6792036,20.045354 C29.8429203,20.2754424 31.0309734,21.4933628 31.6061947,23.4015487 C32.386062,25.9834071 31.7289823,28.2455752 29.8307522,30.1659292 C29.363938,30.6393806 28.9834071,31.1980089 28.5630531,31.7179203 C28.7378319,31.880531 28.914823,32.0431416 29.0940266,32.204646 C30.005531,31.324115 31.0088496,30.5165929 31.8130531,29.5442478 C33.0807522,28.0011062 34.4712389,26.3738938 36.5940266,27.079646 C38.8495576,27.829646 39.3672567,29.994469 39.3340708,32.204646 C39.3219027,32.9690266 39.2190266,33.738938 39.0840708,34.4933628 C38.8119469,35.9988938 38.1039823,36.6205752 36.3617257,36.494469 C34.5884956,36.3650442 32.5829646,36.3683628 30.960177,38.2311947 C33.1128319,38.0132743 34.9292036,37.8230089 36.7477876,37.6449116 C39.7289823,37.3528761 38.8174779,40.2809734 40.074115,41.9535398 C40.5210177,40.3495576 40.869469,39.0984513 41.3772124,37.2665929 C42.9015487,39.4424779 42.4900442,41.1780973 41.9280973,42.8772124 C41.4336283,44.369469 40.244469,44.2079646 38.914823,44.2146018 C35.8849558,44.2311947 33.3329646,43.0829646 31.0387168,41.3429203 C28.6537611,39.5376107 26.244469,39.3495576 23.6371681,40.6570797 C22.9115044,37.5785398 22.9236726,37.539823 25.9756637,33.4026549 C24.840708,33.585177 23.8672567,33.7411504 22.5475663,33.954646 C22.925885,33.0840708 23.1172567,32.5232301 23.4004424,32.0143806 C24.9413717,29.2300884 24.7511062,24.6504424 22.5862832,22.4845132 C20.9103982,20.8097346 20.6294248,19.1183628 20.8484513,16.8827433 C21.2134956,13.2068584 20.2334071,9.98783186 16.4668141,8.29314159 C15.9911504,8.07964602 15.5896018,7.70353982 15.4867257,7.63274337 C15.7146018,5.75 15.9059734,4.16261062 16.1404868,2.21238938 Z M31.3261932,16.5929203 C32.5695561,17.2477876 33.4965472,17.4303098 33.8582729,17.9823009 C35.0042907,19.7411504 36.0496446,21.5884956 36.8914588,23.5088496 C37.1281844,24.0497788 36.5352641,24.954646 36.3217684,25.6924779 C35.4113702,25.2853982 34.1149101,25.125 33.6646889,24.4225663 C32.5640251,22.7068584 31.7841579,20.7699116 31.0374764,18.8595132 C30.8295119,18.3263274 31.182388,17.5730089 31.3261932,16.5929203 Z" id="Combined-Shape"></path>
                    </g>
                </g>
                <g id="Combined-Shape"></g>
                <path d="M10.7375661,31.462963 L10.7375661,12.7026456 L17.8772705,8.07460318 C17.878836,11.6095238 17.7116402,27.0878307 14.7714286,31.462963 L10.7375661,31.462963 Z M17.6433862,7.28095238 L10.3407407,12.0142857 C9.26666667,11.3179894 4.47830688,8.21428571 3.03809523,7.28095238 C4.36719577,5.95608466 9.13333333,1.2037037 10.3407407,0 L17.6433862,7.28095238 Z M8.36507937,42.6338624 L8.36455027,42.6338624 L8.36455027,41.8444444 L12.3153439,41.8444444 L12.3153439,42.6338624 C12.3153439,43.3962963 11.6952381,44.0164021 10.9333333,44.0164021 L9.74708994,44.0164021 C8.98518519,44.0164021 8.36507937,43.3962963 8.36507937,42.6338624 Z M8.36507937,39.6703703 L12.315873,39.6703703 L12.315873,41.0513228 L8.36507937,41.0513228 L8.36507937,39.6703703 Z M9.94391534,31.462963 L5.90952381,31.462963 C2.97037037,27.0883598 2.8026455,11.6095238 2.80421114,8.07460318 C7.64021164,11.2095238 9.32592592,12.3010582 9.94391534,12.6804233 L9.94391534,31.462963 Z M1.84074074,32.9952381 C1.02804233,32.9952381 0.293121693,32.678836 0,32.2566138 L20.6820106,32.2566138 C20.3888889,32.678836 19.6534391,32.9952381 18.8412699,32.9952381 L1.84074074,32.9952381 Z M8.36507937,33.7888889 L12.315873,33.7888889 L12.315873,36.7015873 L8.36507937,36.7015873 L8.36507937,33.7888889 Z M8.36507937,37.4952381 L12.315873,37.4952381 L12.315873,38.8761904 L8.36507937,38.8761904 L8.36507937,37.4952381 Z" id="Shape" fill="#23A1B3" fill-rule="nonzero"></path>
                <path d="M119.867724,31.7587301 L119.867724,12.9984127 L127.00743,8.37037037 C127.008994,11.905291 126.841799,27.3835979 123.901588,31.7587301 L119.867724,31.7587301 Z M126.773544,7.57671958 L119.4709,12.3100529 C118.396826,11.6137567 113.608466,8.51005291 112.168254,7.57671958 C113.497354,6.25185186 118.263492,1.4994709 119.4709,0.295767196 L126.773544,7.57671958 Z M117.495238,42.9296297 L117.494709,42.1402117 L121.445502,42.1402117 L121.445502,42.9296297 C121.445502,43.6920634 120.825397,44.3121693 120.063492,44.3121693 L118.877249,44.3121693 C118.115344,44.3121693 117.495238,43.6920634 117.495238,42.9296297 Z M117.495238,39.9661376 L121.446032,39.9661376 L121.446032,41.34709 L117.495238,41.34709 L117.495238,39.9661376 Z M119.074074,31.7587301 L115.039682,31.7587301 C112.100529,27.384127 111.932804,11.905291 111.93437,8.37037037 C116.77037,11.505291 118.456084,12.5968254 119.074074,12.9761904 L119.074074,31.7587301 Z M110.970899,33.2910053 C110.158201,33.2910053 109.42328,32.9746032 109.130159,32.552381 L129.812169,32.552381 C129.519048,32.9746032 128.783598,33.2910053 127.971429,33.2910053 L110.970899,33.2910053 Z M117.495238,34.0846561 L121.446032,34.0846561 L121.446032,36.9973544 L117.495238,36.9973544 L117.495238,34.0846561 Z M117.495238,37.7910053 L121.446032,37.7910053 L121.446032,39.1719577 L117.495238,39.1719577 L117.495238,37.7910053 Z" id="Shape" fill="#23A1B3" fill-rule="nonzero"></path>
                <g id="Group-7" transform="translate(54.444444, 22.222222)" fill-rule="nonzero">
                    <circle id="Oval" stroke="#DCA92C" stroke-width="3" fill="#F8D61C" cx="11.1111111" cy="11.1111111" r="11.1111111"></circle>
                    <circle id="Oval-2" fill="#FFF5BE" cx="11.1111111" cy="11.1111111" r="4.44444444"></circle>
                </g>
            </g>
        </g>
    </g>
</svg>