<?xml version="1.0" encoding="UTF-8"?>
<svg width="150px" height="150px" viewBox="0 0 150 150" version="1.1" xmlns="http://www.w3.org/2000/svg" xmlns:xlink="http://www.w3.org/1999/xlink">
    <!-- Generator: Sketch 51 (57462) - http://www.bohemiancoding.com/sketch -->
    <title>battlev3.3</title>
    <desc>Created with Sketch.</desc>
    <defs>
        <ellipse id="path-1" cx="75" cy="141.5" rx="50" ry="1.5"></ellipse>
        <filter x="-7.0%" y="-166.7%" width="114.0%" height="566.7%" filterUnits="objectBoundingBox" id="filter-2">
            <feOffset dx="0" dy="2" in="SourceAlpha" result="shadowOffsetOuter1"></feOffset>
            <feGaussianBlur stdDeviation="2" in="shadowOffsetOuter1" result="shadowBlurOuter1"></feGaussianBlur>
            <feColorMatrix values="0 0 0 0 0.750053146   0 0 0 0 0.750053146   0 0 0 0 0.750053146  0 0 0 0.5 0" type="matrix" in="shadowBlurOuter1"></feColorMatrix>
        </filter>
    </defs>
    <g id="Page-1" stroke="none" stroke-width="1" fill="none" fill-rule="evenodd">
        <g id="battlev3.3" fill-rule="nonzero">
            <rect id="Rectangle" fill="#FFFFFF" x="0" y="0" width="150" height="150" rx="16"></rect>
            <g id="Oval-2" fill="black" fill-opacity="1">
                <use filter="url(#filter-2)" xlink:href="#path-1"></use>
            </g>
            <g id="Group-2" transform="translate(27.000000, 32.000000)">
                <g id="Group" transform="translate(0.000000, 33.016480)">
                    <g id="Group-6">
                        <g id="Group-2" fill="#848484">
                            <path d="M24.9957915,2.55146906 C25.1575986,4.30653084 25.2896253,5.73599293 25.4474618,7.42950844 C25.3521643,7.4920474 24.9828866,7.81863978 24.5530553,7.99831523 C21.1312804,9.42380659 20.1713569,12.2867015 20.4056298,15.594318 C20.5485761,17.6044991 20.2527568,19.1143684 18.7071509,20.5765889 C16.7108675,22.4636775 16.4259677,26.5684175 17.7382933,29.1037274 C17.9785224,29.5673099 18.1363588,30.075563 18.454017,30.8647452 C17.2747108,30.6413918 16.406114,30.4766066 15.3945711,30.2860116 C18.0261711,34.0730935 18.0360979,34.10883 17.3104474,36.8516105 C15.0024617,35.6147287 12.8364296,35.722931 10.6525292,37.2824344 C8.54804327,38.785355 6.23410152,39.7512346 3.51415281,39.6599079 C2.32194172,39.6202005 1.2528232,39.7363443 0.846816264,38.3853042 C0.384226449,36.846647 0.0586267507,35.2792021 1.4791547,33.3663039 C1.89111773,35.0211048 2.17204675,36.1537551 2.53437568,37.6030708 C3.70176971,36.134894 2.95626553,33.4854258 5.6226094,33.821945 C7.2506079,34.0284228 8.87562834,34.2448275 10.8014315,34.4949834 C9.39182297,32.7826068 7.59506855,32.7290021 5.99982857,32.8004752 C4.43238367,32.8699628 3.81394278,32.2952001 3.6084576,30.9391964 C3.50521868,30.2592092 3.4327529,29.5653245 3.44267971,28.8803739 C3.46749676,26.8969952 3.98468409,24.9672215 6.02861634,24.350766 C7.95044871,23.7710397 9.154572,25.2650261 10.256449,26.6805906 C10.9503337,27.5730118 11.8308427,28.3214939 12.6279663,29.1354932 C12.7907661,28.9935397 12.953566,28.8525789 13.1173586,28.711618 C12.7520516,28.2361233 12.4254592,27.7238994 12.0174669,27.288112 C10.362666,25.5171673 9.83058846,23.4712496 10.5929682,21.1751762 C11.1578043,19.4776899 12.2527325,18.4145275 14.2003746,18.2616545 C16.0110266,18.1206937 17.9745516,18.0263889 18.7925216,15.684652 C17.0811378,15.3550815 14.9974983,17.4397138 13.8717968,15.1019477 C12.7232638,12.7165328 15.8521975,12.3492405 16.4756018,10.2139815 C15.2555956,10.9813247 14.3244598,11.5699851 13.3923315,12.1576528 C13.2841291,12.066326 13.1759268,11.9740066 13.0697098,11.8826799 C13.46579,11.3635073 13.7526751,10.6050982 14.2787965,10.3608984 C17.9626395,8.64852194 20.5773638,5.53547117 23.8055658,3.23741232 C24.0755752,3.0398686 24.385292,2.89890776 24.9957915,2.55146906 Z M35.7038523,0.443012471 C36.4503491,1.31955068 37.1958533,2.1960889 38.1091208,3.26719278 C37.6693627,3.32973174 37.3646093,3.31186347 37.1144535,3.42105849 C36.5466392,3.67121436 36.0066202,3.9839092 35.4546891,4.26980161 C35.9073521,4.80287184 36.2557834,5.54142727 36.8305463,5.826327 C38.4913034,6.65124574 38.795064,7.42255966 37.8599575,9.49130893 C37.5691018,9.38012855 37.2643484,9.27093355 36.9675364,9.1488337 C36.7560951,9.06147763 36.5525954,8.95526068 35.85474,8.62668294 C37.0052584,10.4879617 37.952277,11.8251043 38.6908324,13.2694567 C39.4800146,14.8140698 39.8453216,16.3080562 38.0088598,17.6352722 C37.3745361,18.0938913 37.0509217,19.3397072 37.0419877,20.2301428 C37.0231266,21.9335853 37.1491973,23.6836836 37.5403139,25.3364992 C38.3831011,28.8972495 37.3348288,30.2631799 33.7452907,30.3554994 C30.7523544,30.4329287 27.7931694,30.8994891 25.2519034,32.6317193 C25.290618,32.8252923 25.32834,33.0178724 25.3670546,33.2104528 C26.9434335,32.957319 28.5148491,32.6188143 30.1031404,32.4728901 C31.4541806,32.3488048 33.0762231,31.9854832 34.1264805,32.557268 C35.5063085,33.3087284 36.9933462,34.7034466 37.4360824,36.1309233 C38.0336769,38.0587117 37.2305973,40.143344 35.3871867,41.3951159 C34.8968018,41.7286571 34.0450807,41.613506 33.3660862,41.5737988 C31.6795194,41.4775086 29.973099,41.0576041 28.3232616,41.2283454 C26.1373758,41.4546769 24.0219704,41.6393157 22.1180064,40.396478 C18.3071001,37.9088168 17.8405396,34.0661447 20.9198392,30.7049235 C21.9949137,29.5315734 23.2089639,28.4852865 24.3604749,27.3794388 C24.2403605,27.2136608 24.1222314,27.0458975 24.0041021,26.8791271 C23.1901029,27.2791779 22.3830525,27.6941189 21.5591263,28.0753088 C19.8348377,28.8724324 19.3275771,28.5150669 19.2352577,26.6676858 C19.053597,23.0394329 21.2841534,20.9816032 23.9564534,19.1788927 C24.6136089,18.7361564 25.2638157,18.2844862 25.9199784,17.5886161 C23.6745317,18.2547058 22.5994571,17.4645309 22.1209843,15.3461475 C21.6206726,13.1374299 21.9621553,11.4885851 23.9495047,10.3479935 C25.4673154,9.47939678 27.2184065,9.01879234 28.7798953,8.40928557 C28.5952564,7.75610082 27.9599399,6.72271884 28.249803,6.20652421 C28.5853296,5.60396623 29.7487529,5.48782244 30.5200668,5.09571303 C31.4015685,4.64702076 32.2661945,4.15266513 33.0831718,3.59676321 C33.1576229,3.54514374 32.7545941,2.57231537 32.7039672,2.58323488 C31.7480144,2.80758102 30.7454056,2.98824914 29.8916991,3.44091213 C28.871222,3.98093114 27.9867424,4.77408407 27.0307896,5.43918101 C26.9513749,5.4947712 26.7697142,5.40245178 26.5304778,5.35976645 C26.3915024,3.89258244 26.732985,2.68746649 28.2378909,2.04817927 C29.6157335,1.46348958 30.9985395,0.887734011 32.3783676,0.308007719 C33.4871933,0.354663773 34.5960191,0.399334463 35.7038523,0.443012471 Z M11.7325672,14.8845503 C11.835806,15.7680372 12.132618,16.4519953 11.9330889,16.9255045 C11.2153798,18.6210054 10.4668975,20.3383452 9.43847907,21.8492072 C9.01658918,22.4696335 7.85018783,22.580814 7.02129835,22.9232892 C6.84956436,22.2562069 6.3393258,21.4293028 6.56664999,20.9508301 C7.36972973,19.2503657 8.35248492,17.6174039 9.42557414,16.0698127 C9.76407872,15.5814131 10.599917,15.4404522 11.7325672,14.8845503 Z" id="Combined-Shape"></path>
                        </g>
                        <g id="Group-3" transform="translate(48.607595, 0.000000)" fill="#535353">
                            <path d="M4.1391241,0.0415600638 C5.27239609,0.0293961427 6.40364074,0.0152049013 7.53285809,0 C8.92664072,0.630496578 10.3204233,1.25795217 11.7111649,1.89453072 C13.2286142,2.58888788 13.5428488,3.82960783 13.3593763,5.32272915 C13.1130569,5.3592209 12.9265435,5.448423 12.847478,5.38963071 C11.8895692,4.68310963 11.0097122,3.84785371 9.9838882,3.26804014 C9.12531809,2.78148329 8.1065897,2.56962833 7.13753065,2.31317233 C7.08684765,2.29999476 6.64691918,3.28223138 6.72193002,3.33696902 C7.53894005,3.92793285 8.40663309,4.45604977 9.29561299,4.93956563 C10.0710629,5.36226189 11.2529906,5.51329724 11.5804028,6.13872552 C11.8601731,6.67393805 11.1820345,7.70989866 10.9762614,8.3718187 C12.5535165,9.03779339 14.326408,9.55780098 15.8489255,10.4883409 C17.8488769,11.7087878 18.1479066,13.4016001 17.5741749,15.6417888 C17.0257848,17.7907483 15.9046768,18.5661983 13.6320509,17.8221717 C14.281807,18.5509933 14.9325768,19.0314682 15.5904421,19.5018066 C18.2685321,21.4176241 20.4843931,23.582802 20.1965136,27.2806341 C20.0505466,29.1640145 19.5224296,29.5137272 17.7850163,28.6521162 C16.9548287,28.2405702 16.1439006,27.7935461 15.3228359,27.3617268 C15.1971421,27.5299945 15.0714482,27.6962348 14.9457543,27.8634887 C16.0891629,29.0241295 17.2984594,30.1269916 18.3628025,31.3555476 C21.4108784,34.8739618 20.8239692,38.7836488 16.8635993,41.213392 C14.8829074,42.4277569 12.7288798,42.1804237 10.5069368,41.8864623 C8.82527472,41.6634571 7.07164274,42.045607 5.3484206,42.0952763 C4.65507709,42.1155495 3.78231575,42.2098199 3.29069061,41.8560525 C1.44582924,40.5241032 0.684570505,38.3721028 1.35054518,36.4228344 C1.84217033,34.9793824 3.40117956,33.5977638 4.82841296,32.8699558 C5.91911123,32.3164974 7.56428156,32.7331117 8.93981831,32.8983383 C10.5566062,33.0919474 12.1500798,33.4811929 13.75369,33.7852909 C13.7993048,33.5896544 13.8418784,33.3940181 13.8864796,33.1983817 C11.3432063,31.357575 8.3377042,30.7960073 5.28253269,30.6317943 C1.61916511,30.4351443 0.590300118,29.0119655 1.55226355,25.4013083 C1.99726033,23.7247145 2.17769183,21.9427 2.20708796,20.2032592 C2.22330652,19.2929926 1.92731778,18.0127399 1.29276656,17.526183 C-0.541958207,16.1182092 -0.127371228,14.6027873 0.722075929,13.04986 C1.51881276,11.5972851 2.52233625,10.2572265 3.74886497,8.39107824 C3.02815264,8.70734019 2.81731134,8.80971987 2.59836076,8.89283999 C2.29223542,9.00839724 1.9800281,9.11077691 1.67897106,9.21619754 C0.783909194,7.07838842 1.11537604,6.29989747 2.83251625,5.50518797 C3.42753471,5.23048608 3.80562993,4.4854459 4.28509115,3.95530168 C3.72859176,3.64816267 3.18628361,3.31365484 2.61356566,3.04199394 C2.36217796,2.92238204 2.0509843,2.93251865 1.60294655,2.85548048 C2.56592363,1.78911006 3.3515102,0.915335064 4.1391241,0.0415600638 Z M14.7903145,2.02732018 C15.4015514,2.39831977 15.7147724,2.55239611 15.987447,2.7561418 C19.2179817,5.19500798 21.7987603,8.44581589 25.5097699,10.2987865 C26.0399141,10.5633519 26.3105613,11.3458974 26.6998068,11.8871919 C26.5893179,11.9774076 26.4757879,12.0686371 26.3632718,12.1588528 C25.4296907,11.5324109 24.4940824,10.9069826 23.2716084,10.0869316 C23.84534,12.2855604 27.0282327,12.7508303 25.7895401,15.1532047 C24.573148,17.5069234 22.5052815,15.3204587 20.7496221,15.6063107 C21.5169628,18.0208491 23.5199551,18.1718845 25.3638029,18.3685346 C27.3465219,18.5793758 28.4351929,19.6954156 28.9622962,21.4439793 C29.6769266,23.8098619 29.0748124,25.8827968 27.3353717,27.6425107 C26.9076071,28.0763573 26.5589081,28.5882556 26.1737172,29.0646758 C26.3338756,29.2136839 26.4960611,29.3626919 26.6602741,29.5106863 C27.49553,28.7038128 28.4149197,27.963841 29.1518506,27.0728338 C30.3135051,25.6587779 31.5876758,24.1676839 33.5328896,24.814399 C35.5997425,25.5016606 36.0741354,27.4853934 36.0437256,29.5106863 C36.0325753,30.2111254 35.938305,30.9166328 35.8146384,31.607949 C35.565278,32.9875404 34.9165355,33.5572173 33.3200209,33.4416601 C31.6951238,33.3230618 29.857358,33.3261028 28.3703187,35.0331065 C30.3429012,34.8334154 32.0073311,34.6590659 33.6737883,34.4958667 C36.4056022,34.2282603 35.5703463,36.9114186 36.7218641,38.4440726 C37.1313828,36.9742656 37.4506858,35.8278159 37.9159558,34.1491948 C39.3127794,36.1430643 38.9356978,37.7334969 38.4207584,39.2904789 C37.9676524,40.6579063 36.8779678,40.5099119 35.6595484,40.5159939 C32.8831334,40.5311988 30.5446196,39.4790196 28.4422885,37.8845322 C26.2568374,36.2302391 24.0490857,36.0579169 21.6598888,37.2560631 C20.9949278,34.435047 21.0060781,34.3995689 23.8027663,30.6084802 C22.7627511,30.7757341 21.8707302,30.9186601 20.6614336,31.1142965 C21.0081055,30.316546 21.1834687,29.8026204 21.4429655,29.3363368 C22.8549941,26.7849542 22.6806446,22.5884014 20.6969118,20.603655 C19.1612167,19.0689737 18.9037471,17.5190873 19.1044517,15.4704803 C19.4389596,12.1020878 18.5408568,9.15233698 15.0893441,7.59940971 C14.6534703,7.40377332 14.2855117,7.05912888 14.1912413,6.99425464 C14.4000553,5.26900516 14.5754184,3.81440293 14.7903145,2.02732018 Z M28.7057172,15.2049013 C29.8450712,15.8049882 30.6945183,15.9722421 31.0259852,16.4780585 C32.0761371,18.089778 33.0340458,19.7825904 33.8054412,21.5423043 C34.0223644,22.0379841 33.4790426,22.867158 33.2834061,23.5432693 C32.4491639,23.1702424 31.2611543,23.0232617 30.8485947,22.3795875 C29.8400028,20.8074007 29.1253725,19.032482 28.4411519,17.2818908 C28.2505839,16.7933067 28.5739414,16.1030043 28.7057172,15.2049013 Z" id="Combined-Shape"></path>
                        </g>
                    </g>
                </g>
                <g id="thinking_dots" transform="translate(19.649391, 0.000000)" fill="#FFFFFF">
                    <g id="circle" transform="translate(39.619775, 0.000000)">
                        <circle id="Oval-3" stroke="#FFE7BC" stroke-width="3" cx="5.5027466" cy="5.5027466" r="5.5027466"></circle>
                        <circle id="Oval-3" stroke="#FFBB58" stroke-width="2" cx="5.5027466" cy="5.5027466" r="4.40219728"></circle>
                    </g>
                    <g id="circle">
                        <circle id="Oval-3" stroke="#FFE7BC" stroke-width="3" cx="5.5027466" cy="5.5027466" r="5.5027466"></circle>
                        <circle id="Oval-3" stroke="#FFBB58" stroke-width="2" cx="5.5027466" cy="5.5027466" r="4.40219728"></circle>
                    </g>
                    <g id="circle" transform="translate(19.809888, 0.000000)">
                        <circle id="Oval-3" stroke="#FFE7BC" stroke-width="3" cx="5.5027466" cy="5.5027466" r="5.5027466"></circle>
                        <circle id="Oval-3" stroke="#FFBB58" stroke-width="2" cx="5.5027466" cy="5.5027466" r="4.40219728"></circle>
                    </g>
                </g>
            </g>
        </g>
    </g>
</svg>