<?xml version="1.0" encoding="UTF-8"?>
<svg width="300px" height="300px" viewBox="0 0 300 300" version="1.1" xmlns="http://www.w3.org/2000/svg" xmlns:xlink="http://www.w3.org/1999/xlink">
    <!-- Generator: Sketch 50.2 (55047) - http://www.bohemiancoding.com/sketch -->
    <title>battlev2</title>
    <desc>Created with Sketch.</desc>
    <defs>
        <radialGradient cx="50%" cy="50%" fx="50%" fy="50%" r="50%" id="radialGradient-1">
            <stop stop-color="#FFFFFF" offset="0%"></stop>
            <stop stop-color="#EDF7FE" offset="100%"></stop>
        </radialGradient>
        <radialGradient cx="50%" cy="51.7214674%" fx="50%" fy="51.7214674%" r="68.2846796%" id="radialGradient-2">
            <stop stop-color="#FFFFFF" offset="0%"></stop>
            <stop stop-color="#FEF4D7" offset="100%"></stop>
        </radialGradient>
    </defs>
    <g id="Page-1" stroke="none" stroke-width="1" fill="none" fill-rule="evenodd">
        <g id="battlev2">
            <rect id="Rectangle" fill="url(#radialGradient-1)" fill-rule="nonzero" x="0" y="0" width="300" height="300" rx="32"></rect>
            <rect id="Rectangle" fill="url(#radialGradient-2)" x="0" y="0" width="300" height="300" rx="32"></rect>
            <g id="Combined-Shape" transform="translate(38.000000, 26.000000)" fill="#E14834" fill-rule="nonzero">
                <path d="M19.327619,56.6333334 L19.327619,22.864762 L32.1790868,14.5342857 C32.1819048,20.8971428 31.8809524,48.7580952 26.5885714,56.6333334 L19.327619,56.6333334 Z M31.7580952,13.1057143 L18.6133333,21.6257142 C16.68,20.372381 8.06095238,14.7857143 5.46857142,13.1057143 C7.86095238,10.7209524 16.44,2.16666666 18.6133333,0 L31.7580952,13.1057143 Z M15.0571429,76.7409524 L15.0561905,76.7409524 L15.0561905,75.32 L22.167619,75.32 L22.167619,76.7409524 C22.167619,78.1133334 21.0514286,79.2295238 19.68,79.2295238 L17.5447619,79.2295238 C16.1733333,79.2295238 15.0571429,78.1133334 15.0571429,76.7409524 Z M15.0571429,71.4066666 L22.1685714,71.4066666 L22.1685714,73.892381 L15.0571429,73.892381 L15.0571429,71.4066666 Z M17.8990476,56.6333334 L10.6371429,56.6333334 C5.34666666,48.7590476 5.0447619,20.8971428 5.04758005,14.5342857 C13.752381,20.1771428 16.7866667,22.1419048 17.8990476,22.824762 L17.8990476,56.6333334 Z M3.31333334,59.3914286 C1.85047619,59.3914286 0.527619048,58.8219048 0,58.0619048 L37.227619,58.0619048 C36.7,58.8219048 35.3761904,59.3914286 33.9142858,59.3914286 L3.31333334,59.3914286 Z M15.0571429,60.82 L22.1685714,60.82 L22.1685714,66.0628572 L15.0571429,66.0628572 L15.0571429,60.82 Z M15.0571429,67.4914286 L22.1685714,67.4914286 L22.1685714,69.9771428 L15.0571429,69.9771428 L15.0571429,67.4914286 Z" id="Shape"></path>
                <path d="M215.761904,57.1657142 L215.761904,23.3971428 L228.613373,15.0666667 C228.61619,21.4295238 228.315238,49.2904762 223.022858,57.1657142 L215.761904,57.1657142 Z M228.19238,13.6380952 L215.04762,22.1580952 C213.114286,20.904762 204.495238,15.3180952 201.902858,13.6380952 C204.295238,11.2533333 212.874286,2.69904762 215.04762,0.532380952 L228.19238,13.6380952 Z M211.491428,77.2733334 L211.490476,77.2733334 L211.490476,75.852381 L218.601904,75.852381 L218.601904,77.2733334 C218.601904,78.6457142 217.485714,79.7619048 216.114286,79.7619048 L213.979048,79.7619048 C212.60762,79.7619048 211.491428,78.6457142 211.491428,77.2733334 Z M211.491428,71.9390476 L218.602858,71.9390476 L218.602858,74.424762 L211.491428,74.424762 L211.491428,71.9390476 Z M214.333334,57.1657142 L207.071428,57.1657142 C201.780952,49.2914286 201.479048,21.4295238 201.481867,15.0666667 C210.186666,20.7095238 213.220952,22.6742858 214.333334,23.3571428 L214.333334,57.1657142 Z M199.747619,59.9238096 C198.284762,59.9238096 196.961905,59.3542858 196.434286,58.5942858 L233.661904,58.5942858 C233.134286,59.3542858 231.810476,59.9238096 230.348572,59.9238096 L199.747619,59.9238096 Z M211.491428,61.352381 L218.602858,61.352381 L218.602858,66.595238 L211.491428,66.595238 L211.491428,61.352381 Z M211.491428,68.0238096 L218.602858,68.0238096 L218.602858,70.5095238 L211.491428,70.5095238 L211.491428,68.0238096 Z" id="Shape"></path>
            </g>
            <g id="Group-7" transform="translate(136.000000, 66.000000)" fill-rule="nonzero">
                <circle id="Oval" stroke="#DCA92C" stroke-width="3" fill="#F8D61C" cx="20" cy="20" r="20"></circle>
                <circle id="Oval-2" fill="#FFF5BE" cx="20" cy="20" r="8"></circle>
            </g>
            <path d="M71.9484239,155.340943 C76.2719339,153.406633 90.5535743,160.28491 92.1406649,161.390396 C93.7277554,162.495883 95.5991328,165.133554 89.2467897,167.390105 C82.8944466,169.646655 76.4950571,166.552938 75.2510751,167.390105 C74.4501115,168.930719 69.7410842,169.735453 71.9484239,178.706065 C74.1557637,187.676677 77.6207725,192.297089 82.0445444,194.998712 C86.4683163,197.700334 87.2853457,192.736343 92.1406649,194.998712 C96.9959841,197.26108 99.6185545,203.894458 101.135902,203.894458 C102.653249,203.894458 97.9067363,196.551918 101.135902,194.998712 C104.365067,193.445505 109.775716,196.650795 110.97897,199.160009 C112.182224,201.669223 107.369196,202.722406 107.369196,207.997359 C107.369196,213.272312 110.97897,213.290255 110.97897,218.822355 C110.97897,224.354455 109.228151,228.264289 107.369196,229.918269 C102.00054,234.694957 96.1115083,231.877012 95.2616379,232.091357 C93.5454173,232.524203 99.4533924,226.022438 99.4533924,221.729207 C99.4533924,217.435977 98.1125912,210.560375 95.2616379,209.966302 C92.4106846,209.372229 87.6351614,207.226458 86.0120195,209.966302 C84.3888776,212.706146 80.3434502,214.950305 82.0445444,216.051762 C83.7456386,217.153218 86.1987495,211.650389 89.2467897,211.650389 C92.2948299,211.650389 93.8327304,212.63749 95.2616379,216.051762 C96.6905453,219.466033 96.8904714,221.678882 95.2616379,226.022438 C93.6328044,230.365994 94.3857359,230.246202 89.2467897,232.091357 C84.1078436,233.936511 81.5643947,232.091357 78.3590711,232.091357 C75.1537475,232.091357 70.7831424,233.822305 67.6249139,229.918269 C65.8112794,226.876809 67.8225547,223.757696 67.6249139,221.729207 C67.3752004,219.166272 66.5251053,216.879108 70.2253714,214.406796 C73.9256376,211.934485 80.9020401,214.041905 78.3590711,211.650389 C75.8161021,209.258873 69.851078,214.240778 67.6249139,211.650389 C65.3987498,209.060001 68.6329352,206.658822 67.6249139,199.160009 C66.6168925,191.661196 64,188.265682 64,184.684145 C64,181.102607 64,181.698068 64,176.488258 C64,171.278449 64,170.835382 64,167.390105 C64,163.944827 64.7000255,162.565296 66.785009,159.404631 C67.3728109,158.513571 67.4629359,158.273722 67.6249139,157.661967 C68.0374857,156.103776 68.8438047,156.729929 71.9484239,155.340943 Z M96.625132,170.03154 C100.161844,172.12121 98.4706101,178.960551 104.674478,184.046248 C110.878346,189.131946 119.341343,184.997489 124.31716,190.35742 C129.292977,195.717352 119.397624,193.53277 117.480208,194.288967 C115.503736,195.068455 116.236039,196.549175 114.12218,196.174176 C112.152417,195.824739 111.260961,193.40016 110.190077,192.925388 C108.460006,192.15837 104.674478,191.801774 104.674478,191.290398 C103.96473,190.703053 103.385654,189.086843 101.631575,186.998836 C99.877497,184.910829 98.9064212,184.677968 96.625132,180.740835 C93.7688961,175.811439 93.4078941,176.147436 91.2517799,174.551961 C86.1278208,170.760348 83.422016,170.03154 86.6365889,170.03154 C93.4874415,170.03154 93.0884201,167.941871 96.625132,170.03154 Z M101.764545,168.513134 C102.651835,167.14408 104.957931,167.856494 108.682835,170.650376 L115.076749,176.524939 L120.052382,184.536745 L109.650281,182.00485 L104.185444,177.589678 C101.684222,172.907702 100.877255,169.882188 101.764545,168.513134 Z M123.156247,197.181416 C123.457252,194.621666 127.662384,194.650752 128.783288,194.650752 C129.530557,194.650752 130.797452,195.915854 132.583971,198.446059 L134.415261,203.19388 C133.523336,204.741392 132.441012,205.788732 131.168288,206.3359 C129.895564,206.883069 128.541756,206.883069 127.106865,206.3359 C124.272449,201.939411 122.955576,198.887916 123.156247,197.181416 Z M76.1135512,172.331757 C76.5922637,169.590054 77.8969272,168.502875 85.0062995,174.804184 C92.1156718,181.105494 99.5484196,188.49695 97.0404523,190.880073 C94.0121777,193.757603 94.0121777,191.039297 90.9862105,190.880073 C88.039447,190.725017 84.8272309,192.05319 81.7561863,189.331206 C75.531553,183.814074 75.6348386,175.07346 76.1135512,172.331757 Z M114.314189,206.853175 C115.422757,201.881742 116.227606,199.693337 120.620842,202.895232 C125.014078,206.097128 126.93683,211.595485 128.493302,217.187252 C130.049773,222.779018 133.176452,226.556911 128.493302,231.177772 C123.810151,235.798634 114.304722,239.905125 110.908373,234.078609 C109.128463,231.025132 116.092541,227.975769 116.447012,223.032351 C116.768926,218.54295 113.786584,209.21925 114.314189,206.853175 Z M130.763846,210.337157 C131.047022,206.808252 131.116214,213.287623 135.835968,207.422672 C138.98247,203.512704 141.703814,211.145702 144,230.321666 C141.91433,232.506388 139.689183,231.813644 137.32456,228.243436 C133.777625,222.888123 130.480669,213.866062 130.763846,210.337157 Z" id="Combined-Shape" fill="#727289" transform="translate(104.000000, 195.974989) scale(-1, 1) translate(-104.000000, -195.974989) "></path>
            <path d="M183.948424,155.340943 C188.271934,153.406633 202.553574,160.28491 204.140665,161.390396 C205.727755,162.495883 207.599133,165.133554 201.24679,167.390105 C194.894447,169.646655 188.495057,166.552938 187.251075,167.390105 C186.450112,168.930719 181.741084,169.735453 183.948424,178.706065 C186.155764,187.676677 189.620772,192.297089 194.044544,194.998712 C198.468316,197.700334 199.285346,192.736343 204.140665,194.998712 C208.995984,197.26108 211.618555,203.894458 213.135902,203.894458 C214.653249,203.894458 209.906736,196.551918 213.135902,194.998712 C216.365067,193.445505 221.775716,196.650795 222.97897,199.160009 C224.182224,201.669223 219.369196,202.722406 219.369196,207.997359 C219.369196,213.272312 222.97897,213.290255 222.97897,218.822355 C222.97897,224.354455 221.228151,228.264289 219.369196,229.918269 C214.00054,234.694957 208.111508,231.877012 207.261638,232.091357 C205.545417,232.524203 211.453392,226.022438 211.453392,221.729207 C211.453392,217.435977 210.112591,210.560375 207.261638,209.966302 C204.410685,209.372229 199.635161,207.226458 198.012019,209.966302 C196.388878,212.706146 192.34345,214.950305 194.044544,216.051762 C195.745639,217.153218 198.19875,211.650389 201.24679,211.650389 C204.29483,211.650389 205.83273,212.63749 207.261638,216.051762 C208.690545,219.466033 208.890471,221.678882 207.261638,226.022438 C205.632804,230.365994 206.385736,230.246202 201.24679,232.091357 C196.107844,233.936511 193.564395,232.091357 190.359071,232.091357 C187.153748,232.091357 182.783142,233.822305 179.624914,229.918269 C177.811279,226.876809 179.822555,223.757696 179.624914,221.729207 C179.3752,219.166272 178.525105,216.879108 182.225371,214.406796 C185.925638,211.934485 192.90204,214.041905 190.359071,211.650389 C187.816102,209.258873 181.851078,214.240778 179.624914,211.650389 C177.39875,209.060001 180.632935,206.658822 179.624914,199.160009 C178.616892,191.661196 176,188.265682 176,184.684145 C176,181.102607 176,181.698068 176,176.488258 C176,171.278449 176,170.835382 176,167.390105 C176,163.944827 176.700025,162.565296 178.785009,159.404631 C179.372811,158.513571 179.462936,158.273722 179.624914,157.661967 C180.037486,156.103776 180.843805,156.729929 183.948424,155.340943 Z M208.625132,170.03154 C212.161844,172.12121 210.47061,178.960551 216.674478,184.046248 C222.878346,189.131946 231.341343,184.997489 236.31716,190.35742 C241.292977,195.717352 231.397624,193.53277 229.480208,194.288967 C227.503736,195.068455 228.236039,196.549175 226.12218,196.174176 C224.152417,195.824739 223.260961,193.40016 222.190077,192.925388 C220.460006,192.15837 216.674478,191.801774 216.674478,191.290398 C215.96473,190.703053 215.385654,189.086843 213.631575,186.998836 C211.877497,184.910829 210.906421,184.677968 208.625132,180.740835 C205.768896,175.811439 205.407894,176.147436 203.25178,174.551961 C198.127821,170.760348 195.422016,170.03154 198.636589,170.03154 C205.487442,170.03154 205.08842,167.941871 208.625132,170.03154 Z M213.764545,168.513134 C214.651835,167.14408 216.957931,167.856494 220.682835,170.650376 L227.076749,176.524939 L232.052382,184.536745 L221.650281,182.00485 L216.185444,177.589678 C213.684222,172.907702 212.877255,169.882188 213.764545,168.513134 Z M235.156247,197.181416 C235.457252,194.621666 239.662384,194.650752 240.783288,194.650752 C241.530557,194.650752 242.797452,195.915854 244.583971,198.446059 L246.415261,203.19388 C245.523336,204.741392 244.441012,205.788732 243.168288,206.3359 C241.895564,206.883069 240.541756,206.883069 239.106865,206.3359 C236.272449,201.939411 234.955576,198.887916 235.156247,197.181416 Z M188.113551,172.331757 C188.592264,169.590054 189.896927,168.502875 197.006299,174.804184 C204.115672,181.105494 211.54842,188.49695 209.040452,190.880073 C206.012178,193.757603 206.012178,191.039297 202.98621,190.880073 C200.039447,190.725017 196.827231,192.05319 193.756186,189.331206 C187.531553,183.814074 187.634839,175.07346 188.113551,172.331757 Z M226.314189,206.853175 C227.422757,201.881742 228.227606,199.693337 232.620842,202.895232 C237.014078,206.097128 238.93683,211.595485 240.493302,217.187252 C242.049773,222.779018 245.176452,226.556911 240.493302,231.177772 C235.810151,235.798634 226.304722,239.905125 222.908373,234.078609 C221.128463,231.025132 228.092541,227.975769 228.447012,223.032351 C228.768926,218.54295 225.786584,209.21925 226.314189,206.853175 Z M242.763846,210.337157 C243.047022,206.808252 243.116214,213.287623 247.835968,207.422672 C250.98247,203.512704 253.703814,211.145702 256,230.321666 C253.91433,232.506388 251.689183,231.813644 249.32456,228.243436 C245.777625,222.888123 242.480669,213.866062 242.763846,210.337157 Z" id="Combined-Shape" fill="#51526A"></path>
        </g>
    </g>
</svg>