<?xml version="1.0" encoding="UTF-8"?>
<svg width="150px" height="150px" viewBox="0 0 150 150" version="1.1" xmlns="http://www.w3.org/2000/svg" xmlns:xlink="http://www.w3.org/1999/xlink">
    <!-- Generator: Sketch 50.2 (55047) - http://www.bohemiancoding.com/sketch -->
    <title>Group</title>
    <desc>Created with Sketch.</desc>
    <defs>
        <radialGradient cx="50%" cy="50%" fx="50%" fy="50%" r="52.8211007%" id="radialGradient-1">
            <stop stop-color="#FFFFFF" offset="0%"></stop>
            <stop stop-color="#FEEEE6" offset="100%"></stop>
        </radialGradient>
    </defs>
    <g id="Page-1" stroke="none" stroke-width="1" fill="none" fill-rule="evenodd">
        <g id="noun_183053_cc">
            <g id="Group">
                <rect id="Rectangle" fill="url(#radialGradient-1)" x="0" y="0" width="150" height="150" rx="16"></rect>
                <g id="Group-6" transform="translate(21.000000, 71.000000)" fill="#51526A" fill-rule="nonzero">
                    <g id="Group-2" transform="translate(9.000000, 0.000000)" fill-opacity="0.75">
                        <path d="M24.9849558,2.50188053 C25.1472345,4.26205752 25.279646,5.69568584 25.4379425,7.39413717 C25.3423673,7.45685841 24.9720133,7.78440265 24.5409292,7.96460177 C21.1091814,9.39424779 20.1464602,12.2654867 20.3814159,15.5827434 C20.5247788,17.5987832 20.2280973,19.1130531 18.6779867,20.5795354 C16.675885,22.4721239 16.3901549,26.5888274 17.7063053,29.1315265 C17.9472345,29.5964602 18.105531,30.1061947 18.424115,30.897677 C17.2413717,30.6736726 16.3702434,30.5084071 15.3557522,30.3172566 C17.9950221,34.1153761 18.0049779,34.1512168 17.2772124,36.9019912 C14.9625,35.6615044 12.7901549,35.7700221 10.5998894,37.3340708 C8.48926991,38.8413717 6.16858407,39.8100664 3.44070796,39.7184735 C2.24502212,39.6786504 1.17278761,39.7951327 0.765597345,38.4401549 C0.301659292,36.8970133 -0.0248893805,35.325 1.39977876,33.4065265 C1.81294248,35.0661504 2.09469027,36.2021018 2.45807522,37.6556416 C3.62887168,36.1831858 2.88119469,33.5259956 5.55530973,33.8634956 C7.1880531,34.0705752 8.81780973,34.2876106 10.7492257,34.5384956 C9.33550885,32.8211283 7.5335177,32.7673673 5.93362832,32.8390487 C4.36161504,32.9087389 3.74137168,32.3323009 3.53528761,30.9723451 C3.43174779,30.2903761 3.3590708,29.594469 3.36902655,28.9075221 C3.39391593,26.9183628 3.91261062,24.9829646 5.9625,24.3647124 C7.88993363,23.7832965 9.09756637,25.2816372 10.2026549,26.7013274 C10.8985619,27.5963496 11.7816372,28.3470133 12.5810841,29.163385 C12.7443584,29.0210177 12.9076327,28.879646 13.0719027,28.7382743 C12.705531,28.2613938 12.3779867,27.747677 11.9688053,27.3106195 C10.3091814,25.5345133 9.7755531,23.4826327 10.5401549,21.1798673 C11.1066372,19.4774336 12.2047566,18.4111726 14.1580752,18.257854 C15.9740044,18.1164823 17.9432522,18.0219027 18.7636062,15.6733407 C17.0472345,15.3428097 14.9575221,17.4335177 13.8285398,15.0889381 C12.6766593,12.6965708 15.8147124,12.328208 16.4399336,10.1867257 C15.2163717,10.9563053 14.2825221,11.5466814 13.347677,12.1360619 C13.2391593,12.044469 13.1306416,11.9518805 13.024115,11.8602876 C13.4213496,11.3396018 13.7090708,10.5789823 14.2367257,10.3340708 C17.9313053,8.61670354 20.5536504,5.49457965 23.7912611,3.18982301 C24.0620575,2.99170354 24.372677,2.85033186 24.9849558,2.50188053 Z M35.7242257,0.387278761 C36.4728982,1.26637168 37.2205752,2.1454646 38.1365044,3.21969027 C37.6954646,3.2824115 37.389823,3.26449115 37.1389381,3.37400442 C36.569469,3.62488938 36.0278761,3.93849558 35.4743363,4.22522124 C35.9283186,4.75984513 36.2777655,5.5005531 36.8542035,5.78628319 C38.5198009,6.61360619 38.8244469,7.38716814 37.886615,9.4619469 C37.5949115,9.35044248 37.2892699,9.2409292 36.9915929,9.11847345 C36.7795354,9.03086283 36.5754425,8.92433628 35.8755531,8.59480088 C37.0294248,10.4615044 37.9792035,11.8025442 38.7199115,13.2511062 C39.5113938,14.8002212 39.8777655,16.2985619 38.0359513,17.629646 C37.3997788,18.0896018 37.0752212,19.3390487 37.0662611,20.2320796 C37.0473451,21.9404867 37.1737832,23.6956858 37.5660398,25.3533186 C38.4112832,28.9244469 37.3599558,30.2943584 33.7599558,30.3869469 C30.7582965,30.4646018 27.7904867,30.9325221 25.2418142,32.6698009 C25.2806416,32.8639381 25.3184735,33.0570796 25.3573009,33.2502212 C26.9382743,32.9963496 28.5142699,32.6568584 30.1071903,32.5105088 C31.4621681,32.3860619 33.0889381,32.0216814 34.1422566,32.5951327 C35.5261062,33.3487832 37.0174779,34.7475664 37.4615044,36.1792035 C38.0608407,38.1126106 37.2554204,40.2033186 35.4066372,41.4587389 C34.914823,41.7932522 34.0606195,41.6777655 33.379646,41.6379425 C31.6881637,41.5413717 29.9767699,41.1202434 28.3221239,41.2914823 C26.1298673,41.5184735 24.0082965,41.7036504 22.0987832,40.4571903 C18.2767699,37.9622788 17.8088496,34.1084071 20.8971239,30.7373894 C21.9753319,29.5606195 23.1929204,28.5112832 24.3477876,27.4022124 C24.227323,27.2359513 24.1088496,27.0676991 23.9903761,26.9004425 C23.1740044,27.3016593 22.3646018,27.7178097 21.5382743,28.1001106 C19.8089602,28.8995575 19.3002212,28.5411504 19.2076327,26.688385 C19.0254425,23.0495575 21.2625,20.9857301 23.9425885,19.1777655 C24.6016593,18.7337389 25.2537611,18.2807522 25.9118363,17.582854 C23.6598451,18.250885 22.5816372,17.4584071 22.1017699,15.3338496 C21.6,13.1186947 21.9424779,11.4650442 23.9356195,10.3211283 C25.457854,9.45 27.2140487,8.9880531 28.7800885,8.37676991 C28.5949115,7.72168142 27.9577434,6.68528761 28.2484513,6.1675885 C28.5849558,5.56327434 29.7517699,5.44679204 30.5253319,5.05353982 C31.4094027,4.60353982 32.2765487,4.10774336 33.0959071,3.55022124 C33.1705752,3.49845133 32.7663717,2.52278761 32.7155973,2.53373894 C31.7568584,2.75873894 30.7513274,2.93993363 29.8951327,3.39391593 C28.8716814,3.93550885 27.9846239,4.73097345 27.025885,5.39800885 C26.9462389,5.45376106 26.7640487,5.36117257 26.524115,5.31836283 C26.3847345,3.84690265 26.7272124,2.63827434 28.2365044,1.99712389 C29.6183628,1.41073009 31.0051991,0.83329646 32.3890487,0.251880531 C33.5011062,0.298672566 34.6131637,0.343473451 35.7242257,0.387278761 Z M11.6830752,14.8709071 C11.786615,15.756969 12.084292,16.4429204 11.8841814,16.9178097 C11.1643805,18.6182522 10.4137168,20.3405973 9.38230088,21.8558628 C8.95918142,22.4780973 7.78938053,22.5896018 6.95807522,22.9330752 C6.78584071,22.2640487 6.27411504,21.4347345 6.50210177,20.9548673 C7.30752212,19.2494469 8.29314159,17.6117257 9.36935841,16.0596239 C9.70884956,15.5698009 10.5471239,15.4284292 11.6830752,14.8709071 Z" id="Combined-Shape"></path>
                    </g>
                    <g id="Group-3" transform="translate(65.000000, 0.000000)">
                        <path d="M4.06527733,0.0408185841 C5.17833043,0.0288716814 6.28939237,0.0149336283 7.39846317,0 C8.7673791,0.619247788 10.136295,1.23550885 11.5022242,1.86073009 C12.9926003,2.54269912 13.3012287,3.76128319 13.1210295,5.22776549 C12.8791048,5.26360619 12.6959189,5.35121681 12.6182641,5.29347345 C11.6774455,4.59955752 10.8132862,3.77920354 9.80576405,3.20973451 C8.96251184,2.73185841 7.96195874,2.52378319 7.01018883,2.27190265 C6.96041007,2.25896018 6.52833043,3.22367257 6.60200299,3.27743363 C7.40443662,3.85785398 8.25664901,4.37654867 9.12976848,4.85143805 C9.89138352,5.26659292 11.0522242,5.41493363 11.373795,6.02920354 C11.6485738,6.55486726 10.982534,7.57234513 10.7804322,8.22245575 C12.3295472,8.87654867 14.0708083,9.38727876 15.5661623,10.3012168 C17.5304322,11.4998894 17.8241269,13.1625 17.2606313,15.3627212 C16.7220251,17.4733407 15.6209189,18.2349558 13.3888393,17.5042035 C14.027003,18.2200221 14.6661623,18.6919248 15.3122906,19.1538717 C17.9426003,21.0355088 20.1189278,23.1620575 19.8361844,26.7939159 C19.6928216,28.6436947 19.1741269,28.9871681 17.467711,28.1409292 C16.6523349,27.7367257 15.8558747,27.297677 15.0494587,26.8735619 C14.9260074,27.0388274 14.8025561,27.2021018 14.6791048,27.3663717 C15.8021136,28.5063053 16.9898349,29.5894912 18.0351888,30.7961283 C21.0288835,34.2517699 20.4524455,38.0917035 16.5627331,40.4780973 C14.6173791,41.6707965 12.5017818,41.4278761 10.3194809,41.1391593 C8.66782158,40.9201327 6.94547644,41.2954646 5.25299857,41.3442478 C4.57202512,41.3641593 3.71483485,41.4567478 3.23198087,41.109292 C1.42003397,39.8011062 0.672356974,37.6875 1.32644989,35.7730088 C1.80930388,34.3553097 3.34049857,32.9983407 4.74226848,32.2835177 C5.81350742,31.7399336 7.429326,32.149115 8.78032158,32.3113938 C10.3682641,32.5015487 11.9333083,32.8838496 13.5083083,33.1825221 C13.5531092,32.9903761 13.5949233,32.7982301 13.6387287,32.6060841 C11.1408304,30.7981195 8.18894989,30.2465708 5.18828618,30.0852876 C1.59027733,29.892146 0.579768479,28.4943584 1.52456936,24.9481195 C1.96162689,23.3014381 2.13883928,21.5512168 2.16771096,19.8428097 C2.18364016,18.9487832 1.8929322,17.6913717 1.26970211,17.2134956 C-0.532289044,15.8306416 -0.125098778,14.3422566 0.709193257,12.8170354 C1.49171538,11.3903761 2.47733485,10.0742257 3.68198087,8.24137168 C2.97412689,8.55199115 2.76704724,8.65254425 2.55200299,8.73418142 C2.25133928,8.84767699 1.94470211,8.94823009 1.64901627,9.05176991 C0.769923346,6.95210177 1.09547644,6.1875 2.78198087,5.40696903 C3.36638352,5.13716814 3.73773308,4.40542035 4.20864016,3.88473451 C3.66206936,3.58307522 3.12943662,3.2545354 2.56693662,2.98772124 C2.32003397,2.87024336 2.01439237,2.88019912 1.57434812,2.8045354 C2.52014458,1.75719027 3.29171538,0.899004425 4.06527733,0.0408185841 Z M14.5264381,1.99115044 C15.1267699,2.35553097 15.4344027,2.50685841 15.7022124,2.70696903 C18.8751106,5.10232301 21.4098451,8.29513274 25.054646,10.1150442 C25.5753319,10.3748894 25.8411504,11.1434735 26.2234513,11.6751106 C26.1149336,11.7637168 26.0034292,11.8533186 25.8929204,11.9419248 C24.9759956,11.3266593 24.0570796,10.7123894 22.8564159,9.90696903 C23.4199115,12.0663717 26.5460177,12.5233407 25.3294248,14.882854 C24.1347345,17.1945796 22.1037611,15.0471239 20.3794248,15.3278761 C21.1330752,17.6993363 23.1003319,17.847677 24.9112832,18.0408186 C26.8586283,18.2478982 27.9278761,19.3440265 28.4455752,21.0613938 C29.1474558,23.3850664 28.5560841,25.4210177 26.847677,27.1493363 C26.4275442,27.5754425 26.0850664,28.078208 25.7067478,28.5461283 C25.8640487,28.6924779 26.0233407,28.8388274 26.1846239,28.9841814 C27.0049779,28.1917035 27.9079646,27.4649336 28.6317478,26.589823 C29.772677,25.2009956 31.024115,23.7365044 32.9346239,24.3716814 C34.9646018,25.0466814 35.430531,26.9950221 35.4006637,28.9841814 C35.3897124,29.6721239 35.2971239,30.3650442 35.1756637,31.0440265 C34.9307522,32.3990044 34.2935841,32.9585177 32.7255531,32.8450221 C31.129646,32.7285398 29.3246681,32.7315265 27.8641593,34.4080752 C29.8015487,34.2119469 31.4362832,34.040708 33.0730088,33.8804204 C35.7560841,33.6175885 34.9357301,36.2528761 36.0667035,37.7581858 C36.4689159,36.3146018 36.7825221,35.1886062 37.2394912,33.5399336 C38.6113938,35.4982301 38.2410398,37.0602876 37.7352876,38.5894912 C37.2902655,39.9325221 36.2200221,39.7871681 35.0233407,39.7931416 C32.2964602,39.8080752 29.9996681,38.7746681 27.9348451,37.2086283 C25.788385,35.5838496 23.6200221,35.4146018 21.2734513,36.5913717 C20.620354,33.8206858 20.6313053,33.7858407 23.3780973,30.0623894 C22.3566372,30.2266593 21.480531,30.3670354 20.2928097,30.5591814 C20.6332965,29.7756637 20.805531,29.2709071 21.0603982,28.8129425 C22.4472345,26.3070796 22.2759956,22.1853982 20.3276549,20.2360619 C18.8193584,18.7287611 18.5664823,17.2065265 18.7636062,15.194469 C19.092146,11.8861726 18.2100664,8.98904867 14.8201327,7.46382743 C14.3920354,7.27168142 14.0306416,6.93318584 13.9380531,6.86946903 C14.1431416,5.175 14.3153761,3.74634956 14.5264381,1.99115044 Z M28.1935739,14.9336283 C29.3126005,15.5230088 30.1468925,15.6872788 30.4724456,16.1840708 C31.5038616,17.7670354 32.4446801,19.429646 33.2023129,21.1579646 C33.415366,21.6448009 32.8817377,22.4591814 32.6895916,23.1232301 C31.8702332,22.7568584 30.7034191,22.6125 30.29822,21.9803097 C29.3076226,20.4361726 28.6057421,18.6929204 27.9337288,16.9735619 C27.7465607,16.4936947 28.0641492,15.815708 28.1935739,14.9336283 Z" id="Combined-Shape"></path>
                    </g>
                </g>
                <g transform="translate(19.000000, 13.000000)" fill="#E14834" fill-rule="nonzero" id="Combined-Shape">
                    <path d="M9.66380952,28.3166667 L9.66380952,11.432381 L16.0895337,7.26714286 C16.0909524,10.4485714 15.9404762,24.3790476 13.2942857,28.3166667 L9.66380952,28.3166667 Z M15.8790476,6.55285714 L9.30666667,10.8128571 C8.34,10.1861905 4.03047619,7.39285714 2.73428571,6.55285714 C3.93047619,5.36047619 8.22,1.08333333 9.30666667,0 L15.8790476,6.55285714 Z M7.52857143,38.3704762 L7.52809524,38.3704762 L7.52809524,37.66 L11.0838095,37.66 L11.0838095,38.3704762 C11.0838095,39.0566667 10.5257143,39.6147619 9.84,39.6147619 L8.77238095,39.6147619 C8.08666667,39.6147619 7.52857143,39.0566667 7.52857143,38.3704762 Z M7.52857143,35.7033333 L11.0842857,35.7033333 L11.0842857,36.9461905 L7.52857143,36.9461905 L7.52857143,35.7033333 Z M8.94952381,28.3166667 L5.31857143,28.3166667 C2.67333333,24.3795238 2.52238095,10.4485714 2.52379971,7.26714286 C6.87619048,10.0885714 8.39333333,11.0709524 8.94952381,11.412381 L8.94952381,28.3166667 Z M1.65666667,29.6957143 C0.925238095,29.6957143 0.263809524,29.4109524 0,29.0309524 L18.6138095,29.0309524 C18.35,29.4109524 17.6880952,29.6957143 16.9571429,29.6957143 L1.65666667,29.6957143 Z M7.52857143,30.41 L11.0842857,30.41 L11.0842857,33.0314286 L7.52857143,33.0314286 L7.52857143,30.41 Z M7.52857143,33.7457143 L11.0842857,33.7457143 L11.0842857,34.9885714 L7.52857143,34.9885714 L7.52857143,33.7457143 Z"></path>
                    <path d="M107.880952,28.5828571 L107.880952,11.6985714 L114.306677,7.53333333 C114.308095,10.7147619 114.157619,24.6452381 111.511429,28.5828571 L107.880952,28.5828571 Z M114.09619,6.81904762 L107.52381,11.0790476 C106.557143,10.452381 102.247619,7.65904762 100.951429,6.81904762 C102.147619,5.62666667 106.437143,1.34952381 107.52381,0.266190476 L114.09619,6.81904762 Z M105.745714,38.6366667 L105.745238,38.6366667 L105.745238,37.9261905 L109.300952,37.9261905 L109.300952,38.6366667 C109.300952,39.3228571 108.742857,39.8809524 108.057143,39.8809524 L106.989524,39.8809524 C106.30381,39.8809524 105.745714,39.3228571 105.745714,38.6366667 Z M105.745714,35.9695238 L109.301429,35.9695238 L109.301429,37.212381 L105.745714,37.212381 L105.745714,35.9695238 Z M107.166667,28.5828571 L103.535714,28.5828571 C100.890476,24.6457143 100.739524,10.7147619 100.740943,7.53333333 C105.093333,10.3547619 106.610476,11.3371429 107.166667,11.6785714 L107.166667,28.5828571 Z M99.8738095,29.9619048 C99.142381,29.9619048 98.4809524,29.6771429 98.2171429,29.2971429 L116.830952,29.2971429 C116.567143,29.6771429 115.905238,29.9619048 115.174286,29.9619048 L99.8738095,29.9619048 Z M105.745714,30.6761905 L109.301429,30.6761905 L109.301429,33.297619 L105.745714,33.297619 L105.745714,30.6761905 Z M105.745714,34.0119048 L109.301429,34.0119048 L109.301429,35.2547619 L105.745714,35.2547619 L105.745714,34.0119048 Z"></path>
                </g>
                <g id="Group-7" transform="translate(68.000000, 33.000000)">
                    <circle id="Oval" stroke="#DCA92C" stroke-width="3" fill="#F8D61C" cx="10" cy="10" r="10"></circle>
                    <circle id="Oval-2" fill="#FFF5BE" cx="10" cy="10" r="4"></circle>
                </g>
            </g>
        </g>
    </g>
</svg>