<?xml version="1.0" encoding="UTF-8"?>
<svg width="150px" height="150px" viewBox="0 0 150 150" version="1.1" xmlns="http://www.w3.org/2000/svg" xmlns:xlink="http://www.w3.org/1999/xlink">
    <!-- Generator: Sketch 50.2 (55047) - http://www.bohemiancoding.com/sketch -->
    <title>Group</title>
    <desc>Created with Sketch.</desc>
    <defs>
        <radialGradient cx="50%" cy="50%" fx="50%" fy="50%" r="50%" id="radialGradient-1">
            <stop stop-color="#FFFFFF" offset="0%"></stop>
            <stop stop-color="#EEF7FF" offset="100%"></stop>
        </radialGradient>
    </defs>
    <g id="Page-1" stroke="none" stroke-width="1" fill="none" fill-rule="evenodd">
        <g id="noun_183053_cc">
            <g id="Group">
                <rect id="Rectangle" fill="url(#radialGradient-1)" x="0" y="0" width="150" height="150" rx="16"></rect>
                <g id="Group-6" transform="translate(30.000000, 32.000000)" fill-rule="nonzero">
                    <path d="M35.0378761,84.5283186 C33.6536283,83.9843363 32.2837168,83.3981416 30.8795575,82.909115 C29.5040708,82.4304425 28.0959292,82.0497345 26.2831858,81.500177 C28.5363717,80.8446903 30.2654867,81.3926549 31.9810619,81.8617699 C33.0435398,82.1556637 34.0574336,82.6231858 35.1079646,82.9704425 C36.690531,83.490531 38.34,82.9258407 39.6438053,81.2652212 C38.9445133,81.4276991 38.5024779,81.559115 38.049292,81.6260177 C37.1875221,81.7534513 36.3161947,81.9533628 35.4568142,81.9167257 C34.3600885,81.8689381 32.8667257,81.7231858 32.9272566,80.3938938 C32.9630973,79.5902655 34.0869027,78.5365487 34.9669912,78.1359292 C36.6037168,77.3912389 38.4188496,77.0447788 40.4068142,76.460177 C39.6653097,79.6683186 36.8052212,78.9132743 34.8849558,79.6961947 C34.9128319,79.8419469 34.9415044,79.9900885 34.9709735,80.1358407 C35.530885,80.0593805 36.1123009,80.0530088 36.6475221,79.8953097 C38.5853097,79.3218584 40.4346903,79.7041593 40.86,80.8128319 C41.2072566,81.72 39.650177,83.5534513 38.0500885,84.1221239 C37.6024779,84.279823 37.1524779,84.4367257 36.7040708,84.5936283 C36.1489381,84.5729204 35.5938053,84.549823 35.0378761,84.5283186 Z M9.55752212,66.1061947 C11.310531,66.8453097 12.4988496,67.799469 13.550177,69.1956637 C15.0523009,71.1868142 17.5284956,71.4926549 19.8836283,71.5683186 C20.7199115,71.5953982 21.1348673,71.7315929 21.5466372,72.5097345 C22.669646,74.6362832 24.4266372,75.2535398 26.8884956,74.8489381 C28.0911504,74.6506195 29.3933628,74.6267257 30.5816814,74.8648673 C33.7993805,75.5115929 36.8968142,75.9504425 39.2176991,72.700885 C39.3427434,72.7845133 39.4685841,72.8697345 39.5944248,72.9525664 C39.5458407,73.4646903 39.6597345,74.0819469 39.409646,74.4586726 C39.0623894,74.9811504 38.5064602,75.5163717 37.9282301,75.709115 C34.9470796,76.7086726 31.9659292,77.7504425 28.9162832,78.4855752 C25.819646,79.2326549 23.0925664,77.860354 21.3236283,75.2232743 C20.959646,74.680885 20.2404425,74.179115 19.6056637,74.0484956 C15.310354,73.17 11.7549558,71.3261947 9.88486726,67.0914159 C9.77575221,66.8461062 9.71283186,66.580885 9.55752212,66.1061947 Z M15.9292035,74.9231783 C16.0924779,74.888134 16.1474336,74.8650367 16.2007965,74.8674261 C18.7160177,75.0314969 20.6776991,75.968134 22.3088496,78.0867181 C23.2215929,79.2710544 25.0446903,79.7553022 26.4353097,80.539019 C23.3163717,81.7066296 18.8315044,79.3554792 15.9292035,74.9231783 Z" id="Combined-Shape" fill="#A96C2D"></path>
                    <path d="M56.748444,84.6732743 C56.1933112,84.6804425 55.6381785,84.6876106 55.0798599,84.6947788 C54.6346387,84.5259292 54.1902139,84.3570796 53.747382,84.1850442 C52.1624263,83.5717699 50.6587095,81.6969027 51.0306564,80.800885 C51.4878245,79.7009735 53.3467626,79.3720354 55.2662316,79.999646 C55.7990634,80.1716814 56.3788865,80.1955752 56.9380015,80.2871681 C56.9690634,80.1414159 57.0033112,79.9956637 57.0343732,79.8483186 C55.1395944,79.0128319 52.2564086,79.6866372 51.6064971,76.460177 C53.5761431,77.0997345 55.3825148,77.4963717 56.9961431,78.2856637 C57.8650811,78.710177 58.9578245,79.7957522 58.9729573,80.5993805 C58.9976475,81.9326549 57.4995059,82.0353982 56.4003909,82.0521239 C55.5402139,82.0640708 54.6760546,81.8386726 53.8174705,81.6889381 C53.3666741,81.6100885 52.9278245,81.4651327 52.2333112,81.2835398 C53.4917183,82.9807965 55.1244617,83.590885 56.7213643,83.1138053 C57.7814528,82.7968142 58.80809,82.3571681 59.8785325,82.0943363 C61.6052581,81.6730088 63.3495059,81.1736283 65.5843732,81.889646 C63.7572935,82.389823 62.3380015,82.7299115 60.9505679,83.1719469 C59.5344617,83.620354 58.1478245,84.1683186 56.748444,84.6732743 Z M81.1961146,66.9026549 C81.027265,67.370177 80.9555836,67.6346018 80.8408934,67.8767257 C78.8537252,72.0573451 75.24815,73.8015929 70.9297429,74.5606195 C70.2917783,74.6721239 69.559035,75.1539823 69.1799199,75.6860177 C67.338504,78.2713274 64.5731942,79.5679646 61.4996544,78.7340708 C58.4699199,77.9129204 55.5198314,76.7875221 52.5689465,75.7067257 C51.9954951,75.4956637 51.4546987,74.9484956 51.1225748,74.4164602 C50.8828403,74.0333628 51.0126633,73.4176991 50.9792119,72.9063717 C51.1066456,72.8259292 51.2348757,72.7446903 51.3631057,72.6634513 C53.5923978,75.9783186 56.7001854,75.6238938 59.9354066,75.0687611 C61.1293004,74.8632743 62.4307164,74.9230088 63.627796,75.1539823 C66.0777075,75.629469 67.8506279,75.0623894 69.0317783,72.9661062 C69.4650526,72.200708 69.8831942,72.0756637 70.7194774,72.070885 C73.0785925,72.0621239 75.5611588,71.8271681 77.117442,69.8766372 C78.207796,68.5115044 79.4216013,67.59 81.1961146,66.9026549 Z M75.970354,74.9295353 C72.9461947,79.2805972 68.3968142,81.5051105 65.3097345,80.2522786 C66.7234513,79.5044025 68.5584956,79.0719247 69.5030973,77.9130751 C71.1939823,75.8414822 73.180354,74.9598008 75.6995575,74.8674114 C75.7537168,74.865022 75.8070796,74.8905087 75.970354,74.9295353 Z" id="Combined-Shape" fill="#A96C2D"></path>
                    <path d="M27.1561062,2.00150442 C27.2859292,3.40964602 27.3918584,4.55654867 27.5184956,5.91530973 C27.4420354,5.96548673 27.1457522,6.22752212 26.800885,6.37168142 C24.0554867,7.51539823 23.2853097,9.81238938 23.4732743,12.4661947 C23.5879646,14.0790265 23.3506195,15.2904425 22.110531,16.4636283 C20.5088496,17.9776991 20.2802655,21.2710619 21.3331858,23.3052212 C21.5259292,23.6771681 21.6525664,24.0849558 21.9074336,24.7181416 C20.9612389,24.5389381 20.2643363,24.4067257 19.4527434,24.2538053 C21.5641593,27.2923009 21.5721239,27.3209735 20.9899115,29.5215929 C19.1381416,28.5292035 17.4002655,28.6160177 15.6480531,29.8672566 C13.9595575,31.0730973 12.1030088,31.8480531 9.92070796,31.7747788 C8.96415929,31.7429204 8.10637168,31.8361062 7.78061947,30.7521239 C7.40946903,29.5176106 7.14823009,28.26 8.2879646,26.7252212 C8.61849558,28.0529204 8.84389381,28.9616814 9.13460177,30.1245133 C10.0712389,28.9465487 9.47309735,26.8207965 11.6123894,27.0907965 C12.9185841,27.2564602 14.2223894,27.4300885 15.7675221,27.6307965 C14.6365487,26.2569027 13.1949558,26.2138938 11.9150442,26.2712389 C10.6574336,26.3269912 10.1612389,25.8658407 9.99637168,24.7778761 C9.91353982,24.2323009 9.85539823,23.6755752 9.86336283,23.1260177 C9.88327434,21.5346903 10.2982301,19.9863717 11.9381416,19.4917699 C13.4800885,19.0266372 14.4461947,20.2253097 15.3302655,21.3610619 C15.8869912,22.0770796 16.5934513,22.6776106 17.2330088,23.330708 C17.3636283,23.2168142 17.4942478,23.1037168 17.6256637,22.9906195 C17.3325664,22.609115 17.070531,22.1981416 16.7431858,21.8484956 C15.4154867,20.4276106 14.9885841,18.7861062 15.6002655,16.9438938 C16.0534513,15.5819469 16.9319469,14.7289381 18.4946018,14.6062832 C19.9473451,14.4931858 21.5227434,14.4175221 22.1790265,12.5386726 C20.8059292,12.2742478 19.1341593,13.9468142 18.2309735,12.0711504 C17.309469,10.1572566 19.8199115,9.86256637 20.3200885,8.14938053 C19.3412389,8.76504425 18.5941593,9.23734513 17.8462832,9.70884956 C17.759469,9.63557522 17.6726549,9.56150442 17.5874336,9.48823009 C17.9052212,9.07168142 18.1353982,8.46318584 18.5575221,8.26725664 C21.5131858,6.89336283 23.6110619,4.39566372 26.2011504,2.55185841 C26.4177876,2.39336283 26.6662832,2.28026549 27.1561062,2.00150442 Z M35.7475221,0.309823009 C36.3464602,1.01309735 36.9446018,1.71637168 37.6773451,2.57575221 C37.3245133,2.6259292 37.08,2.61159292 36.879292,2.69920354 C36.4237168,2.8999115 35.9904425,3.15079646 35.5476106,3.38017699 C35.9107965,3.80787611 36.190354,4.40044248 36.6515044,4.62902655 C37.9839823,5.29088496 38.2276991,5.90973451 37.4774336,7.56955752 C37.2440708,7.48035398 36.9995575,7.39274336 36.7614159,7.29477876 C36.5917699,7.22469027 36.4284956,7.13946903 35.8685841,6.87584071 C36.7916814,8.36920354 37.5515044,9.4420354 38.1440708,10.600885 C38.7772566,11.840177 39.070354,13.0388496 37.5969027,14.1037168 C37.0879646,14.4716814 36.8283186,15.4712389 36.8211504,16.1856637 C36.8060177,17.5523894 36.9071681,18.9565487 37.2209735,20.2826549 C37.8971681,23.1395575 37.0561062,24.2354867 34.1761062,24.3095575 C31.7747788,24.3716814 29.400531,24.7460177 27.3615929,26.1358407 C27.3926549,26.2911504 27.4229204,26.4456637 27.4539823,26.600177 C28.7187611,26.3970796 29.9795575,26.1254867 31.2538938,26.0084071 C32.3378761,25.9088496 33.639292,25.6173451 34.4819469,26.0761062 C35.5890265,26.6790265 36.7821239,27.7980531 37.1373451,28.9433628 C37.6168142,30.4900885 36.9724779,32.1626549 35.4934513,33.1669912 C35.1,33.4346018 34.4166372,33.3422124 33.8718584,33.310354 C32.5186726,33.2330973 31.1495575,32.8961947 29.8258407,33.0331858 C28.0720354,33.2147788 26.3747788,33.3629204 24.8471681,32.3657522 C21.7895575,30.369823 21.4152212,27.2867257 23.8858407,24.5899115 C24.7484071,23.6484956 25.7224779,22.8090265 26.6463717,21.9217699 C26.55,21.7887611 26.4552212,21.6541593 26.3604425,21.520354 C25.7073451,21.8413274 25.059823,22.1742478 24.3987611,22.4800885 C23.0153097,23.119646 22.6083186,22.8329204 22.5342478,21.350708 C22.3884956,18.439646 24.1781416,16.7885841 26.3222124,15.3422124 C26.849469,14.9869912 27.3711504,14.6246018 27.8976106,14.0662832 C26.0960177,14.600708 25.2334513,13.9667257 24.8495575,12.2670796 C24.4481416,10.4949558 24.7221239,9.1720354 26.3166372,8.25690265 C27.5344248,7.56 28.9393805,7.19044248 30.1922124,6.70141593 C30.0440708,6.17734513 29.5343363,5.34823009 29.7669027,4.9340708 C30.0361062,4.45061947 30.9695575,4.35743363 31.5884071,4.04283186 C32.2956637,3.68283186 32.9893805,3.28619469 33.6448673,2.84017699 C33.7046018,2.79876106 33.3812389,2.01823009 33.3406195,2.02699115 C32.5736283,2.20699115 31.7692035,2.3519469 31.0842478,2.71513274 C30.2654867,3.14840708 29.5558407,3.78477876 28.7888496,4.31840708 C28.7251327,4.36300885 28.5793805,4.28893805 28.3874336,4.25469027 C28.2759292,3.07752212 28.5499115,2.11061947 29.7573451,1.59769912 C30.8628319,1.12858407 31.9723009,0.666637168 33.0793805,0.201504425 C33.9690265,0.238938053 34.8586726,0.274778761 35.7475221,0.309823009 Z M16.5146018,11.8967257 C16.5974336,12.6055752 16.8355752,13.1543363 16.6754867,13.5342478 C16.099646,14.8946018 15.499115,16.2724779 14.6739823,17.4846903 C14.3354867,17.9824779 13.399646,18.0716814 12.7346018,18.3464602 C12.5968142,17.8112389 12.1874336,17.1477876 12.369823,16.7638938 C13.0141593,15.3995575 13.8026549,14.0893805 14.6636283,12.8476991 C14.9352212,12.4558407 15.6058407,12.3427434 16.5146018,11.8967257 Z" id="Combined-Shape" fill="#A96C2D"></path>
                    <path d="M56.6150537,0.0326548673 C57.5054962,0.0230973451 58.3943458,0.0119469027 59.2816024,0 C60.3767351,0.49539823 61.4718679,0.98840708 62.5646112,1.48858407 C63.7569121,2.03415929 64.0038148,3.00902655 63.8596555,4.18221239 C63.6661157,4.21088496 63.519567,4.28097345 63.4574431,4.23477876 C62.7047882,3.67964602 62.0134608,3.02336283 61.2074431,2.56778761 C60.5328413,2.18548673 59.7323989,2.01902655 58.9709829,1.81752212 C58.9311599,1.80716814 58.5854962,2.57893805 58.6444343,2.6219469 C59.2863812,3.08628319 59.9681511,3.50123894 60.6666466,3.88115044 C61.2759387,4.21327434 62.2046112,4.3319469 62.4618679,4.82336283 C62.6816909,5.24389381 62.148859,6.05787611 61.9871776,6.5779646 C63.2264697,7.10123894 64.6194785,7.50982301 65.8157617,8.24097345 C67.3871776,9.1999115 67.6221334,10.53 67.1713369,12.290177 C66.740452,13.9786726 65.859567,14.5879646 64.0739033,14.0033628 C64.5844343,14.5760177 65.0957617,14.9535398 65.6126643,15.3230973 C67.7169121,16.8284071 69.4579741,18.529646 69.2317794,21.4351327 C69.1170891,22.9149558 68.7021334,23.1897345 67.3370006,22.5127434 C66.6846997,22.1893805 66.0475316,21.8381416 65.4023989,21.4988496 C65.3036378,21.6310619 65.2048767,21.7616814 65.1061157,21.8930973 C66.0045227,22.8050442 66.9546997,23.6715929 67.7909829,24.6369027 C70.1859387,27.4014159 69.7247882,30.4733628 66.6130183,32.3824779 C65.0567351,33.3366372 63.3642573,33.1423009 61.6184166,32.9113274 C60.2970891,32.7361062 58.919213,33.0363717 57.5652307,33.0753982 C57.020452,33.0913274 56.3346997,33.1653982 55.9484166,32.8874336 C54.498859,31.840885 53.9007174,30.15 54.4239918,28.6184071 C54.810275,27.4842478 56.0352307,26.3986726 57.1566466,25.8268142 C58.0136378,25.3919469 59.3062927,25.719292 60.3870891,25.849115 C61.6574431,26.0012389 62.9094785,26.3070796 64.1694785,26.5460177 C64.2053192,26.3923009 64.2387705,26.2385841 64.2738148,26.0848673 C62.2754962,24.6384956 59.9139918,24.1972566 57.5134608,24.0682301 C54.6350537,23.9137168 53.8266466,22.7954867 54.5824873,19.9584956 C54.9321334,18.6411504 55.0739033,17.2409735 55.0970006,15.8742478 C55.109744,15.1590265 54.8771776,14.1530973 54.3785935,13.7707965 C52.9370006,12.6645133 53.2627528,11.4738053 53.9301865,10.2536283 C54.5562042,9.11230088 55.3446997,8.05938053 56.3084166,6.59309735 C55.7421334,6.84159292 55.5764697,6.9220354 55.4044343,6.98734513 C55.1639033,7.07814159 54.9185935,7.15858407 54.6820449,7.24141593 C53.9787705,5.56168142 54.239213,4.95 55.5884166,4.32557522 C56.0559387,4.10973451 56.3530183,3.52433628 56.729744,3.10778761 C56.2924873,2.86646018 55.8663812,2.60362832 55.4163812,2.39017699 C55.218859,2.29619469 54.9743458,2.30415929 54.6223104,2.24362832 C55.3789475,1.40575221 55.9962042,0.71920354 56.6150537,0.0326548673 Z M64.9839823,1.59292035 C65.4642478,1.88442478 65.710354,2.00548673 65.9246018,2.16557522 C68.4629204,4.08185841 70.490708,6.63610619 73.4065487,8.0920354 C73.8230973,8.2999115 74.0357522,8.91477876 74.3415929,9.3400885 C74.2547788,9.41097345 74.1655752,9.48265487 74.0771681,9.55353982 C73.3436283,9.06132743 72.6084956,8.5699115 71.6479646,7.92557522 C72.0987611,9.65309735 74.599646,10.0186726 73.6263717,11.9062832 C72.6706195,13.7556637 71.0458407,12.0376991 69.6663717,12.2623009 C70.269292,14.159469 71.8430973,14.2781416 73.2918584,14.4326549 C74.8497345,14.5983186 75.7051327,15.4752212 76.119292,16.849115 C76.6807965,18.7080531 76.2076991,20.3368142 74.8409735,21.719469 C74.5048673,22.060354 74.230885,22.4625664 73.9282301,22.8369027 C74.0540708,22.9539823 74.1815044,23.0710619 74.310531,23.1873451 C74.9668142,22.5533628 75.6892035,21.9719469 76.2682301,21.2718584 C77.1809735,20.1607965 78.1821239,18.9892035 79.710531,19.4973451 C81.3345133,20.0373451 81.7072566,21.5960177 81.6833628,23.1873451 C81.6746018,23.7376991 81.600531,24.2920354 81.5033628,24.8352212 C81.3074336,25.9192035 80.7976991,26.3668142 79.5432743,26.2760177 C78.2665487,26.1828319 76.8225664,26.1852212 75.6541593,27.5264602 C77.2040708,27.3695575 78.5118584,27.2325664 79.8212389,27.1043363 C81.9676991,26.8940708 81.3114159,29.0023009 82.2161947,30.2065487 C82.5379646,29.0516814 82.7888496,28.150885 83.1544248,26.8319469 C84.2519469,28.3985841 83.9556637,29.6482301 83.5510619,30.8715929 C83.1950442,31.9460177 82.3388496,31.8297345 81.3815044,31.8345133 C79.2,31.8464602 77.3625664,31.0197345 75.710708,29.7669027 C73.9935398,28.4670796 72.2588496,28.3316814 70.3815929,29.2730973 C69.859115,27.0565487 69.8678761,27.0286726 72.0653097,24.0499115 C71.2481416,24.1813274 70.5472566,24.2936283 69.5970796,24.4473451 C69.869469,23.820531 70.0072566,23.4167257 70.2111504,23.050354 C71.3206195,21.0456637 71.1836283,17.7483186 69.6249558,16.1888496 C68.4183186,14.9830088 68.2160177,13.7652212 68.3737168,12.1555752 C68.6365487,9.50893805 67.930885,7.19123894 65.2189381,5.97106195 C64.8764602,5.81734513 64.5873451,5.54654867 64.5132743,5.49557522 C64.6773451,4.14 64.8151327,2.99707965 64.9839823,1.59292035 Z M75.917691,11.9469027 C76.8129123,12.4184071 77.4803459,12.549823 77.7407884,12.9472566 C78.5659211,14.2136283 79.318576,15.5437168 79.9246822,16.9263717 C80.0951246,17.3158407 79.668222,17.9673451 79.5145052,18.4985841 C78.8590184,18.2054867 77.9255671,18.09 77.6014078,17.5842478 C76.80893,16.3489381 76.2474255,14.9543363 75.7098149,13.5788496 C75.5600804,13.1949558 75.8141512,12.6525664 75.917691,11.9469027 Z" id="Combined-Shape" fill="#A96C2D"></path>
                    <path d="M8.84070796,42.1552062 C9.15610619,41.5817549 9.48345133,41.0138788 9.78690265,40.4332593 C10.4774336,39.1151177 11.3654867,38.6006045 12.8986726,39.2544983 C13.4753097,39.499808 14.3378761,39.1812239 15.0371681,38.9932593 C15.6615929,38.8244098 16.239823,38.4827284 16.9327434,38.1776841 C16.9566372,39.079277 16.9765487,39.8319319 16.9956637,40.5845868 C17.1477876,40.7152062 17.299115,40.8458257 17.4504425,40.9764452 C17.6121239,40.6522859 17.7228319,40.2898965 17.9426549,40.0119319 C18.4237168,39.4042328 18.9143363,38.7941443 19.4774336,38.2660912 C21.8970796,35.9929938 24.2426549,36.0718434 26.210708,38.6730823 C27.1648673,39.9338788 28.0887611,40.4539673 29.7382301,40.3902505 C32.0384071,40.3026399 34.4253982,40.4229053 36.6523009,40.958923 C40.4673451,41.8764452 41.7066372,44.4880381 40.4992035,48.4528168 C39.2790265,47.9207815 38.0660177,47.3895425 36.8546018,46.860693 C36.780531,46.990516 36.7072566,47.1211354 36.6339823,47.2517549 C37.5626549,47.9136133 38.5526549,48.5061797 39.3976991,49.259631 C40.1057522,49.8904275 41.0495575,50.6454717 41.180177,51.4602505 C41.5234513,53.6011354 41.7568142,55.8352062 41.5123009,57.9737018 C41.2853097,59.9568876 39.3706195,60.4586576 37.7434513,59.2456487 C37.4352212,59.0138788 37.1182301,58.7566222 36.9063717,58.4428168 C35.9538053,57.0330823 34.859469,55.9108699 33.0076991,55.7404275 C32.6046903,55.7021974 32.1881416,55.1000735 31.8982301,54.6763567 C30.3076991,52.3514894 28.8382301,49.9382151 27.140177,47.6969761 C26.6415929,47.040693 25.5663717,46.7149407 24.6910619,46.4760027 C23.2582301,46.0857372 21.759292,45.9423744 20.3113274,45.5998965 C18.2692035,45.1164452 16.3680531,44.7747638 14.2120354,45.6285691 C11.3455752,46.7619319 10.329292,46.2681266 8.76106195,44.1535248 C8.78734513,43.4876841 8.81362832,42.8218434 8.84070796,42.1552062 Z M82.5360642,43.3428227 C82.5440288,44.0094599 82.5519934,44.6768935 82.559958,45.3443271 C80.9343828,47.4119378 79.9029669,47.877867 77.0691616,46.6640617 C74.9386306,45.7513183 73.0287191,46.0388404 70.9738518,46.4657431 C69.5171262,46.7683979 68.0150023,46.8679555 66.5718164,47.2191944 C65.6909315,47.4318493 64.6061527,47.727336 64.0900465,48.3716723 C62.330666,50.5635307 60.7927014,52.9337962 59.1400465,55.2140617 C58.8381881,55.6314068 58.4025244,56.2199909 58.0011085,56.2462741 C56.1445598,56.3665395 55.0207545,57.4568935 54.0283651,58.8387519 C53.8085421,59.1461856 53.4843828,59.3962741 53.1689846,59.6184864 C51.5075686,60.7860971 49.6088076,60.2309643 49.4367722,58.2422033 C49.2519934,56.0981325 49.5482766,53.8712298 49.950489,51.7399024 C50.1042058,50.9299024 51.0687191,50.2011413 51.7934978,49.5902564 C52.6600465,48.8599024 53.6667722,48.2960086 54.6121704,47.6604333 C54.5420819,47.5274245 54.4727899,47.3960086 54.4019049,47.2622033 C53.1769492,47.7583979 51.949604,48.2537962 50.7150908,48.7531767 C49.6183651,44.7541502 50.9317279,42.1807873 54.7698695,41.3691944 C57.0111085,40.8953006 59.3996925,40.8411413 61.6966837,40.9940617 C63.3429669,41.1031767 64.2804005,40.6085749 65.269604,39.3756546 C67.310135,36.8317608 69.6588961,36.816628 72.0124359,39.156628 C72.5588076,39.7014068 73.0334978,40.3250351 73.4970377,40.9454776 C73.7088961,41.2290174 73.810843,41.5953891 73.9629669,41.9235307 C74.1166837,41.7984864 74.2735863,41.6710528 74.4280996,41.5452121 C74.4687191,40.7925572 74.510135,40.0414953 74.5587191,39.1406988 C75.2428784,39.4656546 75.8115509,39.8232652 76.431197,40.0096369 C77.1249138,40.2167165 77.9787191,40.5591944 78.5617279,40.3306103 C80.1124359,39.7197254 80.9853562,40.2589289 81.6384536,41.5953891 C81.9251793,42.1839732 82.2365952,42.7606103 82.5360642,43.3428227 Z M18.6748836,69.295384 C19.0277155,69.8321982 19.3805473,70.3698088 19.7317863,70.90503 C16.8932022,72.0622867 15.0438217,70.5394548 13.5233792,65.9327291 C13.4118748,66.5746761 13.3011668,67.2142336 13.1705473,67.9637026 C11.2566535,68.2281274 9.17391017,68.2114017 7.77054733,66.804853 C6.53842344,65.5703398 5.89568008,63.7480389 5.0171845,62.2291893 C4.90488362,62.4386584 4.6611668,62.8990123 4.42143229,63.346623 C2.72258273,63.1275964 1.43789247,61.4223752 0.826211051,58.1919327 C2.82373317,60.4100743 5.02037034,61.226446 7.81435264,61.0098088 C7.41054733,60.6251185 7.13736149,60.2029946 6.75267123,60.0309592 C5.6432022,59.5331716 4.51860043,59.0170654 3.34461813,58.7351185 C2.08382167,58.4332601 1.61391017,57.7116672 1.53904291,56.3544991 C3.91169778,56.1314902 5.85267123,56.975738 7.76098981,58.1584814 C9.94568008,59.5124637 9.61674202,61.7935256 9.80231725,63.9144991 C9.95205176,63.9025522 10.1017863,63.8914017 10.2523172,63.8794548 C10.4753261,63.3999858 10.617096,62.855207 10.9412553,62.455384 C11.387273,61.9026407 11.9862111,61.0456495 12.4871845,61.0679504 C13.2239102,61.0974194 14.0609898,61.6629061 14.6232907,62.2307822 C15.2700164,62.8846761 15.5766535,63.8667115 16.1939102,64.5604283 C16.7307243,65.1633486 17.4316093,65.7208707 18.1723172,66.0195433 C20.1332022,66.8104283 22.1458571,67.4818442 24.1616978,68.1237911 C24.6021403,68.2647645 25.1437332,68.0871539 25.6391314,67.756623 C24.7160341,67.3878619 23.7921403,67.0198973 22.7758571,66.6137026 C23.3405473,65.7829946 23.7371845,65.1983929 24.3456801,64.3023752 C23.6487774,64.5413132 23.2545296,64.6352955 22.9001049,64.8081274 C18.8047066,66.785738 15.3520518,64.5214017 15.4340872,59.8939681 C15.4516093,58.9198973 15.508158,57.94503 15.547981,56.9693663 C15.3647951,56.9422867 15.1824057,56.9144106 15.0000164,56.8865345 C14.8964765,57.0115787 14.7626712,57.1230831 14.6949721,57.266446 C14.2768305,58.1202513 14.8152376,59.6781274 13.2151491,59.6534371 C11.5593084,59.6271539 9.73302521,59.5021097 8.80355618,57.8621982 C8.02541459,56.4883044 7.60568008,54.9113132 7.02506061,53.425915 C6.93744999,53.2013132 6.84267123,52.9775079 6.55037034,52.2630831 C6.26842344,53.5963575 6.0932022,54.4246761 5.91957388,55.2418442 C2.6493084,55.8821982 0.651786272,54.8292778 0.0910783077,52.1921982 C-0.206797798,50.7896318 0.203379193,50.4089238 1.65691902,50.3380389 C2.85240574,50.2798973 4.07736149,50.1014902 5.21391017,49.7414902 C7.39621105,49.0493663 10.0117863,49.3265345 13.026388,50.7991893 C12.5915208,51.4132601 12.1542641,52.0321097 11.6986889,52.676446 C11.9846181,52.8134371 12.0459456,52.8675964 12.0746181,52.854853 C15.7701934,51.0747645 17.5232022,51.7509592 19.167096,55.5389238 C20.1475385,57.8008707 21.6393084,59.5610477 24.0414323,60.4674194 C24.7216093,60.7254725 25.3253261,61.2654725 25.8740872,61.7720212 C27.2256801,63.0256495 28.2594854,64.7268884 30.5293969,64.5317557 C30.8209013,64.506269 31.4453261,65.4245876 31.4915208,65.9438796 C31.7352376,68.7020212 29.9209013,70.896269 26.9883349,71.6170654 C24.5368305,72.2191893 22.5432907,71.3422867 20.7122288,69.795561 C20.2295739,69.3861805 19.6354146,69.10503 19.0914323,68.7649415 C18.9520518,68.9401628 18.8134677,69.1185699 18.6748836,69.295384 Z M70.0973557,69.7792536 C69.9643469,69.5984571 69.831338,69.4168642 69.6983292,69.2368642 C69.1463823,69.5610235 68.5442584,69.8246518 68.0488601,70.2204925 C66.1771787,71.7154483 64.1589486,72.5373952 61.7241699,71.8667757 C58.8147008,71.0639439 57.0624884,68.8187226 57.3826654,66.0693421 C57.4439929,65.551643 58.0939044,64.651643 58.3846123,64.6850943 C60.6465592,64.9431474 61.7281522,63.2729704 63.1147893,62.0575722 C63.6778867,61.5661563 64.2975327,61.0436784 64.9832849,60.8055368 C67.4085061,59.9644748 68.9496566,58.2473067 69.992223,56.0140324 C71.7412495,52.2738554 73.5125769,51.6462448 77.1563823,53.5282802 C77.1858513,53.5434129 77.2487716,53.4892536 77.5378867,53.3610235 C77.10063,52.7039439 76.6785061,52.0739439 76.2635504,51.4463333 C79.3171787,50.0596961 81.9399221,49.8558023 84.1023115,50.6076607 C85.2277097,51.0003156 86.4470902,51.212174 87.6401876,51.3037669 C89.0921345,51.4152713 89.4903646,51.8079262 89.1534619,53.2001386 C88.5194796,55.8228819 86.4932849,56.8176607 83.2429309,56.0865102 C83.0916035,55.2637669 82.9394796,54.4306695 82.6949663,53.0902271 C82.3827539,53.7966872 82.280807,54.0173067 82.1876212,54.2387226 C81.5647893,55.7089881 81.102046,57.2732359 80.2856743,58.6232359 C79.3100106,60.2384571 77.481338,60.3125279 75.8254973,60.2934129 C74.2254088,60.2719085 74.8068247,58.7299616 74.4125769,57.8658023 C74.3480637,57.7200501 74.2182407,57.6061563 74.1186831,57.4771297 C73.9354973,57.4994306 73.7507185,57.5233244 73.5675327,57.5464217 C73.5794796,58.5220855 73.611338,59.4969527 73.6001876,60.47182 C73.5524,65.0992536 70.0376212,67.2672182 65.9987716,65.1741209 C65.6483292,64.9933244 65.2588601,64.8889881 64.5691256,64.6301386 C65.151338,65.5420855 65.5328424,66.1378377 66.0728424,66.9844748 C65.0454088,67.361997 64.1119575,67.7036784 63.1800991,68.0453598 C63.6659398,68.3910235 64.2019575,68.582174 64.6463823,68.4539439 C66.6797451,67.8685456 68.7099221,67.2552713 70.6923115,66.5193421 C71.4401876,66.2413775 72.1577982,65.702174 72.7097451,65.1151828 C73.3469132,64.4389881 73.6798336,63.4665102 74.3448778,62.830935 C74.9223115,62.2781917 75.7761168,61.7365987 76.5144354,61.7270412 C77.0162053,61.7182802 77.5912495,62.5927934 78.021338,63.1566872 C78.3327539,63.5652713 78.4593911,64.1140324 78.6688601,64.601466 C78.8185946,64.6165987 78.9683292,64.6317315 79.1180637,64.6484571 C79.3617805,62.5346518 79.0973557,60.2440324 81.3186831,58.952174 C83.2580637,57.8227934 85.221338,57.0327049 87.5884177,57.3210235 C87.4745238,58.6758023 86.9854973,59.3846518 85.7159398,59.6522625 C84.5355858,59.900758 83.3958513,60.3865987 82.2736389,60.8525279 C81.8833734,61.0134129 81.60063,61.4283687 81.1856743,61.801112 C83.9724884,62.0950058 86.19063,61.3415545 88.2494796,59.1783687 C87.5477982,62.3920855 86.2161168,64.061466 84.5108955,64.2327049 C84.2854973,63.7771297 84.0537274,63.3096076 83.9477982,63.0969527 C83.0278867,64.591112 82.3341699,66.3942979 81.0677982,67.5937669 C79.6262053,68.961289 77.5442584,68.9190766 75.6375327,68.6020855 C75.5284177,67.8502271 75.4352318,67.2058908 75.3412495,66.5631474 C73.6933734,71.1244748 71.8017805,72.5955368 68.9974442,71.3594306 C69.3630194,70.8345633 69.730984,70.3057138 70.0973557,69.7792536 Z" id="Combined-Shape" fill="#D7A44A"></path>
                </g>
            </g>
        </g>
    </g>
</svg>