<?xml version="1.0" encoding="UTF-8"?>
<svg width="150px" height="150px" viewBox="0 0 150 150" version="1.1" xmlns="http://www.w3.org/2000/svg" xmlns:xlink="http://www.w3.org/1999/xlink">
    <!-- Generator: Sketch 51 (57462) - http://www.bohemiancoding.com/sketch -->
    <title>brainPartsv3.1</title>
    <desc>Created with Sketch.</desc>
    <defs>
        <ellipse id="path-1" cx="75" cy="141.5" rx="50" ry="1.5"></ellipse>
        <filter x="-7.0%" y="-166.7%" width="114.0%" height="566.7%" filterUnits="objectBoundingBox" id="filter-2">
            <feOffset dx="0" dy="2" in="SourceAlpha" result="shadowOffsetOuter1"></feOffset>
            <feGaussianBlur stdDeviation="2" in="shadowOffsetOuter1" result="shadowBlurOuter1"></feGaussianBlur>
            <feColorMatrix values="0 0 0 0 0.750053146   0 0 0 0 0.750053146   0 0 0 0 0.750053146  0 0 0 0.5 0" type="matrix" in="shadowBlurOuter1"></feColorMatrix>
        </filter>
    </defs>
    <g id="Page-1" stroke="none" stroke-width="1" fill="none" fill-rule="evenodd">
        <g id="brainPartsv3.1" fill-rule="nonzero">
            <rect id="Rectangle" fill="#FFFFFF" x="0" y="0" width="150" height="150" rx="16"></rect>
            <g id="cerebrum" transform="translate(21.000000, 32.000000)">
                <path d="M72.1084779,0.174461794 C74.3208356,-0.81533243 81.628809,2.70430978 82.4409297,3.26999173 C83.2530504,3.83567369 84.2106418,5.18538097 80.960122,6.34006682 C77.7096022,7.49475268 74.4350085,5.91168547 73.7984579,6.34006682 C73.3886017,7.12840565 70.9789732,7.5401911 72.1084779,12.1304896 C73.2379826,16.7207881 75.0110417,19.0850721 77.2747038,20.4675032 C79.5383658,21.8499344 79.9564431,19.30984 82.4409297,20.4675032 C84.9254162,21.6251665 86.2673961,25.0194927 87.0438289,25.0194927 C87.8202615,25.0194927 85.3914517,21.2622853 87.0438289,20.4675032 C88.6962059,19.6727212 91.4648571,21.3128808 92.080567,22.5968559 C92.6962769,23.8808311 90.233431,24.4197488 90.233431,27.1189637 C90.233431,29.8181786 92.080567,29.8273605 92.080567,32.6581583 C92.080567,35.4889562 91.1846655,37.4896344 90.233431,38.3359823 C87.4862678,40.7802333 84.4728263,39.3382792 84.0379441,39.4479603 C83.1597471,39.6694494 86.182882,36.3424698 86.182882,34.1456063 C86.182882,31.9487429 85.4967885,28.4304697 84.0379441,28.1264801 C82.5790998,27.8224904 80.1354452,26.7244907 79.3048769,28.1264801 C78.4743086,29.5284693 76.4042469,30.6768149 77.2747038,31.2404343 C78.1451606,31.8040539 79.4004274,28.9882343 80.960122,28.9882343 C82.5198166,28.9882343 83.3067664,29.4933376 84.0379441,31.2404343 C84.769122,32.9875311 84.8714249,34.1198545 84.0379441,36.3424698 C83.2044635,38.565085 83.5897416,38.5037872 80.960122,39.4479603 C78.3305023,40.3921334 77.0290093,39.4479603 75.3888322,39.4479603 C73.748655,39.4479603 71.5121987,40.3336935 69.8961203,38.3359823 C68.9680761,36.7796551 69.9972539,35.1835921 69.8961203,34.1456063 C69.7683409,32.8341418 69.3333437,31.6637909 71.2267849,30.398699 C73.1202262,29.1336071 76.6900796,30.2119828 75.3888322,28.9882343 C74.0875845,27.7644859 71.0352575,30.3137466 69.8961203,28.9882343 C68.7569831,27.6627221 70.4119289,26.434029 69.8961203,22.5968559 C69.3803117,18.7596829 68.0412371,17.0221846 68.0412371,15.1894974 C68.0412371,13.3568102 68.0412371,13.6615099 68.0412371,10.9956291 C68.0412371,8.32974826 68.0412371,8.10302932 68.0412371,6.34006682 C68.0412371,4.57710433 68.399443,3.87119253 69.4663376,2.25386746 C69.7671182,1.79790863 69.8132355,1.67517687 69.8961203,1.36213957 C70.107235,0.56480676 70.5198316,0.885211666 72.1084779,0.174461794 Z M84.7356496,7.69170019 C86.5453996,8.76099254 85.6799883,12.260711 88.8545327,14.8630832 C92.0290771,17.4654554 96.3596274,15.3498368 98.905773,18.0925357 C101.451919,20.8352345 96.3884265,19.717375 95.4072768,20.1043242 C94.395908,20.5031912 94.7706303,21.2608818 93.68896,21.068993 C92.6810245,20.8901849 92.2248628,19.6495177 91.676887,19.4065752 C90.7916029,19.014089 88.8545327,18.8316174 88.8545327,18.5699438 C88.4913517,18.2693972 88.1950362,17.442376 87.2974671,16.3739343 C86.399898,15.3054926 85.9029946,15.1863367 84.7356496,13.17169 C83.2741022,10.6492977 83.0893759,10.8212291 81.9860836,10.0048179 C79.3641329,8.06463416 77.9795616,7.69170019 79.6244716,7.69170019 C83.1300807,7.69170019 82.9258998,6.62240785 84.7356496,7.69170019 Z M87.3655081,6.91472533 C87.8195379,6.21417488 88.9995769,6.57872015 90.9056252,8.00836115 L94.1774171,11.0143988 L96.7234686,15.1140722 L91.4006713,13.8184913 L88.604292,11.55923 C87.3244063,9.163444 86.9114783,7.61527579 87.3655081,6.91472533 Z M98.3117288,21.5844019 C98.4657545,20.2745673 100.617538,20.2894507 101.191109,20.2894507 C101.573489,20.2894507 102.221764,20.9368086 103.135934,22.2315247 L104.073012,24.6610043 C103.616611,25.4528722 103.062781,25.9888004 102.411523,26.2687887 C101.760265,26.5487772 101.067516,26.5487772 100.333276,26.2687887 C98.8828941,24.0190872 98.209045,22.4576248 98.3117288,21.5844019 Z M74.2397904,8.86873045 C74.4847496,7.46578997 75.1523512,6.90947585 78.7902459,10.1338816 C82.4281405,13.3582874 86.2315078,17.1405254 84.9481708,18.3599792 C83.3985903,19.8324231 83.3985903,18.4414544 81.8501906,18.3599792 C80.3423197,18.2806366 78.6986157,18.9602681 77.1271498,17.5674174 C73.9419796,14.7442788 73.9948313,10.2716709 74.2397904,8.86873045 Z M93.787212,26.5334801 C94.3544705,23.9895776 94.7663152,22.8697618 97.0143519,24.5081848 C99.2623886,26.1466077 100.246269,28.9601394 101.042722,31.8214692 C101.839174,34.6827989 103.439109,36.6159621 101.042722,38.9804756 C98.6463345,41.3449891 93.7823677,43.4462972 92.0444422,40.4648456 C91.1336549,38.9023689 94.6972021,37.3419972 94.8785859,34.8124304 C95.0433109,32.5151854 93.5172343,27.7442105 93.787212,26.5334801 Z M102.204568,28.316248 C102.349471,26.510493 102.384876,29.8260136 104.799994,26.8248942 C106.410072,24.8241478 107.802594,28.7299838 108.977562,38.5424023 C107.910316,39.6603333 106.771699,39.3058538 105.561712,37.4789634 C103.746731,34.7386281 102.059665,30.122003 102.204568,28.316248 Z" id="Combined-Shape" fill="#515151"></path>
                <path d="M70.511272,83.1088211 C71.2405392,80.9831125 72.4888442,80.7583409 73.5319796,77.7815766 C74.5751149,74.8048124 73.9137571,73.6638515 74.5297918,71.6412916 C75.1458265,69.6187317 74.7419502,69.6646744 76.5078853,68.0111081 C78.2738204,66.357542 78.4602779,66.1672743 80.7353175,65.8306321 C83.010357,65.4939899 84.2642543,64.9810913 85.429272,66.6909926 C86.5942896,68.4008938 87.0321818,70.5647332 85.429272,72.7199685 C83.8263621,74.8752038 81.3766621,72.6729167 79.6440059,74.4697266 C78.4889018,75.6675998 77.9309905,77.6627399 77.970272,80.4551468 C74.9158243,83.316332 73.0552542,84.8655185 72.3885616,85.1027065 C71.3885228,85.4584884 69.7820049,85.2345297 70.511272,83.1088211 Z M80.8326325,75.4525324 C81.8641802,74.7667221 84.4267329,75.3072227 86.1315017,74.0819366 C87.8362705,72.8566503 87.0811554,69.2676981 88.4797968,69.2676981 C89.8784383,69.2676981 92.4465287,73.3189039 91.9700858,76.0752065 C91.4936428,78.8315092 89.1110407,77.5137603 86.7000318,79.5639391 C84.2890229,81.6141178 85.4547127,82.6311287 83.7645913,83.0526716 C82.0744698,83.4742147 81.3066333,82.6479527 80.2929176,81.1619745 C79.2792021,79.6759963 79.332399,79.685308 79.4815447,78.1075514 C79.6306904,76.5297948 79.8010848,76.1383428 80.8326325,75.4525324 Z M98.0485869,51.5405566 C101.896761,53.8899849 100.865738,57.5476197 98.0485869,62.3625876 C95.231436,67.1775556 86.1884698,64.4434821 80.0001934,62.3625876 C75.8746759,60.9753246 74.798443,58.590418 76.7714949,55.2078679 C78.350973,53.7134538 80.3131874,52.9662467 82.6581384,52.9662467 C84.9158927,52.9662467 87.2240869,50.9510476 90.8994394,51.5405566 C92.9500341,51.8694623 96.6704664,50.6991718 98.0485869,51.5405566 Z M74.0251905,60.553211 C74.4428881,62.0306446 78.2720118,62.5983318 78.2720118,63.6621701 C78.2720118,66.0556082 75.8854406,64.1341386 74.0251905,67.6219594 C72.1649405,71.1097802 74.0251905,71.9611202 71.1889348,75.8624644 C68.3526791,79.7638085 61.7340394,55.97482 61.2703981,52.869131 C60.8067567,49.7634422 65.3018123,51.462641 67.5932662,51.7769777 C69.0087286,51.9711476 72.7514785,54.0302927 74.0251905,54.6188055 C75.4237851,56.3757559 73.5031463,58.7066943 74.0251905,60.553211 Z M90.4109441,68.2059798 C91.2196848,66.0280108 94.3712222,66.8750692 95.8466149,66.4270075 C96.4726228,66.2368954 97.7888463,64.1174711 98.2020022,64.9071769 C99.5888958,67.5580833 99.7268072,76.1069853 98.2020022,80.2133423 C96.6771973,84.3196995 92.015553,83.2803897 90.4109441,80.2133423 C89.9479164,79.3283118 93.5129464,78.8315909 93.6095923,77.7528976 C93.7501257,76.1843621 93.2751934,73.3233103 92.2522504,71.2708549 C91.5407711,69.843327 90.0747767,69.1112913 90.4109441,68.2059798 Z" id="Combined-Shape" fill="#515151" transform="translate(80.899987, 68.135672) scale(-1, 1) translate(-80.899987, -68.135672) "></path>
                <circle id="Oval" stroke="#FFE4BC" stroke-width="4" fill="#FFBB57" cx="48" cy="43" r="36"></circle>
                <circle id="Oval" stroke="#FFE4BC" stroke-width="4" fill="#FFFFFF" cx="48" cy="42" r="18"></circle>
            </g>
            <g id="Oval-2" fill="black" fill-opacity="1">
                <use filter="url(#filter-2)" xlink:href="#path-1"></use>
            </g>
        </g>
    </g>
</svg>