<?xml version="1.0" encoding="UTF-8"?>
<svg width="150px" height="150px" viewBox="0 0 150 150" version="1.1" xmlns="http://www.w3.org/2000/svg" xmlns:xlink="http://www.w3.org/1999/xlink">
    <!-- Generator: Sketch 51 (57462) - http://www.bohemiancoding.com/sketch -->
    <title>brainPartsv3</title>
    <desc>Created with Sketch.</desc>
    <defs></defs>
    <g id="Page-1" stroke="none" stroke-width="1" fill="none" fill-rule="evenodd">
        <g id="brainPartsv3" fill-rule="nonzero">
            <rect id="Rectangle" fill="#FFFFFF" x="0" y="0" width="150" height="150" rx="16"></rect>
            <g id="cerebrum" transform="translate(31.000000, 27.000000)">
                <path d="M63.5865669,0.153843582 C65.5374641,-0.718974961 71.9817679,2.38470953 72.6979107,2.88353816 C73.4140535,3.3823668 74.258475,4.57256322 71.3921076,5.5907862 C68.5257401,6.60900918 65.6381439,5.21303173 65.076822,5.5907862 C64.7154033,6.28595771 62.5905491,6.64907761 63.5865669,10.6968863 C64.5825847,14.744695 66.1461004,16.8295636 68.1422388,18.0486165 C70.1383771,19.2676694 70.5070453,17.027768 72.6979107,18.0486165 C74.8887761,19.069465 76.0721584,22.0626436 76.7568309,22.0626436 C77.4415033,22.0626436 75.2997347,18.7494698 76.7568309,18.0486165 C78.213927,17.3477632 80.655374,18.7940858 81.1983182,19.9263184 C81.7412624,21.0585511 79.5694801,21.5337785 79.5694801,23.9139953 C79.5694801,26.294212 81.1983182,26.3023088 81.1983182,28.7985578 C81.1983182,31.2948068 80.4082959,33.0590412 79.5694801,33.8053662 C77.1469816,35.9607512 74.4896741,34.6892098 74.1061871,34.7859286 C73.331777,34.9812417 75.9976323,32.0474506 75.9976323,30.1102165 C75.9976323,28.1729824 75.3926226,25.0705051 74.1061871,24.8024415 C72.8197516,24.5343779 70.6648926,23.5661418 69.9324824,24.8024415 C69.2000721,26.0387411 67.3746541,27.0513731 68.1422388,27.548383 C68.9098234,28.045393 70.0167405,25.5623521 71.3921076,25.5623521 C72.7674746,25.5623521 73.4614213,26.0077613 74.1061871,27.548383 C74.750953,29.0890047 74.8411656,30.0875081 74.1061871,32.0474506 C73.3712087,34.0073931 73.710954,33.9533396 71.3921076,34.7859286 C69.0732611,35.6185176 67.9255809,34.7859286 66.4792429,34.7859286 C65.0329049,34.7859286 63.060757,35.5669843 61.6356697,33.8053662 C60.8173035,32.4329686 61.7248512,31.0255312 61.6356697,30.1102165 C61.5229915,28.9537432 61.1394031,27.9217065 62.809074,26.8061255 C64.4787449,25.6905444 67.6267066,26.6414757 66.4792429,25.5623521 C65.3317791,24.4832285 62.6401816,26.7312129 61.6356697,25.5623521 C60.6311578,24.3934913 62.0905191,23.3100074 61.6356697,19.9263184 C61.1808203,16.5426295 60,15.0104719 60,13.394375 C60,11.7782781 60,12.0469678 60,9.69614562 C60,7.34532347 60,7.14539858 60,5.5907862 C60,4.03617382 60.3158725,3.41368796 61.2566795,1.98750131 C61.5219133,1.58542852 61.5625804,1.47720142 61.6356697,1.20115944 C61.8218345,0.49805687 62.1856697,0.780595742 63.5865669,0.153843582 Z M74.7214365,6.78268108 C76.3173069,7.72560251 75.5541715,10.8117179 78.3535425,13.106537 C81.1529134,15.4013561 84.9716714,13.5357652 87.2169089,15.9543269 C89.4621465,18.3728886 84.997067,17.3871398 84.1318714,17.7283586 C83.240028,18.0800868 83.5704649,18.7482321 82.6166284,18.5790211 C81.7278125,18.4213449 81.3255608,17.327302 80.8423458,17.1130709 C80.0616862,16.7669694 78.3535425,16.6060626 78.3535425,16.3753141 C78.0332829,16.1102866 77.7719865,15.3810043 76.9804937,14.438833 C76.189001,13.4966617 75.7508225,13.3915878 74.7214365,11.6150357 C73.4326174,9.39074437 73.2697224,9.54235661 72.2968192,8.82243037 C69.9847354,7.11154103 68.7637952,6.78268108 70.2143068,6.78268108 C73.3056166,6.78268108 73.1255662,5.83975965 74.7214365,6.78268108 Z M77.0404935,6.09753052 C77.4408652,5.47977239 78.4814451,5.80123504 80.1622331,7.06191847 L83.0473587,9.71269712 L85.2925132,13.3278637 L80.5987738,12.1853969 L78.1328757,10.1931392 C77.0042492,8.08049153 76.6401218,6.71528865 77.0404935,6.09753052 Z M86.6930699,19.033518 C86.8288926,17.8784821 88.726374,17.8916065 89.2321595,17.8916065 C89.5693498,17.8916065 90.1410105,18.4624585 90.9471415,19.6041627 L91.7734745,21.746522 C91.3710113,22.4448055 90.882634,22.9173967 90.3083428,23.1642955 C89.7340516,23.4111944 89.123173,23.4111944 88.4757071,23.1642955 C87.1967339,21.1804678 86.6025215,19.8035419 86.6930699,19.033518 Z M65.465997,7.82060776 C65.6820065,6.58346934 66.2707097,6.09290143 69.4786714,8.93624107 C72.686633,11.7795807 76.0405114,15.1148269 74.9088415,16.1901635 C73.5423933,17.4885913 73.5423933,16.2620098 72.1769863,16.1901635 C70.8473183,16.1201977 69.3978702,16.7195091 68.012123,15.4912681 C65.203382,13.0017731 65.2499876,9.05774618 65.465997,7.82060776 Z M82.7032688,23.3977052 C83.2034876,21.1544457 83.5666598,20.1669718 85.5490194,21.611763 C87.531379,23.0565541 88.3989826,25.5375775 89.101309,28.0607501 C89.8036354,30.5839227 91.2144866,32.2886211 89.101309,34.3736921 C86.9881313,36.4587631 82.698997,38.3117348 81.1664627,35.6826366 C80.3633139,34.3048162 83.5057146,32.9288521 83.6656621,30.6982341 C83.8109196,28.6724817 82.4651975,24.4653493 82.7032688,23.3977052 Z M90.1258464,24.9697823 C90.2536242,23.3774347 90.2848456,26.3011211 92.4145398,23.6546794 C93.8343359,21.8903849 95.0622878,25.3346221 96.0983956,33.9873911 C95.1572787,34.973203 94.1532259,34.6606165 93.0862372,33.0496314 C91.485754,30.6331539 89.9980686,26.5621299 90.1258464,24.9697823 Z" id="Combined-Shape" fill="#A96B2E"></path>
                <path d="M3.58656729,0.153843582 C5.53746448,-0.718974961 11.9817683,2.38470953 12.6979111,2.88353816 C13.4140539,3.3823668 14.2584754,4.57256322 11.392108,5.5907862 C8.52574052,6.60900918 5.63814432,5.21303173 5.07682242,5.5907862 C4.71540366,6.28595771 2.59054949,6.64907761 3.58656729,10.6968863 C4.58258508,14.744695 6.14610082,16.8295636 8.14223918,18.0486165 C10.1383775,19.2676694 10.5070457,17.027768 12.6979111,18.0486165 C14.8887765,19.069465 16.0721588,22.0626436 16.7568313,22.0626436 C17.4415037,22.0626436 15.2997351,18.7494698 16.7568313,18.0486165 C18.2139274,17.3477632 20.6553744,18.7940858 21.1983186,19.9263184 C21.7412628,21.0585511 19.5694805,21.5337785 19.5694805,23.9139953 C19.5694805,26.294212 21.1983186,26.3023088 21.1983186,28.7985578 C21.1983186,31.2948068 20.4082963,33.0590412 19.5694805,33.8053662 C17.146982,35.9607512 14.4896745,34.6892098 14.1061875,34.7859286 C13.3317774,34.9812417 15.9976327,32.0474506 15.9976327,30.1102165 C15.9976327,28.1729824 15.392623,25.0705051 14.1061875,24.8024415 C12.819752,24.5343779 10.664893,23.5661418 9.93248275,24.8024415 C9.20007254,26.0387411 7.37465452,27.0513731 8.14223918,27.548383 C8.90982384,28.045393 10.0167409,25.5623521 11.392108,25.5623521 C12.767475,25.5623521 13.4614217,26.0077613 14.1061875,27.548383 C14.7509534,29.0890047 14.841166,30.0875081 14.1061875,32.0474506 C13.3712091,34.0073931 13.7109544,33.9533396 11.392108,34.7859286 C9.07326155,35.6185176 7.92558126,34.7859286 6.47924327,34.7859286 C5.03290528,34.7859286 3.06075736,35.5669843 1.63567009,33.8053662 C0.817303894,32.4329686 1.72485157,31.0255312 1.63567009,30.1102165 C1.5229919,28.9537432 1.13940351,27.9217065 2.8090744,26.8061255 C4.4787453,25.6905444 7.62670704,26.6414757 6.47924327,25.5623521 C5.3317795,24.4832285 2.64018198,26.7312129 1.63567009,25.5623521 C0.63115819,24.3934913 2.09051952,23.3100074 1.63567009,19.9263184 C1.18082066,16.5426295 3.99999999e-07,15.0104719 3.99999999e-07,13.394375 C3.99999999e-07,11.7782781 3.99999999e-07,12.0469678 3.99999999e-07,9.69614562 C3.99999996e-07,7.34532347 3.99999999e-07,7.14539858 3.99999999e-07,5.5907862 C3.99999999e-07,4.03617382 0.315872853,3.41368796 1.25667988,1.98750131 C1.52191368,1.58542852 1.56258077,1.47720142 1.63567009,1.20115944 C1.82183485,0.49805687 2.18567011,0.780595742 3.58656729,0.153843582 Z M14.7214369,6.78268108 C16.3173073,7.72560251 15.5541719,10.8117179 18.3535429,13.106537 C21.1529138,15.4013561 24.9716718,13.5357652 27.2169093,15.9543269 C29.4621469,18.3728886 24.9970674,17.3871398 24.1318718,17.7283586 C23.2400284,18.0800868 23.5704653,18.7482321 22.6166288,18.5790211 C21.7278129,18.4213449 21.3255612,17.327302 20.8423462,17.1130709 C20.0616866,16.7669694 18.3535429,16.6060626 18.3535429,16.3753141 C18.0332833,16.1102866 17.7719869,15.3810043 16.9804941,14.438833 C16.1890014,13.4966617 15.7508229,13.3915878 14.7214369,11.6150357 C13.4326178,9.39074437 13.2697228,9.54235661 12.2968196,8.82243037 C9.98473579,7.11154103 8.76379563,6.78268108 10.2143072,6.78268108 C13.305617,6.78268108 13.1255666,5.83975965 14.7214369,6.78268108 Z M17.0404939,6.09753052 C17.4408656,5.47977239 18.4814455,5.80123504 20.1622335,7.06191847 L23.0473591,9.71269712 L25.2925136,13.3278637 L20.5987742,12.1853969 L18.1328761,10.1931392 C17.0042496,8.08049153 16.6401222,6.71528865 17.0404939,6.09753052 Z M26.6930703,19.033518 C26.828893,17.8784821 28.7263744,17.8916065 29.2321599,17.8916065 C29.5693502,17.8916065 30.1410109,18.4624585 30.9471419,19.6041627 L31.7734749,21.746522 C31.3710117,22.4448055 30.8826344,22.9173967 30.3083432,23.1642955 C29.734052,23.4111944 29.1231734,23.4111944 28.4757075,23.1642955 C27.1967343,21.1804678 26.6025219,19.8035419 26.6930703,19.033518 Z M5.46599743,7.82060776 C5.68200686,6.58346934 6.2707101,6.09290143 9.47867177,8.93624107 C12.6866334,11.7795807 16.0405118,15.1148269 14.9088419,16.1901635 C13.5423937,17.4885913 13.5423937,16.2620098 12.1769867,16.1901635 C10.8473187,16.1201977 9.39787064,16.7195091 8.01212336,15.4912681 C5.20338242,13.0017731 5.249988,9.05774618 5.46599743,7.82060776 Z M22.7032692,23.3977052 C23.203488,21.1544457 23.5666602,20.1669718 25.5490198,21.611763 C27.5313794,23.0565541 28.398983,25.5375775 29.1013094,28.0607501 C29.8036358,30.5839227 31.214487,32.2886211 29.1013094,34.3736921 C26.9881317,36.4587631 22.6989974,38.3117348 21.1664631,35.6826366 C20.3633143,34.3048162 23.505715,32.9288521 23.6656625,30.6982341 C23.81092,28.6724817 22.4651979,24.4653493 22.7032692,23.3977052 Z M30.1258468,24.9697823 C30.2536246,23.3774347 30.284846,26.3011211 32.4145402,23.6546794 C33.8343363,21.8903849 35.0622882,25.3346221 36.098396,33.9873911 C35.1572791,34.973203 34.1532263,34.6606165 33.0862376,33.0496314 C31.4857544,30.6331539 29.998069,26.5621299 30.1258468,24.9697823 Z" id="Combined-Shape" fill="#A96B2E" transform="translate(18.049198, 18.489142) scale(-1, 1) translate(-18.049198, -18.489142) "></path>
                <path d="M16.1781217,73.2868695 C16.8212027,71.412381 17.9219808,71.2141733 18.8418365,68.5892085 C19.7616922,65.9642437 19.1784949,64.9581236 19.7217255,63.1745935 C20.2649561,61.3910634 19.9088106,61.4315765 21.4660443,59.9734317 C23.023278,58.515287 23.1876996,58.3475055 25.1938709,58.0506483 C27.2000421,57.7537911 28.3057515,57.3015078 29.3330853,58.8093298 C30.360419,60.3171518 30.7465603,62.2252647 29.3330853,64.1257904 C27.9196102,66.0263161 25.7594202,64.0842993 24.2315325,65.6687589 C23.2129407,66.7250653 22.7209643,68.4844161 22.7556035,70.9468113 C20.062136,73.4698564 18.4214514,74.8359572 17.8335498,75.0451139 C16.9516974,75.3588489 15.5350407,75.161358 16.1781217,73.2868695 Z M25.279685,66.5354149 C26.1893225,65.9306549 28.4490281,66.4072782 29.9523242,65.3267986 C31.4556203,64.2463189 30.7897461,61.0815156 32.0230935,61.0815156 C33.256441,61.0815156 35.5210298,64.6539425 35.1008938,67.0845003 C34.6807577,69.5150581 32.5797359,68.3530432 30.4536644,70.1609281 C28.3275929,71.968813 29.3555194,72.8656317 27.8651396,73.2373559 C26.3747597,73.6090802 25.6976675,72.8804674 24.8037546,71.5701048 C23.9098418,70.2597422 23.9567518,70.2679534 24.0882712,68.876659 C24.2197906,67.4853645 24.3700475,67.140175 25.279685,66.5354149 Z M40.4610266,45.4493999 C43.8544164,47.5211685 42.9452416,50.7465374 40.4610266,54.9924636 C37.9768117,59.2383899 30.0025597,56.8274342 24.5456251,54.9924636 C20.9076687,53.7691499 19.958627,51.6660959 21.6985,48.6833017 C23.0913125,47.3655002 24.8216289,46.7065994 26.8894493,46.7065994 C28.8803781,46.7065994 30.9157857,44.9295602 34.1567784,45.4493999 C35.9650301,45.7394349 39.2457749,44.7074515 40.4610266,45.4493999 Z M19.2767589,53.3969224 C19.6450922,54.6997502 23.0216831,55.2003471 23.0216831,56.1384591 C23.0216831,58.2490363 20.9171612,56.5546495 19.2767589,59.6302733 C17.6363566,62.7058971 19.2767589,63.4566242 16.775697,66.8969004 C14.2746352,70.3371766 8.43819842,49.359614 8.02935104,46.620961 C7.62050365,43.8823081 11.5843254,45.3806925 13.6049711,45.6578803 C14.8531516,45.8291029 18.1535765,47.6448945 19.2767589,48.1638558 C20.510065,49.7131666 18.8164108,51.7686304 19.2767589,53.3969224 Z M33.7260143,60.1452731 C34.4391766,58.2247004 37.2182596,58.9716519 38.5192877,58.576543 C39.0713128,58.4088987 40.2319826,56.5399518 40.596311,57.2363287 C41.819299,59.5739462 41.9409118,67.1125234 40.596311,70.7335837 C39.2517103,74.3546441 35.1409876,73.4381618 33.7260143,70.7335837 C33.3177081,69.9531477 36.4614164,69.5151302 36.5466405,68.5639188 C36.6705654,67.1807557 36.2517614,64.6578282 35.3497117,62.8479357 C34.7223163,61.5891156 33.4295758,60.9435932 33.7260143,60.1452731 Z" id="Combined-Shape" fill="#D7A449"></path>
                <path d="M62.1781224,73.2868695 C62.8212034,71.412381 63.9219815,71.2141733 64.8418372,68.5892085 C65.7616929,65.9642437 65.1784956,64.9581236 65.7217262,63.1745935 C66.2649568,61.3910634 65.9088113,61.4315765 67.466045,59.9734317 C69.0232787,58.515287 69.1877003,58.3475055 71.1938716,58.0506483 C73.2000428,57.7537911 74.3057522,57.3015078 75.333086,58.8093298 C76.3604197,60.3171518 76.746561,62.2252647 75.333086,64.1257904 C73.9196109,66.0263161 71.7594209,64.0842993 70.2315332,65.6687589 C69.2129414,66.7250653 68.720965,68.4844161 68.7556042,70.9468113 C66.0621367,73.4698564 64.4214521,74.8359572 63.8335505,75.0451139 C62.9516981,75.3588489 61.5350414,75.161358 62.1781224,73.2868695 Z M71.2796857,66.5354149 C72.1893232,65.9306549 74.4490288,66.4072782 75.9523249,65.3267986 C77.455621,64.2463189 76.7897468,61.0815156 78.0230942,61.0815156 C79.2564417,61.0815156 81.5210305,64.6539425 81.1008945,67.0845003 C80.6807584,69.5150581 78.5797366,68.3530432 76.4536651,70.1609281 C74.3275936,71.968813 75.3555201,72.8656317 73.8651403,73.2373559 C72.3747604,73.6090802 71.6976682,72.8804674 70.8037553,71.5701048 C69.9098425,70.2597422 69.9567525,70.2679534 70.0882719,68.876659 C70.2197913,67.4853645 70.3700482,67.140175 71.2796857,66.5354149 Z M86.4610273,45.4493999 C89.8544171,47.5211685 88.9452423,50.7465374 86.4610273,54.9924636 C83.9768124,59.2383899 76.0025604,56.8274342 70.5456258,54.9924636 C66.9076694,53.7691499 65.9586277,51.6660959 67.6985007,48.6833017 C69.0913132,47.3655002 70.8216296,46.7065994 72.88945,46.7065994 C74.8803788,46.7065994 76.9157864,44.9295602 80.1567791,45.4493999 C81.9650308,45.7394349 85.2457756,44.7074515 86.4610273,45.4493999 Z M65.2767596,53.3969224 C65.6450929,54.6997502 69.0216838,55.2003471 69.0216838,56.1384591 C69.0216838,58.2490363 66.9171619,56.5546495 65.2767596,59.6302733 C63.6363573,62.7058971 65.2767596,63.4566242 62.7756977,66.8969004 C60.2746359,70.3371766 54.4381991,49.359614 54.0293517,46.620961 C53.6205043,43.8823081 57.5843261,45.3806925 59.6049718,45.6578803 C60.8531523,45.8291029 64.1535772,47.6448945 65.2767596,48.1638558 C66.5100657,49.7131666 64.8164115,51.7686304 65.2767596,53.3969224 Z M79.726015,60.1452731 C80.4391773,58.2247004 83.2182603,58.9716519 84.5192884,58.576543 C85.0713135,58.4088987 86.2319833,56.5399518 86.5963117,57.2363287 C87.8192997,59.5739462 87.9409125,67.1125234 86.5963117,70.7335837 C85.251711,74.3546441 81.1409883,73.4381618 79.726015,70.7335837 C79.3177088,69.9531477 82.4614171,69.5151302 82.5466412,68.5639188 C82.6705661,67.1807557 82.2517621,64.6578282 81.3497124,62.8479357 C80.722317,61.5891156 79.4295765,60.9435932 79.726015,60.1452731 Z" id="Combined-Shape" fill="#D7A449" transform="translate(71.339080, 60.083274) scale(-1, 1) translate(-71.339080, -60.083274) "></path>
                <path d="M28.1441528,82.6244821 C28.0601996,82.4498002 27.0474213,80.4994721 26.9161055,80.3823849 C26.0602724,79.6192843 25.1720093,81.7243172 23.3562526,80.9516221 C21.2618931,80.0603677 21.4422814,79.609971 20.2820432,79.2787622 C19.5490118,79.0695065 18.8266125,78.7731376 18.306637,79.2787622 C18.0035979,79.5734375 17.5304228,79.8965624 17.025517,80.3823849 C15.6542585,81.7018155 16.6244523,82.5561201 15.1200008,83.2780459 C13.6155492,83.9999717 12.4423506,83.1545412 11.1869321,82.6244821 C9.93151367,82.094423 11.1715315,80.9516221 10.349096,80.9516221 C9.85112237,80.9516221 9.1022475,81.9204216 8.58312797,82.6244821 C8.24488831,83.0832226 8,82.9745527 8,83.976094 C8,86.5147692 8.41250614,87.2558797 9.83750046,89.2384124 C10.7874967,90.5601009 12.2380238,91.6761949 14.1890818,92.5866946 C16.8919194,93.5113157 18.6103375,93.5113157 19.3443359,92.5866946 C19.5867503,92.2813241 19.2801626,91.2848496 19.3443359,90.9343808 C19.5716249,89.6930907 19.3443359,88.8986476 19.3443359,87.6952687 C19.3443359,86.1521251 18.8065272,85.9327284 19.3443359,85.9327284 C19.8821445,85.9327284 19.9713194,85.8783933 20.2820432,87.6952687 C20.592767,89.5121442 19.5201668,89.7827963 20.2820432,91.4157247 C21.0439196,93.0486531 21.508823,94.2842167 23.3562526,94.2842167 C25.2036822,94.2842167 23.7247316,92.5291093 25.4451297,88.3395096 C27.1655278,84.1499099 28.7752599,83.9376304 28.1441528,82.6244821 Z" id="Path-78" fill="#A96B2E"></path>
                <path d="M88.1441531,82.6244821 C88.0601999,82.4498002 87.0474216,80.4994721 86.9161058,80.3823849 C86.0602727,79.6192843 85.1720096,81.7243172 83.3562529,80.9516221 C81.2618934,80.0603677 81.4422817,79.609971 80.2820435,79.2787622 C79.5490121,79.0695065 78.8266128,78.7731376 78.3066373,79.2787622 C78.0035982,79.5734375 77.5304231,79.8965624 77.0255173,80.3823849 C75.6542588,81.7018155 76.6244526,82.5561201 75.1200011,83.2780459 C73.6155495,83.9999717 72.4423509,83.1545412 71.1869324,82.6244821 C69.931514,82.094423 71.1715318,80.9516221 70.3490963,80.9516221 C69.8511227,80.9516221 69.1022478,81.9204216 68.5831283,82.6244821 C68.2448886,83.0832226 68.0000003,82.9745527 68.0000003,83.976094 C68.0000003,86.5147692 68.4125064,87.2558797 69.8375008,89.2384124 C70.787497,90.5601009 72.2380241,91.6761949 74.1890821,92.5866946 C76.8919197,93.5113157 78.6103378,93.5113157 79.3443362,92.5866946 C79.5867506,92.2813241 79.2801629,91.2848496 79.3443362,90.9343808 C79.5716252,89.6930907 79.3443362,88.8986476 79.3443362,87.6952687 C79.3443362,86.1521251 78.8065275,85.9327284 79.3443362,85.9327284 C79.8821448,85.9327284 79.9713197,85.8783933 80.2820435,87.6952687 C80.5927673,89.5121442 79.5201671,89.7827963 80.2820435,91.4157247 C81.0439199,93.0486531 81.5088233,94.2842167 83.3562529,94.2842167 C85.2036825,94.2842167 83.7247319,92.5291093 85.44513,88.3395096 C87.1655281,84.1499099 88.7752602,83.9376304 88.1441531,82.6244821 Z" id="Path-78" fill="#A96B2E" transform="translate(78.142051, 86.642108) scale(-1, 1) translate(-78.142051, -86.642108) "></path>
            </g>
        </g>
    </g>
</svg>