<?xml version="1.0" encoding="UTF-8"?>
<svg width="150px" height="150px" viewBox="0 0 150 150" version="1.1" xmlns="http://www.w3.org/2000/svg" xmlns:xlink="http://www.w3.org/1999/xlink">
    <!-- Generator: Sketch 51 (57462) - http://www.bohemiancoding.com/sketch -->
    <title>collectNeuronsv3</title>
    <desc>Created with Sketch.</desc>
    <defs>
        <radialGradient cx="50%" cy="51.7214674%" fx="50%" fy="51.7214674%" r="69.5040769%" id="radialGradient-1">
            <stop stop-color="#FFFFFF" offset="0%"></stop>
            <stop stop-color="#E6F4FE" offset="98.2455744%"></stop>
        </radialGradient>
        <radialGradient cx="50%" cy="51.7214674%" fx="50%" fy="51.7214674%" r="69.5040769%" id="radialGradient-2">
            <stop stop-color="#FFFFFF" offset="0%"></stop>
            <stop stop-color="#F7F7F7" offset="52.8335269%"></stop>
            <stop stop-color="#EBEBEB" offset="100%"></stop>
        </radialGradient>
    </defs>
    <g id="Page-1" stroke="none" stroke-width="1" fill="none" fill-rule="evenodd">
        <g id="collectNeuronsv3" fill-rule="nonzero">
            <rect id="Rectangle" fill="url(#radialGradient-1)" x="0" y="0" width="150" height="150" rx="16"></rect>
            <rect id="Rectangle" fill="url(#radialGradient-2)" x="0" y="0" width="150" height="150" rx="16"></rect>
            <g id="neurons" transform="translate(20.000000, 15.000000)">
                <g id="neuronv1.0" transform="translate(82.063492, 30.000000) scale(-1, 1) translate(-82.063492, -30.000000) translate(54.563492, 0.000000)">
                    <path d="M42.0377238,50.4174914 C39.9206333,49.347323 38.4902281,47.9539804 37.7465082,46.2374634 C36.5836199,43.5534992 34.7103769,42.2149962 32.1267792,42.2219542 C31.3991657,42.5752232 30.6016189,42.806945 29.7605274,42.8907278 C30.0223603,43.431842 30.2429634,44.0941061 30.3894443,44.9017252 C30.8996072,47.7144981 32.6609431,50.1435434 35.6734519,52.1888612 C32.0270878,50.1665069 29.9863858,48.0168276 29.551346,45.7398234 C28.9774513,44.2586138 28.3404135,43.2732987 27.6402326,42.7838781 C27.3506202,42.724887 27.0674677,42.6481272 26.7919628,42.5547864 C26.4741732,43.0950019 25.9113478,43.7004576 24.9981277,44.3630935 C22.246315,46.3598189 21.448346,48.8777852 22.6042207,51.9169926 C22.1124365,51.0538774 21.7536268,50.2477976 21.5277918,49.4987533 C21.3743603,50.0522691 21.1826,50.6444914 20.9051042,51.3059498 C19.472926,54.719789 18.0011824,56.1934002 16.3726888,57.5741372 C15.3051903,58.479228 13.589511,59.1619362 11.225651,59.6222619 C15.3005014,58.3652175 18.1309593,55.8015391 19.7170248,51.9312265 C20.1803532,50.8006137 20.3737647,49.4230872 20.6497457,48.1862119 C18.8339302,50.2028228 15.6925653,51.5955913 11.225651,52.3645173 C15.1899918,51.1908366 18.0355497,49.2159296 19.7623245,46.4397962 C20.6441412,45.0221008 21.3364046,43.2689751 22.4118278,42.1179796 C22.4118653,42.0858415 22.4119069,42.0514612 22.4119069,42.0147256 C22.4119069,41.8506139 22.9912699,41.7472657 23.0853419,41.1466402 C23.1176961,40.9400674 23.1207663,40.6983933 23.1105876,40.4489778 C23.0729194,40.4340762 23.0343675,40.4195185 22.9949319,40.4053048 C23.0326577,40.3933535 23.0699953,40.3815378 23.1069448,40.3698579 C23.0928257,40.0931506 23.0646308,39.8105289 23.0439097,39.558762 C22.411765,38.5281709 22.0372143,37.3224902 22.0098975,36.0313707 C19.9958943,35.0062833 17.616141,34.9276772 14.8706376,35.7955525 C10.9548783,37.0333548 5.99799911,35.9589107 0,32.5722202 C4.54455053,34.5455149 8.80822402,35.161158 12.7910205,34.4191494 C15.4675522,33.9205024 18.367526,32.7789991 20.7555292,33.428331 C21.1565382,33.537371 21.6729335,33.6781116 22.3047152,33.8505527 C22.5408239,33.0638257 22.9107022,32.3349674 23.3879274,31.6904035 C21.2420868,27.8791726 18.942706,26.3003062 16.4897851,26.9538042 C15.6035632,27.1899082 14.4576095,26.777708 13.8601308,26.3760428 C13.1539871,25.9013256 12.5817304,24.4511386 12.1433607,22.0254821 C12.10932,21.9504845 12.0588518,21.8150755 11.991956,21.619255 C11.7946598,21.0417201 11.4876169,20.614406 11.0708274,20.3373128 L9.94539032,19.7127126 C10.5686916,19.8195126 11.088273,19.970795 11.5041345,20.1665597 C11.8848344,20.3457723 12.0988875,20.5247331 12.1462936,20.7034421 L12.5498499,18.0544702 C12.5752378,22.3036705 13.267546,24.8389127 14.6267744,25.6601969 C15.3792799,26.114882 17.0106663,25.4731816 18.0638689,25.6601969 C20.7446559,26.1362193 22.8229112,26.9784299 24.2986349,28.1868286 C24.7106627,28.3377203 25.2440689,28.5660498 25.8267196,28.5660498 C26.5886637,28.5660498 27.1068238,27.8651614 27.3811998,26.4633847 C27.0507023,25.5682449 26.6221328,24.6553221 26.0954915,23.7246164 C23.6614047,19.4229819 23.1314951,13.2939989 24.5057625,5.33766725 C24.2163619,8.96498466 24.3930139,12.3319643 25.0357185,15.4386062 C25.0557197,15.4623011 25.0763332,15.4870351 25.0975777,15.5128308 C25.3938652,15.8725918 25.8316389,15.310815 26.2258208,14.6287372 C26.4359411,14.0797706 26.6771112,13.4903899 26.9705727,12.9316043 C27.5666844,11.7965366 28.9144512,8.43883967 30.180747,6.13887135 C30.9336499,4.77137658 32.1849114,2.92262613 33.9345317,0.592619998 C32.3439826,3.11702168 31.2293547,5.02630521 30.5906481,6.3204706 C29.3689318,8.79594661 28.4360217,11.6374563 27.6425308,13.4734496 C26.9072259,15.1748112 26.3871173,16.4982821 26.0822052,17.4438621 C26.039634,17.7005333 25.9837273,18.0212414 25.9837273,18.3691443 C25.9837273,18.6321652 26.0156815,18.8796425 26.0496696,19.0956564 C26.2676399,19.7135225 26.5068372,20.3195312 26.7672614,20.9136825 C27.7697106,23.200746 29.1661446,25.54327 29.8458507,27.8388558 C30.3830256,28.1857888 31.0939774,28.7601597 31.6544496,28.7601597 C32.1472764,28.7601597 32.7564511,28.3160676 33.2615239,27.9730029 C33.7758365,27.3777367 34.2022114,26.6297455 34.5406486,25.7290293 C35.0256608,24.4382186 35.900569,23.3511094 37.1653731,22.4677015 C37.2399653,22.2563405 37.3023167,22.0574843 37.3485876,21.8838277 C37.6717115,20.6711307 37.43862,20.1692834 37.9412908,18.7942568 C39.3980676,14.8093288 40.8950894,13.0892025 42.5515536,11.4774869 C43.6373871,10.4209867 45.3825343,9.62407068 47.7869952,9.08673885 C43.6421565,10.5540696 40.7630835,13.5466166 39.1497763,18.0643798 C38.720829,19.2655659 38.7393533,20.4382467 38.6212553,21.6224392 C40.4467638,20.7398617 42.8236295,20.1453411 45.7518525,19.8388774 C41.5099674,20.8232629 38.5501882,22.7667433 36.8725148,25.6693186 C35.8896127,27.3698567 35.2123468,29.5713312 33.7898931,30.6625317 C34.5924805,31.3917662 35.2260963,32.3037117 35.625056,33.3326757 C36.4687462,33.2250798 38.4386134,33.6194823 39.8542733,36.6170158 C41.075052,39.2019059 43.4050551,41.0923163 46.8442824,42.2882469 C42.7987413,41.2785511 40.2711966,39.7302929 39.2616484,37.6434723 C38.0902295,36.0416919 37.0239257,35.2129395 36.0627368,35.1572151 C36.0869058,35.3946519 36.0992876,35.6355755 36.0992876,35.8793915 C36.0992876,37.611067 35.4747011,39.1968449 34.4385423,40.4236853 C35.1421034,40.7689257 35.6938186,41.0399928 36.093688,41.2368865 C37.7872956,42.0708107 38.6247283,44.2682082 39.6768451,46.0760284 C41.0535049,46.7275325 42.827912,46.6041607 45.0000663,45.7059131 C47.0474555,44.4034475 50.2108782,44.3263889 54.4903343,45.4747373 C50.6720556,44.79083 47.5086329,45.2629718 45.0000663,46.8911629 C43.4686621,47.8851244 42.1803483,48.1775351 41.1981577,48.156438 C42.9289606,50.0464714 45.3402555,51.4491645 48.4320423,52.3645173 C46.3282016,52.0023662 44.5184008,51.5018312 43.00264,50.8629124 C43.3741776,52.3552305 44.2022572,53.6038442 45.3610923,54.8429873 C45.9203964,55.4410514 46.9411066,56.3175479 48.4232229,57.4724768 C44.8332161,55.1312208 42.7707367,52.8609772 42.2357845,50.6617461 C42.1644014,50.5720795 42.0983812,50.4906612 42.0377238,50.4174914 Z" id="Combined-Shape" fill="#24A0B2"></path>
                    <ellipse id="nucleus" fill-opacity="0.3" fill="#FFFFFF" cx="32.9291183" cy="35.2167375" rx="1.95087346" ry="3.04986551"></ellipse>
                </g>
                <g id="neuronv1.0">
                    <path d="M42.0377238,50.4174914 C39.9206333,49.347323 38.4902281,47.9539804 37.7465082,46.2374634 C36.5836199,43.5534992 34.7103769,42.2149962 32.1267792,42.2219542 C31.3991657,42.5752232 30.6016189,42.806945 29.7605274,42.8907278 C30.0223603,43.431842 30.2429634,44.0941061 30.3894443,44.9017252 C30.8996072,47.7144981 32.6609431,50.1435434 35.6734519,52.1888612 C32.0270878,50.1665069 29.9863858,48.0168276 29.551346,45.7398234 C28.9774513,44.2586138 28.3404135,43.2732987 27.6402326,42.7838781 C27.3506202,42.724887 27.0674677,42.6481272 26.7919628,42.5547864 C26.4741732,43.0950019 25.9113478,43.7004576 24.9981277,44.3630935 C22.246315,46.3598189 21.448346,48.8777852 22.6042207,51.9169926 C22.1124365,51.0538774 21.7536268,50.2477976 21.5277918,49.4987533 C21.3743603,50.0522691 21.1826,50.6444914 20.9051042,51.3059498 C19.472926,54.719789 18.0011824,56.1934002 16.3726888,57.5741372 C15.3051903,58.479228 13.589511,59.1619362 11.225651,59.6222619 C15.3005014,58.3652175 18.1309593,55.8015391 19.7170248,51.9312265 C20.1803532,50.8006137 20.3737647,49.4230872 20.6497457,48.1862119 C18.8339302,50.2028228 15.6925653,51.5955913 11.225651,52.3645173 C15.1899918,51.1908366 18.0355497,49.2159296 19.7623245,46.4397962 C20.6441412,45.0221008 21.3364046,43.2689751 22.4118278,42.1179796 C22.4118653,42.0858415 22.4119069,42.0514612 22.4119069,42.0147256 C22.4119069,41.8506139 22.9912699,41.7472657 23.0853419,41.1466402 C23.1176961,40.9400674 23.1207663,40.6983933 23.1105876,40.4489778 C23.0729194,40.4340762 23.0343675,40.4195185 22.9949319,40.4053048 C23.0326577,40.3933535 23.0699953,40.3815378 23.1069448,40.3698579 C23.0928257,40.0931506 23.0646308,39.8105289 23.0439097,39.558762 C22.411765,38.5281709 22.0372143,37.3224902 22.0098975,36.0313707 C19.9958943,35.0062833 17.616141,34.9276772 14.8706376,35.7955525 C10.9548783,37.0333548 5.99799911,35.9589107 0,32.5722202 C4.54455053,34.5455149 8.80822402,35.161158 12.7910205,34.4191494 C15.4675522,33.9205024 18.367526,32.7789991 20.7555292,33.428331 C21.1565382,33.537371 21.6729335,33.6781116 22.3047152,33.8505527 C22.5408239,33.0638257 22.9107022,32.3349674 23.3879274,31.6904035 C21.2420868,27.8791726 18.942706,26.3003062 16.4897851,26.9538042 C15.6035632,27.1899082 14.4576095,26.777708 13.8601308,26.3760428 C13.1539871,25.9013256 12.5817304,24.4511386 12.1433607,22.0254821 C12.10932,21.9504845 12.0588518,21.8150755 11.991956,21.619255 C11.7946598,21.0417201 11.4876169,20.614406 11.0708274,20.3373128 L9.94539032,19.7127126 C10.5686916,19.8195126 11.088273,19.970795 11.5041345,20.1665597 C11.8848344,20.3457723 12.0988875,20.5247331 12.1462936,20.7034421 L12.5498499,18.0544702 C12.5752378,22.3036705 13.267546,24.8389127 14.6267744,25.6601969 C15.3792799,26.114882 17.0106663,25.4731816 18.0638689,25.6601969 C20.7446559,26.1362193 22.8229112,26.9784299 24.2986349,28.1868286 C24.7106627,28.3377203 25.2440689,28.5660498 25.8267196,28.5660498 C26.5886637,28.5660498 27.1068238,27.8651614 27.3811998,26.4633847 C27.0507023,25.5682449 26.6221328,24.6553221 26.0954915,23.7246164 C23.6614047,19.4229819 23.1314951,13.2939989 24.5057625,5.33766725 C24.2163619,8.96498466 24.3930139,12.3319643 25.0357185,15.4386062 C25.0557197,15.4623011 25.0763332,15.4870351 25.0975777,15.5128308 C25.3938652,15.8725918 25.8316389,15.310815 26.2258208,14.6287372 C26.4359411,14.0797706 26.6771112,13.4903899 26.9705727,12.9316043 C27.5666844,11.7965366 28.9144512,8.43883967 30.180747,6.13887135 C30.9336499,4.77137658 32.1849114,2.92262613 33.9345317,0.592619998 C32.3439826,3.11702168 31.2293547,5.02630521 30.5906481,6.3204706 C29.3689318,8.79594661 28.4360217,11.6374563 27.6425308,13.4734496 C26.9072259,15.1748112 26.3871173,16.4982821 26.0822052,17.4438621 C26.039634,17.7005333 25.9837273,18.0212414 25.9837273,18.3691443 C25.9837273,18.6321652 26.0156815,18.8796425 26.0496696,19.0956564 C26.2676399,19.7135225 26.5068372,20.3195312 26.7672614,20.9136825 C27.7697106,23.200746 29.1661446,25.54327 29.8458507,27.8388558 C30.3830256,28.1857888 31.0939774,28.7601597 31.6544496,28.7601597 C32.1472764,28.7601597 32.7564511,28.3160676 33.2615239,27.9730029 C33.7758365,27.3777367 34.2022114,26.6297455 34.5406486,25.7290293 C35.0256608,24.4382186 35.900569,23.3511094 37.1653731,22.4677015 C37.2399653,22.2563405 37.3023167,22.0574843 37.3485876,21.8838277 C37.6717115,20.6711307 37.43862,20.1692834 37.9412908,18.7942568 C39.3980676,14.8093288 40.8950894,13.0892025 42.5515536,11.4774869 C43.6373871,10.4209867 45.3825343,9.62407068 47.7869952,9.08673885 C43.6421565,10.5540696 40.7630835,13.5466166 39.1497763,18.0643798 C38.720829,19.2655659 38.7393533,20.4382467 38.6212553,21.6224392 C40.4467638,20.7398617 42.8236295,20.1453411 45.7518525,19.8388774 C41.5099674,20.8232629 38.5501882,22.7667433 36.8725148,25.6693186 C35.8896127,27.3698567 35.2123468,29.5713312 33.7898931,30.6625317 C34.5924805,31.3917662 35.2260963,32.3037117 35.625056,33.3326757 C36.4687462,33.2250798 38.4386134,33.6194823 39.8542733,36.6170158 C41.075052,39.2019059 43.4050551,41.0923163 46.8442824,42.2882469 C42.7987413,41.2785511 40.2711966,39.7302929 39.2616484,37.6434723 C38.0902295,36.0416919 37.0239257,35.2129395 36.0627368,35.1572151 C36.0869058,35.3946519 36.0992876,35.6355755 36.0992876,35.8793915 C36.0992876,37.611067 35.4747011,39.1968449 34.4385423,40.4236853 C35.1421034,40.7689257 35.6938186,41.0399928 36.093688,41.2368865 C37.7872956,42.0708107 38.6247283,44.2682082 39.6768451,46.0760284 C41.0535049,46.7275325 42.827912,46.6041607 45.0000663,45.7059131 C47.0474555,44.4034475 50.2108782,44.3263889 54.4903343,45.4747373 C50.6720556,44.79083 47.5086329,45.2629718 45.0000663,46.8911629 C43.4686621,47.8851244 42.1803483,48.1775351 41.1981577,48.156438 C42.9289606,50.0464714 45.3402555,51.4491645 48.4320423,52.3645173 C46.3282016,52.0023662 44.5184008,51.5018312 43.00264,50.8629124 C43.3741776,52.3552305 44.2022572,53.6038442 45.3610923,54.8429873 C45.9203964,55.4410514 46.9411066,56.3175479 48.4232229,57.4724768 C44.8332161,55.1312208 42.7707367,52.8609772 42.2357845,50.6617461 C42.1644014,50.5720795 42.0983812,50.4906612 42.0377238,50.4174914 Z" id="Combined-Shape" fill="#24A0B2"></path>
                    <ellipse id="nucleus" fill-opacity="0.3" fill="#FFFFFF" cx="32.9291183" cy="35.2167375" rx="1.95087346" ry="3.04986551"></ellipse>
                </g>
                <g id="neuronv1.0" transform="translate(82.063492, 89.603175) rotate(180.000000) translate(-82.063492, -89.603175) translate(54.563492, 59.603175)">
                    <path d="M42.0377238,50.4174914 C39.9206333,49.347323 38.4902281,47.9539804 37.7465082,46.2374634 C36.5836199,43.5534992 34.7103769,42.2149962 32.1267792,42.2219542 C31.3991657,42.5752232 30.6016189,42.806945 29.7605274,42.8907278 C30.0223603,43.431842 30.2429634,44.0941061 30.3894443,44.9017252 C30.8996072,47.7144981 32.6609431,50.1435434 35.6734519,52.1888612 C32.0270878,50.1665069 29.9863858,48.0168276 29.551346,45.7398234 C28.9774513,44.2586138 28.3404135,43.2732987 27.6402326,42.7838781 C27.3506202,42.724887 27.0674677,42.6481272 26.7919628,42.5547864 C26.4741732,43.0950019 25.9113478,43.7004576 24.9981277,44.3630935 C22.246315,46.3598189 21.448346,48.8777852 22.6042207,51.9169926 C22.1124365,51.0538774 21.7536268,50.2477976 21.5277918,49.4987533 C21.3743603,50.0522691 21.1826,50.6444914 20.9051042,51.3059498 C19.472926,54.719789 18.0011824,56.1934002 16.3726888,57.5741372 C15.3051903,58.479228 13.589511,59.1619362 11.225651,59.6222619 C15.3005014,58.3652175 18.1309593,55.8015391 19.7170248,51.9312265 C20.1803532,50.8006137 20.3737647,49.4230872 20.6497457,48.1862119 C18.8339302,50.2028228 15.6925653,51.5955913 11.225651,52.3645173 C15.1899918,51.1908366 18.0355497,49.2159296 19.7623245,46.4397962 C20.6441412,45.0221008 21.3364046,43.2689751 22.4118278,42.1179796 C22.4119069,41.8506139 22.9912699,41.7472657 23.0853419,41.1466402 C23.1176961,40.9400674 23.1207663,40.6983933 23.1105876,40.4489778 C23.0928257,40.0931506 23.0646308,39.8105289 23.0439097,39.558762 C22.411765,38.5281709 22.0372143,37.3224902 22.0098975,36.0313707 C19.9958943,35.0062833 17.616141,34.9276772 14.8706376,35.7955525 C10.9548783,37.0333548 5.99799911,35.9589107 0,32.5722202 C4.54455053,34.5455149 8.80822402,35.161158 12.7910205,34.4191494 C15.4675522,33.9205024 18.367526,32.7789991 20.7555292,33.428331 C21.1565382,33.537371 21.6729335,33.6781116 22.3047152,33.8505527 C22.5408239,33.0638257 22.9107022,32.3349674 23.3879274,31.6904035 C21.2420868,27.8791726 18.942706,26.3003062 16.4897851,26.9538042 C15.6035632,27.1899082 14.4576095,26.777708 13.8601308,26.3760428 C13.1539871,25.9013256 12.5817304,24.4511386 12.1433607,22.0254821 C12.10932,21.9504845 12.0588518,21.8150755 11.991956,21.619255 C11.7946598,21.0417201 11.4876169,20.614406 11.0708274,20.3373128 L9.94539032,19.7127126 C10.5686916,19.8195126 11.088273,19.970795 11.5041345,20.1665597 C11.8848344,20.3457723 12.0988875,20.5247331 12.1462936,20.7034421 L12.5498499,18.0544702 C12.5752378,22.3036705 13.267546,24.8389127 14.6267744,25.6601969 C15.3792799,26.114882 17.0106663,25.4731816 18.0638689,25.6601969 C20.7446559,26.1362193 22.8229112,26.9784299 24.2986349,28.1868286 C24.7106627,28.3377203 25.2440689,28.5660498 25.8267196,28.5660498 C26.5886637,28.5660498 27.1068238,27.8651614 27.3811998,26.4633847 C27.0507023,25.5682449 26.6221328,24.6553221 26.0954915,23.7246164 C23.6614047,19.4229819 23.1314951,13.2939989 24.5057625,5.33766725 C24.2163619,8.96498466 24.3930139,12.3319643 25.0357185,15.4386062 C25.3938652,15.8725918 25.8316389,15.310815 26.2258208,14.6287372 C26.4359411,14.0797706 26.6771112,13.4903899 26.9705727,12.9316043 C27.5666844,11.7965366 28.9144512,8.43883967 30.180747,6.13887135 C30.9336499,4.77137658 32.1849114,2.92262613 33.9345317,0.592619998 C32.3439826,3.11702168 31.2293547,5.02630521 30.5906481,6.3204706 C29.3689318,8.79594661 28.4360217,11.6374563 27.6425308,13.4734496 C26.9072259,15.1748112 26.3871173,16.4982821 26.0822052,17.4438621 C26.039634,17.7005333 25.9837273,18.0212414 25.9837273,18.3691443 C25.9837273,18.6321652 26.0156815,18.8796425 26.0496696,19.0956564 C26.2676399,19.7135225 26.5068372,20.3195312 26.7672614,20.9136825 C27.7697106,23.200746 29.1661446,25.54327 29.8458507,27.8388558 C30.3830256,28.1857888 31.0939774,28.7601597 31.6544496,28.7601597 C32.1472764,28.7601597 32.7564511,28.3160676 33.2615239,27.9730029 C33.7758365,27.3777367 34.2022114,26.6297455 34.5406486,25.7290293 C35.0256608,24.4382186 35.900569,23.3511094 37.1653731,22.4677015 C37.2399653,22.2563405 37.3023167,22.0574843 37.3485876,21.8838277 C37.6717115,20.6711307 37.43862,20.1692834 37.9412908,18.7942568 C39.3980676,14.8093288 40.8950894,13.0892025 42.5515536,11.4774869 C43.6373871,10.4209867 45.3825343,9.62407068 47.7869952,9.08673885 C43.6421565,10.5540696 40.7630835,13.5466166 39.1497763,18.0643798 C38.720829,19.2655659 38.7393533,20.4382467 38.6212553,21.6224392 C40.4467638,20.7398617 42.8236295,20.1453411 45.7518525,19.8388774 C41.5099674,20.8232629 38.5501882,22.7667433 36.8725148,25.6693186 C35.8896127,27.3698567 35.2123468,29.5713312 33.7898931,30.6625317 C34.5924805,31.3917662 35.2260963,32.3037117 35.625056,33.3326757 C36.4687462,33.2250798 38.4386134,33.6194823 39.8542733,36.6170158 C41.075052,39.2019059 43.4050551,41.0923163 46.8442824,42.2882469 C42.7987413,41.2785511 40.2711966,39.7302929 39.2616484,37.6434723 C38.0902295,36.0416919 37.0239257,35.2129395 36.0627368,35.1572151 C36.0869058,35.3946519 36.0992876,35.6355755 36.0992876,35.8793915 C36.0992876,37.611067 35.4747011,39.1968449 34.4385423,40.4236853 C35.1421034,40.7689257 35.6938186,41.0399928 36.093688,41.2368865 C37.7872956,42.0708107 38.6247283,44.2682082 39.6768451,46.0760284 C41.0535049,46.7275325 42.827912,46.6041607 45.0000663,45.7059131 C47.0474555,44.4034475 50.2108782,44.3263889 54.4903343,45.4747373 C50.6720556,44.79083 47.5086329,45.2629718 45.0000663,46.8911629 C43.4686621,47.8851244 42.1803483,48.1775351 41.1981577,48.156438 C42.9289606,50.0464714 45.3402555,51.4491645 48.4320423,52.3645173 C46.3282016,52.0023662 44.5184008,51.5018312 43.00264,50.8629124 C43.3741776,52.3552305 44.2022572,53.6038442 45.3610923,54.8429873 C45.9203964,55.4410514 46.9411066,56.3175479 48.4232229,57.4724768 C44.8332161,55.1312208 42.7707367,52.8609772 42.2357845,50.6617461 C42.1644014,50.5720795 42.0983812,50.4906612 42.0377238,50.4174914 Z" id="Combined-Shape" fill="#24A0B2"></path>
                    <ellipse id="nucleus" fill-opacity="0.3" fill="#FFFFFF" cx="32.9291183" cy="35.2167375" rx="1.95087346" ry="3.04986551"></ellipse>
                </g>
                <g id="neuronv1.0" transform="translate(28.416667, 89.603175) scale(-1, 1) rotate(-180.000000) translate(-28.416667, -89.603175) translate(0.916667, 59.603175)">
                    <path d="M42.0377238,50.4174914 C39.9206333,49.347323 38.4902281,47.9539804 37.7465082,46.2374634 C36.5836199,43.5534992 34.7103769,42.2149962 32.1267792,42.2219542 C31.3991657,42.5752232 30.6016189,42.806945 29.7605274,42.8907278 C30.0223603,43.431842 30.2429634,44.0941061 30.3894443,44.9017252 C30.8996072,47.7144981 32.6609431,50.1435434 35.6734519,52.1888612 C32.0270878,50.1665069 29.9863858,48.0168276 29.551346,45.7398234 C28.9774513,44.2586138 28.3404135,43.2732987 27.6402326,42.7838781 C27.3506202,42.724887 27.0674677,42.6481272 26.7919628,42.5547864 C26.4741732,43.0950019 25.9113478,43.7004576 24.9981277,44.3630935 C22.246315,46.3598189 21.448346,48.8777852 22.6042207,51.9169926 C22.1124365,51.0538774 21.7536268,50.2477976 21.5277918,49.4987533 C21.3743603,50.0522691 21.1826,50.6444914 20.9051042,51.3059498 C19.472926,54.719789 18.0011824,56.1934002 16.3726888,57.5741372 C15.3051903,58.479228 13.589511,59.1619362 11.225651,59.6222619 C15.3005014,58.3652175 18.1309593,55.8015391 19.7170248,51.9312265 C20.1803532,50.8006137 20.3737647,49.4230872 20.6497457,48.1862119 C18.8339302,50.2028228 15.6925653,51.5955913 11.225651,52.3645173 C15.1899918,51.1908366 18.0355497,49.2159296 19.7623245,46.4397962 C20.6441412,45.0221008 21.3364046,43.2689751 22.4118278,42.1179796 C22.4118653,42.0858415 22.4119069,42.0514612 22.4119069,42.0147256 C22.4119069,41.8506139 22.9912699,41.7472657 23.0853419,41.1466402 C23.1176961,40.9400674 23.1207663,40.6983933 23.1105876,40.4489778 C23.0729194,40.4340762 23.0343675,40.4195185 22.9949319,40.4053048 C23.0326577,40.3933535 23.0699953,40.3815378 23.1069448,40.3698579 C23.0928257,40.0931506 23.0646308,39.8105289 23.0439097,39.558762 C22.411765,38.5281709 22.0372143,37.3224902 22.0098975,36.0313707 C19.9958943,35.0062833 17.616141,34.9276772 14.8706376,35.7955525 C10.9548783,37.0333548 5.99799911,35.9589107 0,32.5722202 C4.54455053,34.5455149 8.80822402,35.161158 12.7910205,34.4191494 C15.4675522,33.9205024 18.367526,32.7789991 20.7555292,33.428331 C21.1565382,33.537371 21.6729335,33.6781116 22.3047152,33.8505527 C22.5408239,33.0638257 22.9107022,32.3349674 23.3879274,31.6904035 C21.2420868,27.8791726 18.942706,26.3003062 16.4897851,26.9538042 C15.6035632,27.1899082 14.4576095,26.777708 13.8601308,26.3760428 C13.1539871,25.9013256 12.5817304,24.4511386 12.1433607,22.0254821 C12.10932,21.9504845 12.0588518,21.8150755 11.991956,21.619255 C11.7946598,21.0417201 11.4876169,20.614406 11.0708274,20.3373128 L9.94539032,19.7127126 C10.5686916,19.8195126 11.088273,19.970795 11.5041345,20.1665597 C11.8848344,20.3457723 12.0988875,20.5247331 12.1462936,20.7034421 L12.5498499,18.0544702 C12.5752378,22.3036705 13.267546,24.8389127 14.6267744,25.6601969 C15.3792799,26.114882 17.0106663,25.4731816 18.0638689,25.6601969 C20.7446559,26.1362193 22.8229112,26.9784299 24.2986349,28.1868286 C24.7106627,28.3377203 25.2440689,28.5660498 25.8267196,28.5660498 C26.5886637,28.5660498 27.1068238,27.8651614 27.3811998,26.4633847 C27.0507023,25.5682449 26.6221328,24.6553221 26.0954915,23.7246164 C23.6614047,19.4229819 23.1314951,13.2939989 24.5057625,5.33766725 C24.2163619,8.96498466 24.3930139,12.3319643 25.0357185,15.4386062 C25.0557197,15.4623011 25.0763332,15.4870351 25.0975777,15.5128308 C25.3938652,15.8725918 25.8316389,15.310815 26.2258208,14.6287372 C26.4359411,14.0797706 26.6771112,13.4903899 26.9705727,12.9316043 C27.5666844,11.7965366 28.9144512,8.43883967 30.180747,6.13887135 C30.9336499,4.77137658 32.1849114,2.92262613 33.9345317,0.592619998 C32.3439826,3.11702168 31.2293547,5.02630521 30.5906481,6.3204706 C29.3689318,8.79594661 28.4360217,11.6374563 27.6425308,13.4734496 C26.9072259,15.1748112 26.3871173,16.4982821 26.0822052,17.4438621 C26.039634,17.7005333 25.9837273,18.0212414 25.9837273,18.3691443 C25.9837273,18.6321652 26.0156815,18.8796425 26.0496696,19.0956564 C26.2676399,19.7135225 26.5068372,20.3195312 26.7672614,20.9136825 C27.7697106,23.200746 29.1661446,25.54327 29.8458507,27.8388558 C30.3830256,28.1857888 31.0939774,28.7601597 31.6544496,28.7601597 C32.1472764,28.7601597 32.7564511,28.3160676 33.2615239,27.9730029 C33.7758365,27.3777367 34.2022114,26.6297455 34.5406486,25.7290293 C35.0256608,24.4382186 35.900569,23.3511094 37.1653731,22.4677015 C37.2399653,22.2563405 37.3023167,22.0574843 37.3485876,21.8838277 C37.6717115,20.6711307 37.43862,20.1692834 37.9412908,18.7942568 C39.3980676,14.8093288 40.8950894,13.0892025 42.5515536,11.4774869 C43.6373871,10.4209867 45.3825343,9.62407068 47.7869952,9.08673885 C43.6421565,10.5540696 40.7630835,13.5466166 39.1497763,18.0643798 C38.720829,19.2655659 38.7393533,20.4382467 38.6212553,21.6224392 C40.4467638,20.7398617 42.8236295,20.1453411 45.7518525,19.8388774 C41.5099674,20.8232629 38.5501882,22.7667433 36.8725148,25.6693186 C35.8896127,27.3698567 35.2123468,29.5713312 33.7898931,30.6625317 C34.5924805,31.3917662 35.2260963,32.3037117 35.625056,33.3326757 C36.4687462,33.2250798 38.4386134,33.6194823 39.8542733,36.6170158 C41.075052,39.2019059 43.4050551,41.0923163 46.8442824,42.2882469 C42.7987413,41.2785511 40.2711966,39.7302929 39.2616484,37.6434723 C38.0902295,36.0416919 37.0239257,35.2129395 36.0627368,35.1572151 C36.0869058,35.3946519 36.0992876,35.6355755 36.0992876,35.8793915 C36.0992876,37.611067 35.4747011,39.1968449 34.4385423,40.4236853 C35.1421034,40.7689257 35.6938186,41.0399928 36.093688,41.2368865 C37.7872956,42.0708107 38.6247283,44.2682082 39.6768451,46.0760284 C41.0535049,46.7275325 42.827912,46.6041607 45.0000663,45.7059131 C47.0474555,44.4034475 50.2108782,44.3263889 54.4903343,45.4747373 C50.6720556,44.79083 47.5086329,45.2629718 45.0000663,46.8911629 C43.4686621,47.8851244 42.1803483,48.1775351 41.1981577,48.156438 C42.9289606,50.0464714 45.3402555,51.4491645 48.4320423,52.3645173 C46.3282016,52.0023662 44.5184008,51.5018312 43.00264,50.8629124 C43.3741776,52.3552305 44.2022572,53.6038442 45.3610923,54.8429873 C45.9203964,55.4410514 46.9411066,56.3175479 48.4232229,57.4724768 C44.8332161,55.1312208 42.7707367,52.8609772 42.2357845,50.6617461 C42.1644014,50.5720795 42.0983812,50.4906612 42.0377238,50.4174914 Z" id="Combined-Shape" fill="#24A0B2"></path>
                    <ellipse id="nucleus" fill-opacity="0.3" fill="#FFFFFF" cx="32.9291183" cy="35.2167375" rx="1.95087346" ry="3.04986551"></ellipse>
                </g>
            </g>
        </g>
    </g>
</svg>