<?xml version="1.0" encoding="UTF-8"?>
<svg width="150px" height="150px" viewBox="0 0 150 150" version="1.1" xmlns="http://www.w3.org/2000/svg" xmlns:xlink="http://www.w3.org/1999/xlink">
    <!-- Generator: Sketch 51 (57462) - http://www.bohemiancoding.com/sketch -->
    <title>collectNeuronsv3.1</title>
    <desc>Created with Sketch.</desc>
    <defs>
        <ellipse id="path-1" cx="75" cy="141.5" rx="50" ry="1.5"></ellipse>
        <filter x="-7.0%" y="-166.7%" width="114.0%" height="566.7%" filterUnits="objectBoundingBox" id="filter-2">
            <feOffset dx="0" dy="2" in="SourceAlpha" result="shadowOffsetOuter1"></feOffset>
            <feGaussianBlur stdDeviation="2" in="shadowOffsetOuter1" result="shadowBlurOuter1"></feGaussianBlur>
            <feColorMatrix values="0 0 0 0 0.750053146   0 0 0 0 0.750053146   0 0 0 0 0.750053146  0 0 0 0.5 0" type="matrix" in="shadowBlurOuter1"></feColorMatrix>
        </filter>
    </defs>
    <g id="Page-1" stroke="none" stroke-width="1" fill="none" fill-rule="evenodd">
        <g id="collectNeuronsv3.1" fill-rule="nonzero">
            <rect id="Rectangle" fill="#FFFFFF" x="0" y="0" width="150" height="150" rx="16"></rect>
            <rect id="Rectangle-2" stroke="#FBE1B9" stroke-width="3" fill="#FFFFFF" x="14.5" y="16.5" width="117" height="108" rx="22"></rect>
            <rect id="Rectangle-2" stroke="#FFBB58" stroke-width="3" fill="#FFFFFF" x="16.5" y="18.5" width="113" height="104.3" rx="22"></rect>
            <g id="neurons" transform="translate(8.000000, 0.000000)">
                <g id="neuronv1.0" transform="translate(95.026316, 50.500000) scale(-1, 1) translate(-95.026316, -50.500000) translate(73.526316, 27.000000)">
                    <path d="M32.5842644,39.0795866 C30.943266,38.2500781 29.8345309,37.1700709 29.258059,35.8395649 C28.3566815,33.7591716 26.9046941,32.7216717 24.9020968,32.727065 C24.3381093,33.0008907 23.7199151,33.1805028 23.0679686,33.2454445 C23.2709204,33.6648727 23.4419142,34.1782066 23.5554544,34.804208 C23.9508917,36.9844435 25.3161377,38.8672442 27.6511924,40.4526101 C24.824824,38.8850436 23.2430359,37.218785 22.905828,35.4538344 C22.460991,34.3057198 21.9672105,33.5419827 21.4244865,33.1626232 C21.2000023,33.1168981 20.9805252,33.0574 20.766976,32.9850497 C20.520651,33.4037814 20.084394,33.873082 19.3765392,34.3867041 C17.2435552,35.9344051 16.6250337,37.8861302 17.5209749,40.2418794 C17.1397833,39.5728619 16.8616629,38.9480536 16.6866137,38.3674547 C16.567686,38.7964957 16.4190488,39.2555388 16.2039564,39.7682482 C15.0938469,42.4143819 13.9530696,43.5566069 12.6907923,44.6268432 C11.8633532,45.3283968 10.5334966,45.8575773 8.70122231,46.2143848 C11.8597188,45.240025 14.0536622,43.2528676 15.2830527,40.2529124 C15.6421876,39.3765522 15.7921047,38.3088044 16.006023,37.3500781 C14.5985488,38.9131928 12.1636152,39.992755 8.70122231,40.5887646 C11.7740606,39.6790217 13.9797084,38.1482325 15.3181654,35.9963971 C16.0016788,34.8975135 16.5382658,33.5386314 17.3718474,32.6464722 C17.3718765,32.6215614 17.3719087,32.5949125 17.3719087,32.566438 C17.3719087,32.4392318 17.8209843,32.3591246 17.8939014,31.893568 C17.9189798,31.7334494 17.9213595,31.546123 17.9134698,31.3527962 C17.8842725,31.3412457 17.8543901,31.3299617 17.8238228,31.3189444 C17.8530648,31.3096807 17.8820059,31.3005221 17.9106462,31.2914688 C17.8997022,31.0769875 17.8778478,30.8579219 17.8617865,30.6627725 C17.3717987,29.8639411 17.0814771,28.9293943 17.0603033,27.9286223 C15.4992099,27.1340569 13.6546165,27.0731278 11.5265229,27.745835 C8.49134107,28.7052798 4.64916677,27.8724571 0,25.2473669 C3.52257027,26.7769063 6.82742723,27.2541033 9.91457091,26.6789579 C11.9892031,26.2924468 14.2370297,25.4076452 16.0880178,25.9109551 C16.3988478,25.9954742 16.7991159,26.104565 17.2888223,26.2382275 C17.4718348,25.6284199 17.7585347,25.0634676 18.1284413,24.5638534 C16.4651582,21.6096936 14.682863,20.3858833 12.7815559,20.8924224 C12.0946279,21.0754312 11.2063767,20.7559268 10.7432593,20.4445882 C10.1959134,20.0766256 9.75234605,18.9525572 9.4125571,17.0723833 C9.38617148,17.0142511 9.34705259,16.909293 9.29520034,16.7575087 C9.14227219,16.30985 8.90427721,15.9786305 8.5812155,15.7638501 L7.70886714,15.2797102 C8.19200019,15.362493 8.59473792,15.479755 8.91708033,15.631496 C9.21216829,15.7704072 9.37808505,15.9091233 9.41483045,16.0476441 L9.72763485,13.994374 C9.74731351,17.2880125 10.2839352,19.2531285 11.3374998,19.889722 C11.9207815,20.2421573 13.1853012,19.7447628 14.0016591,19.889722 C16.0795897,20.2586963 17.6904862,20.9115103 18.8343486,21.8481638 C19.1537194,21.9651229 19.567173,22.1421056 20.018797,22.1421056 C20.6093948,22.1421056 21.0110309,21.5988332 21.2237051,20.5122886 C20.96753,19.8184482 20.6353374,19.1108238 20.2271274,18.3894156 C18.340419,15.0551343 17.9296756,10.3044393 18.9948972,4.1373306 C18.7705772,6.94893548 18.9075036,9.55874745 19.4056765,11.9667665 C19.4211799,11.9851329 19.4371578,12.0043047 19.4536248,12.0242995 C19.6832831,12.3031573 20.0226101,11.8677131 20.3281482,11.3390212 C20.4910165,10.9135064 20.6779522,10.4566659 20.90542,10.0235402 C21.3674779,9.14372693 22.4121583,6.54111017 23.3936891,4.75835961 C23.9772789,3.69838759 24.9471562,2.26538485 26.3033212,0.459351386 C25.0704554,2.41606465 24.2064855,3.89598777 23.7114114,4.89912075 C22.7644352,6.81791077 22.0413183,9.02042067 21.4262679,10.4435351 C20.8563186,11.7622938 20.4531723,12.7881421 20.2168289,13.5210797 C20.1838311,13.7200306 20.1404968,13.9686177 20.1404968,14.2382841 C20.1404968,14.4421568 20.1652651,14.6339813 20.1916099,14.8014179 C20.360563,15.280338 20.5459695,15.7500672 20.7478294,16.2106056 C21.5248475,17.9833534 22.6072508,19.7990897 23.1341044,21.5784433 C23.5504792,21.8473578 24.1015519,22.292564 24.5359849,22.292564 C24.9179846,22.292564 25.3901678,21.9483395 25.7816597,21.6824233 C26.1803135,21.2210208 26.510805,20.6412381 26.7731343,19.9430753 C27.1490768,18.9425426 27.8272353,18.099903 28.8076098,17.4151562 C28.8654276,17.2513261 28.9137574,17.0971888 28.9496229,16.9625842 C29.2000826,16.0225989 29.0194088,15.6336072 29.4090388,14.5677971 C30.5382151,11.4790013 31.698586,10.1456976 32.9825439,8.89642525 C33.8241948,8.07751122 35.1768926,7.45980598 37.0406374,7.04330954 C33.8278916,8.18066639 31.5962657,10.5002483 30.3457596,14.0020552 C30.0132742,14.9331181 30.0276327,15.842086 29.9360926,16.7599768 C31.3510801,16.0758737 33.1934353,15.6150491 35.4631584,15.3775031 C32.17519,16.1405196 29.8810071,17.6469494 28.5806096,19.8967924 C27.8187429,21.2149128 27.2937808,22.9213189 26.191209,23.7671298 C26.8133102,24.3323738 27.3044383,25.0392406 27.6136798,25.8368108 C28.2676406,25.7534111 29.7945233,26.0591203 30.8918291,28.3825673 C31.8380786,30.3861663 33.6441097,31.8514605 36.3099222,32.7784498 C33.174144,31.9958147 31.2149945,30.7957294 30.4324739,29.1781938 C29.5244841,27.9366224 28.6979711,27.2942402 27.9529347,27.2510471 C27.9716686,27.435089 27.981266,27.6218336 27.981266,27.8108202 C27.981266,29.1530759 27.4971367,30.3822434 26.6939897,31.3331915 C27.2393337,31.6007941 27.666979,31.8109035 27.9769256,31.9635197 C29.2896741,32.6099107 29.9387846,34.3131566 30.754301,35.7144335 C31.821377,36.2194271 33.1967548,36.1237992 34.8804342,35.4275499 C36.4674057,34.4179832 38.9194367,34.3582536 42.2365271,35.248361 C39.2769043,34.718251 36.8248733,35.0842174 34.8804342,36.3462602 C33.6934127,37.1166993 32.6948154,37.3433526 31.9335002,37.3269998 C33.2750795,38.7920018 35.1441215,39.8792567 37.5406261,40.5887646 C35.9098979,40.3080542 34.5070858,39.9200797 33.3321899,39.4248412 C33.6201759,40.5815662 34.2620367,41.5493912 35.1602725,42.5098753 C35.5938001,42.9734465 36.3849726,43.6528362 37.53379,44.5480442 C34.7511053,42.7332908 33.1524371,40.9735804 32.7377851,39.2689132 C32.6824547,39.1994109 32.6312811,39.136302 32.5842644,39.0795866 Z" id="Combined-Shape" fill="#535353"></path>
                    <ellipse id="nucleus" stroke="#FBE1B9" fill="#FFFFFF" cx="23" cy="27.9758434" rx="2" ry="1.97584338"></ellipse>
                </g>
                <g id="neuronv1.0">
                    <path d="M59.737818,71.6459088 C56.729321,70.1251432 54.6966399,68.14513 53.6397748,65.705869 C51.9872493,61.8918147 49.3252724,59.9897314 45.6538441,59.9996191 C44.619867,60.501633 43.4865111,60.8309218 42.2912758,60.9499816 C42.6633541,61.7189334 42.9768427,62.6600455 43.1849998,63.8077148 C43.9099681,67.8048131 46.4129191,71.2566143 50.6938527,74.1631185 C45.5121774,71.2892466 42.6122325,68.2344392 41.994018,64.9986964 C41.1784834,62.8938196 40.2732192,61.493635 39.2782253,60.7981426 C38.8666708,60.7143131 38.4642962,60.6052334 38.0727892,60.4725912 C37.6211935,61.2402659 36.821389,62.1006503 35.5236552,63.0422908 C31.6131845,65.8797426 30.4792285,69.4579053 32.1217873,73.776779 C31.4229361,72.5502468 30.9130486,71.404765 30.5921252,70.3403336 C30.374091,71.1269087 30.1015895,71.9684878 29.7072533,72.908455 C27.6720527,77.7597002 25.5806276,79.8537792 23.2664525,81.8158792 C21.749481,83.1020608 19.3114104,84.0722251 15.9522409,84.7263722 C21.7428178,82.9400459 25.7650474,79.296924 28.01893,73.7970061 C28.677344,72.1903458 28.9521919,70.2328081 29.3443755,68.4751432 C26.7640061,71.3408535 22.2999612,73.3200508 15.9522409,74.4127351 C21.5857778,72.7448731 25.6294654,69.9384263 28.0833032,65.9933946 C29.3364112,63.9787748 30.3201539,61.4874909 31.8483869,59.8518657 C31.8484402,59.8061958 31.8484993,59.7573396 31.8484993,59.7051364 C31.8484993,59.471925 32.6718046,59.3250618 32.8054859,58.4715413 C32.8514629,58.1779905 32.8558258,57.8345589 32.8413613,57.4801263 C32.7878328,57.4589504 32.7330486,57.4382631 32.6770085,57.4180647 C32.7306188,57.4010813 32.7836775,57.3842906 32.8361847,57.3676928 C32.8161207,56.9744772 32.7760543,56.5728569 32.7466085,56.2150828 C31.8482976,54.7505586 31.3160414,53.0372229 31.2772228,51.2024742 C28.4152182,49.745771 25.0334635,49.6340676 21.1319587,50.8673641 C15.5674586,52.6263463 8.52347242,51.0995047 0,46.2868392 C6.45804549,49.0909949 12.5169499,49.9658561 18.1767133,48.9114228 C21.9802058,48.2028192 26.1012212,46.5806829 29.4946994,47.5034177 C30.0645543,47.6583693 30.7983792,47.8583691 31.6961742,48.103417 C32.0316971,46.9854365 32.5573137,45.9496905 33.2354758,45.0337313 C30.1861233,39.6177716 26.9185822,37.3741193 23.4328525,38.3027744 C22.1734845,38.6382906 20.545024,38.0525324 19.6959753,37.481745 C18.692508,36.8071469 17.8793011,34.7463549 17.2563547,31.2993693 C17.2079811,31.1927938 17.1362631,31.0003704 17.0412006,30.7220992 C16.7608323,29.9013917 16.3245082,29.2941559 15.7322284,28.9003919 L14.1329231,28.0128021 C15.018667,28.1645705 15.7570195,28.3795508 16.3479806,28.6577427 C16.8889752,28.9124133 17.1931559,29.166726 17.2605225,29.4206809 L17.8339972,25.6563524 C17.8700748,31.6946897 18.8538812,35.2974023 20.7854163,36.4644903 C21.8547662,37.1106218 24.1730521,36.1987317 25.6697084,36.4644903 C29.4792479,37.1409432 32.432558,38.3377688 34.5296391,40.054967 C35.1151523,40.269392 35.8731505,40.5938602 36.7011279,40.5938602 C37.7838905,40.5938602 38.5202233,39.5978609 38.910126,37.6058625 C38.4404717,36.3338217 37.8314519,35.0365104 37.0830669,33.7139286 C33.6241014,27.6010795 32.871072,18.8914721 34.8239783,7.58510609 C34.4127248,12.739715 34.6637566,17.5243703 35.5770737,21.939072 C35.6054964,21.9727437 35.6347893,22.007892 35.6649788,22.044549 C36.086019,22.5557883 36.7081184,21.7574739 37.2682717,20.7882055 C37.5668637,20.0080951 37.9095791,19.1705541 38.3266033,18.3764903 C39.1737094,16.7634994 41.088957,11.9920353 42.8884299,8.72365929 C43.9583446,6.78037725 45.736453,4.15320555 48.2227556,0.842144208 C45.9625016,4.42945186 44.3785567,7.14264425 43.470921,8.98172138 C41.7347978,12.4995031 40.4090835,16.5374379 39.2814911,19.146481 C38.2365842,21.5642054 37.4974825,23.4449272 37.0641863,24.7886461 C37.0036904,25.1533894 36.9242441,25.6091325 36.9242441,26.1035208 C36.9242441,26.4772874 36.9696527,26.8289657 37.0179515,27.1359328 C37.3276988,28.013953 37.6676108,28.8751233 38.0376873,29.7194436 C39.4622203,32.9694812 41.4466265,36.2983311 42.4125247,39.5604793 C43.1758785,40.0534893 44.1861784,40.8697006 44.9826389,40.8697006 C45.6829717,40.8697006 46.548641,40.2386224 47.2663761,39.7511094 C47.9972413,38.9052048 48.6031425,37.8422699 49.0840796,36.5623048 C49.7733075,34.7279949 51.0165981,33.1831555 52.8139512,31.9277863 C52.9199507,31.6274312 53.0085553,31.3448461 53.0743087,31.0980709 C53.5334848,29.3747647 53.2022495,28.6616133 53.9165711,26.7076281 C55.9867276,21.0448357 58.1140744,18.6004457 60.4679972,16.310113 C62.0110238,14.8087706 64.4909698,13.676311 67.9078353,12.9127342 C62.0178013,14.9978884 57.9264871,19.2504552 55.6338926,25.6704345 C55.0243359,27.3773831 55.05066,29.0438243 54.8828365,30.7266241 C57.4769801,29.472435 60.8546314,28.62759 65.0157904,28.1920889 C58.9878484,29.5909525 54.7818464,32.3527405 52.3977842,36.4774527 C51.0010286,38.8940069 50.0385981,42.022418 48.0172165,43.5730714 C49.1577354,44.609352 50.0581368,45.9052745 50.6250796,47.3674865 C51.8240078,47.2145871 54.6232927,47.7750538 56.63502,52.0347067 C58.3698107,55.7079715 61.6808678,58.3943442 66.5681908,60.0938245 C60.819264,58.6589937 57.2274899,56.4588373 55.7928688,53.4933554 C54.1282209,51.2171411 52.612947,50.0394403 51.247047,49.960253 C51.2813925,50.2976632 51.2989876,50.6400283 51.2989876,50.9865037 C51.2989876,53.4473057 50.4114174,55.7007796 48.9389812,57.4441844 C49.9387785,57.9347892 50.7227949,58.3199898 51.2910303,58.5997861 C53.6977359,59.7848363 54.8877718,62.9074538 56.3828851,65.4764614 C58.3391912,66.402283 60.8607171,66.2269652 63.9474626,64.9505081 C66.8569104,63.0996359 71.3523006,62.9901316 77.433633,64.6219951 C72.007658,63.6501268 67.5122678,64.3210652 63.9474626,66.6348104 C61.7712567,68.047282 59.940495,68.462813 58.5447504,68.4328329 C61.0043124,71.1186699 64.4308894,73.1119706 68.8244812,74.4127351 C65.8348128,73.8980993 63.2629906,73.1868128 61.1090147,72.2788755 C61.6369892,74.3995381 62.8137339,76.1738839 64.4604996,77.9347714 C65.2553001,78.784652 66.7057831,80.0301996 68.8119483,81.6714144 C63.7103597,78.3443664 60.7794679,75.1182308 60.0192727,71.9930076 C59.9178336,71.8655867 59.8240154,71.749887 59.737818,71.6459088 Z" id="Combined-Shape" fill="#535353"></path>
                    <ellipse id="nucleus" stroke="#FBE1B9" fill="#FFFFFF" cx="41" cy="51.9516868" rx="4" ry="3.95168675"></ellipse>
                </g>
                <g id="neuronv1.0" transform="translate(106.500000, 94.956938) rotate(180.000000) translate(-106.500000, -94.956938) translate(78.000000, 63.956938)">
                    <path d="M43.4456858,52.1061155 C41.257688,51.0001042 39.7793745,49.5600946 39.0107453,47.7860866 C37.8089086,45.0122288 35.8729254,43.6288956 33.2027957,43.6360866 C32.4508124,44.0011876 31.6265535,44.2406704 30.7572915,44.3272594 C31.0278939,44.886497 31.2558856,45.5709422 31.4072726,46.4056107 C31.9345223,49.3125913 33.7548503,51.8229922 36.8682565,53.9368135 C33.0997654,51.8467248 30.9907145,49.6250467 30.541104,47.2717792 C29.9479879,45.7409597 29.289614,44.7226436 28.565982,44.216831 C28.2666697,44.1558641 27.9740336,44.0765334 27.6893013,43.9800663 C27.360868,44.5383752 26.779192,45.1641093 25.8353856,45.8489387 C22.9914069,47.9125401 22.1667117,50.5148402 23.3612999,53.6558392 C22.8530444,52.7638159 22.4822172,51.9307382 22.2488183,51.1566063 C22.090248,51.7286609 21.8920651,52.3407184 21.6052752,53.0243309 C20.1251293,56.5525092 18.6040928,58.0754758 16.9210564,59.5024576 C15.8178043,60.4378624 14.0446621,61.1434365 11.6016297,61.6191798 C15.8129584,60.3200334 18.7382163,57.6704902 20.3774036,53.6705499 C20.8562502,52.5020697 21.0561396,51.0784059 21.341364,49.8001042 C19.4647317,51.8842571 16.2181536,53.3236733 11.6016297,54.1183528 C15.6987475,52.9053622 18.6396112,50.86431 20.4242205,47.9951961 C21.3355718,46.5300181 22.051021,44.7181752 23.1624632,43.5286296 C23.1625449,43.2523091 23.7613124,43.1454995 23.8585352,42.5247573 C23.891973,42.3112658 23.895146,42.0614974 23.8846264,41.8037283 C23.8662696,41.4359834 23.8371304,41.1438959 23.8157153,40.8836966 C23.1623983,39.8185881 22.7753028,38.5725258 22.7470711,37.238163 C20.6656132,36.1787425 18.2061553,36.0975037 15.3686972,36.9944466 C11.3217881,38.2737064 6.19888903,37.1632761 0,33.6631558 C4.69676036,35.7025417 9.10323631,36.3388044 13.2194279,35.5719439 C15.9856042,35.0565958 18.9827063,33.8768603 21.4506905,34.5479402 C21.8651304,34.6606322 22.3988212,34.8060866 23.0517631,34.9843033 C23.2957797,34.1712266 23.6780463,33.4179567 24.1712551,32.7518046 C21.9535443,28.8129248 19.5771507,27.1811777 17.0420746,27.8565632 C16.1261706,28.100575 14.9418357,27.674569 14.3243457,27.2594509 C13.5945513,26.7688341 13.0031281,25.2700763 12.5500761,22.7631777 C12.5148953,22.6856682 12.4627368,22.545724 12.3936005,22.3433449 C12.1896963,21.7464667 11.8723696,21.3048407 11.4416207,21.0184668 L10.2784895,20.372947 C10.9226669,20.483324 11.4596506,20.6396733 11.8894404,20.8419947 C12.2828911,21.0272096 12.5041134,21.2121644 12.5531073,21.3968588 L12.9701798,18.6591654 C12.996418,23.0506834 13.7119136,25.670838 15.1166664,26.5196293 C15.8943754,26.9895431 17.5804015,26.3263504 18.6688789,26.5196293 C21.439453,27.0115951 23.5873149,27.8820137 25.1124648,29.1308851 C25.5382926,29.2868305 26.089564,29.5228074 26.6917293,29.5228074 C27.4791931,29.5228074 28.0147079,28.7984443 28.2982735,27.3497182 C27.9567067,26.4245976 27.5137832,25.4810984 26.9695032,24.5192208 C24.4538919,20.0735124 23.9062342,13.7392525 25.3265297,5.51644079 C25.0274362,9.2652473 25.2100048,12.7449966 25.8742354,15.9556887 C26.2443774,16.4042097 26.6968134,15.8236174 27.1041976,15.1186949 C27.3213554,14.5513419 27.570603,13.9422211 27.8738933,13.3647202 C28.4899705,12.1916359 29.8828778,8.72148023 31.1915854,6.34447948 C31.9697052,4.93118345 33.2628749,3.02051313 35.071095,0.612468515 C33.4272739,3.22141954 32.2753139,5.19465036 31.6152153,6.532161 C30.3525802,9.09054769 29.3884243,12.0272276 28.5683572,13.9247135 C27.8084249,15.6830585 27.2708963,17.0508561 26.9557719,18.0281063 C26.9117749,18.2933741 26.8539957,18.6248236 26.8539957,18.9843788 C26.8539957,19.256209 26.8870201,19.511975 26.9221466,19.7352238 C27.1474173,20.373784 27.394626,21.0000897 27.6637725,21.6141408 C28.6997966,23.9778045 30.1430011,26.3987862 30.8454725,28.7712577 C31.4006389,29.1298104 32.1354025,29.7234186 32.7146465,29.7234186 C33.2239794,29.7234186 33.8535571,29.2644526 34.3755462,28.9098977 C34.9070846,28.2946944 35.34774,27.5216509 35.6975124,26.5907671 C36.1987691,25.2567235 37.1029804,24.133204 38.4101464,23.2202082 C38.4872369,23.0017682 38.5516766,22.7962517 38.5994972,22.6167789 C38.9334435,21.3634652 38.6925451,20.8448096 39.2120517,19.4237295 C40.7176201,15.305335 42.2647814,13.5275968 43.9767253,11.8619003 C45.0989264,10.770015 46.9025235,9.94640798 49.3875166,9.39107939 C45.1038555,10.9075552 42.1283542,14.000331 40.4610128,18.6694069 C40.0176989,19.9108241 40.0368436,21.1227813 39.9147902,22.3466357 C41.8014401,21.4344982 44.2579137,20.8200654 47.2842112,20.5033374 C42.9002534,21.5206928 39.8413428,23.5292658 38.1074794,26.5290565 C37.0916571,28.2865505 36.3917077,30.5617586 34.921612,31.6895064 C35.7510803,32.4431651 36.4059177,33.3856542 36.8182397,34.4490811 C37.6901875,34.3378815 39.7260311,34.7454937 41.1891054,37.843423 C42.4507714,40.5148884 44.8588129,42.468614 48.4132297,43.7045997 C44.232192,42.6610863 41.6199927,41.0609726 40.5766318,38.9042585 C39.3659788,37.2488299 38.2639615,36.3923202 37.2705797,36.3347295 C37.2955581,36.5801187 37.3083546,36.8291115 37.3083546,37.0810936 C37.3083546,38.8707678 36.662849,40.5096579 35.5919863,41.7775886 C36.3191116,42.1343921 36.8893053,42.414538 37.3025675,42.6180262 C39.0528988,43.4798809 39.9183795,45.7508755 41.0057346,47.6192447 C42.4285027,48.2925695 44.2623397,48.1650656 46.5072456,47.2367332 C48.6232076,45.8906443 51.8925823,45.8110048 56.3153694,46.9978146 C52.3692058,46.2910013 49.0998311,46.7789565 46.5072456,48.4616803 C44.9245503,49.4889324 43.5930872,49.7911368 42.5780003,49.7693331 C44.3667727,51.722669 46.8588287,53.1723423 50.0541681,54.1183528 C47.8798639,53.7440722 46.0094477,53.2267729 44.4429198,52.5664549 C44.8269013,54.108755 45.6827156,55.3991883 46.8803633,56.6798338 C47.4584001,57.2979287 48.5132968,58.2037816 50.0450533,59.3973923 C46.3348071,56.977721 44.2032494,54.6314406 43.6503802,52.358551 C43.5766062,52.2658812 43.5083748,52.181736 43.4456858,52.1061155 Z" id="Combined-Shape" fill="#535353"></path>
                    <ellipse id="nucleus" stroke="#FBE1B9" fill="#FFFFFF" cx="30.5" cy="38.4698042" rx="2.5" ry="2.46980422"></ellipse>
                </g>
                <g id="neuronv1.0" transform="translate(56.052632, 97.710526) scale(-1, 1) rotate(-180.000000) translate(-56.052632, -97.710526) translate(17.052632, 64.210526)">
                    <path d="M59.737818,53.6459088 C56.729321,52.1251432 54.6966399,50.14513 53.6397748,47.705869 C51.9872493,43.8918147 49.3252724,41.9897314 45.6538441,41.9996191 C44.619867,42.501633 43.4865111,42.8309218 42.2912758,42.9499816 C42.6633541,43.7189334 42.9768427,44.6600455 43.1849998,45.8077148 C43.9099681,49.8048131 46.4129191,53.2566143 50.6938527,56.1631185 C45.5121774,53.2892466 42.6122325,50.2344392 41.994018,46.9986964 C41.1784834,44.8938196 40.2732192,43.493635 39.2782253,42.7981426 C38.8666708,42.7143131 38.4642962,42.6052334 38.0727892,42.4725912 C37.6211935,43.2402659 36.821389,44.1006503 35.5236552,45.0422908 C31.6131845,47.8797426 30.4792285,51.4579053 32.1217873,55.776779 C31.4229361,54.5502468 30.9130486,53.404765 30.5921252,52.3403336 C30.374091,53.1269087 30.1015895,53.9684878 29.7072533,54.908455 C27.6720527,59.7597002 25.5806276,61.8537792 23.2664525,63.8158792 C21.749481,65.1020608 19.3114104,66.0722251 15.9522409,66.7263722 C21.7428178,64.9400459 25.7650474,61.296924 28.01893,55.7970061 C28.677344,54.1903458 28.9521919,52.2328081 29.3443755,50.4751432 C26.7640061,53.3408535 22.2999612,55.3200508 15.9522409,56.4127351 C21.5857778,54.7448731 25.6294654,51.9384263 28.0833032,47.9933946 C29.3364112,45.9787748 30.3201539,43.4874909 31.8483869,41.8518657 C31.8484993,41.471925 32.6718046,41.3250618 32.8054859,40.4715413 C32.8514629,40.1779905 32.8558258,39.8345589 32.8413613,39.4801263 C32.8161207,38.9744772 32.7760543,38.5728569 32.7466085,38.2150828 C31.8482976,36.7505586 31.3160414,35.0372229 31.2772228,33.2024742 C28.4152182,31.745771 25.0334635,31.6340676 21.1319587,32.8673641 C15.5674586,34.6263463 8.52347242,33.0995047 0,28.2868392 C6.45804549,31.0909949 12.5169499,31.9658561 18.1767133,30.9114228 C21.9802058,30.2028192 26.1012212,28.5806829 29.4946994,29.5034177 C30.0645543,29.6583693 30.7983792,29.8583691 31.6961742,30.103417 C32.0316971,28.9854365 32.5573137,27.9496905 33.2354758,27.0337313 C30.1861233,21.6177716 26.9185822,19.3741193 23.4328525,20.3027744 C22.1734845,20.6382906 20.545024,20.0525324 19.6959753,19.481745 C18.692508,18.8071469 17.8793011,16.7463549 17.2563547,13.2993693 C17.2079811,13.1927938 17.1362631,13.0003704 17.0412006,12.7220992 C16.7608323,11.9013917 16.3245082,11.2941559 15.7322284,10.9003919 L14.1329231,10.0128021 C15.018667,10.1645705 15.7570195,10.3795508 16.3479806,10.6577427 C16.8889752,10.9124133 17.1931559,11.166726 17.2605225,11.4206809 L17.8339972,7.65635239 C17.8700748,13.6946897 18.8538812,17.2974023 20.7854163,18.4644903 C21.8547662,19.1106218 24.1730521,18.1987317 25.6697084,18.4644903 C29.4792479,19.1409432 32.432558,20.3377688 34.5296391,22.054967 C35.1151523,22.269392 35.8731505,22.5938602 36.7011279,22.5938602 C37.2361344,22.5938602 39.0107839,21.2757314 39.2782253,19.481745 C39.55204,17.6450068 38.3095785,15.3267581 38.0727892,14.9180307 C37.8782234,14.582186 34.9687521,9.73968565 29.3443755,0.390529684 C34.078478,7.27898827 37.202625,11.8659841 38.7168165,14.1515172 C38.9667183,14.5287209 38.7520425,12.7758026 38.0727892,8.89276198 C39.1123718,11.9017191 39.740814,13.910142 39.9581161,14.9180307 C40.2463282,16.2548142 40.6671318,16.9172928 40.7774407,17.1606535 C41.7101639,19.218404 42.1991402,20.8398112 42.4125247,21.5604793 C43.1758785,22.0534893 44.1861784,22.8697006 44.9826389,22.8697006 C45.6829717,22.8697006 49.2630856,22.1515994 50.6250796,19.481745 C51.347899,18.0648352 52.0137304,15.9021966 52.5623172,13.8748008 C53.2106382,11.4788202 53.6952088,9.27172728 53.9165711,8.70762808 C54.3198392,7.67997708 54.6286942,7.02400225 54.8431361,6.73970358 C54.3373084,10.5590461 54.0284535,13.0296506 53.9165711,14.1515172 C56.5107148,12.8973281 60.8546314,10.62759 65.0157904,10.1920889 C58.9878484,11.5909525 54.7818464,14.3527405 52.3977842,18.4774527 C51.0010286,20.8940069 50.0385981,24.022418 48.0172165,25.5730714 C49.1577354,26.609352 50.0581368,27.9052745 50.6250796,29.3674865 C51.8240078,29.2145871 54.6232927,29.7750538 56.63502,34.0347067 C58.3698107,37.7079715 61.6808678,40.3943442 66.5681908,42.0938245 C60.819264,40.6589937 57.2274899,38.4588373 55.7928688,35.4933554 C54.1282209,33.2171411 52.612947,32.0394403 51.247047,31.960253 C51.2813925,32.2976632 51.2989876,32.6400283 51.2989876,32.9865037 C51.2989876,35.4473057 50.4114174,37.7007796 48.9389812,39.4441844 C49.9387785,39.9347892 50.7227949,40.3199898 51.2910303,40.5997861 C53.6977359,41.7848363 54.8877718,44.9074538 56.3828851,47.4764614 C58.3391912,48.402283 60.8607171,48.2269652 63.9474626,46.9505081 C66.8569104,45.0996359 71.3523006,44.9901316 77.433633,46.6219951 C72.007658,45.6501268 67.5122678,46.3210652 63.9474626,48.6348104 C61.7712567,50.047282 59.940495,50.462813 58.5447504,50.4328329 C61.0043124,53.1186699 64.4308894,55.1119706 68.8244812,56.4127351 C65.8348128,55.8980993 63.2629906,55.1868128 61.1090147,54.2788755 C61.6369892,56.3995381 62.8137339,58.1738839 64.4604996,59.9347714 C65.2553001,60.784652 66.7057831,62.0301996 68.8119483,63.6714144 C63.7103597,60.3443664 60.7794679,57.1182308 60.0192727,53.9930076 C59.9178336,53.8655867 59.8240154,53.749887 59.737818,53.6459088 Z" id="Combined-Shape" fill="#535353"></path>
                    <ellipse id="nucleus" stroke="#FBE1B9" fill="#FFFFFF" cx="43" cy="33.9637651" rx="3" ry="2.96376506"></ellipse>
                </g>
            </g>
            <g id="Oval-2" fill="black" fill-opacity="1">
                <use filter="url(#filter-2)" xlink:href="#path-1"></use>
            </g>
        </g>
    </g>
</svg>