<?xml version="1.0" encoding="UTF-8"?>
<svg width="150px" height="150px" viewBox="0 0 150 150" version="1.1" xmlns="http://www.w3.org/2000/svg" xmlns:xlink="http://www.w3.org/1999/xlink">
    <!-- Generator: Sketch 50.2 (55047) - http://www.bohemiancoding.com/sketch -->
    <title>collectNeurons</title>
    <desc>Created with Sketch.</desc>
    <defs>
        <radialGradient cx="50%" cy="51.7214674%" fx="50%" fy="51.7214674%" r="64.3322987%" id="radialGradient-1">
            <stop stop-color="#FFFFFF" offset="0%"></stop>
            <stop stop-color="#E9F9CC" offset="100%"></stop>
        </radialGradient>
    </defs>
    <g id="Page-1" stroke="none" stroke-width="1" fill="none" fill-rule="evenodd">
        <g id="collectNeurons" transform="translate(0.000000, -7.000000)">
            <rect id="Rectangle" fill="url(#radialGradient-1)" x="0" y="7" width="150" height="150" rx="16"></rect>
            <g id="neurons" transform="translate(2.000000, 0.000000)">
                <g id="neuronv1.0" transform="translate(28.000000, 24.000000)">
                    <path d="M68.7890027,82.5013495 C65.3246727,80.7501649 62.9840096,78.4701497 61.7670135,75.6613038 C59.8641053,71.2693624 56.7987985,69.0790846 52.5710932,69.0904705 C51.3804529,69.6685471 50.0753763,70.0477282 48.6990448,70.1848273 C49.1274987,71.0702869 49.4884856,72.1539918 49.7281815,73.4755503 C50.5629936,78.0782695 53.4451796,82.053071 58.3747395,85.3999547 C52.4079618,82.0906477 49.0686313,78.5729907 48.3567481,74.8469837 C47.4176475,72.4231863 46.375222,70.8108525 45.2294716,70.0099823 C44.7555603,69.9134515 44.2922198,69.7878445 43.8413937,69.635105 C43.3213744,70.5190941 42.4003873,71.5098398 40.9060271,72.594153 C36.4030609,75.8615218 35.0972935,79.9818304 36.9887248,84.9550787 C36.1839869,83.5427084 35.5968439,82.2236688 35.2272957,80.99796 C34.976226,81.9037131 34.6624364,82.8728041 34.2083523,83.9551905 C31.864788,89.5414729 29.4564803,91.9528366 26.7916725,94.2122245 C25.0448568,95.6932822 22.2373817,96.8104411 18.3692471,97.5637012 C25.0371841,95.5067196 29.6688425,91.3116094 32.2642223,84.9783707 C33.0223962,83.128277 33.3388877,80.8741426 33.7904929,78.8501648 C30.8191585,82.1500737 25.6787432,84.4291494 18.3692471,85.6873919 C24.8563503,83.7668236 29.5127176,80.5351575 32.3383491,75.9923938 C33.7813219,73.6725285 34.9141166,70.8037775 36.6739,68.9203303 C36.6739615,68.8677406 36.6740296,68.811482 36.6740296,68.7513692 C36.6740296,68.4828227 37.622078,68.3137076 37.7760141,67.3308658 C37.8289573,66.9928376 37.8339813,66.5973709 37.8173252,66.1892364 C37.7556863,66.1648519 37.6926013,66.1410303 37.6280703,66.1177715 C37.6898035,66.0982148 37.7509014,66.0788801 37.8113643,66.0597674 C37.7882602,65.6069737 37.742123,65.1445018 37.7082158,64.7325197 C36.6737973,63.0460978 36.0608961,61.0731657 36.016196,58.9604248 C32.7205543,57.2830091 28.8264125,57.1543809 24.3337706,58.5745404 C17.9261645,60.6000352 9.81490763,58.8418539 0,53.2999967 C7.43653723,56.5290244 14.4134575,57.5364403 20.9307608,56.3222445 C25.31054,55.5062767 30.0559516,53.6383621 33.9635932,54.7009053 C34.6197897,54.8793344 35.4648003,55.1096372 36.4986249,55.3918136 C36.8849846,54.1044421 37.49024,52.9117648 38.271154,51.8570239 C34.7597784,45.6204642 30.9971553,43.0368647 26.9832848,44.1062251 C25.5331034,44.492577 23.6579064,43.8180676 22.6802141,43.1607972 C21.5247062,42.3839873 20.5882861,40.0109542 19.8709539,36.0416979 C19.8152509,35.9189746 19.7326665,35.6973962 19.6232007,35.3769628 C19.3003524,34.4319056 18.7979186,33.7326644 18.1158994,33.2792391 L16.2742751,32.2571661 C17.2942226,32.4319297 18.1444467,32.6794827 18.8249474,32.999825 C19.4479109,33.2930819 19.7981795,33.5859268 19.8757532,33.8783598 L20.5361181,29.5436785 C20.5776619,36.4969153 21.7105298,40.6454935 23.9347217,41.9894131 C25.1660943,42.7334432 27.8356358,41.6833881 29.5590583,41.9894131 C33.9458006,42.7683589 37.346582,44.1465216 39.7614025,46.1239013 C40.4356298,46.3708151 41.3084763,46.7444452 42.2619048,46.7444452 C43.5087225,46.7444452 44.3566208,45.5975369 44.8055997,43.3037204 C44.2647855,41.8389461 43.5634901,40.3450725 42.7017134,38.8220996 C38.7186623,31.7830613 37.8515374,21.7538163 40.1003386,8.7343646 C39.626774,14.6699749 39.9158409,20.179578 40.9675394,25.2631738 C41.0002686,25.3019473 41.0339998,25.342421 41.0687636,25.3846322 C41.5535977,25.973332 42.2699546,25.054061 42.9149796,23.9379337 C43.2588127,23.0396246 43.6534547,22.0751834 44.1336644,21.160807 C45.1091199,19.3034236 47.3145565,13.8090104 49.3866768,10.0454258 C50.6186998,7.80770713 52.6662187,4.78247912 55.5292336,0.969741815 C52.926517,5.10058093 51.1025805,8.22486307 50.0574242,10.3425883 C48.058252,14.3933672 46.5316718,19.0431103 45.2332322,22.047463 C44.030006,24.8315093 43.1789193,26.9971888 42.6799722,28.5445015 C42.6103102,28.964509 42.5188265,29.4893041 42.5188265,30.0585998 C42.5188265,30.4889976 42.5711153,30.8939605 42.626732,31.2474377 C42.9834108,32.2584913 43.3748245,33.2501419 43.8009731,34.2223896 C45.4413446,37.964857 47.7264185,41.7980782 48.8386647,45.5544912 C49.7176782,46.1221998 50.881054,47.0620795 51.7981902,47.0620795 C52.6046341,47.0620795 53.6014655,46.3353834 54.4279482,45.7740048 C55.2695507,44.7999328 55.9672551,43.5759471 56.5210614,42.1020479 C57.3147177,39.9898123 58.7463856,38.2109063 60.816065,36.7653297 C60.938125,36.4194663 61.0401546,36.0940652 61.1158707,35.8098998 C61.6446188,33.8254866 61.2631964,33.004282 62.0857486,30.7542385 C64.4695652,24.2334471 66.9192372,21.418695 69.6298149,18.7813423 C71.4066334,17.0525237 74.2623288,15.7484793 78.1969012,14.869209 C71.4144379,17.2702957 66.7032276,22.1671908 64.0632703,29.5598942 C63.3613566,31.5254714 63.391669,33.4444036 63.1984178,35.3821733 C66.1856135,33.9379555 70.0750301,32.9651036 74.8666677,32.4636176 C67.9254012,34.0744301 63.0821261,37.2546708 60.3368424,42.0043396 C58.7284572,44.7870382 57.6202038,48.3894511 55.2925523,50.175052 C56.6058771,51.3683447 57.6427031,52.8606192 58.2955462,54.5443784 C59.6761301,54.3683124 62.8995492,55.0136983 65.2160836,59.9187532 C67.2137215,64.1485733 71.0264537,67.2419721 76.6542802,69.1989495 C70.0343039,67.54672 65.8983217,65.0132066 64.2463337,61.5984093 C62.3294665,58.977314 60.5846056,57.6211737 59.0117511,57.5299883 C59.0513005,57.9185212 59.0715616,58.31276 59.0715616,58.7117315 C59.0715616,61.5453823 58.0495108,64.1402916 56.3539783,66.1478486 C57.5052601,66.7127875 58.4080668,67.1563518 59.0623985,67.4785416 C61.8337564,68.8431448 63.2041008,72.4388862 64.9257466,75.3971374 C67.1784626,76.463235 70.0820378,76.2613539 73.6364721,74.7914941 C76.9867454,72.6601868 82.1632552,72.534091 89.1660016,74.4132065 C82.9179091,73.2940854 77.7413992,74.0666812 73.6364721,76.7309939 C71.130538,78.3574763 69.0223881,78.8359665 67.4151671,78.801444 C70.2473901,81.8942259 74.1931454,84.1895419 79.2524329,85.6873919 C75.8097844,85.0947811 72.8482922,84.2757239 70.3679564,83.2302203 C70.975927,85.6721954 72.3309663,87.7153814 74.227242,89.7430701 C75.1424668,90.7217205 76.8127199,92.1559875 79.2380011,94.0458712 C73.3634446,90.2147249 69.9884782,86.4997809 69.1131019,82.9010391 C68.9962932,82.7543119 68.8882602,82.621082 68.7890027,82.5013495 Z" id="Combined-Shape" fill="#F26D6D"></path>
                    <ellipse id="nucleus" fill="#FFFFFF" cx="53.8840117" cy="57.6273887" rx="3.19233839" ry="4.99068901"></ellipse>
                </g>
                <g id="neuronv1.0" transform="translate(117.770401, 28.895100) scale(-1, 1) rotate(30.000000) translate(-117.770401, -28.895100) translate(97.770401, 7.076918)">
                    <path d="M30.5728901,36.6672664 C29.0331879,35.8889622 27.9928932,34.8756221 27.452006,33.6272461 C26.606269,31.6752722 25.2439105,30.7018154 23.3649303,30.7068758 C22.8357568,30.9637987 22.2557228,31.1323236 21.6440199,31.1932566 C21.8344438,31.5867942 21.9948825,32.0684408 22.101414,32.6558001 C22.4724416,34.7014531 23.7534132,36.4680316 25.9443287,37.9555354 C23.2924275,36.4847323 21.8082806,34.9213292 21.491888,33.2653261 C21.07451,32.1880828 20.6112098,31.47149 20.1019874,31.1155477 C19.8913601,31.0726451 19.685431,31.0168198 19.4850639,30.9489356 C19.2539442,31.3418196 18.8446166,31.782151 18.1804565,32.264068 C16.1791382,33.7162319 15.5987971,35.5474802 16.4394333,37.7578128 C16.081772,37.1300926 15.8208195,36.5438528 15.6565759,35.9990933 C15.5449893,36.4016503 15.4055273,36.8323574 15.2037121,37.313418 C14.162128,39.7962102 13.091769,40.8679274 11.90741,41.8720998 C11.1310475,42.5303476 9.88328074,43.0268627 8.16410984,43.361645 C11.1276374,42.4474309 13.1861522,40.5829375 14.3396544,37.7681648 C14.6766205,36.9459009 14.8172834,35.9440634 15.0179969,35.0445177 C13.6974038,36.5111439 11.4127748,37.5240664 8.16410984,38.0832853 C11.0472668,37.2296994 13.1167634,35.7934033 14.3725996,33.7743972 C15.0139209,32.743346 15.5173852,31.4683456 16.2995111,30.6312579 C16.2995384,30.6078847 16.2995687,30.5828809 16.2995687,30.5561641 C16.2995687,30.4368101 16.7209235,30.3616478 16.7893396,29.9248293 C16.8128699,29.7745945 16.8151028,29.5988315 16.8077001,29.4174384 C16.780305,29.4066009 16.7522673,29.3960135 16.7235868,29.3856762 C16.7510238,29.3769843 16.7781784,29.3683911 16.8050508,29.3598966 C16.7947823,29.158655 16.7742769,28.9531119 16.759207,28.7700087 C16.2994655,28.0204879 16.027065,27.1436292 16.0071982,26.2046332 C14.5424686,25.4591151 12.8117389,25.4019471 10.8150092,26.0331291 C7.96718422,26.933349 4.36218117,26.1519351 0,23.6888874 C3.30512766,25.1240108 6.4059811,25.5717513 9.30256035,25.0321087 C11.2491289,24.6694563 13.3582007,23.839272 15.0949303,24.3115135 C15.3865732,24.3908153 15.7621334,24.4931721 16.2216111,24.6185838 C16.3933265,24.0464187 16.6623289,23.5163399 17.0094018,23.0475662 C15.4487904,20.2757619 13.7765135,19.1274954 11.992571,19.6027667 C11.348046,19.7744787 10.5146251,19.4746967 10.0800951,19.1825766 C9.56653608,18.8373277 9.15034938,17.7826463 8.83153506,16.0185324 C8.80677817,15.9639887 8.770074,15.8655094 8.72142255,15.7230946 C8.57793438,15.3030692 8.35463048,14.9922953 8.05151085,14.7907729 L7.23301114,14.3365183 C7.68632113,14.414191 8.06419852,14.5242145 8.36664329,14.6665889 C8.64351594,14.7969253 8.79919088,14.9270786 8.83366811,15.0570488 L9.12716359,13.1305238 C9.14562752,16.2208513 9.64912435,18.0646638 10.6376541,18.6619614 C11.1849308,18.9926414 12.3713937,18.5259503 13.1373592,18.6619614 C15.0870225,19.0081595 16.5984809,19.6206763 17.6717344,20.4995117 C17.971391,20.6092512 18.3593228,20.775309 18.7830688,20.775309 C19.33721,20.775309 19.7140537,20.265572 19.9135999,19.2460979 C19.673238,18.5950872 19.3615511,17.9311434 18.9785393,17.2542665 C17.2082943,14.125805 16.8229055,9.66836281 17.8223727,3.88193982 C17.6118995,6.51998885 17.7403737,8.96870132 18.2077953,11.2280772 C18.2223416,11.2453099 18.2373333,11.2632982 18.2527838,11.2820588 C18.4682656,11.5437031 18.7866465,11.1351382 19.0733243,10.6390816 C19.226139,10.2398331 19.4015354,9.81119262 19.614962,9.4048031 C20.0484977,8.57929937 21.0286918,6.13733794 21.9496342,4.46463371 C22.4971999,3.47009206 23.4072083,2.12554628 24.6796594,0.430996362 C23.5228964,2.26692486 22.712258,3.6554947 22.2477441,4.59670589 C21.3592231,6.39705208 20.680743,8.46360458 20.1036588,9.79887243 C19.5688915,11.0362264 19.1906308,11.9987506 18.9688765,12.6864451 C18.9379157,12.8731151 18.8972562,13.1063574 18.8972562,13.3593777 C18.8972562,13.5506656 18.9204957,13.7306491 18.9452142,13.8877501 C19.1037381,14.3371072 19.2776998,14.7778409 19.4670992,15.2099509 C20.1961532,16.8732698 21.2117416,18.5769236 21.7060732,20.2464406 C22.0967459,20.4987555 22.6138018,20.9164798 23.0214179,20.9164798 C23.3798374,20.9164798 23.8228736,20.5935037 24.1901992,20.3440021 C24.5642448,19.9110812 24.8743356,19.3670876 25.1204717,18.7120213 C25.4732079,17.7732499 26.1095047,16.982625 27.0293622,16.3401465 C27.0836111,16.1864295 27.1289576,16.0418068 27.1626092,15.915511 C27.3976084,15.0335496 27.2280873,14.6685698 27.593666,13.6685504 C28.6531401,10.7704209 29.7418832,9.51941998 30.9465844,8.34726323 C31.7362815,7.57889942 33.0054795,6.99932413 34.7541783,6.60853734 C31.7397502,7.675687 29.6458789,9.8520848 28.4725646,13.1377308 C28.1606029,14.0113206 28.1740751,14.8641794 28.0881857,15.7254103 C29.4158282,15.0835358 31.1444578,14.6511572 33.2740745,14.4282745 C30.1890672,15.1441912 28.0365005,16.5576315 26.8163744,18.6685954 C26.1015365,19.9053503 25.6089795,21.5064227 24.5744677,22.3000231 C25.1581676,22.8303754 25.6189791,23.4936085 25.9091316,24.241946 C26.5227245,24.1636944 27.9553552,24.4505326 28.984926,26.630557 C29.8727651,28.510477 31.5673128,29.8853209 34.068569,30.7550887 C31.1263573,30.0207645 29.288143,28.8947585 28.5539261,27.3770708 C27.7019851,26.2121396 26.9264914,25.6094105 26.2274449,25.5688837 C26.2450224,25.741565 26.2540274,25.9167822 26.2540274,26.0941029 C26.2540274,27.3535032 25.7997826,28.5067963 25.0462126,29.3990438 C25.5578934,29.6501278 25.9591408,29.8472675 26.2499549,29.9904629 C27.4816695,30.5969533 28.0907115,32.1950605 28.8558874,33.5098388 C29.8570945,33.98366 31.1475723,33.8939351 32.7273209,33.2406641 C34.2163313,32.2934164 36.5170023,32.2373738 39.629334,33.0725362 C36.852404,32.5751491 34.551733,32.918525 32.7273209,34.1026639 C31.6135724,34.825545 30.6766169,35.0382073 29.9622965,35.022864 C31.2210623,36.3974338 32.9747313,37.4175742 35.2233035,38.0832853 C33.6932375,37.8199027 32.3770188,37.4558773 31.2746473,36.991209 C31.5448564,38.0765313 32.1470961,38.9846139 32.9898853,39.8858089 C33.3966519,40.3207647 34.1389866,40.9582167 35.2168894,41.798165 C32.6059754,40.0954333 31.1059903,38.4443471 30.7169342,36.8449063 C30.6650192,36.7796942 30.6170045,36.7204809 30.5728901,36.6672664 Z" id="Combined-Shape" fill="#F26D6D"></path>
                    <ellipse id="nucleus" fill="#FFFFFF" cx="23.9484496" cy="25.6121728" rx="1.41881706" ry="2.21808401"></ellipse>
                </g>
                <g id="neuronv1.0" transform="translate(118.229599, 133.895100) scale(-1, -1) rotate(30.000000) translate(-118.229599, -133.895100) translate(98.229599, 112.076918)">
                    <path d="M30.5728901,36.6672664 C29.0331879,35.8889622 27.9928932,34.8756221 27.452006,33.6272461 C26.606269,31.6752722 25.2439105,30.7018154 23.3649303,30.7068758 C22.8357568,30.9637987 22.2557228,31.1323236 21.6440199,31.1932566 C21.8344438,31.5867942 21.9948825,32.0684408 22.101414,32.6558001 C22.4724416,34.7014531 23.7534132,36.4680316 25.9443287,37.9555354 C23.2924275,36.4847323 21.8082806,34.9213292 21.491888,33.2653261 C21.07451,32.1880828 20.6112098,31.47149 20.1019874,31.1155477 C19.8913601,31.0726451 19.685431,31.0168198 19.4850639,30.9489356 C19.2539442,31.3418196 18.8446166,31.782151 18.1804565,32.264068 C16.1791382,33.7162319 15.5987971,35.5474802 16.4394333,37.7578128 C16.081772,37.1300926 15.8208195,36.5438528 15.6565759,35.9990933 C15.5449893,36.4016503 15.4055273,36.8323574 15.2037121,37.313418 C14.162128,39.7962102 13.091769,40.8679274 11.90741,41.8720998 C11.1310475,42.5303476 9.88328074,43.0268627 8.16410984,43.361645 C11.1276374,42.4474309 13.1861522,40.5829375 14.3396544,37.7681648 C14.6766205,36.9459009 14.8172834,35.9440634 15.0179969,35.0445177 C13.6974038,36.5111439 11.4127748,37.5240664 8.16410984,38.0832853 C11.0472668,37.2296994 13.1167634,35.7934033 14.3725996,33.7743972 C15.0139209,32.743346 15.5173852,31.4683456 16.2995111,30.6312579 C16.2995384,30.6078847 16.2995687,30.5828809 16.2995687,30.5561641 C16.2995687,30.4368101 16.7209235,30.3616478 16.7893396,29.9248293 C16.8128699,29.7745945 16.8151028,29.5988315 16.8077001,29.4174384 C16.780305,29.4066009 16.7522673,29.3960135 16.7235868,29.3856762 C16.7510238,29.3769843 16.7781784,29.3683911 16.8050508,29.3598966 C16.7947823,29.158655 16.7742769,28.9531119 16.759207,28.7700087 C16.2994655,28.0204879 16.027065,27.1436292 16.0071982,26.2046332 C14.5424686,25.4591151 12.8117389,25.4019471 10.8150092,26.0331291 C7.96718422,26.933349 4.36218117,26.1519351 0,23.6888874 C3.30512766,25.1240108 6.4059811,25.5717513 9.30256035,25.0321087 C11.2491289,24.6694563 13.3582007,23.839272 15.0949303,24.3115135 C15.3865732,24.3908153 15.7621334,24.4931721 16.2216111,24.6185838 C16.3933265,24.0464187 16.6623289,23.5163399 17.0094018,23.0475662 C15.4487904,20.2757619 13.7765135,19.1274954 11.992571,19.6027667 C11.348046,19.7744787 10.5146251,19.4746967 10.0800951,19.1825766 C9.56653608,18.8373277 9.15034938,17.7826463 8.83153506,16.0185324 C8.80677817,15.9639887 8.770074,15.8655094 8.72142255,15.7230946 C8.57793438,15.3030692 8.35463048,14.9922953 8.05151085,14.7907729 L7.23301114,14.3365183 C7.68632113,14.414191 8.06419852,14.5242145 8.36664329,14.6665889 C8.64351594,14.7969253 8.79919088,14.9270786 8.83366811,15.0570488 L9.12716359,13.1305238 C9.14562752,16.2208513 9.64912435,18.0646638 10.6376541,18.6619614 C11.1849308,18.9926414 12.3713937,18.5259503 13.1373592,18.6619614 C15.0870225,19.0081595 16.5984809,19.6206763 17.6717344,20.4995117 C17.971391,20.6092512 18.3593228,20.775309 18.7830688,20.775309 C19.33721,20.775309 19.7140537,20.265572 19.9135999,19.2460979 C19.673238,18.5950872 19.3615511,17.9311434 18.9785393,17.2542665 C17.2082943,14.125805 16.8229055,9.66836281 17.8223727,3.88193982 C17.6118995,6.51998885 17.7403737,8.96870132 18.2077953,11.2280772 C18.2223416,11.2453099 18.2373333,11.2632982 18.2527838,11.2820588 C18.4682656,11.5437031 18.7866465,11.1351382 19.0733243,10.6390816 C19.226139,10.2398331 19.4015354,9.81119262 19.614962,9.4048031 C20.0484977,8.57929937 21.0286918,6.13733794 21.9496342,4.46463371 C22.4971999,3.47009206 23.4072083,2.12554628 24.6796594,0.430996362 C23.5228964,2.26692486 22.712258,3.6554947 22.2477441,4.59670589 C21.3592231,6.39705208 20.680743,8.46360458 20.1036588,9.79887243 C19.5688915,11.0362264 19.1906308,11.9987506 18.9688765,12.6864451 C18.9379157,12.8731151 18.8972562,13.1063574 18.8972562,13.3593777 C18.8972562,13.5506656 18.9204957,13.7306491 18.9452142,13.8877501 C19.1037381,14.3371072 19.2776998,14.7778409 19.4670992,15.2099509 C20.1961532,16.8732698 21.2117416,18.5769236 21.7060732,20.2464406 C22.0967459,20.4987555 22.6138018,20.9164798 23.0214179,20.9164798 C23.3798374,20.9164798 23.8228736,20.5935037 24.1901992,20.3440021 C24.5642448,19.9110812 24.8743356,19.3670876 25.1204717,18.7120213 C25.4732079,17.7732499 26.1095047,16.982625 27.0293622,16.3401465 C27.0836111,16.1864295 27.1289576,16.0418068 27.1626092,15.915511 C27.3976084,15.0335496 27.2280873,14.6685698 27.593666,13.6685504 C28.6531401,10.7704209 29.7418832,9.51941998 30.9465844,8.34726323 C31.7362815,7.57889942 33.0054795,6.99932413 34.7541783,6.60853734 C31.7397502,7.675687 29.6458789,9.8520848 28.4725646,13.1377308 C28.1606029,14.0113206 28.1740751,14.8641794 28.0881857,15.7254103 C29.4158282,15.0835358 31.1444578,14.6511572 33.2740745,14.4282745 C30.1890672,15.1441912 28.0365005,16.5576315 26.8163744,18.6685954 C26.1015365,19.9053503 25.6089795,21.5064227 24.5744677,22.3000231 C25.1581676,22.8303754 25.6189791,23.4936085 25.9091316,24.241946 C26.5227245,24.1636944 27.9553552,24.4505326 28.984926,26.630557 C29.8727651,28.510477 31.5673128,29.8853209 34.068569,30.7550887 C31.1263573,30.0207645 29.288143,28.8947585 28.5539261,27.3770708 C27.7019851,26.2121396 26.9264914,25.6094105 26.2274449,25.5688837 C26.2450224,25.741565 26.2540274,25.9167822 26.2540274,26.0941029 C26.2540274,27.3535032 25.7997826,28.5067963 25.0462126,29.3990438 C25.5578934,29.6501278 25.9591408,29.8472675 26.2499549,29.9904629 C27.4816695,30.5969533 28.0907115,32.1950605 28.8558874,33.5098388 C29.8570945,33.98366 31.1475723,33.8939351 32.7273209,33.2406641 C34.2163313,32.2934164 36.5170023,32.2373738 39.629334,33.0725362 C36.852404,32.5751491 34.551733,32.918525 32.7273209,34.1026639 C31.6135724,34.825545 30.6766169,35.0382073 29.9622965,35.022864 C31.2210623,36.3974338 32.9747313,37.4175742 35.2233035,38.0832853 C33.6932375,37.8199027 32.3770188,37.4558773 31.2746473,36.991209 C31.5448564,38.0765313 32.1470961,38.9846139 32.9898853,39.8858089 C33.3966519,40.3207647 34.1389866,40.9582167 35.2168894,41.798165 C32.6059754,40.0954333 31.1059903,38.4443471 30.7169342,36.8449063 C30.6650192,36.7796942 30.6170045,36.7204809 30.5728901,36.6672664 Z" id="Combined-Shape" fill="#F26D6D"></path>
                    <ellipse id="nucleus" fill="#FFFFFF" cx="23.9484496" cy="25.6121728" rx="1.41881706" ry="2.21808401"></ellipse>
                </g>
                <g id="neuronv1.0" transform="translate(28.229599, 133.895100) scale(1, -1) rotate(30.000000) translate(-28.229599, -133.895100) translate(8.229599, 112.076918)">
                    <path d="M30.5728901,36.6672664 C29.0331879,35.8889622 27.9928932,34.8756221 27.452006,33.6272461 C26.606269,31.6752722 25.2439105,30.7018154 23.3649303,30.7068758 C22.8357568,30.9637987 22.2557228,31.1323236 21.6440199,31.1932566 C21.8344438,31.5867942 21.9948825,32.0684408 22.101414,32.6558001 C22.4724416,34.7014531 23.7534132,36.4680316 25.9443287,37.9555354 C23.2924275,36.4847323 21.8082806,34.9213292 21.491888,33.2653261 C21.07451,32.1880828 20.6112098,31.47149 20.1019874,31.1155477 C19.8913601,31.0726451 19.685431,31.0168198 19.4850639,30.9489356 C19.2539442,31.3418196 18.8446166,31.782151 18.1804565,32.264068 C16.1791382,33.7162319 15.5987971,35.5474802 16.4394333,37.7578128 C16.081772,37.1300926 15.8208195,36.5438528 15.6565759,35.9990933 C15.5449893,36.4016503 15.4055273,36.8323574 15.2037121,37.313418 C14.162128,39.7962102 13.091769,40.8679274 11.90741,41.8720998 C11.1310475,42.5303476 9.88328074,43.0268627 8.16410984,43.361645 C11.1276374,42.4474309 13.1861522,40.5829375 14.3396544,37.7681648 C14.6766205,36.9459009 14.8172834,35.9440634 15.0179969,35.0445177 C13.6974038,36.5111439 11.4127748,37.5240664 8.16410984,38.0832853 C11.0472668,37.2296994 13.1167634,35.7934033 14.3725996,33.7743972 C15.0139209,32.743346 15.5173852,31.4683456 16.2995111,30.6312579 C16.2995384,30.6078847 16.2995687,30.5828809 16.2995687,30.5561641 C16.2995687,30.4368101 16.7209235,30.3616478 16.7893396,29.9248293 C16.8128699,29.7745945 16.8151028,29.5988315 16.8077001,29.4174384 C16.780305,29.4066009 16.7522673,29.3960135 16.7235868,29.3856762 C16.7510238,29.3769843 16.7781784,29.3683911 16.8050508,29.3598966 C16.7947823,29.158655 16.7742769,28.9531119 16.759207,28.7700087 C16.2994655,28.0204879 16.027065,27.1436292 16.0071982,26.2046332 C14.5424686,25.4591151 12.8117389,25.4019471 10.8150092,26.0331291 C7.96718422,26.933349 4.36218117,26.1519351 0,23.6888874 C3.30512766,25.1240108 6.4059811,25.5717513 9.30256035,25.0321087 C11.2491289,24.6694563 13.3582007,23.839272 15.0949303,24.3115135 C15.3865732,24.3908153 15.7621334,24.4931721 16.2216111,24.6185838 C16.3933265,24.0464187 16.6623289,23.5163399 17.0094018,23.0475662 C15.4487904,20.2757619 13.7765135,19.1274954 11.992571,19.6027667 C11.348046,19.7744787 10.5146251,19.4746967 10.0800951,19.1825766 C9.56653608,18.8373277 9.15034938,17.7826463 8.83153506,16.0185324 C8.80677817,15.9639887 8.770074,15.8655094 8.72142255,15.7230946 C8.57793438,15.3030692 8.35463048,14.9922953 8.05151085,14.7907729 L7.23301114,14.3365183 C7.68632113,14.414191 8.06419852,14.5242145 8.36664329,14.6665889 C8.64351594,14.7969253 8.79919088,14.9270786 8.83366811,15.0570488 L9.12716359,13.1305238 C9.14562752,16.2208513 9.64912435,18.0646638 10.6376541,18.6619614 C11.1849308,18.9926414 12.3713937,18.5259503 13.1373592,18.6619614 C15.0870225,19.0081595 16.5984809,19.6206763 17.6717344,20.4995117 C17.971391,20.6092512 18.3593228,20.775309 18.7830688,20.775309 C19.33721,20.775309 19.7140537,20.265572 19.9135999,19.2460979 C19.673238,18.5950872 19.3615511,17.9311434 18.9785393,17.2542665 C17.2082943,14.125805 16.8229055,9.66836281 17.8223727,3.88193982 C17.6118995,6.51998885 17.7403737,8.96870132 18.2077953,11.2280772 C18.2223416,11.2453099 18.2373333,11.2632982 18.2527838,11.2820588 C18.4682656,11.5437031 18.7866465,11.1351382 19.0733243,10.6390816 C19.226139,10.2398331 19.4015354,9.81119262 19.614962,9.4048031 C20.0484977,8.57929937 21.0286918,6.13733794 21.9496342,4.46463371 C22.4971999,3.47009206 23.4072083,2.12554628 24.6796594,0.430996362 C23.5228964,2.26692486 22.712258,3.6554947 22.2477441,4.59670589 C21.3592231,6.39705208 20.680743,8.46360458 20.1036588,9.79887243 C19.5688915,11.0362264 19.1906308,11.9987506 18.9688765,12.6864451 C18.9379157,12.8731151 18.8972562,13.1063574 18.8972562,13.3593777 C18.8972562,13.5506656 18.9204957,13.7306491 18.9452142,13.8877501 C19.1037381,14.3371072 19.2776998,14.7778409 19.4670992,15.2099509 C20.1961532,16.8732698 21.2117416,18.5769236 21.7060732,20.2464406 C22.0967459,20.4987555 22.6138018,20.9164798 23.0214179,20.9164798 C23.3798374,20.9164798 23.8228736,20.5935037 24.1901992,20.3440021 C24.5642448,19.9110812 24.8743356,19.3670876 25.1204717,18.7120213 C25.4732079,17.7732499 26.1095047,16.982625 27.0293622,16.3401465 C27.0836111,16.1864295 27.1289576,16.0418068 27.1626092,15.915511 C27.3976084,15.0335496 27.2280873,14.6685698 27.593666,13.6685504 C28.6531401,10.7704209 29.7418832,9.51941998 30.9465844,8.34726323 C31.7362815,7.57889942 33.0054795,6.99932413 34.7541783,6.60853734 C31.7397502,7.675687 29.6458789,9.8520848 28.4725646,13.1377308 C28.1606029,14.0113206 28.1740751,14.8641794 28.0881857,15.7254103 C29.4158282,15.0835358 31.1444578,14.6511572 33.2740745,14.4282745 C30.1890672,15.1441912 28.0365005,16.5576315 26.8163744,18.6685954 C26.1015365,19.9053503 25.6089795,21.5064227 24.5744677,22.3000231 C25.1581676,22.8303754 25.6189791,23.4936085 25.9091316,24.241946 C26.5227245,24.1636944 27.9553552,24.4505326 28.984926,26.630557 C29.8727651,28.510477 31.5673128,29.8853209 34.068569,30.7550887 C31.1263573,30.0207645 29.288143,28.8947585 28.5539261,27.3770708 C27.7019851,26.2121396 26.9264914,25.6094105 26.2274449,25.5688837 C26.2450224,25.741565 26.2540274,25.9167822 26.2540274,26.0941029 C26.2540274,27.3535032 25.7997826,28.5067963 25.0462126,29.3990438 C25.5578934,29.6501278 25.9591408,29.8472675 26.2499549,29.9904629 C27.4816695,30.5969533 28.0907115,32.1950605 28.8558874,33.5098388 C29.8570945,33.98366 31.1475723,33.8939351 32.7273209,33.2406641 C34.2163313,32.2934164 36.5170023,32.2373738 39.629334,33.0725362 C36.852404,32.5751491 34.551733,32.918525 32.7273209,34.1026639 C31.6135724,34.825545 30.6766169,35.0382073 29.9622965,35.022864 C31.2210623,36.3974338 32.9747313,37.4175742 35.2233035,38.0832853 C33.6932375,37.8199027 32.3770188,37.4558773 31.2746473,36.991209 C31.5448564,38.0765313 32.1470961,38.9846139 32.9898853,39.8858089 C33.3966519,40.3207647 34.1389866,40.9582167 35.2168894,41.798165 C32.6059754,40.0954333 31.1059903,38.4443471 30.7169342,36.8449063 C30.6650192,36.7796942 30.6170045,36.7204809 30.5728901,36.6672664 Z" id="Combined-Shape" fill="#F26D6D"></path>
                    <ellipse id="nucleus" fill="#FFFFFF" cx="23.9484496" cy="25.6121728" rx="1.41881706" ry="2.21808401"></ellipse>
                </g>
                <g id="neuronv1.0" transform="translate(28.229599, 28.895100) rotate(30.000000) translate(-28.229599, -28.895100) translate(8.229599, 7.076918)">
                    <path d="M30.5728901,36.6672664 C29.0331879,35.8889622 27.9928932,34.8756221 27.452006,33.6272461 C26.606269,31.6752722 25.2439105,30.7018154 23.3649303,30.7068758 C22.8357568,30.9637987 22.2557228,31.1323236 21.6440199,31.1932566 C21.8344438,31.5867942 21.9948825,32.0684408 22.101414,32.6558001 C22.4724416,34.7014531 23.7534132,36.4680316 25.9443287,37.9555354 C23.2924275,36.4847323 21.8082806,34.9213292 21.491888,33.2653261 C21.07451,32.1880828 20.6112098,31.47149 20.1019874,31.1155477 C19.8913601,31.0726451 19.685431,31.0168198 19.4850639,30.9489356 C19.2539442,31.3418196 18.8446166,31.782151 18.1804565,32.264068 C16.1791382,33.7162319 15.5987971,35.5474802 16.4394333,37.7578128 C16.081772,37.1300926 15.8208195,36.5438528 15.6565759,35.9990933 C15.5449893,36.4016503 15.4055273,36.8323574 15.2037121,37.313418 C14.162128,39.7962102 13.091769,40.8679274 11.90741,41.8720998 C11.1310475,42.5303476 9.88328074,43.0268627 8.16410984,43.361645 C11.1276374,42.4474309 13.1861522,40.5829375 14.3396544,37.7681648 C14.6766205,36.9459009 14.8172834,35.9440634 15.0179969,35.0445177 C13.6974038,36.5111439 11.4127748,37.5240664 8.16410984,38.0832853 C11.0472668,37.2296994 13.1167634,35.7934033 14.3725996,33.7743972 C15.0139209,32.743346 15.5173852,31.4683456 16.2995111,30.6312579 C16.2995384,30.6078847 16.2995687,30.5828809 16.2995687,30.5561641 C16.2995687,30.4368101 16.7209235,30.3616478 16.7893396,29.9248293 C16.8128699,29.7745945 16.8151028,29.5988315 16.8077001,29.4174384 C16.780305,29.4066009 16.7522673,29.3960135 16.7235868,29.3856762 C16.7510238,29.3769843 16.7781784,29.3683911 16.8050508,29.3598966 C16.7947823,29.158655 16.7742769,28.9531119 16.759207,28.7700087 C16.2994655,28.0204879 16.027065,27.1436292 16.0071982,26.2046332 C14.5424686,25.4591151 12.8117389,25.4019471 10.8150092,26.0331291 C7.96718422,26.933349 4.36218117,26.1519351 0,23.6888874 C3.30512766,25.1240108 6.4059811,25.5717513 9.30256035,25.0321087 C11.2491289,24.6694563 13.3582007,23.839272 15.0949303,24.3115135 C15.3865732,24.3908153 15.7621334,24.4931721 16.2216111,24.6185838 C16.3933265,24.0464187 16.6623289,23.5163399 17.0094018,23.0475662 C15.4487904,20.2757619 13.7765135,19.1274954 11.992571,19.6027667 C11.348046,19.7744787 10.5146251,19.4746967 10.0800951,19.1825766 C9.56653608,18.8373277 9.15034938,17.7826463 8.83153506,16.0185324 C8.80677817,15.9639887 8.770074,15.8655094 8.72142255,15.7230946 C8.57793438,15.3030692 8.35463048,14.9922953 8.05151085,14.7907729 L7.23301114,14.3365183 C7.68632113,14.414191 8.06419852,14.5242145 8.36664329,14.6665889 C8.64351594,14.7969253 8.79919088,14.9270786 8.83366811,15.0570488 L9.12716359,13.1305238 C9.14562752,16.2208513 9.64912435,18.0646638 10.6376541,18.6619614 C11.1849308,18.9926414 12.3713937,18.5259503 13.1373592,18.6619614 C15.0870225,19.0081595 16.5984809,19.6206763 17.6717344,20.4995117 C17.971391,20.6092512 18.3593228,20.775309 18.7830688,20.775309 C19.33721,20.775309 19.7140537,20.265572 19.9135999,19.2460979 C19.673238,18.5950872 19.3615511,17.9311434 18.9785393,17.2542665 C17.2082943,14.125805 16.8229055,9.66836281 17.8223727,3.88193982 C17.6118995,6.51998885 17.7403737,8.96870132 18.2077953,11.2280772 C18.2223416,11.2453099 18.2373333,11.2632982 18.2527838,11.2820588 C18.4682656,11.5437031 18.7866465,11.1351382 19.0733243,10.6390816 C19.226139,10.2398331 19.4015354,9.81119262 19.614962,9.4048031 C20.0484977,8.57929937 21.0286918,6.13733794 21.9496342,4.46463371 C22.4971999,3.47009206 23.4072083,2.12554628 24.6796594,0.430996362 C23.5228964,2.26692486 22.712258,3.6554947 22.2477441,4.59670589 C21.3592231,6.39705208 20.680743,8.46360458 20.1036588,9.79887243 C19.5688915,11.0362264 19.1906308,11.9987506 18.9688765,12.6864451 C18.9379157,12.8731151 18.8972562,13.1063574 18.8972562,13.3593777 C18.8972562,13.5506656 18.9204957,13.7306491 18.9452142,13.8877501 C19.1037381,14.3371072 19.2776998,14.7778409 19.4670992,15.2099509 C20.1961532,16.8732698 21.2117416,18.5769236 21.7060732,20.2464406 C22.0967459,20.4987555 22.6138018,20.9164798 23.0214179,20.9164798 C23.3798374,20.9164798 23.8228736,20.5935037 24.1901992,20.3440021 C24.5642448,19.9110812 24.8743356,19.3670876 25.1204717,18.7120213 C25.4732079,17.7732499 26.1095047,16.982625 27.0293622,16.3401465 C27.0836111,16.1864295 27.1289576,16.0418068 27.1626092,15.915511 C27.3976084,15.0335496 27.2280873,14.6685698 27.593666,13.6685504 C28.6531401,10.7704209 29.7418832,9.51941998 30.9465844,8.34726323 C31.7362815,7.57889942 33.0054795,6.99932413 34.7541783,6.60853734 C31.7397502,7.675687 29.6458789,9.8520848 28.4725646,13.1377308 C28.1606029,14.0113206 28.1740751,14.8641794 28.0881857,15.7254103 C29.4158282,15.0835358 31.1444578,14.6511572 33.2740745,14.4282745 C30.1890672,15.1441912 28.0365005,16.5576315 26.8163744,18.6685954 C26.1015365,19.9053503 25.6089795,21.5064227 24.5744677,22.3000231 C25.1581676,22.8303754 25.6189791,23.4936085 25.9091316,24.241946 C26.5227245,24.1636944 27.9553552,24.4505326 28.984926,26.630557 C29.8727651,28.510477 31.5673128,29.8853209 34.068569,30.7550887 C31.1263573,30.0207645 29.288143,28.8947585 28.5539261,27.3770708 C27.7019851,26.2121396 26.9264914,25.6094105 26.2274449,25.5688837 C26.2450224,25.741565 26.2540274,25.9167822 26.2540274,26.0941029 C26.2540274,27.3535032 25.7997826,28.5067963 25.0462126,29.3990438 C25.5578934,29.6501278 25.9591408,29.8472675 26.2499549,29.9904629 C27.4816695,30.5969533 28.0907115,32.1950605 28.8558874,33.5098388 C29.8570945,33.98366 31.1475723,33.8939351 32.7273209,33.2406641 C34.2163313,32.2934164 36.5170023,32.2373738 39.629334,33.0725362 C36.852404,32.5751491 34.551733,32.918525 32.7273209,34.1026639 C31.6135724,34.825545 30.6766169,35.0382073 29.9622965,35.022864 C31.2210623,36.3974338 32.9747313,37.4175742 35.2233035,38.0832853 C33.6932375,37.8199027 32.3770188,37.4558773 31.2746473,36.991209 C31.5448564,38.0765313 32.1470961,38.9846139 32.9898853,39.8858089 C33.3966519,40.3207647 34.1389866,40.9582167 35.2168894,41.798165 C32.6059754,40.0954333 31.1059903,38.4443471 30.7169342,36.8449063 C30.6650192,36.7796942 30.6170045,36.7204809 30.5728901,36.6672664 Z" id="Combined-Shape" fill="#F26D6D"></path>
                    <ellipse id="nucleus" fill="#FFFFFF" cx="23.9484496" cy="25.6121728" rx="1.41881706" ry="2.21808401"></ellipse>
                </g>
            </g>
        </g>
    </g>
</svg>