<?xml version="1.0" encoding="UTF-8"?>
<svg width="512px" height="512px" viewBox="0 0 512 512" version="1.1" xmlns="http://www.w3.org/2000/svg" xmlns:xlink="http://www.w3.org/1999/xlink">
    <!-- Generator: Sketch 51 (57462) - http://www.bohemiancoding.com/sketch -->
    <title>logo</title>
    <desc>Created with Sketch.</desc>
    <defs>
        <linearGradient x1="0%" y1="0%" x2="100%" y2="100%" id="linearGradient-1">
            <stop stop-color="#EC1943" stop-opacity="0.5" offset="0%"></stop>
            <stop stop-color="#FFBB58" stop-opacity="0.5" offset="100%"></stop>
        </linearGradient>
    </defs>
    <g id="Page-1" stroke="none" stroke-width="1" fill="none" fill-rule="evenodd">
        <g id="logo">
            <rect id="Rectangle" fill="url(#linearGradient-1)" fill-rule="nonzero" x="0" y="0" width="512" height="512" rx="51"></rect>
            <g id="Group" transform="translate(32.000000, 32.000000)" fill="#FFFFFF">
                <path d="M384.931765,0.297333801 C388.702268,-1.38956435 401.157187,4.6089329 402.541278,5.57302001 C403.925368,6.53710712 405.557383,8.83740213 400.017549,10.8053237 C394.477715,12.7732453 388.896852,10.0752369 387.811984,10.8053237 C387.113469,12.1488831 383.006759,12.8506857 384.931765,20.6738937 C386.856771,28.4971018 389.878581,32.5265315 393.736521,34.8825974 C397.594462,37.2386633 398.306988,32.9096015 402.541278,34.8825974 C406.775568,36.8555933 409.062693,42.6405157 410.385961,42.6405157 C411.709229,42.6405157 407.569828,36.237138 410.385961,34.8825974 C413.202093,33.5280568 417.920683,36.3233674 418.970032,38.5116357 C420.019382,40.6999041 415.821973,41.6183771 415.821973,46.2186268 C415.821973,50.8188764 418.970032,50.8345251 418.970032,55.6590306 C418.970032,60.483536 417.443155,63.8932754 415.821973,65.3356993 C411.140006,69.5014162 406.004222,67.0439056 405.263056,67.2308342 C403.766352,67.6083162 408.918656,61.9381723 408.918656,58.1940761 C408.918656,54.4499798 407.749353,48.4538156 405.263056,47.9357285 C402.77676,47.4176414 398.612059,45.5463297 397.196529,47.9357285 C395.780998,50.3251273 392.253009,52.2822432 393.736521,53.2428153 C395.220034,54.2033875 397.359375,49.4044094 400.017549,49.4044094 C402.675724,49.4044094 404.016916,50.2652526 405.263056,53.2428153 C406.509197,56.220378 406.683551,58.1501874 405.263056,61.9381723 C403.842562,65.7261571 404.499188,65.6216878 400.017549,67.2308342 C395.53591,68.8399807 393.317786,67.2308342 390.522446,67.2308342 C387.727105,67.2308342 383.915531,68.7403821 381.161262,65.3356993 C379.579604,62.6832637 381.333623,59.9631066 381.161262,58.1940761 C380.943489,55.9589578 380.202127,53.9643384 383.429103,51.8082526 C386.656079,49.6521669 392.740151,51.4900338 390.522446,49.4044094 C388.30474,47.318785 383.102684,51.663469 381.161262,49.4044094 C379.21984,47.1453497 382.040351,45.0512982 381.161262,38.5116357 C380.282174,31.9719733 378,29.0107693 378,25.8873355 C378,22.7639017 378,23.2831988 378,18.7397601 C378,14.1963215 378,13.8099262 378,10.8053237 C378,7.80072126 378.610487,6.59764159 380.428787,3.84124778 C380.941405,3.06416088 381.020002,2.85499016 381.161262,2.32148327 C381.521063,0.962595515 382.224248,1.50865896 384.931765,0.297333801 Z M406.45215,13.1089014 C409.536492,14.9312875 408.061579,20.895829 413.471928,25.3310305 C418.882278,29.766232 426.262799,26.1606006 430.602175,30.8349597 C434.94155,35.5093188 426.311882,33.6041601 424.639716,34.2636343 C422.916049,34.9434202 423.554685,36.2347459 421.711203,35.9077116 C419.993387,35.6029703 419.215954,33.4885114 418.282044,33.0744666 C416.773261,32.4055555 413.471928,32.0945706 413.471928,31.6486025 C412.852962,31.1363833 412.347954,29.726898 410.818234,27.9059616 C409.288515,26.0850251 408.441646,25.8819486 406.45215,22.4484029 C403.961247,18.1495105 403.646419,18.4425318 401.766087,17.0511289 C397.297518,13.7444897 394.937805,13.1089014 397.741211,13.1089014 C403.715792,13.1089014 403.367808,11.2865152 406.45215,13.1089014 Z M410.934196,11.7847095 C411.707995,10.5907671 413.719126,11.2120586 416.967589,13.648584 L422.543677,18.7717493 L426.882891,25.758789 L417.811292,23.5507411 L413.045445,19.7003006 C410.864147,15.6171822 410.160397,12.9786519 410.934196,11.7847095 Z M429.58975,36.7861185 C429.852255,34.5537783 433.519521,34.5791438 434.497053,34.5791438 C435.148742,34.5791438 436.253592,35.6824308 437.811603,37.8890047 L439.408658,42.0295468 C438.630817,43.3791208 437.686929,44.2924987 436.576995,44.7696806 C435.467061,45.2468625 434.286415,45.2468625 433.035056,44.7696806 C430.563182,40.9355327 429.414747,38.2743453 429.58975,36.7861185 Z M388.564143,15.1149044 C388.981625,12.7238844 390.119413,11.7757629 396.319447,17.2710911 C402.519481,22.7664193 409.001529,29.2124563 406.814348,31.2907615 C404.173411,33.8002355 404.173411,31.4296191 401.534486,31.2907615 C398.964634,31.1555385 396.163283,32.3138289 393.485046,29.9400049 C388.056587,25.128553 388.146662,17.5059243 388.564143,15.1149044 Z M421.878653,45.220792 C422.845427,40.8852398 423.547331,38.9767471 427.378641,41.7690978 C431.209952,44.5614486 432.886771,49.3565274 434.244158,54.2330682 C435.601546,59.109609 438.328301,62.404283 434.244158,66.4341039 C430.160016,70.4639248 421.870397,74.045167 418.908465,68.9639036 C417.356218,66.3009874 423.429542,63.6416588 423.738673,59.3305388 C424.019412,55.4153632 421.418532,47.2842297 421.878653,45.220792 Z M436.224284,48.2591485 C436.47124,45.1816151 436.531582,50.8322297 440.647646,45.7174464 C443.391689,42.307591 445.764954,48.9642752 447.767442,65.6874992 C445.948543,67.5927798 444.008008,66.9886432 441.945837,63.8750892 C438.85258,59.2047583 435.977328,51.336682 436.224284,48.2591485 Z" id="Combined-Shape" transform="translate(412.883721, 35.734002) scale(-1, -1) translate(-412.883721, -35.734002) "></path>
                <path d="M6.93176504,0.297333801 C10.702268,-1.38956435 23.1571869,4.6089329 24.5412775,5.57302001 C25.9253681,6.53710712 27.5573833,8.83740213 22.0175492,10.8053237 C16.4777151,12.7732453 10.8968521,10.0752369 9.81198414,10.8053237 C9.11346937,12.1488831 5.00675944,12.8506857 6.93176504,20.6738937 C8.85677063,28.4971018 11.8785807,32.5265315 15.7365213,34.8825974 C19.5944619,37.2386633 20.3069875,32.9096015 24.5412775,34.8825974 C28.7755675,36.8555933 31.0626929,42.6405157 32.3859607,42.6405157 C33.7092286,42.6405157 29.5698281,36.237138 32.3859607,34.8825974 C35.2020933,33.5280568 39.9206829,36.3233674 40.9700322,38.5116357 C42.0193815,40.6999041 37.8219735,41.6183771 37.8219735,46.2186268 C37.8219735,50.8188764 40.9700322,50.8345251 40.9700322,55.6590306 C40.9700322,60.483536 39.4431546,63.8932754 37.8219735,65.3356993 C33.1400059,69.5014162 28.0042223,67.0439056 27.2630563,67.2308342 C25.7663523,67.6083162 30.9186561,61.9381723 30.9186561,58.1940761 C30.9186561,54.4499798 29.7493528,48.4538156 27.2630563,47.9357285 C24.7767598,47.4176414 20.6120593,45.5463297 19.1965286,47.9357285 C17.7809979,50.3251273 14.2530089,52.2822432 15.7365213,53.2428153 C17.2200337,54.2033875 19.3593746,49.4044094 22.0175492,49.4044094 C24.6757238,49.4044094 26.016916,50.2652526 27.2630563,53.2428153 C28.5091965,56.220378 28.6835506,58.1501874 27.2630563,61.9381723 C25.842562,65.7261571 26.4991883,65.6216878 22.0175492,67.2308342 C17.5359101,68.8399807 15.3177861,67.2308342 12.5224457,67.2308342 C9.72710539,67.2308342 5.91553114,68.7403821 3.1612621,65.3356993 C1.57960411,62.6832637 3.33362332,59.9631066 3.1612621,58.1940761 C2.94348874,55.9589578 2.20212668,53.9643384 5.42910298,51.8082526 C8.65607928,49.6521669 14.7401513,51.4900338 12.5224457,49.4044094 C10.3047402,47.318785 5.10268426,51.663469 3.1612621,49.4044094 C1.21983993,47.1453497 4.0403505,45.0512982 3.1612621,38.5116357 C2.28217369,31.9719733 0,29.0107693 0,25.8873355 C0,22.7639017 0,23.2831988 0,18.7397601 C-7.10542736e-15,14.1963215 0,13.8099262 0,10.8053237 C0,7.80072126 0.610487325,6.59764159 2.42878695,3.84124778 C2.94140486,3.06416088 3.02000222,2.85499016 3.1612621,2.32148327 C3.52106311,0.962595515 4.22424825,1.50865896 6.93176504,0.297333801 Z M28.45215,13.1089014 C31.5364918,14.9312875 30.0615786,20.895829 35.4719285,25.3310305 C40.8822784,29.766232 48.2627995,26.1606006 52.6021746,30.8349597 C56.9415498,35.5093188 48.3118817,33.6041601 46.6397164,34.2636343 C44.9160488,34.9434202 45.554685,36.2347459 43.7112032,35.9077116 C41.9933869,35.6029703 41.2159543,33.4885114 40.2820436,33.0744666 C38.7732613,32.4055555 35.4719285,32.0945706 35.4719285,31.6486025 C34.8529621,31.1363833 34.347954,29.726898 32.8182344,27.9059616 C31.2885148,26.0850251 30.4416464,25.8819486 28.45215,22.4484029 C25.9612466,18.1495105 25.6464192,18.4425318 23.7660872,17.0511289 C19.2975182,13.7444897 16.9378047,13.1089014 19.7412112,13.1089014 C25.715792,13.1089014 25.3678082,11.2865152 28.45215,13.1089014 Z M32.9341961,11.7847095 C33.7079952,10.5907671 35.7191261,11.2120586 38.9675886,13.648584 L44.5436765,18.7717493 L48.8828911,25.758789 L39.8112915,23.5507411 L35.0454453,19.7003006 C32.8641467,15.6171822 32.1603969,12.9786519 32.9341961,11.7847095 Z M51.58975,36.7861185 C51.8522547,34.5537783 55.5195209,34.5791438 56.4970534,34.5791438 C57.1487418,34.5791438 58.2535916,35.6824308 59.8116027,37.8890047 L61.4086582,42.0295468 C60.6308166,43.3791208 59.6869289,44.2924987 58.5769951,44.7696806 C57.4670613,45.2468625 56.2864151,45.2468625 55.0350564,44.7696806 C52.5631823,40.9355327 51.4147468,38.2743453 51.58975,36.7861185 Z M10.5641435,15.1149044 C10.9816253,12.7238844 12.1194133,11.7757629 18.3194472,17.2710911 C24.5194812,22.7664193 31.0015287,29.2124563 28.8143479,31.2907615 C26.1734108,33.8002355 26.1734108,31.4296191 23.5344859,31.2907615 C20.964634,31.1555385 18.1632827,32.3138289 15.4850462,29.9400049 C10.0565869,25.128553 10.1466616,17.5059243 10.5641435,15.1149044 Z M43.8786533,45.220792 C44.8454272,40.8852398 45.5473309,38.9767471 49.3786413,41.7690978 C53.2099517,44.5614486 54.8867708,49.3565274 56.2441584,54.2330682 C57.6015461,59.109609 60.3283011,62.404283 56.2441584,66.4341039 C52.1600157,70.4639248 43.8703971,74.045167 40.908465,68.9639036 C39.3562178,66.3009874 45.429542,63.6416588 45.7386728,59.3305388 C46.0194123,55.4153632 43.4185325,47.2842297 43.8786533,45.220792 Z M58.2242839,48.2591485 C58.4712403,45.1816151 58.5315821,50.8322297 62.6476463,45.7174464 C65.3916891,42.307591 67.7649543,48.9642752 69.7674419,65.6874992 C67.9485434,67.5927798 66.0080085,66.9886432 63.9458371,63.8750892 C60.8525801,59.2047583 57.9773276,51.336682 58.2242839,48.2591485 Z" id="Combined-Shape" transform="translate(34.883721, 35.734002) scale(1, -1) translate(-34.883721, -35.734002) "></path>
                <path d="M384.931765,376.297334 C388.702268,374.610436 401.157187,380.608933 402.541278,381.57302 C403.925368,382.537107 405.557383,384.837402 400.017549,386.805324 C394.477715,388.773245 388.896852,386.075237 387.811984,386.805324 C387.113469,388.148883 383.006759,388.850686 384.931765,396.673894 C386.856771,404.497102 389.878581,408.526531 393.736521,410.882597 C397.594462,413.238663 398.306988,408.909602 402.541278,410.882597 C406.775568,412.855593 409.062693,418.640516 410.385961,418.640516 C411.709229,418.640516 407.569828,412.237138 410.385961,410.882597 C413.202093,409.528057 417.920683,412.323367 418.970032,414.511636 C420.019382,416.699904 415.821973,417.618377 415.821973,422.218627 C415.821973,426.818876 418.970032,426.834525 418.970032,431.659031 C418.970032,436.483536 417.443155,439.893275 415.821973,441.335699 C411.140006,445.501416 406.004222,443.043906 405.263056,443.230834 C403.766352,443.608316 408.918656,437.938172 408.918656,434.194076 C408.918656,430.44998 407.749353,424.453816 405.263056,423.935729 C402.77676,423.417641 398.612059,421.54633 397.196529,423.935729 C395.780998,426.325127 392.253009,428.282243 393.736521,429.242815 C395.220034,430.203387 397.359375,425.404409 400.017549,425.404409 C402.675724,425.404409 404.016916,426.265253 405.263056,429.242815 C406.509197,432.220378 406.683551,434.150187 405.263056,437.938172 C403.842562,441.726157 404.499188,441.621688 400.017549,443.230834 C395.53591,444.839981 393.317786,443.230834 390.522446,443.230834 C387.727105,443.230834 383.915531,444.740382 381.161262,441.335699 C379.579604,438.683264 381.333623,435.963107 381.161262,434.194076 C380.943489,431.958958 380.202127,429.964338 383.429103,427.808253 C386.656079,425.652167 392.740151,427.490034 390.522446,425.404409 C388.30474,423.318785 383.102684,427.663469 381.161262,425.404409 C379.21984,423.14535 382.040351,421.051298 381.161262,414.511636 C380.282174,407.971973 378,405.010769 378,401.887336 C378,398.763902 378,399.283199 378,394.73976 C378,390.196321 378,389.809926 378,386.805324 C378,383.800721 378.610487,382.597642 380.428787,379.841248 C380.941405,379.064161 381.020002,378.85499 381.161262,378.321483 C381.521063,376.962596 382.224248,377.508659 384.931765,376.297334 Z M406.45215,389.108901 C409.536492,390.931288 408.061579,396.895829 413.471928,401.33103 C418.882278,405.766232 426.262799,402.160601 430.602175,406.83496 C434.94155,411.509319 426.311882,409.60416 424.639716,410.263634 C422.916049,410.94342 423.554685,412.234746 421.711203,411.907712 C419.993387,411.60297 419.215954,409.488511 418.282044,409.074467 C416.773261,408.405555 413.471928,408.094571 413.471928,407.648603 C412.852962,407.136383 412.347954,405.726898 410.818234,403.905962 C409.288515,402.085025 408.441646,401.881949 406.45215,398.448403 C403.961247,394.149511 403.646419,394.442532 401.766087,393.051129 C397.297518,389.74449 394.937805,389.108901 397.741211,389.108901 C403.715792,389.108901 403.367808,387.286515 406.45215,389.108901 Z M410.934196,387.78471 C411.707995,386.590767 413.719126,387.212059 416.967589,389.648584 L422.543677,394.771749 L426.882891,401.758789 L417.811292,399.550741 L413.045445,395.700301 C410.864147,391.617182 410.160397,388.978652 410.934196,387.78471 Z M429.58975,412.786118 C429.852255,410.553778 433.519521,410.579144 434.497053,410.579144 C435.148742,410.579144 436.253592,411.682431 437.811603,413.889005 L439.408658,418.029547 C438.630817,419.379121 437.686929,420.292499 436.576995,420.769681 C435.467061,421.246862 434.286415,421.246862 433.035056,420.769681 C430.563182,416.935533 429.414747,414.274345 429.58975,412.786118 Z M388.564143,391.114904 C388.981625,388.723884 390.119413,387.775763 396.319447,393.271091 C402.519481,398.766419 409.001529,405.212456 406.814348,407.290762 C404.173411,409.800236 404.173411,407.429619 401.534486,407.290762 C398.964634,407.155538 396.163283,408.313829 393.485046,405.940005 C388.056587,401.128553 388.146662,393.505924 388.564143,391.114904 Z M421.878653,421.220792 C422.845427,416.88524 423.547331,414.976747 427.378641,417.769098 C431.209952,420.561449 432.886771,425.356527 434.244158,430.233068 C435.601546,435.109609 438.328301,438.404283 434.244158,442.434104 C430.160016,446.463925 421.870397,450.045167 418.908465,444.963904 C417.356218,442.300987 423.429542,439.641659 423.738673,435.330539 C424.019412,431.415363 421.418532,423.28423 421.878653,421.220792 Z M436.224284,424.259149 C436.47124,421.181615 436.531582,426.83223 440.647646,421.717446 C443.391689,418.307591 445.764954,424.964275 447.767442,441.687499 C445.948543,443.59278 444.008008,442.988643 441.945837,439.875089 C438.85258,435.204758 435.977328,427.336682 436.224284,424.259149 Z" id="Combined-Shape" transform="translate(412.883721, 411.734002) scale(-1, 1) translate(-412.883721, -411.734002) "></path>
                <path d="M6.93176504,376.297334 C10.702268,374.610436 23.1571869,380.608933 24.5412775,381.57302 C25.9253681,382.537107 27.5573833,384.837402 22.0175492,386.805324 C16.4777151,388.773245 10.8968521,386.075237 9.81198414,386.805324 C9.11346937,388.148883 5.00675944,388.850686 6.93176504,396.673894 C8.85677063,404.497102 11.8785807,408.526531 15.7365213,410.882597 C19.5944619,413.238663 20.3069875,408.909602 24.5412775,410.882597 C28.7755675,412.855593 31.0626929,418.640516 32.3859607,418.640516 C33.7092286,418.640516 29.5698281,412.237138 32.3859607,410.882597 C35.2020933,409.528057 39.9206829,412.323367 40.9700322,414.511636 C42.0193815,416.699904 37.8219735,417.618377 37.8219735,422.218627 C37.8219735,426.818876 40.9700322,426.834525 40.9700322,431.659031 C40.9700322,436.483536 39.4431546,439.893275 37.8219735,441.335699 C33.1400059,445.501416 28.0042223,443.043906 27.2630563,443.230834 C25.7663523,443.608316 30.9186561,437.938172 30.9186561,434.194076 C30.9186561,430.44998 29.7493528,424.453816 27.2630563,423.935729 C24.7767598,423.417641 20.6120593,421.54633 19.1965286,423.935729 C17.7809979,426.325127 14.2530089,428.282243 15.7365213,429.242815 C17.2200337,430.203387 19.3593746,425.404409 22.0175492,425.404409 C24.6757238,425.404409 26.016916,426.265253 27.2630563,429.242815 C28.5091965,432.220378 28.6835506,434.150187 27.2630563,437.938172 C25.842562,441.726157 26.4991883,441.621688 22.0175492,443.230834 C17.5359101,444.839981 15.3177861,443.230834 12.5224457,443.230834 C9.72710539,443.230834 5.91553114,444.740382 3.1612621,441.335699 C1.57960411,438.683264 3.33362332,435.963107 3.1612621,434.194076 C2.94348874,431.958958 2.20212668,429.964338 5.42910298,427.808253 C8.65607928,425.652167 14.7401513,427.490034 12.5224457,425.404409 C10.3047402,423.318785 5.10268426,427.663469 3.1612621,425.404409 C1.21983993,423.14535 4.0403505,421.051298 3.1612621,414.511636 C2.28217369,407.971973 0,405.010769 0,401.887336 C0,398.763902 0,399.283199 0,394.73976 C-7.10542736e-15,390.196321 0,389.809926 0,386.805324 C0,383.800721 0.610487325,382.597642 2.42878695,379.841248 C2.94140486,379.064161 3.02000222,378.85499 3.1612621,378.321483 C3.52106311,376.962596 4.22424825,377.508659 6.93176504,376.297334 Z M28.45215,389.108901 C31.5364918,390.931288 30.0615786,396.895829 35.4719285,401.33103 C40.8822784,405.766232 48.2627995,402.160601 52.6021746,406.83496 C56.9415498,411.509319 48.3118817,409.60416 46.6397164,410.263634 C44.9160488,410.94342 45.554685,412.234746 43.7112032,411.907712 C41.9933869,411.60297 41.2159543,409.488511 40.2820436,409.074467 C38.7732613,408.405555 35.4719285,408.094571 35.4719285,407.648603 C34.8529621,407.136383 34.347954,405.726898 32.8182344,403.905962 C31.2885148,402.085025 30.4416464,401.881949 28.45215,398.448403 C25.9612466,394.149511 25.6464192,394.442532 23.7660872,393.051129 C19.2975182,389.74449 16.9378047,389.108901 19.7412112,389.108901 C25.715792,389.108901 25.3678082,387.286515 28.45215,389.108901 Z M32.9341961,387.78471 C33.7079952,386.590767 35.7191261,387.212059 38.9675886,389.648584 L44.5436765,394.771749 L48.8828911,401.758789 L39.8112915,399.550741 L35.0454453,395.700301 C32.8641467,391.617182 32.1603969,388.978652 32.9341961,387.78471 Z M51.58975,412.786118 C51.8522547,410.553778 55.5195209,410.579144 56.4970534,410.579144 C57.1487418,410.579144 58.2535916,411.682431 59.8116027,413.889005 L61.4086582,418.029547 C60.6308166,419.379121 59.6869289,420.292499 58.5769951,420.769681 C57.4670613,421.246862 56.2864151,421.246862 55.0350564,420.769681 C52.5631823,416.935533 51.4147468,414.274345 51.58975,412.786118 Z M10.5641435,391.114904 C10.9816253,388.723884 12.1194133,387.775763 18.3194472,393.271091 C24.5194812,398.766419 31.0015287,405.212456 28.8143479,407.290762 C26.1734108,409.800236 26.1734108,407.429619 23.5344859,407.290762 C20.964634,407.155538 18.1632827,408.313829 15.4850462,405.940005 C10.0565869,401.128553 10.1466616,393.505924 10.5641435,391.114904 Z M43.8786533,421.220792 C44.8454272,416.88524 45.5473309,414.976747 49.3786413,417.769098 C53.2099517,420.561449 54.8867708,425.356527 56.2441584,430.233068 C57.6015461,435.109609 60.3283011,438.404283 56.2441584,442.434104 C52.1600157,446.463925 43.8703971,450.045167 40.908465,444.963904 C39.3562178,442.300987 45.429542,439.641659 45.7386728,435.330539 C46.0194123,431.415363 43.4185325,423.28423 43.8786533,421.220792 Z M58.2242839,424.259149 C58.4712403,421.181615 58.5315821,426.83223 62.6476463,421.717446 C65.3916891,418.307591 67.7649543,424.964275 69.7674419,441.687499 C67.9485434,443.59278 66.0080085,442.988643 63.9458371,439.875089 C60.8525801,435.204758 57.9773276,427.336682 58.2242839,424.259149 Z" id="Combined-Shape"></path>
            </g>
            <g id="Group-2" transform="translate(142.000000, 143.000000)" fill="#FFFFFF">
                <path d="M141.770667,0.40913131 C146.958879,-1.91204055 164.096847,6.34189167 166.001356,7.66847553 C167.905865,8.99505939 170.151518,12.1602653 162.528706,14.8681255 C154.905894,17.5759856 147.226627,13.863526 145.733848,14.8681255 C144.772692,16.7168632 139.121859,17.6825435 141.770667,28.4472778 C144.419475,39.212012 148.577485,44.7565073 153.886011,47.998454 C159.194538,51.2404007 160.174973,45.2836117 166.001356,47.998454 C171.827739,50.7132964 174.974824,58.6733495 176.79564,58.6733495 C178.616457,58.6733495 172.920642,49.8623019 176.79564,47.998454 C180.670639,46.1346062 187.163418,49.9809535 188.607322,52.9920108 C190.051227,56.0030681 184.275594,57.2668869 184.275594,63.5968304 C184.275594,69.9267739 188.607322,69.9483065 188.607322,76.5868261 C188.607322,83.2253456 186.506339,87.917147 184.275594,89.9019222 C177.833206,95.6339487 170.766368,92.2524142 169.746524,92.5096279 C167.687059,93.029043 174.776629,85.2269251 174.776629,80.0750487 C174.776629,74.9231723 173.167668,66.6724503 169.746524,65.9595624 C166.32538,65.2466746 160.594752,62.6717497 158.646982,65.9595624 C156.699211,69.2473752 151.844698,71.9403666 153.886011,73.2621139 C155.927325,74.5838612 158.871058,67.9804673 162.528706,67.9804673 C166.186354,67.9804673 168.031835,69.1649876 169.746524,73.2621139 C171.461213,77.3592402 171.701124,80.0146579 169.746524,85.2269251 C167.791923,90.4391922 168.695441,90.2954424 162.528706,92.5096279 C156.36197,94.7238134 153.309832,92.5096279 149.463443,92.5096279 C145.617055,92.5096279 140.372329,94.5867657 136.582455,89.9019222 C134.406093,86.2521708 136.819624,82.5092346 136.582455,80.0750487 C136.282799,76.999526 135.262684,74.2549296 139.703004,71.2881556 C144.143323,68.3213817 152.515006,70.8502865 149.463443,67.9804673 C146.411881,65.1106481 139.253852,71.0889334 136.582455,67.9804673 C133.911058,64.8720012 137.79208,61.9905863 136.582455,52.9920108 C135.372829,43.9934353 132.232558,39.9188185 132.232558,35.6209737 C132.232558,31.3231288 132.232558,32.0376816 132.232558,25.78591 C132.232558,19.5341383 132.232558,19.0024585 132.232558,14.8681255 C132.232558,10.7337924 133.072589,9.07835483 135.574569,5.28555695 C136.279931,4.21628537 136.388081,3.92846646 136.582455,3.19436098 C137.077541,1.32453143 138.045124,2.07591473 141.770667,0.40913131 Z M171.382717,18.0378483 C175.626771,20.5454516 173.59729,28.7526606 181.041932,34.8554979 C188.486573,40.9583352 198.64217,35.9969864 204.61315,42.4289045 C210.584131,48.8608227 198.709707,46.2393243 196.408808,47.1467609 C194.037041,48.0821462 194.915805,49.8590104 192.379174,49.4090111 C190.015458,48.9896872 188.945711,46.0801916 187.66065,45.5104661 C185.584566,44.5900444 181.041932,44.1621292 181.041932,43.5484771 C180.190234,42.8436634 179.495343,40.9042116 177.390449,38.3986031 C175.285555,35.8929946 174.120264,35.6135613 171.382717,30.8890024 C167.955233,24.9737265 167.522031,25.3769238 164.934694,23.4623534 C158.785943,18.9124178 155.538977,18.0378483 159.396465,18.0378483 C167.617488,18.0378483 167.138662,15.530245 171.382717,18.0378483 Z M177.550012,16.2157603 C178.61476,14.5728956 181.382076,15.4277927 185.85196,18.7804516 L193.524657,25.829927 L199.495416,35.4440937 L187.012895,32.4058197 L180.455091,27.1076136 C177.453624,21.4892428 176.485264,17.858625 177.550012,16.2157603 Z M203.220054,50.6176991 C203.581261,47.5459989 208.627419,47.5809019 209.972504,47.5809019 C210.869227,47.5809019 212.3895,49.0990247 214.533323,52.1352704 L216.730872,57.8326564 C215.660562,59.6896702 214.361772,60.9464783 212.834503,61.6030805 C211.307235,62.2596827 209.682665,62.2596827 207.960796,61.6030805 C204.559497,56.3272929 202.97925,52.6654991 203.220054,50.6176991 Z M146.76882,20.7981084 C147.343275,17.508065 148.908871,16.2034497 157.440118,23.7650213 C165.971364,31.326593 174.890662,40.1963399 171.881101,43.0560879 C168.247171,46.5091241 168.247171,43.2471559 164.616011,43.0560879 C161.079894,42.870021 157.225235,44.4638285 153.539982,41.1974468 C146.070422,34.5768889 146.194365,24.0881518 146.76882,20.7981084 Z M192.609585,62.2238098 C193.939866,56.2580899 194.905685,53.6320039 200.177569,57.4742786 C205.449452,61.3165532 207.756755,67.9145817 209.62452,74.6247018 C211.492286,81.334822 215.244301,85.8682934 209.62452,91.4133269 C204.00474,96.9583605 192.598225,101.88615 188.522606,94.8943313 C186.386714,91.2301586 194.743608,87.5709225 195.168972,81.6388215 C195.555269,76.2515397 191.976459,65.0631001 192.609585,62.2238098 Z M212.349173,66.4045884 C212.688985,62.1699024 212.772015,69.945148 218.435719,62.9072063 C222.211522,58.2152452 225.477135,67.3748427 228.232558,90.3859989 C225.729754,93.0076651 223.059578,92.176373 220.22203,87.8921228 C215.965708,81.4657474 212.009361,70.6392744 212.349173,66.4045884 Z" id="Combined-Shape"></path>
                <path d="M9.53810869,0.40913131 C14.7263207,-1.91204055 31.8642892,6.34189167 33.7687979,7.66847553 C35.6733065,8.99505939 37.9189594,12.1602653 30.2961477,14.8681255 C22.673336,17.5759856 14.9940685,13.863526 13.5012902,14.8681255 C12.5401339,16.7168632 6.88930099,17.6825435 9.53810869,28.4472778 C12.1869164,39.212012 16.344927,44.7565073 21.6534533,47.998454 C26.9619796,51.2404007 27.9424148,45.2836117 33.7687979,47.998454 C39.5951809,50.7132964 42.7422654,58.6733495 44.563082,58.6733495 C46.3838985,58.6733495 40.6880835,49.8623019 44.563082,47.998454 C48.4380804,46.1346062 54.9308596,49.9809535 56.3747643,52.9920108 C57.818669,56.0030681 52.0430355,57.2668869 52.0430355,63.5968304 C52.0430355,69.9267739 56.3747643,69.9483065 56.3747643,76.5868261 C56.3747643,83.2253456 54.2737807,87.917147 52.0430355,89.9019222 C45.6006481,95.6339487 38.5338099,92.2524142 37.5139654,92.5096279 C35.4545007,93.029043 42.5440708,85.2269251 42.5440708,80.0750487 C42.5440708,74.9231723 40.9351094,66.6724503 37.5139654,65.9595624 C34.0928215,65.2466746 28.3621936,62.6717497 26.4144234,65.9595624 C24.4666532,69.2473752 19.6121402,71.9403666 21.6534533,73.2621139 C23.6947664,74.5838612 26.6384995,67.9804673 30.2961477,67.9804673 C33.9537959,67.9804673 35.7992765,69.1649876 37.5139654,73.2621139 C39.2286544,77.3592402 39.4685656,80.0146579 37.5139654,85.2269251 C35.5593653,90.4391922 36.4628831,90.2954424 30.2961477,92.5096279 C24.1294123,94.7238134 21.0772737,92.5096279 17.2308853,92.5096279 C13.384497,92.5096279 8.13977084,94.5867657 4.34989664,89.9019222 C2.17353525,86.2521708 4.58706569,82.5092346 4.34989664,80.0750487 C4.0502405,76.999526 3.0301263,74.2549296 7.4704457,71.2881556 C11.9107651,68.3213817 20.2824482,70.8502865 17.2308853,67.9804673 C14.1793225,65.1106481 7.02129354,71.0889334 4.34989664,67.9804673 C1.67849975,64.8720012 5.55952229,61.9905863 4.34989664,52.9920108 C3.140271,43.9934353 7.10542736e-15,39.9188185 7.10542736e-15,35.6209737 C7.10542736e-15,31.3231288 0,32.0376816 0,25.78591 C-7.10542736e-15,19.5341383 0,19.0024585 0,14.8681255 C0,10.7337924 0.840030559,9.07835483 3.34201085,5.28555695 C4.04737309,4.21628537 4.15552305,3.92846646 4.34989664,3.19436098 C4.84498284,1.32453143 5.81256559,2.07591473 9.53810869,0.40913131 Z M39.1501584,18.0378483 C43.3942127,20.5454516 41.3647321,28.7526606 48.8093736,34.8554979 C56.254015,40.9583352 66.4096121,35.9969864 72.3805923,42.4289045 C78.3515725,48.8608227 66.4771492,46.2393243 64.1762497,47.1467609 C61.8044832,48.0821462 62.6832465,49.8590104 60.1466156,49.4090111 C57.7829003,48.9896872 56.7131532,46.0801916 55.428092,45.5104661 C53.3520076,44.5900444 48.8093736,44.1621292 48.8093736,43.5484771 C47.9576759,42.8436634 47.2627847,40.9042116 45.1578905,38.3986031 C43.0529964,35.8929946 41.8877054,35.6135613 39.1501584,30.8890024 C35.7226754,24.9737265 35.2894729,25.3769238 32.7021359,23.4623534 C26.553385,18.9124178 23.3064192,18.0378483 27.1639067,18.0378483 C35.3849298,18.0378483 34.9061041,15.530245 39.1501584,18.0378483 Z M45.3174538,16.2157603 C46.3822014,14.5728956 49.1495175,15.4277927 53.6194019,18.7804516 L61.2920989,25.829927 L67.2628582,35.4440937 L54.7803372,32.4058197 L48.2225327,27.1076136 C45.2210658,21.4892428 44.2527062,17.858625 45.3174538,16.2157603 Z M70.9874959,50.6176991 C71.3487025,47.5459989 76.3948607,47.5809019 77.7399455,47.5809019 C78.6366687,47.5809019 80.156942,49.0990247 82.3007653,52.1352704 L84.4983137,57.8326564 C83.4280036,59.6896702 82.1292142,60.9464783 80.6019453,61.6030805 C79.0746764,62.2596827 77.4501071,62.2596827 75.7282376,61.6030805 C72.3269388,56.3272929 70.7466916,52.6654991 70.9874959,50.6176991 Z M14.5362614,20.7981084 C15.1107164,17.508065 16.6763126,16.2034497 25.2075594,23.7650213 C33.7388061,31.326593 42.6581035,40.1963399 39.6485427,43.0560879 C36.0146132,46.5091241 36.0146132,43.2471559 32.3834526,43.0560879 C28.8473363,42.870021 24.992677,44.4638285 21.3074235,41.1974468 C13.8378636,34.5768889 13.9618064,24.0881518 14.5362614,20.7981084 Z M60.3770269,62.2238098 C61.7073079,56.2580899 62.6731273,53.6320039 67.9450104,57.4742786 C73.2168935,61.3165532 75.5241966,67.9145817 77.391962,74.6247018 C79.2597274,81.334822 83.0117424,85.8682934 77.391962,91.4133269 C71.7721816,96.9583605 60.3656664,101.88615 56.2900479,94.8943313 C54.1541557,91.2301586 62.5110498,87.5709225 62.9364138,81.6388215 C63.3227113,76.2515397 59.7439007,65.0631001 60.3770269,62.2238098 Z M80.1166147,66.4045884 C80.4564267,62.1699024 80.539457,69.945148 86.2031613,62.9072063 C89.9789642,58.2152452 93.2445771,67.3748427 96,90.3859989 C93.4971957,93.0076651 90.8270197,92.176373 87.9894719,87.8921228 C83.7331503,81.4657474 79.7768027,70.6392744 80.1166147,66.4045884 Z" id="Combined-Shape" transform="translate(48.000000, 49.169987) scale(-1, 1) translate(-48.000000, -49.169987) "></path>
                <path d="M141.538109,127.409131 C146.726321,125.087959 163.864289,133.341892 165.768798,134.668476 C167.673307,135.995059 169.918959,139.160265 162.296148,141.868125 C154.673336,144.575986 146.994068,140.863526 145.50129,141.868125 C144.540134,143.716863 138.889301,144.682543 141.538109,155.447278 C144.186916,166.212012 148.344927,171.756507 153.653453,174.998454 C158.96198,178.240401 159.942415,172.283612 165.768798,174.998454 C171.595181,177.713296 174.742265,185.67335 176.563082,185.67335 C178.383898,185.67335 172.688084,176.862302 176.563082,174.998454 C180.43808,173.134606 186.93086,176.980953 188.374764,179.992011 C189.818669,183.003068 184.043036,184.266887 184.043036,190.59683 C184.043036,196.926774 188.374764,196.948307 188.374764,203.586826 C188.374764,210.225346 186.273781,214.917147 184.043036,216.901922 C177.600648,222.633949 170.53381,219.252414 169.513965,219.509628 C167.454501,220.029043 174.544071,212.226925 174.544071,207.075049 C174.544071,201.923172 172.935109,193.67245 169.513965,192.959562 C166.092821,192.246675 160.362194,189.67175 158.414423,192.959562 C156.466653,196.247375 151.61214,198.940367 153.653453,200.262114 C155.694766,201.583861 158.638499,194.980467 162.296148,194.980467 C165.953796,194.980467 167.799276,196.164988 169.513965,200.262114 C171.228654,204.35924 171.468566,207.014658 169.513965,212.226925 C167.559365,217.439192 168.462883,217.295442 162.296148,219.509628 C156.129412,221.723813 153.077274,219.509628 149.230885,219.509628 C145.384497,219.509628 140.139771,221.586766 136.349897,216.901922 C134.173535,213.252171 136.587066,209.509235 136.349897,207.075049 C136.050241,203.999526 135.030126,201.25493 139.470446,198.288156 C143.910765,195.321382 152.282448,197.850286 149.230885,194.980467 C146.179323,192.110648 139.021294,198.088933 136.349897,194.980467 C133.6785,191.872001 137.559522,188.990586 136.349897,179.992011 C135.140271,170.993435 132,166.918819 132,162.620974 C132,158.323129 132,159.037682 132,152.78591 C132,146.534138 132,146.002458 132,141.868125 C132,137.733792 132.840031,136.078355 135.342011,132.285557 C136.047373,131.216285 136.155523,130.928466 136.349897,130.194361 C136.844983,128.324531 137.812566,129.075915 141.538109,127.409131 Z M171.150158,145.037848 C175.394213,147.545452 173.364732,155.752661 180.809374,161.855498 C188.254015,167.958335 198.409612,162.996986 204.380592,169.428905 C210.351572,175.860823 198.477149,173.239324 196.17625,174.146761 C193.804483,175.082146 194.683247,176.85901 192.146616,176.409011 C189.7829,175.989687 188.713153,173.080192 187.428092,172.510466 C185.352008,171.590044 180.809374,171.162129 180.809374,170.548477 C179.957676,169.843663 179.262785,167.904212 177.157891,165.398603 C175.052996,162.892995 173.887705,162.613561 171.150158,157.889002 C167.722675,151.973727 167.289473,152.376924 164.702136,150.462353 C158.553385,145.912418 155.306419,145.037848 159.163907,145.037848 C167.38493,145.037848 166.906104,142.530245 171.150158,145.037848 Z M177.317454,143.21576 C178.382201,141.572896 181.149517,142.427793 185.619402,145.780452 L193.292099,152.829927 L199.262858,162.444094 L186.780337,159.40582 L180.222533,154.107614 C177.221066,148.489243 176.252706,144.858625 177.317454,143.21576 Z M202.987496,177.617699 C203.348702,174.545999 208.394861,174.580902 209.739946,174.580902 C210.636669,174.580902 212.156942,176.099025 214.300765,179.13527 L216.498314,184.832656 C215.428004,186.68967 214.129214,187.946478 212.601945,188.603081 C211.074676,189.259683 209.450107,189.259683 207.728238,188.603081 C204.326939,183.327293 202.746692,179.665499 202.987496,177.617699 Z M146.536261,147.798108 C147.110716,144.508065 148.676313,143.20345 157.207559,150.765021 C165.738806,158.326593 174.658104,167.19634 171.648543,170.056088 C168.014613,173.509124 168.014613,170.247156 164.383453,170.056088 C160.847336,169.870021 156.992677,171.463829 153.307424,168.197447 C145.837864,161.576889 145.961806,151.088152 146.536261,147.798108 Z M192.377027,189.22381 C193.707308,183.25809 194.673127,180.632004 199.94501,184.474279 C205.216893,188.316553 207.524197,194.914582 209.391962,201.624702 C211.259727,208.334822 215.011742,212.868293 209.391962,218.413327 C203.772182,223.95836 192.365666,228.88615 188.290048,221.894331 C186.154156,218.230159 194.51105,214.570922 194.936414,208.638821 C195.322711,203.25154 191.743901,192.0631 192.377027,189.22381 Z M212.116615,193.404588 C212.456427,189.169902 212.539457,196.945148 218.203161,189.907206 C221.978964,185.215245 225.244577,194.374843 228,217.385999 C225.497196,220.007665 222.82702,219.176373 219.989472,214.892123 C215.73315,208.465747 211.776803,197.639274 212.116615,193.404588 Z" id="Combined-Shape" transform="translate(180.000000, 176.169987) scale(1, -1) translate(-180.000000, -176.169987) "></path>
                <path d="M9.53810869,127.409131 C14.7263207,125.087959 31.8642892,133.341892 33.7687979,134.668476 C35.6733065,135.995059 37.9189594,139.160265 30.2961477,141.868125 C22.673336,144.575986 14.9940685,140.863526 13.5012902,141.868125 C12.5401339,143.716863 6.88930099,144.682543 9.53810869,155.447278 C12.1869164,166.212012 16.344927,171.756507 21.6534533,174.998454 C26.9619796,178.240401 27.9424148,172.283612 33.7687979,174.998454 C39.5951809,177.713296 42.7422654,185.67335 44.563082,185.67335 C46.3838985,185.67335 40.6880835,176.862302 44.563082,174.998454 C48.4380804,173.134606 54.9308596,176.980953 56.3747643,179.992011 C57.818669,183.003068 52.0430355,184.266887 52.0430355,190.59683 C52.0430355,196.926774 56.3747643,196.948307 56.3747643,203.586826 C56.3747643,210.225346 54.2737807,214.917147 52.0430355,216.901922 C45.6006481,222.633949 38.5338099,219.252414 37.5139654,219.509628 C35.4545007,220.029043 42.5440708,212.226925 42.5440708,207.075049 C42.5440708,201.923172 40.9351094,193.67245 37.5139654,192.959562 C34.0928215,192.246675 28.3621936,189.67175 26.4144234,192.959562 C24.4666532,196.247375 19.6121402,198.940367 21.6534533,200.262114 C23.6947664,201.583861 26.6384995,194.980467 30.2961477,194.980467 C33.9537959,194.980467 35.7992765,196.164988 37.5139654,200.262114 C39.2286544,204.35924 39.4685656,207.014658 37.5139654,212.226925 C35.5593653,217.439192 36.4628831,217.295442 30.2961477,219.509628 C24.1294123,221.723813 21.0772737,219.509628 17.2308853,219.509628 C13.384497,219.509628 8.13977084,221.586766 4.34989664,216.901922 C2.17353525,213.252171 4.58706569,209.509235 4.34989664,207.075049 C4.0502405,203.999526 3.0301263,201.25493 7.4704457,198.288156 C11.9107651,195.321382 20.2824482,197.850286 17.2308853,194.980467 C14.1793225,192.110648 7.02129354,198.088933 4.34989664,194.980467 C1.67849975,191.872001 5.55952229,188.990586 4.34989664,179.992011 C3.140271,170.993435 7.10542736e-15,166.918819 7.10542736e-15,162.620974 C7.10542736e-15,158.323129 0,159.037682 0,152.78591 C-7.10542736e-15,146.534138 0,146.002458 0,141.868125 C0,137.733792 0.840030559,136.078355 3.34201085,132.285557 C4.04737309,131.216285 4.15552305,130.928466 4.34989664,130.194361 C4.84498284,128.324531 5.81256559,129.075915 9.53810869,127.409131 Z M39.1501584,145.037848 C43.3942127,147.545452 41.3647321,155.752661 48.8093736,161.855498 C56.254015,167.958335 66.4096121,162.996986 72.3805923,169.428905 C78.3515725,175.860823 66.4771492,173.239324 64.1762497,174.146761 C61.8044832,175.082146 62.6832465,176.85901 60.1466156,176.409011 C57.7829003,175.989687 56.7131532,173.080192 55.428092,172.510466 C53.3520076,171.590044 48.8093736,171.162129 48.8093736,170.548477 C47.9576759,169.843663 47.2627847,167.904212 45.1578905,165.398603 C43.0529964,162.892995 41.8877054,162.613561 39.1501584,157.889002 C35.7226754,151.973727 35.2894729,152.376924 32.7021359,150.462353 C26.553385,145.912418 23.3064192,145.037848 27.1639067,145.037848 C35.3849298,145.037848 34.9061041,142.530245 39.1501584,145.037848 Z M45.3174538,143.21576 C46.3822014,141.572896 49.1495175,142.427793 53.6194019,145.780452 L61.2920989,152.829927 L67.2628582,162.444094 L54.7803372,159.40582 L48.2225327,154.107614 C45.2210658,148.489243 44.2527062,144.858625 45.3174538,143.21576 Z M70.9874959,177.617699 C71.3487025,174.545999 76.3948607,174.580902 77.7399455,174.580902 C78.6366687,174.580902 80.156942,176.099025 82.3007653,179.13527 L84.4983137,184.832656 C83.4280036,186.68967 82.1292142,187.946478 80.6019453,188.603081 C79.0746764,189.259683 77.4501071,189.259683 75.7282376,188.603081 C72.3269388,183.327293 70.7466916,179.665499 70.9874959,177.617699 Z M14.5362614,147.798108 C15.1107164,144.508065 16.6763126,143.20345 25.2075594,150.765021 C33.7388061,158.326593 42.6581035,167.19634 39.6485427,170.056088 C36.0146132,173.509124 36.0146132,170.247156 32.3834526,170.056088 C28.8473363,169.870021 24.992677,171.463829 21.3074235,168.197447 C13.8378636,161.576889 13.9618064,151.088152 14.5362614,147.798108 Z M60.3770269,189.22381 C61.7073079,183.25809 62.6731273,180.632004 67.9450104,184.474279 C73.2168935,188.316553 75.5241966,194.914582 77.391962,201.624702 C79.2597274,208.334822 83.0117424,212.868293 77.391962,218.413327 C71.7721816,223.95836 60.3656664,228.88615 56.2900479,221.894331 C54.1541557,218.230159 62.5110498,214.570922 62.9364138,208.638821 C63.3227113,203.25154 59.7439007,192.0631 60.3770269,189.22381 Z M80.1166147,193.404588 C80.4564267,189.169902 80.539457,196.945148 86.2031613,189.907206 C89.9789642,185.215245 93.2445771,194.374843 96,217.385999 C93.4971957,220.007665 90.8270197,219.176373 87.9894719,214.892123 C83.7331503,208.465747 79.7768027,197.639274 80.1166147,193.404588 Z" id="Combined-Shape" transform="translate(48.000000, 176.169987) scale(-1, -1) translate(-48.000000, -176.169987) "></path>
            </g>
            <path d="M244.372093,255.581395 C244.372093,257.50797 242.810296,259.069767 240.883721,259.069767 L160.651163,259.069767 C158.724588,259.069767 157.162791,257.50797 157.162791,255.581395 C157.162791,253.654821 158.724588,252.093023 160.651163,252.093023 L240.883721,252.093023 C242.810296,252.093023 244.372093,253.654821 244.372093,255.581395 Z M357.162791,255.581395 C357.162791,257.50797 355.600993,259.069767 353.674419,259.069767 L273.44186,259.069767 C271.515286,259.069767 269.953488,257.50797 269.953488,255.581395 C269.953488,253.654821 271.515286,252.093023 273.44186,252.093023 L353.674419,252.093023 C355.600993,252.093023 357.162791,253.654821 357.162791,255.581395 Z M257.162791,155 C259.089365,155 260.651163,156.561797 260.651163,158.488372 L260.651163,238.72093 C260.651163,240.647505 259.089365,242.209302 257.162791,242.209302 C255.236216,242.209302 253.674419,240.647505 253.674419,238.72093 L253.674419,158.488372 C253.674419,156.561797 255.236216,155 257.162791,155 Z M257.162791,268.953488 C259.089365,268.953488 260.651163,270.515286 260.651163,272.44186 L260.651163,352.674419 C260.651163,354.600993 259.089365,356.162791 257.162791,356.162791 C255.236216,356.162791 253.674419,354.600993 253.674419,352.674419 L253.674419,272.44186 C253.674419,270.515286 255.236216,268.953488 257.162791,268.953488 Z" id="Combined-Shape" fill="#FFFFFF"></path>
        </g>
    </g>
</svg>