<?xml version="1.0" encoding="UTF-8"?>
<svg width="140px" height="140px" viewBox="0 0 140 140" version="1.1" xmlns="http://www.w3.org/2000/svg" xmlns:xlink="http://www.w3.org/1999/xlink">
    <!-- Generator: Sketch 50.2 (55047) - http://www.bohemiancoding.com/sketch -->
    <title>neuron</title>
    <desc>Created with Sketch.</desc>
    <defs>
        <radialGradient cx="50%" cy="51.7214674%" fx="50%" fy="51.7214674%" r="97.7059249%" id="radialGradient-1">
            <stop stop-color="#FFFFFF" offset="0%"></stop>
            <stop stop-color="#FDEEBE" offset="100%"></stop>
        </radialGradient>
    </defs>
    <g id="Page-1" stroke="none" stroke-width="1" fill="none" fill-rule="evenodd">
        <g id="neuron">
            <rect id="Rectangle" fill="url(#radialGradient-1)" x="0" y="0" width="140" height="140" rx="20"></rect>
            <path d="M85.2675806,73.3839228 C84.7209228,76.4053297 83.2781592,79.1148424 81.2245124,81.2272038 C81.1875045,81.6683364 81.2581528,82.0496067 81.2581528,82.2670863 C81.2581528,82.9751817 82.7220212,83.9549427 83.3903045,84.687672 C86.3448198,86.5134477 87.916958,90.5358354 89.8630164,93.8796879 C92.5671716,95.1594291 96.0526166,94.9170915 100.319351,93.1526751 C104.341012,90.5942586 110.554883,90.4428934 118.960964,92.6985795 C111.460767,91.355189 105.246897,92.2826113 100.319351,95.4808462 C97.3112339,97.433272 94.7806156,98.0076506 92.8513111,97.9662098 C96.2511052,101.678778 100.987581,104.43407 107.060738,106.232086 C102.928191,105.520717 99.3732222,104.537523 96.3958327,103.282503 C97.1256392,106.213844 98.7522253,108.66648 101.02851,111.100513 C102.127144,112.275283 104.132112,113.996974 107.043414,116.265586 C99.9916099,111.666686 95.9403079,107.207276 94.8895082,102.887355 C94.7492914,102.711224 94.6196087,102.551295 94.5004602,102.407568 C90.3418864,100.30545 87.5321597,97.5685248 86.0712803,94.1967926 C84.0037649,89.4249353 80.7931298,86.8182262 76.439375,86.3766653 C75.6987261,86.7830147 74.2736556,87.10314 73.2963581,88.0804374 C72.3648009,89.0119946 71.7321702,90.3840195 71.4963387,90.9496271 C71.540042,91.1523586 71.581279,91.3601176 71.6198937,91.5730191 C72.6220003,97.0981128 76.0817698,101.869455 81.9992024,105.887047 C74.836696,101.914562 70.8281712,97.691975 69.9736281,93.2192847 C69.2900852,91.4550756 68.5609398,90.0490053 67.7861921,89.0010738 C67.2810937,88.8088188 66.3282737,87.7847687 65.2360597,87.7847687 C64.4274177,87.7847687 63.6951842,88.3460987 63.1644881,88.7155986 C62.5969534,89.2882067 61.8930795,89.8885927 61.0297996,90.5149917 C55.6244492,94.4371338 54.057009,99.3831429 56.3274789,105.353019 C55.3614733,103.657613 54.6566681,102.074241 54.2130633,100.602903 C53.9116798,101.690167 53.5350075,102.853461 52.9899259,104.152755 C50.1767167,110.858516 47.2857896,113.753112 44.0869603,116.465276 C41.9900867,118.243134 38.6199999,119.584169 33.9767,120.488381 C41.9808764,118.019185 47.5407086,112.983384 50.6561967,105.380979 C51.5663069,103.16013 51.9462226,100.454273 52.4883285,98.0246942 C50.205018,100.560496 46.8546754,102.594122 42.4373009,104.125571 C41.8018283,104.699826 41.4036475,105.530038 41.2427565,106.61621 C41.1980924,106.917736 41.1211442,107.213452 41.0119119,107.503356 C41.0540504,107.850797 41.1386341,108.185147 41.2656629,108.506407 C41.6458316,109.467867 41.3158355,110.684959 40.2756746,112.157683 C40.8817364,111.041832 41.0708201,109.994948 40.8429256,109.017028 C40.7868982,108.776609 40.7044467,108.528847 40.632167,108.282584 C39.8130469,109.643064 38.2279148,110.865675 35.8767709,111.950416 C38.0423512,110.623769 39.4167386,108.999594 39.9999332,107.077894 C40.2306774,106.317562 40.3618986,105.455852 40.6209567,104.709134 C38.6028659,105.309339 36.3881137,105.81699 33.9767,106.232086 C41.7638039,103.92664 47.3532967,100.047356 50.7451784,94.5942323 C53.0246016,90.9296068 54.6592329,86.1239687 58.2127715,84.3742234 C58.2864961,84.3379218 58.3628485,84.3003365 58.4418286,84.2614677 C58.4480196,84.2401264 58.4540447,84.2186225 58.459899,84.1969538 C58.8589838,82.7197997 57.4322221,79.1737137 57.1657656,78.1005845 C56.5232993,76.9615903 56.0239592,75.7311115 55.6921567,74.4335626 C52.5214153,72.655811 48.8736278,72.1125504 44.7487944,72.8037808 L44.839618,72.9610919 C43.7178718,74.246069 42.891457,75.1917188 42.3603736,75.7980412 C41.0808284,77.2588608 38.8577159,77.7033486 36.712464,78.2048173 C36.6168643,78.6904545 36.541918,79.0701791 36.4876253,79.3439911 C36.2467087,80.5589932 34.9274176,81.4417038 34.0049686,82.4268306 C33.9219501,82.5154899 33.8413212,82.6061115 33.7630819,82.6986953 C33.8573812,82.9746154 33.929694,83.1865568 33.9800202,83.3345194 C34.1794508,83.9208599 33.8288586,84.6329076 33.6757082,85.2900922 C33.4478136,86.2680118 33.6368973,87.3148967 34.2429592,88.430747 C33.2027982,86.9580229 32.8728021,85.7409311 33.2529708,84.7794716 C33.4741431,84.2201194 33.4951754,83.7225967 33.3160677,83.2869036 C32.390572,84.6447381 31.9008233,86.3603886 31.8468214,88.4338551 C31.6099081,85.847091 31.8786165,83.8585848 32.6529465,82.4683362 C32.6419163,82.4598977 32.6307697,82.4514952 32.6195065,82.4431286 L32.6670789,82.4431286 C32.9653378,81.9146037 33.3374403,81.4734516 33.7833866,81.1196722 C34.7468865,80.3553059 35.2834387,79.4936853 35.3930432,78.5348105 C35.2530764,78.5734863 35.1144388,78.613445 34.9774466,78.6550192 C31.134045,79.8214083 27.8856966,82.5701832 25.2324015,86.9013437 C28.2537457,80.3526724 31.8098831,76.7753487 35.9008137,76.1693726 C38.0855413,75.8457562 39.7524976,75.0421337 40.9016827,73.7585052 C36.258929,75.16289 30.8790519,74.9301813 24.7620515,73.060379 C24.56763,73.0762635 24.4329482,73.0344141 24.3580059,72.9348308 C20.5036863,71.7178061 16.3597835,69.8576393 11.9262974,67.3543303 C15.49967,68.9059286 18.9846357,70.0302022 22.3811945,70.727151 C21.765405,69.8307209 20.2980322,68.196483 19.4554924,66.6127561 C18.9050271,65.5780432 18.3139945,63.8346841 17.6823946,61.3826789 C18.5668632,63.5889915 19.2937931,65.1272778 19.8631843,65.9975379 C20.9523143,67.6621691 22.5105482,68.8799923 23.3922307,69.9483647 C23.7549527,70.3878905 24.0886174,70.7689838 24.3932249,71.0916447 C28.7619916,71.7769761 32.9814283,71.7405045 37.0515352,70.9822297 C38.8929336,70.6391709 40.7881728,70.1412091 42.6751875,69.6937355 C42.6945454,69.5651262 42.7118878,69.4346484 42.7272148,69.3023021 L42.9198751,69.6359996 C46.3375008,68.8338175 49.7193162,68.2265432 52.6961177,69.0359778 C53.3775565,69.2212707 54.2286223,69.4531659 55.2493152,69.7316633 C55.3773357,67.6352468 55.9317382,65.6540561 56.8268948,63.8737293 C52.911213,57.6579774 48.7412381,55.1394511 44.3169713,56.3181477 C42.5761769,56.7819237 40.3251946,55.9722442 39.151575,55.1832583 C37.7645059,54.2507773 36.6404294,51.4021938 35.7793454,46.6375076 C35.7124797,46.4901908 35.6133456,46.2242086 35.4819431,45.839561 C35.0943966,44.7051166 34.4912763,43.865749 33.672582,43.3214583 L31.4619003,42.0945642 C32.686243,42.30435 33.7068501,42.601512 34.5237216,42.9860502 C35.2715255,43.3380752 35.6919872,43.6896056 35.7851065,44.0406414 L36.577807,38.8372998 C36.6276761,47.1839496 37.9875682,52.1638934 40.6574831,53.7771314 C42.13562,54.6702635 45.3401316,53.4097797 47.4089239,53.7771314 C52.6747595,54.7121762 56.7570498,56.3665196 59.6557948,58.7401617 C59.944055,58.8457276 60.26256,58.9705893 60.6049082,59.0876103 C62.026307,57.8882014 63.6715523,56.9457597 65.4690252,56.3319126 C65.5400563,56.086085 65.5997636,55.8124334 65.5997636,55.5240321 C65.5997636,55.242451 65.5428469,54.9749305 65.474045,54.7336386 C65.3147577,54.3284532 65.1453354,53.9214301 64.9657782,53.5125692 L64.9213202,53.5895727 C63.9063451,50.5787411 61.4848493,48.5426469 57.6568328,47.4812901 C53.8288163,46.4199333 50.0444626,43.2378917 46.3037719,37.9351653 C49.3762027,41.5403615 52.7553161,44.0626447 56.4411121,45.5020147 C58.2603196,46.2124481 60.3214007,46.7407012 61.9890634,47.614816 C58.2474589,39.3369052 57.6053221,28.084582 60.0626529,13.8578466 C59.4941869,20.9829409 59.8411824,27.5966569 61.1036395,33.6989946 C61.1429269,33.7455353 61.1834178,33.7941199 61.2251481,33.8447901 C62.5304092,35.4296764 65.2335739,27.9096403 65.2335739,29.0389599 C65.2335739,29.6827035 63.5451824,33.6957774 62.4973529,35.7609133 C62.4202835,36.3072472 62.2472862,37.0808214 62.2472862,37.9385469 C62.2472862,38.0600862 62.2507598,38.1799359 62.2569418,38.2976888 C62.8856854,40.4170152 63.6350002,42.4689902 64.5048862,44.453614 C64.8027978,45.133292 65.1184237,45.8154637 65.4442084,46.4994324 C66.1908672,46.921892 67.2601932,47.7154607 67.8640246,46.3715456 C69.5793803,42.5537708 70.7576394,33.1827717 72.6519215,30.945349 C74.349302,28.9404957 78.0759946,27.6921886 83.8319994,27.2004278 C78.6978262,28.3539553 75.4348166,29.8926295 74.0429705,31.8164504 C71.7526828,34.9821042 71.4763598,47.8553988 70.3951229,53.1546595 C70.9335288,53.8243424 71.5522377,54.8777764 72.472406,55.6682007 C74.0980271,55.8944956 75.6410583,56.3788627 77.0587952,57.078588 C77.4626802,57.1314012 77.7971997,57.2019949 78.0213439,57.3373426 C78.6995322,56.3588455 79.283768,55.2171772 79.7740514,53.912338 C80.7267546,51.3768152 82.4453255,49.2414204 84.929764,47.5061535 C85.0762845,47.0909799 85.1987606,46.7003692 85.28965,46.3592576 C85.9243581,43.9771725 85.4664995,42.9914004 86.4538892,40.2904533 C89.3154173,32.46291 92.255998,29.084088 95.5097693,25.9182158 C97.6426582,23.8429459 101.070629,22.277574 105.79368,21.2220999 C97.6520267,24.104359 91.9967006,29.9825807 88.8277018,38.8567651 C87.9851262,41.2162395 88.0215132,43.5197214 87.7895349,45.8458157 C91.3753578,44.11218 96.0442047,42.9443708 101.796076,42.342388 C93.463795,44.2760038 87.6499386,48.0935575 84.3545062,53.7950491 C83.2225458,55.7534759 82.296953,58.0501387 81.1617379,60.0472068 C83.4413131,62.364485 84.9807233,65.4122662 85.3968466,68.8073823 C85.6617065,68.8029725 85.9295143,68.7989374 86.1994436,68.7964771 C88.6569723,67.8630978 90.803353,66.5008803 92.6385858,64.7098245 L92.5595582,64.664198 C92.6267396,64.6415506 92.6929503,64.6175027 92.7581904,64.5920542 C92.8035766,64.5469647 92.8487697,64.5016089 92.8937696,64.455987 C93.4865778,63.5410348 94.2518152,62.7829552 95.1894819,62.1817483 C95.2019715,62.1615124 95.2140903,62.1411013 95.2258382,62.1205151 C95.3007839,61.9537372 95.3706001,61.7795573 95.4352866,61.5979756 C95.5426286,61.1706137 95.5258643,60.6846466 95.3849936,60.1400742 C95.136282,59.1786147 95.35217,57.9615229 96.0326576,56.4887988 C95.6361636,57.6046491 95.5124625,58.651534 95.6615542,59.6294535 C95.7018222,59.8935782 95.7629543,60.1665647 95.8132057,60.4366908 C96.4860669,58.7254003 98.0105857,57.0316446 100.386762,55.3554238 C98.5841638,56.8916392 97.3230222,58.5811959 96.6033372,60.4240939 C96.4508547,60.8145561 96.3151573,61.2273032 96.1753608,61.6372093 C98.4601057,60.5562299 101.558766,60.2157343 105.471341,60.6157225 C100.015947,60.6867107 96.0242818,62.7164124 93.4963447,66.7048276 C92.8009521,67.8019728 92.0991668,68.6111503 91.4167538,69.1976568 C97.6588601,70.2455532 100.949104,72.1684129 104.155843,74.3894166 C106.415833,75.9546974 108.583416,78.8628658 110.658592,83.1139219 C106.201898,76.0215562 99.8986977,71.9545318 91.7489904,70.9128487 C90.5230233,70.7561475 88.8173305,70.7590734 87.0240263,70.8110307 C88.1254926,71.7962676 89.2355638,73.232936 90.2115362,75.2994706 C92.6094963,80.3769371 97.1862914,84.0902459 103.941922,86.4393972 C95.995317,84.4560647 91.0304933,81.414841 89.0474507,77.3157259 C87.7186343,75.4987224 86.4586775,74.1881214 85.2675806,73.3839228 Z M69.514573,85.7923012 C69.4253626,85.78736 69.3363582,85.7816466 69.2475663,85.7751676 C69.3003978,85.842916 69.3529354,85.9122898 69.4051336,85.9833225 C69.4399017,85.9189475 69.4763815,85.8552514 69.514573,85.7923012 Z" id="Combined-Shape" fill="#456689"></path>
            <path d="M62.5324902,67.7601396 C61.0873491,67.7601396 59.9158308,66.5886212 59.9158308,65.1434802 C59.9158308,63.6983391 61.0873491,62.5268208 62.5324902,62.5268208 C63.9776313,62.5268208 65.1491496,63.6983391 65.1491496,65.1434802 C65.1491496,66.5886212 63.9776313,67.7601396 62.5324902,67.7601396 Z M71.7431313,64.4631487 C70.008962,64.4631487 68.60314,63.0573267 68.60314,61.3231574 C68.60314,59.5889881 70.008962,58.1831662 71.7431313,58.1831662 C73.4773006,58.1831662 74.8831225,59.5889881 74.8831225,61.3231574 C74.8831225,63.0573267 73.4773006,64.4631487 71.7431313,64.4631487 Z M80.0641082,70.5337985 C78.2143276,70.5337985 76.7147841,69.0342551 76.7147841,67.1844745 C76.7147841,65.3346939 78.2143276,63.8351505 80.0641082,63.8351505 C81.9138887,63.8351505 83.4134322,65.3346939 83.4134322,67.1844745 C83.4134322,69.0342551 81.9138887,70.5337985 80.0641082,70.5337985 Z M59.9158308,74.2494549 C59.0487461,74.2494549 58.3458352,73.5465439 58.3458352,72.6794592 C58.3458352,71.8123746 59.0487461,71.1094636 59.9158308,71.1094636 C60.7829154,71.1094636 61.4858264,71.8123746 61.4858264,72.6794592 C61.4858264,73.5465439 60.7829154,74.2494549 59.9158308,74.2494549 Z M62.6894898,79.6921064 C62.1114333,79.6921064 61.642826,79.2234991 61.642826,78.6454427 C61.642826,78.0673862 62.1114333,77.5987789 62.6894898,77.5987789 C63.2675462,77.5987789 63.7361535,78.0673862 63.7361535,78.6454427 C63.7361535,79.2234991 63.2675462,79.6921064 62.6894898,79.6921064 Z M67.1901439,82.0470999 C66.8433101,82.0470999 66.5621457,81.7659355 66.5621457,81.4191016 C66.5621457,81.0722678 66.8433101,80.7911034 67.1901439,80.7911034 C67.5369778,80.7911034 67.8181422,81.0722678 67.8181422,81.4191016 C67.8181422,81.7659355 67.5369778,82.0470999 67.1901439,82.0470999 Z" id="Combined-Shape" fill-opacity="0.4" fill="#FFFFFF"></path>
            <circle id="nucleus" fill="#FFFFFF" cx="70.3824684" cy="72.051461" r="4.70998692"></circle>
        </g>
    </g>
</svg>