<?xml version="1.0" encoding="UTF-8"?>
<svg width="40px" height="44px" viewBox="0 0 40 44" version="1.1" xmlns="http://www.w3.org/2000/svg" xmlns:xlink="http://www.w3.org/1999/xlink">
    <!-- Generator: Sketch 51 (57462) - http://www.bohemiancoding.com/sketch -->
    <title>neurons</title>
    <desc>Created with Sketch.</desc>
    <defs></defs>
    <g id="Page-1" stroke="none" stroke-width="1" fill="none" fill-rule="evenodd" opacity="0.0663504464">
        <g id="collectNeuronsv3" transform="translate(-8.000000, -9.000000)" fill-rule="nonzero">
            <g id="neurons" transform="translate(8.000000, 9.000000)">
                <g id="neuronv1.0" transform="translate(29.841270, 10.909091) scale(-1, 1) translate(-29.841270, -10.909091) translate(19.841270, 0.000000)">
                    <path d="M15.286445,18.3336332 C14.5165939,17.9444811 13.9964466,17.4378111 13.726003,16.8136231 C13.3031345,15.8376361 12.6219552,15.3509077 11.6824652,15.3534379 C11.4178784,15.4818993 11.1278614,15.5661618 10.82201,15.5966283 C10.9172219,15.7933971 10.9974412,16.0342204 11.050707,16.3279001 C11.2362208,17.3507266 11.8767066,18.2340158 12.9721643,18.9777677 C11.6462137,18.2423661 10.9041403,17.4606646 10.745944,16.6326631 C10.537255,16.0940414 10.3056049,15.735745 10.0509937,15.5577739 C9.94568007,15.5363225 9.84271553,15.5084099 9.74253193,15.4744678 C9.62697207,15.6709098 9.42230829,15.8910755 9.09022825,16.132034 C8.08956909,16.858116 7.79939855,17.7737401 8.21971662,18.8789064 C8.040886,18.5650463 7.91040975,18.2719264 7.82828793,17.9995467 C7.77249465,18.2008251 7.70276364,18.4161787 7.60185607,18.656709 C7.081064,19.8981051 6.54588451,20.4339637 5.95370502,20.9360499 C5.56552375,21.2651738 4.94164036,21.5134313 4.08205491,21.6808225 C5.56381869,21.2237155 6.59307611,20.2914688 7.1698272,18.8840824 C7.33831025,18.4729504 7.40864171,17.9720317 7.50899844,17.5222589 C6.84870189,18.2555719 5.70638738,18.7620332 4.08205491,19.0416427 C5.52363338,18.6148497 6.55838171,17.8967017 7.18629982,16.8871986 C7.50696044,16.371673 7.75869258,15.7341728 8.14975556,15.3156289 C8.1497692,15.3039424 8.14978433,15.2914404 8.14978433,15.278082 C8.14978433,15.2184051 8.36046178,15.1808239 8.39466978,14.9624146 C8.40643495,14.8872972 8.40755138,14.7994157 8.40385004,14.7087192 C8.39015251,14.7033004 8.37613364,14.6980067 8.36179342,14.6928381 C8.37551189,14.6884922 8.3890892,14.6841956 8.40252538,14.6799483 C8.39739116,14.5793275 8.38713847,14.476556 8.37960353,14.3850044 C8.14973273,14.010244 8.01353247,13.5718146 8.00359909,13.1023166 C7.27123429,12.7295576 6.40586945,12.7009735 5.40750458,13.0165645 C3.98359211,13.4666745 2.18109059,13.0759675 0,11.8444437 C1.65256383,12.5620054 3.20299055,12.7858756 4.65128018,12.5160543 C5.62456444,12.3347281 6.67910036,11.919636 7.54746516,12.1557567 C7.69328662,12.1954076 7.88106673,12.246586 8.11080553,12.3092919 C8.19666324,12.0232093 8.33116444,11.75817 8.50470087,11.5237831 C7.7243952,10.1378809 6.88825673,9.56374771 5.99628549,9.80138335 C5.67402298,9.88723935 5.25731255,9.73734836 5.04004756,9.59128829 C4.78326804,9.41866385 4.57517469,8.89132313 4.41576753,8.00926622 C4.40338909,7.98199436 4.38503702,7.93275473 4.36071127,7.86154727 C4.2889672,7.65153458 4.17731524,7.49614764 4.02575542,7.39538647 L3.61650557,7.16825913 C3.84316058,7.20709549 4.03209927,7.26210727 4.18332164,7.33329444 C4.32175796,7.39846265 4.39959545,7.46353931 4.41683404,7.5285244 L4.56358178,6.56526189 C4.57281375,8.11042564 4.82456218,9.03233189 5.31882705,9.33098069 C5.59246542,9.49632073 6.18569684,9.26297513 6.5686796,9.33098069 C7.54351124,9.50407975 8.29924044,9.81033815 8.83586724,10.2497559 C8.98569553,10.3046256 9.17966142,10.3876545 9.3915344,10.3876545 C9.66860498,10.3876545 9.85702684,10.132786 9.95679993,9.62304898 C9.83661902,9.2975436 9.68077556,8.96557167 9.48926964,8.62713324 C8.60414716,7.06290251 8.41145276,4.83418142 8.91118636,1.94096991 C8.80594978,3.25999442 8.87018687,4.48435065 9.10389764,5.61403862 C9.1111708,5.62265495 9.11866662,5.63164913 9.12639189,5.64102938 C9.2341328,5.77185156 9.39332324,5.56756909 9.53666211,5.3195408 C9.61306949,5.11991658 9.70076771,4.90559633 9.80748098,4.70240156 C10.0242489,4.28964967 10.5143459,3.06866897 10.9748171,2.23231685 C11.2486,1.73504603 11.7036041,1.06277314 12.3398297,0.215498181 C11.7614482,1.13346243 11.356129,1.82774735 11.123872,2.29835295 C10.6796116,3.19852604 10.3403715,4.23180229 10.0518294,4.89943622 C9.78444578,5.51811316 9.59531538,5.99937531 9.48443825,6.34322258 C9.46895782,6.43655756 9.44862811,6.55317869 9.44862811,6.67968884 C9.44862811,6.7753328 9.46024782,6.86532455 9.47260713,6.94387505 C9.55186905,7.16855364 9.63884989,7.38892044 9.7335496,7.60497545 C10.0980766,8.43663491 10.6058708,9.28846182 10.8530366,10.1232203 C11.0483729,10.2493777 11.3069009,10.4582399 11.5107089,10.4582399 C11.6899187,10.4582399 11.9114368,10.2967519 12.0950996,10.1720011 C12.2821224,9.95554062 12.4371678,9.68354382 12.5602359,9.35601065 C12.7366039,8.88662495 13.0547524,8.49131251 13.5146811,8.17007327 C13.5418056,8.09321473 13.5644788,8.02090338 13.5813046,7.95775553 C13.6988042,7.5167748 13.6140436,7.33428487 13.796833,6.8342752 C14.32657,5.38521047 14.8709416,4.75971 15.4732922,4.1736316 C15.8681408,3.78944971 16.5027397,3.49966207 17.3770892,3.30426867 C15.8698751,3.83784349 14.8229395,4.9260424 14.2362823,6.56886538 C14.0803015,7.00566033 14.0870376,7.43208971 14.0440928,7.86270516 C14.7079141,7.54176789 15.5722289,7.32557858 16.6370373,7.21413724 C15.0945336,7.5720956 14.0182503,8.27881575 13.4081872,9.33429767 C13.0507683,9.95267516 12.8044897,10.7532113 12.2872339,11.1500115 C12.5790838,11.4151877 12.8094896,11.7468043 12.9545658,12.120973 C13.2613623,12.0818472 13.9776776,12.2252663 14.492463,13.3152785 C14.9363825,14.2552385 15.7836564,14.9426605 17.0342845,15.3775443 C15.5631787,15.0103822 14.6440715,14.4473792 14.2769631,13.6885354 C13.8509925,13.1060698 13.4632457,12.8047053 13.1137225,12.7844419 C13.1225112,12.8707825 13.1270137,12.9583911 13.1270137,13.0470515 C13.1270137,13.6767516 12.8998913,14.2533981 12.5231063,14.6995219 C12.7789467,14.8250639 12.9795704,14.9236337 13.1249775,14.9952315 C13.7408348,15.2984766 14.0453557,16.0975303 14.4279437,16.7549194 C14.9285472,16.99183 15.5737862,16.9469675 16.3636605,16.620332 C17.1081656,16.1467082 18.2585012,16.1186869 19.814667,16.5362681 C18.426202,16.2875745 17.2758665,16.4592625 16.3636605,17.051332 C15.8067862,17.4127725 15.3383085,17.5191037 14.9811483,17.511432 C15.6105311,18.1987169 16.4873656,18.7087871 17.6116517,19.0416427 C16.8466188,18.9099513 16.1885094,18.7279386 15.6373236,18.4956045 C15.7724282,19.0382656 16.0735481,19.492307 16.4949427,19.9429045 C16.698326,20.1603823 17.0694933,20.4791083 17.6084447,20.8990825 C16.3029877,20.0477167 15.5529952,19.2221735 15.3584671,18.4224531 C15.3325096,18.3898471 15.3085023,18.3602404 15.286445,18.3336332 Z" id="Combined-Shape" fill="#000000"></path>
                    <ellipse id="nucleus" fill="#FFFFFF" cx="11.9742248" cy="12.8060864" rx="1" ry="1.109042"></ellipse>
                </g>
                <g id="neuronv1.0">
                    <path d="M15.286445,18.3336332 C14.5165939,17.9444811 13.9964466,17.4378111 13.726003,16.8136231 C13.3031345,15.8376361 12.6219552,15.3509077 11.6824652,15.3534379 C11.4178784,15.4818993 11.1278614,15.5661618 10.82201,15.5966283 C10.9172219,15.7933971 10.9974412,16.0342204 11.050707,16.3279001 C11.2362208,17.3507266 11.8767066,18.2340158 12.9721643,18.9777677 C11.6462137,18.2423661 10.9041403,17.4606646 10.745944,16.6326631 C10.537255,16.0940414 10.3056049,15.735745 10.0509937,15.5577739 C9.94568007,15.5363225 9.84271553,15.5084099 9.74253193,15.4744678 C9.62697207,15.6709098 9.42230829,15.8910755 9.09022825,16.132034 C8.08956909,16.858116 7.79939855,17.7737401 8.21971662,18.8789064 C8.040886,18.5650463 7.91040975,18.2719264 7.82828793,17.9995467 C7.77249465,18.2008251 7.70276364,18.4161787 7.60185607,18.656709 C7.081064,19.8981051 6.54588451,20.4339637 5.95370502,20.9360499 C5.56552375,21.2651738 4.94164036,21.5134313 4.08205491,21.6808225 C5.56381869,21.2237155 6.59307611,20.2914688 7.1698272,18.8840824 C7.33831025,18.4729504 7.40864171,17.9720317 7.50899844,17.5222589 C6.84870189,18.2555719 5.70638738,18.7620332 4.08205491,19.0416427 C5.52363338,18.6148497 6.55838171,17.8967017 7.18629982,16.8871986 C7.50696044,16.371673 7.75869258,15.7341728 8.14975556,15.3156289 C8.1497692,15.3039424 8.14978433,15.2914404 8.14978433,15.278082 C8.14978433,15.2184051 8.36046178,15.1808239 8.39466978,14.9624146 C8.40643495,14.8872972 8.40755138,14.7994157 8.40385004,14.7087192 C8.39015251,14.7033004 8.37613364,14.6980067 8.36179342,14.6928381 C8.37551189,14.6884922 8.3890892,14.6841956 8.40252538,14.6799483 C8.39739116,14.5793275 8.38713847,14.476556 8.37960353,14.3850044 C8.14973273,14.010244 8.01353247,13.5718146 8.00359909,13.1023166 C7.27123429,12.7295576 6.40586945,12.7009735 5.40750458,13.0165645 C3.98359211,13.4666745 2.18109059,13.0759675 0,11.8444437 C1.65256383,12.5620054 3.20299055,12.7858756 4.65128018,12.5160543 C5.62456444,12.3347281 6.67910036,11.919636 7.54746516,12.1557567 C7.69328662,12.1954076 7.88106673,12.246586 8.11080553,12.3092919 C8.19666324,12.0232093 8.33116444,11.75817 8.50470087,11.5237831 C7.7243952,10.1378809 6.88825673,9.56374771 5.99628549,9.80138335 C5.67402298,9.88723935 5.25731255,9.73734836 5.04004756,9.59128829 C4.78326804,9.41866385 4.57517469,8.89132313 4.41576753,8.00926622 C4.40338909,7.98199436 4.38503702,7.93275473 4.36071127,7.86154727 C4.2889672,7.65153458 4.17731524,7.49614764 4.02575542,7.39538647 L3.61650557,7.16825913 C3.84316058,7.20709549 4.03209927,7.26210727 4.18332164,7.33329444 C4.32175796,7.39846265 4.39959545,7.46353931 4.41683404,7.5285244 L4.56358178,6.56526189 C4.57281375,8.11042564 4.82456218,9.03233189 5.31882705,9.33098069 C5.59246542,9.49632073 6.18569684,9.26297513 6.5686796,9.33098069 C7.54351124,9.50407975 8.29924044,9.81033815 8.83586724,10.2497559 C8.98569553,10.3046256 9.17966142,10.3876545 9.3915344,10.3876545 C9.66860498,10.3876545 9.85702684,10.132786 9.95679993,9.62304898 C9.83661902,9.2975436 9.68077556,8.96557167 9.48926964,8.62713324 C8.60414716,7.06290251 8.41145276,4.83418142 8.91118636,1.94096991 C8.80594978,3.25999442 8.87018687,4.48435065 9.10389764,5.61403862 C9.1111708,5.62265495 9.11866662,5.63164913 9.12639189,5.64102938 C9.2341328,5.77185156 9.39332324,5.56756909 9.53666211,5.3195408 C9.61306949,5.11991658 9.70076771,4.90559633 9.80748098,4.70240156 C10.0242489,4.28964967 10.5143459,3.06866897 10.9748171,2.23231685 C11.2486,1.73504603 11.7036041,1.06277314 12.3398297,0.215498181 C11.7614482,1.13346243 11.356129,1.82774735 11.123872,2.29835295 C10.6796116,3.19852604 10.3403715,4.23180229 10.0518294,4.89943622 C9.78444578,5.51811316 9.59531538,5.99937531 9.48443825,6.34322258 C9.46895782,6.43655756 9.44862811,6.55317869 9.44862811,6.67968884 C9.44862811,6.7753328 9.46024782,6.86532455 9.47260713,6.94387505 C9.55186905,7.16855364 9.63884989,7.38892044 9.7335496,7.60497545 C10.0980766,8.43663491 10.6058708,9.28846182 10.8530366,10.1232203 C11.0483729,10.2493777 11.3069009,10.4582399 11.5107089,10.4582399 C11.6899187,10.4582399 11.9114368,10.2967519 12.0950996,10.1720011 C12.2821224,9.95554062 12.4371678,9.68354382 12.5602359,9.35601065 C12.7366039,8.88662495 13.0547524,8.49131251 13.5146811,8.17007327 C13.5418056,8.09321473 13.5644788,8.02090338 13.5813046,7.95775553 C13.6988042,7.5167748 13.6140436,7.33428487 13.796833,6.8342752 C14.32657,5.38521047 14.8709416,4.75971 15.4732922,4.1736316 C15.8681408,3.78944971 16.5027397,3.49966207 17.3770892,3.30426867 C15.8698751,3.83784349 14.8229395,4.9260424 14.2362823,6.56886538 C14.0803015,7.00566033 14.0870376,7.43208971 14.0440928,7.86270516 C14.7079141,7.54176789 15.5722289,7.32557858 16.6370373,7.21413724 C15.0945336,7.5720956 14.0182503,8.27881575 13.4081872,9.33429767 C13.0507683,9.95267516 12.8044897,10.7532113 12.2872339,11.1500115 C12.5790838,11.4151877 12.8094896,11.7468043 12.9545658,12.120973 C13.2613623,12.0818472 13.9776776,12.2252663 14.492463,13.3152785 C14.9363825,14.2552385 15.7836564,14.9426605 17.0342845,15.3775443 C15.5631787,15.0103822 14.6440715,14.4473792 14.2769631,13.6885354 C13.8509925,13.1060698 13.4632457,12.8047053 13.1137225,12.7844419 C13.1225112,12.8707825 13.1270137,12.9583911 13.1270137,13.0470515 C13.1270137,13.6767516 12.8998913,14.2533981 12.5231063,14.6995219 C12.7789467,14.8250639 12.9795704,14.9236337 13.1249775,14.9952315 C13.7408348,15.2984766 14.0453557,16.0975303 14.4279437,16.7549194 C14.9285472,16.99183 15.5737862,16.9469675 16.3636605,16.620332 C17.1081656,16.1467082 18.2585012,16.1186869 19.814667,16.5362681 C18.426202,16.2875745 17.2758665,16.4592625 16.3636605,17.051332 C15.8067862,17.4127725 15.3383085,17.5191037 14.9811483,17.511432 C15.6105311,18.1987169 16.4873656,18.7087871 17.6116517,19.0416427 C16.8466188,18.9099513 16.1885094,18.7279386 15.6373236,18.4956045 C15.7724282,19.0382656 16.0735481,19.492307 16.4949427,19.9429045 C16.698326,20.1603823 17.0694933,20.4791083 17.6084447,20.8990825 C16.3029877,20.0477167 15.5529952,19.2221735 15.3584671,18.4224531 C15.3325096,18.3898471 15.3085023,18.3602404 15.286445,18.3336332 Z" id="Combined-Shape" fill="#000000"></path>
                    <ellipse id="nucleus" fill="#FFFFFF" cx="11.9742248" cy="12.8060864" rx="1" ry="1.109042"></ellipse>
                </g>
                <g id="neuronv1.0" transform="translate(29.841270, 32.582973) rotate(180.000000) translate(-29.841270, -32.582973) translate(19.841270, 21.673882)">
                    <path d="M15.286445,18.3336332 C14.5165939,17.9444811 13.9964466,17.4378111 13.726003,16.8136231 C13.3031345,15.8376361 12.6219552,15.3509077 11.6824652,15.3534379 C11.4178784,15.4818993 11.1278614,15.5661618 10.82201,15.5966283 C10.9172219,15.7933971 10.9974412,16.0342204 11.050707,16.3279001 C11.2362208,17.3507266 11.8767066,18.2340158 12.9721643,18.9777677 C11.6462137,18.2423661 10.9041403,17.4606646 10.745944,16.6326631 C10.537255,16.0940414 10.3056049,15.735745 10.0509937,15.5577739 C9.94568007,15.5363225 9.84271553,15.5084099 9.74253193,15.4744678 C9.62697207,15.6709098 9.42230829,15.8910755 9.09022825,16.132034 C8.08956909,16.858116 7.79939855,17.7737401 8.21971662,18.8789064 C8.040886,18.5650463 7.91040975,18.2719264 7.82828793,17.9995467 C7.77249465,18.2008251 7.70276364,18.4161787 7.60185607,18.656709 C7.081064,19.8981051 6.54588451,20.4339637 5.95370502,20.9360499 C5.56552375,21.2651738 4.94164036,21.5134313 4.08205491,21.6808225 C5.56381869,21.2237155 6.59307611,20.2914688 7.1698272,18.8840824 C7.33831025,18.4729504 7.40864171,17.9720317 7.50899844,17.5222589 C6.84870189,18.2555719 5.70638738,18.7620332 4.08205491,19.0416427 C5.52363338,18.6148497 6.55838171,17.8967017 7.18629982,16.8871986 C7.50696044,16.371673 7.75869258,15.7341728 8.14975556,15.3156289 C8.1497692,15.3039424 8.14978433,15.2914404 8.14978433,15.278082 C8.14978433,15.2184051 8.36046178,15.1808239 8.39466978,14.9624146 C8.40643495,14.8872972 8.40755138,14.7994157 8.40385004,14.7087192 C8.39015251,14.7033004 8.37613364,14.6980067 8.36179342,14.6928381 C8.37551189,14.6884922 8.3890892,14.6841956 8.40252538,14.6799483 C8.39739116,14.5793275 8.38713847,14.476556 8.37960353,14.3850044 C8.14973273,14.010244 8.01353247,13.5718146 8.00359909,13.1023166 C7.27123429,12.7295576 6.40586945,12.7009735 5.40750458,13.0165645 C3.98359211,13.4666745 2.18109059,13.0759675 0,11.8444437 C1.65256383,12.5620054 3.20299055,12.7858756 4.65128018,12.5160543 C5.62456444,12.3347281 6.67910036,11.919636 7.54746516,12.1557567 C7.69328662,12.1954076 7.88106673,12.246586 8.11080553,12.3092919 C8.19666324,12.0232093 8.33116444,11.75817 8.50470087,11.5237831 C7.7243952,10.1378809 6.88825673,9.56374771 5.99628549,9.80138335 C5.67402298,9.88723935 5.25731255,9.73734836 5.04004756,9.59128829 C4.78326804,9.41866385 4.57517469,8.89132313 4.41576753,8.00926622 C4.40338909,7.98199436 4.38503702,7.93275473 4.36071127,7.86154727 C4.2889672,7.65153458 4.17731524,7.49614764 4.02575542,7.39538647 L3.61650557,7.16825913 C3.84316058,7.20709549 4.03209927,7.26210727 4.18332164,7.33329444 C4.32175796,7.39846265 4.39959545,7.46353931 4.41683404,7.5285244 L4.56358178,6.56526189 C4.57281375,8.11042564 4.82456218,9.03233189 5.31882705,9.33098069 C5.59246542,9.49632073 6.18569684,9.26297513 6.5686796,9.33098069 C7.54351124,9.50407975 8.29924044,9.81033815 8.83586724,10.2497559 C8.98569553,10.3046256 9.17966142,10.3876545 9.3915344,10.3876545 C9.66860498,10.3876545 9.85702684,10.132786 9.95679993,9.62304898 C9.83661902,9.2975436 9.68077556,8.96557167 9.48926964,8.62713324 C8.60414716,7.06290251 8.41145276,4.83418142 8.91118636,1.94096991 C8.80594978,3.25999442 8.87018687,4.48435065 9.10389764,5.61403862 C9.1111708,5.62265495 9.11866662,5.63164913 9.12639189,5.64102938 C9.2341328,5.77185156 9.39332324,5.56756909 9.53666211,5.3195408 C9.61306949,5.11991658 9.70076771,4.90559633 9.80748098,4.70240156 C10.0242489,4.28964967 10.5143459,3.06866897 10.9748171,2.23231685 C11.2486,1.73504603 11.7036041,1.06277314 12.3398297,0.215498181 C11.7614482,1.13346243 11.356129,1.82774735 11.123872,2.29835295 C10.6796116,3.19852604 10.3403715,4.23180229 10.0518294,4.89943622 C9.78444578,5.51811316 9.59531538,5.99937531 9.48443825,6.34322258 C9.46895782,6.43655756 9.44862811,6.55317869 9.44862811,6.67968884 C9.44862811,6.7753328 9.46024782,6.86532455 9.47260713,6.94387505 C9.55186905,7.16855364 9.63884989,7.38892044 9.7335496,7.60497545 C10.0980766,8.43663491 10.6058708,9.28846182 10.8530366,10.1232203 C11.0483729,10.2493777 11.3069009,10.4582399 11.5107089,10.4582399 C11.6899187,10.4582399 11.9114368,10.2967519 12.0950996,10.1720011 C12.2821224,9.95554062 12.4371678,9.68354382 12.5602359,9.35601065 C12.7366039,8.88662495 13.0547524,8.49131251 13.5146811,8.17007327 C13.5418056,8.09321473 13.5644788,8.02090338 13.5813046,7.95775553 C13.6988042,7.5167748 13.6140436,7.33428487 13.796833,6.8342752 C14.32657,5.38521047 14.8709416,4.75971 15.4732922,4.1736316 C15.8681408,3.78944971 16.5027397,3.49966207 17.3770892,3.30426867 C15.8698751,3.83784349 14.8229395,4.9260424 14.2362823,6.56886538 C14.0803015,7.00566033 14.0870376,7.43208971 14.0440928,7.86270516 C14.7079141,7.54176789 15.5722289,7.32557858 16.6370373,7.21413724 C15.0945336,7.5720956 14.0182503,8.27881575 13.4081872,9.33429767 C13.0507683,9.95267516 12.8044897,10.7532113 12.2872339,11.1500115 C12.5790838,11.4151877 12.8094896,11.7468043 12.9545658,12.120973 C13.2613623,12.0818472 13.9776776,12.2252663 14.492463,13.3152785 C14.9363825,14.2552385 15.7836564,14.9426605 17.0342845,15.3775443 C15.5631787,15.0103822 14.6440715,14.4473792 14.2769631,13.6885354 C13.8509925,13.1060698 13.4632457,12.8047053 13.1137225,12.7844419 C13.1225112,12.8707825 13.1270137,12.9583911 13.1270137,13.0470515 C13.1270137,13.6767516 12.8998913,14.2533981 12.5231063,14.6995219 C12.7789467,14.8250639 12.9795704,14.9236337 13.1249775,14.9952315 C13.7408348,15.2984766 14.0453557,16.0975303 14.4279437,16.7549194 C14.9285472,16.99183 15.5737862,16.9469675 16.3636605,16.620332 C17.1081656,16.1467082 18.2585012,16.1186869 19.814667,16.5362681 C18.426202,16.2875745 17.2758665,16.4592625 16.3636605,17.051332 C15.8067862,17.4127725 15.3383085,17.5191037 14.9811483,17.511432 C15.6105311,18.1987169 16.4873656,18.7087871 17.6116517,19.0416427 C16.8466188,18.9099513 16.1885094,18.7279386 15.6373236,18.4956045 C15.7724282,19.0382656 16.0735481,19.492307 16.4949427,19.9429045 C16.698326,20.1603823 17.0694933,20.4791083 17.6084447,20.8990825 C16.3029877,20.0477167 15.5529952,19.2221735 15.3584671,18.4224531 C15.3325096,18.3898471 15.3085023,18.3602404 15.286445,18.3336332 Z" id="Combined-Shape" fill="#000000"></path>
                    <ellipse id="nucleus" fill="#FFFFFF" cx="11.9742248" cy="12.8060864" rx="1" ry="1.109042"></ellipse>
                </g>
                <g id="neuronv1.0" transform="translate(10.333333, 32.582973) scale(-1, 1) rotate(-180.000000) translate(-10.333333, -32.582973) translate(0.333333, 21.673882)">
                    <path d="M15.286445,18.3336332 C14.5165939,17.9444811 13.9964466,17.4378111 13.726003,16.8136231 C13.3031345,15.8376361 12.6219552,15.3509077 11.6824652,15.3534379 C11.4178784,15.4818993 11.1278614,15.5661618 10.82201,15.5966283 C10.9172219,15.7933971 10.9974412,16.0342204 11.050707,16.3279001 C11.2362208,17.3507266 11.8767066,18.2340158 12.9721643,18.9777677 C11.6462137,18.2423661 10.9041403,17.4606646 10.745944,16.6326631 C10.537255,16.0940414 10.3056049,15.735745 10.0509937,15.5577739 C9.94568007,15.5363225 9.84271553,15.5084099 9.74253193,15.4744678 C9.62697207,15.6709098 9.42230829,15.8910755 9.09022825,16.132034 C8.08956909,16.858116 7.79939855,17.7737401 8.21971662,18.8789064 C8.040886,18.5650463 7.91040975,18.2719264 7.82828793,17.9995467 C7.77249465,18.2008251 7.70276364,18.4161787 7.60185607,18.656709 C7.081064,19.8981051 6.54588451,20.4339637 5.95370502,20.9360499 C5.56552375,21.2651738 4.94164036,21.5134313 4.08205491,21.6808225 C5.56381869,21.2237155 6.59307611,20.2914688 7.1698272,18.8840824 C7.33831025,18.4729504 7.40864171,17.9720317 7.50899844,17.5222589 C6.84870189,18.2555719 5.70638738,18.7620332 4.08205491,19.0416427 C5.52363338,18.6148497 6.55838171,17.8967017 7.18629982,16.8871986 C7.50696044,16.371673 7.75869258,15.7341728 8.14975556,15.3156289 C8.1497692,15.3039424 8.14978433,15.2914404 8.14978433,15.278082 C8.14978433,15.2184051 8.36046178,15.1808239 8.39466978,14.9624146 C8.40643495,14.8872972 8.40755138,14.7994157 8.40385004,14.7087192 C8.39015251,14.7033004 8.37613364,14.6980067 8.36179342,14.6928381 C8.37551189,14.6884922 8.3890892,14.6841956 8.40252538,14.6799483 C8.39739116,14.5793275 8.38713847,14.476556 8.37960353,14.3850044 C8.14973273,14.010244 8.01353247,13.5718146 8.00359909,13.1023166 C7.27123429,12.7295576 6.40586945,12.7009735 5.40750458,13.0165645 C3.98359211,13.4666745 2.18109059,13.0759675 0,11.8444437 C1.65256383,12.5620054 3.20299055,12.7858756 4.65128018,12.5160543 C5.62456444,12.3347281 6.67910036,11.919636 7.54746516,12.1557567 C7.69328662,12.1954076 7.88106673,12.246586 8.11080553,12.3092919 C8.19666324,12.0232093 8.33116444,11.75817 8.50470087,11.5237831 C7.7243952,10.1378809 6.88825673,9.56374771 5.99628549,9.80138335 C5.67402298,9.88723935 5.25731255,9.73734836 5.04004756,9.59128829 C4.78326804,9.41866385 4.57517469,8.89132313 4.41576753,8.00926622 C4.40338909,7.98199436 4.38503702,7.93275473 4.36071127,7.86154727 C4.2889672,7.65153458 4.17731524,7.49614764 4.02575542,7.39538647 L3.61650557,7.16825913 C3.84316058,7.20709549 4.03209927,7.26210727 4.18332164,7.33329444 C4.32175796,7.39846265 4.39959545,7.46353931 4.41683404,7.5285244 L4.56358178,6.56526189 C4.57281375,8.11042564 4.82456218,9.03233189 5.31882705,9.33098069 C5.59246542,9.49632073 6.18569684,9.26297513 6.5686796,9.33098069 C7.54351124,9.50407975 8.29924044,9.81033815 8.83586724,10.2497559 C8.98569553,10.3046256 9.17966142,10.3876545 9.3915344,10.3876545 C9.66860498,10.3876545 9.85702684,10.132786 9.95679993,9.62304898 C9.83661902,9.2975436 9.68077556,8.96557167 9.48926964,8.62713324 C8.60414716,7.06290251 8.41145276,4.83418142 8.91118636,1.94096991 C8.80594978,3.25999442 8.87018687,4.48435065 9.10389764,5.61403862 C9.1111708,5.62265495 9.11866662,5.63164913 9.12639189,5.64102938 C9.2341328,5.77185156 9.39332324,5.56756909 9.53666211,5.3195408 C9.61306949,5.11991658 9.70076771,4.90559633 9.80748098,4.70240156 C10.0242489,4.28964967 10.5143459,3.06866897 10.9748171,2.23231685 C11.2486,1.73504603 11.7036041,1.06277314 12.3398297,0.215498181 C11.7614482,1.13346243 11.356129,1.82774735 11.123872,2.29835295 C10.6796116,3.19852604 10.3403715,4.23180229 10.0518294,4.89943622 C9.78444578,5.51811316 9.59531538,5.99937531 9.48443825,6.34322258 C9.46895782,6.43655756 9.44862811,6.55317869 9.44862811,6.67968884 C9.44862811,6.7753328 9.46024782,6.86532455 9.47260713,6.94387505 C9.55186905,7.16855364 9.63884989,7.38892044 9.7335496,7.60497545 C10.0980766,8.43663491 10.6058708,9.28846182 10.8530366,10.1232203 C11.0483729,10.2493777 11.3069009,10.4582399 11.5107089,10.4582399 C11.6899187,10.4582399 11.9114368,10.2967519 12.0950996,10.1720011 C12.2821224,9.95554062 12.4371678,9.68354382 12.5602359,9.35601065 C12.7366039,8.88662495 13.0547524,8.49131251 13.5146811,8.17007327 C13.5418056,8.09321473 13.5644788,8.02090338 13.5813046,7.95775553 C13.6988042,7.5167748 13.6140436,7.33428487 13.796833,6.8342752 C14.32657,5.38521047 14.8709416,4.75971 15.4732922,4.1736316 C15.8681408,3.78944971 16.5027397,3.49966207 17.3770892,3.30426867 C15.8698751,3.83784349 14.8229395,4.9260424 14.2362823,6.56886538 C14.0803015,7.00566033 14.0870376,7.43208971 14.0440928,7.86270516 C14.7079141,7.54176789 15.5722289,7.32557858 16.6370373,7.21413724 C15.0945336,7.5720956 14.0182503,8.27881575 13.4081872,9.33429767 C13.0507683,9.95267516 12.8044897,10.7532113 12.2872339,11.1500115 C12.5790838,11.4151877 12.8094896,11.7468043 12.9545658,12.120973 C13.2613623,12.0818472 13.9776776,12.2252663 14.492463,13.3152785 C14.9363825,14.2552385 15.7836564,14.9426605 17.0342845,15.3775443 C15.5631787,15.0103822 14.6440715,14.4473792 14.2769631,13.6885354 C13.8509925,13.1060698 13.4632457,12.8047053 13.1137225,12.7844419 C13.1225112,12.8707825 13.1270137,12.9583911 13.1270137,13.0470515 C13.1270137,13.6767516 12.8998913,14.2533981 12.5231063,14.6995219 C12.7789467,14.8250639 12.9795704,14.9236337 13.1249775,14.9952315 C13.7408348,15.2984766 14.0453557,16.0975303 14.4279437,16.7549194 C14.9285472,16.99183 15.5737862,16.9469675 16.3636605,16.620332 C17.1081656,16.1467082 18.2585012,16.1186869 19.814667,16.5362681 C18.426202,16.2875745 17.2758665,16.4592625 16.3636605,17.051332 C15.8067862,17.4127725 15.3383085,17.5191037 14.9811483,17.511432 C15.6105311,18.1987169 16.4873656,18.7087871 17.6116517,19.0416427 C16.8466188,18.9099513 16.1885094,18.7279386 15.6373236,18.4956045 C15.7724282,19.0382656 16.0735481,19.492307 16.4949427,19.9429045 C16.698326,20.1603823 17.0694933,20.4791083 17.6084447,20.8990825 C16.3029877,20.0477167 15.5529952,19.2221735 15.3584671,18.4224531 C15.3325096,18.3898471 15.3085023,18.3602404 15.286445,18.3336332 Z" id="Combined-Shape" fill="#000000"></path>
                    <ellipse id="nucleus" fill="#FFFFFF" cx="11.9742248" cy="12.8060864" rx="1" ry="1.109042"></ellipse>
                </g>
            </g>
        </g>
    </g>
</svg>